G04*
G04 #@! TF.GenerationSoftware,Altium Limited,Altium Designer,24.4.1 (13)*
G04*
G04 Layer_Physical_Order=1*
G04 Layer_Color=255*
%FSLAX43Y43*%
%MOMM*%
G71*
G04*
G04 #@! TF.SameCoordinates,2DE5EF95-E663-491B-9A70-27DC17531A01*
G04*
G04*
G04 #@! TF.FilePolarity,Positive*
G04*
G01*
G75*
%ADD10C,0.200*%
%ADD12C,0.250*%
%ADD13C,0.178*%
%ADD14C,0.150*%
%ADD15C,0.100*%
%ADD16C,0.127*%
%ADD17C,0.180*%
%ADD18C,0.350*%
G04:AMPARAMS|DCode=19|XSize=0.9mm|YSize=0.8mm|CornerRadius=0.2mm|HoleSize=0mm|Usage=FLASHONLY|Rotation=180.000|XOffset=0mm|YOffset=0mm|HoleType=Round|Shape=RoundedRectangle|*
%AMROUNDEDRECTD19*
21,1,0.900,0.400,0,0,180.0*
21,1,0.500,0.800,0,0,180.0*
1,1,0.400,-0.250,0.200*
1,1,0.400,0.250,0.200*
1,1,0.400,0.250,-0.200*
1,1,0.400,-0.250,-0.200*
%
%ADD19ROUNDEDRECTD19*%
%ADD20C,1.270*%
%ADD21R,0.800X0.800*%
%ADD22R,0.600X1.500*%
G04:AMPARAMS|DCode=23|XSize=0.9mm|YSize=0.8mm|CornerRadius=0.2mm|HoleSize=0mm|Usage=FLASHONLY|Rotation=270.000|XOffset=0mm|YOffset=0mm|HoleType=Round|Shape=RoundedRectangle|*
%AMROUNDEDRECTD23*
21,1,0.900,0.400,0,0,270.0*
21,1,0.500,0.800,0,0,270.0*
1,1,0.400,-0.200,-0.250*
1,1,0.400,-0.200,0.250*
1,1,0.400,0.200,0.250*
1,1,0.400,0.200,-0.250*
%
%ADD23ROUNDEDRECTD23*%
%ADD24R,1.050X0.650*%
%ADD25O,0.450X1.450*%
%ADD26O,1.450X0.450*%
%AMCUSTOMSHAPE39*
4,1,6,-4.394,-3.409,-4.394,-1.143,-4.394,1.905,-0.425,4.216,4.623,4.216,4.623,-3.409,-4.394,-3.409,0.0*%
%ADD39CUSTOMSHAPE39*%

%AMCUSTOMSHAPE40*
4,1,6,4.394,-3.409,4.394,-1.143,4.394,1.905,0.425,4.216,-4.623,4.216,-4.623,-3.409,4.394,-3.409,0.0*%
%ADD40CUSTOMSHAPE40*%

%ADD41C,0.400*%
%ADD42R,1.651X1.651*%
%ADD43C,1.651*%
G04:AMPARAMS|DCode=44|XSize=1.7mm|YSize=1.7mm|CornerRadius=0mm|HoleSize=0mm|Usage=FLASHONLY|Rotation=180.000|XOffset=0mm|YOffset=0mm|HoleType=Round|Shape=Octagon|*
%AMOCTAGOND44*
4,1,8,-0.850,0.425,-0.850,-0.425,-0.425,-0.850,0.425,-0.850,0.850,-0.425,0.850,0.425,0.425,0.850,-0.425,0.850,-0.850,0.425,0.0*
%
%ADD44OCTAGOND44*%

%ADD45C,1.700*%
%ADD46C,0.800*%
G36*
X15283Y42370D02*
X15411Y42160D01*
X15405Y42130D01*
X15405Y35274D01*
X15069Y35274D01*
X15069Y35449D01*
X14494Y36024D01*
X13344Y36024D01*
X12769Y35449D01*
X12769Y35096D01*
X12519Y35063D01*
X12451Y35318D01*
X12299Y35580D01*
X12085Y35794D01*
X11823Y35946D01*
X11531Y36024D01*
X11228Y36024D01*
X10935Y35946D01*
X10673Y35794D01*
X10459Y35580D01*
X10308Y35318D01*
X10296Y35274D01*
X10047Y35274D01*
X10047Y42130D01*
X10042Y42160D01*
X10169Y42370D01*
X10216Y42410D01*
X15236Y42410D01*
X15283Y42370D01*
X15283Y42370D02*
G37*
G36*
X12769Y34653D02*
X12769Y34299D01*
X13344Y33724D01*
X14494Y33724D01*
X15069Y34299D01*
X15069Y34407D01*
X15424Y34407D01*
X15428Y34388D01*
X15494Y34289D01*
X15594Y34223D01*
X15711Y34200D01*
X24728Y34200D01*
X24890Y33977D01*
X24890Y22739D01*
X24640Y22595D01*
X24564Y22639D01*
X24278Y22716D01*
X24069Y22716D01*
X24069Y26690D01*
X24193Y26715D01*
X24358Y26825D01*
X24469Y26991D01*
X24508Y27186D01*
X24508Y27586D01*
X24469Y27781D01*
X24358Y27946D01*
X24193Y28057D01*
X24057Y28084D01*
X24057Y28339D01*
X24173Y28362D01*
X24322Y28461D01*
X24422Y28610D01*
X24457Y28786D01*
X24457Y28836D01*
X23748Y28836D01*
X23748Y28986D01*
X23598Y28986D01*
X23598Y29645D01*
X23498Y29645D01*
X23322Y29610D01*
X23182Y29516D01*
X23173Y29510D01*
X22880Y29521D01*
X22863Y29546D01*
X22698Y29657D01*
X22502Y29696D01*
X22002Y29696D01*
X21807Y29657D01*
X21642Y29546D01*
X21531Y29381D01*
X21521Y29330D01*
X21004Y29330D01*
X20989Y29408D01*
X20879Y29573D01*
X20713Y29683D01*
X20705Y29685D01*
X20705Y29940D01*
X20713Y29941D01*
X20879Y30052D01*
X20989Y30217D01*
X21028Y30412D01*
X21028Y30812D01*
X20989Y31007D01*
X20879Y31173D01*
X20713Y31283D01*
X20701Y31286D01*
X20701Y31968D01*
X20779Y32020D01*
X20890Y32186D01*
X20929Y32381D01*
X20929Y32881D01*
X20890Y33076D01*
X20779Y33241D01*
X20614Y33352D01*
X20419Y33391D01*
X20019Y33391D01*
X19824Y33352D01*
X19659Y33241D01*
X19548Y33076D01*
X19546Y33068D01*
X19292Y33068D01*
X19290Y33076D01*
X19179Y33241D01*
X19014Y33352D01*
X18819Y33391D01*
X18419Y33391D01*
X18224Y33352D01*
X18059Y33241D01*
X17948Y33076D01*
X17946Y33064D01*
X15736Y33064D01*
X15570Y33031D01*
X15430Y32937D01*
X14170Y31678D01*
X13492Y31678D01*
X13400Y31739D01*
X13195Y31780D01*
X12195Y31780D01*
X11990Y31739D01*
X11899Y31678D01*
X11079Y31678D01*
X11073Y31679D01*
X10138Y31679D01*
X10132Y31678D01*
X9422Y31678D01*
X9256Y31645D01*
X9116Y31551D01*
X7556Y29991D01*
X7462Y29850D01*
X7429Y29684D01*
X7429Y24882D01*
X7415Y24868D01*
X6576Y24868D01*
X6574Y24871D01*
X6574Y25117D01*
X6510Y25354D01*
X6387Y25568D01*
X6213Y25742D01*
X6000Y25865D01*
X5762Y25929D01*
X5516Y25929D01*
X5278Y25865D01*
X5065Y25742D01*
X4891Y25568D01*
X4768Y25354D01*
X4704Y25117D01*
X4704Y24871D01*
X4768Y24633D01*
X4891Y24420D01*
X5065Y24245D01*
X5278Y24122D01*
X5516Y24059D01*
X5762Y24059D01*
X5929Y24103D01*
X6032Y24034D01*
X6198Y24001D01*
X7241Y24001D01*
X7302Y23895D01*
X7432Y23765D01*
X7592Y23673D01*
X7770Y23625D01*
X7954Y23625D01*
X8132Y23673D01*
X8292Y23765D01*
X8422Y23895D01*
X8435Y23917D01*
X8974Y23917D01*
X9042Y23816D01*
X9207Y23706D01*
X9402Y23667D01*
X9802Y23667D01*
X9997Y23706D01*
X10163Y23816D01*
X10273Y23982D01*
X10275Y23989D01*
X10529Y23989D01*
X10531Y23982D01*
X10642Y23816D01*
X10807Y23706D01*
X10894Y23688D01*
X10894Y21882D01*
X10208Y21882D01*
X10123Y22009D01*
X9958Y22119D01*
X9763Y22158D01*
X9263Y22158D01*
X9068Y22119D01*
X8903Y22009D01*
X8792Y21843D01*
X8753Y21648D01*
X8753Y21248D01*
X8792Y21053D01*
X8903Y20888D01*
X9068Y20777D01*
X9076Y20776D01*
X9076Y20521D01*
X9068Y20519D01*
X8903Y20409D01*
X8792Y20243D01*
X8753Y20048D01*
X8753Y19648D01*
X8739Y19631D01*
X8102Y19631D01*
X8102Y19723D01*
X8062Y19928D01*
X7945Y20102D01*
X7772Y20218D01*
X7567Y20259D01*
X7350Y20470D01*
X7350Y21670D01*
X7445Y21733D01*
X7555Y21899D01*
X7594Y22094D01*
X7594Y22594D01*
X7555Y22789D01*
X7445Y22954D01*
X7279Y23065D01*
X7084Y23104D01*
X6684Y23104D01*
X6489Y23065D01*
X6324Y22954D01*
X6213Y22789D01*
X6212Y22781D01*
X5957Y22781D01*
X5955Y22789D01*
X5845Y22954D01*
X5679Y23065D01*
X5484Y23104D01*
X5084Y23104D01*
X4889Y23065D01*
X4724Y22954D01*
X4622Y22803D01*
X2049Y22803D01*
X1883Y22770D01*
X1803Y22716D01*
X510Y22716D01*
X510Y34010D01*
X725Y34200D01*
X9742Y34200D01*
X9859Y34223D01*
X9958Y34289D01*
X10024Y34388D01*
X10028Y34407D01*
X10321Y34407D01*
X10459Y34168D01*
X10673Y33954D01*
X10935Y33803D01*
X11228Y33724D01*
X11531Y33724D01*
X11823Y33803D01*
X12085Y33954D01*
X12299Y34168D01*
X12451Y34430D01*
X12519Y34686D01*
X12769Y34653D01*
X12769Y34653D02*
G37*
G36*
X17948Y32186D02*
X18059Y32020D01*
X18120Y31979D01*
X18105Y31828D01*
X18056Y31721D01*
X17910Y31692D01*
X17753Y31587D01*
X17648Y31430D01*
X17641Y31395D01*
X18595Y31395D01*
X18595Y31130D01*
X18095Y31130D01*
X17918Y31095D01*
X17641Y31095D01*
X17648Y31059D01*
X17711Y30965D01*
X17601Y30799D01*
X17560Y30595D01*
X17601Y30390D01*
X17681Y30270D01*
X17601Y30149D01*
X17560Y29945D01*
X17601Y29740D01*
X17681Y29620D01*
X17601Y29499D01*
X17560Y29295D01*
X17601Y29090D01*
X17717Y28916D01*
X17890Y28800D01*
X18095Y28759D01*
X18257Y28759D01*
X18257Y28389D01*
X18054Y28213D01*
X17826Y28216D01*
X17661Y28326D01*
X17466Y28365D01*
X16966Y28365D01*
X16771Y28326D01*
X16605Y28216D01*
X16481Y28216D01*
X16277Y28392D01*
X16277Y28734D01*
X16293Y28743D01*
X16423Y28874D01*
X16515Y29033D01*
X16563Y29211D01*
X16563Y29396D01*
X16515Y29574D01*
X16423Y29733D01*
X16293Y29864D01*
X16133Y29956D01*
X15955Y30003D01*
X15771Y30003D01*
X15593Y29956D01*
X15433Y29864D01*
X15303Y29733D01*
X15211Y29574D01*
X15207Y29558D01*
X14957Y29591D01*
X14957Y29615D01*
X14924Y29780D01*
X14830Y29921D01*
X14170Y30580D01*
X14266Y30811D01*
X14350Y30811D01*
X14516Y30844D01*
X14656Y30938D01*
X15915Y32197D01*
X17946Y32197D01*
X17948Y32186D01*
X17948Y32186D02*
G37*
G36*
X12022Y20700D02*
X12016Y20639D01*
X11840Y20428D01*
X11656Y20428D01*
X11478Y20380D01*
X11318Y20288D01*
X11188Y20157D01*
X11096Y19998D01*
X11048Y19820D01*
X11048Y19635D01*
X11096Y19457D01*
X11188Y19298D01*
X11318Y19167D01*
X11478Y19075D01*
X11656Y19028D01*
X11840Y19028D01*
X12018Y19075D01*
X12178Y19167D01*
X12308Y19298D01*
X12350Y19370D01*
X13347Y19370D01*
X13601Y19116D01*
X13601Y18557D01*
X13434Y18390D01*
X13205Y18340D01*
X12914Y18340D01*
X12914Y17340D01*
X12614Y17340D01*
X12614Y18340D01*
X12323Y18340D01*
X12094Y18390D01*
X11985Y18390D01*
X10894Y18390D01*
X10894Y16638D01*
X10691Y16423D01*
X10436Y16423D01*
X10390Y16457D01*
X10256Y16651D01*
X10253Y16666D01*
X10273Y16765D01*
X10273Y17165D01*
X10234Y17361D01*
X10123Y17526D01*
X9958Y17636D01*
X9950Y17638D01*
X9950Y17893D01*
X9958Y17894D01*
X10123Y18005D01*
X10234Y18170D01*
X10273Y18365D01*
X10273Y18765D01*
X10234Y18961D01*
X10123Y19126D01*
X10123Y19288D01*
X10234Y19453D01*
X10273Y19648D01*
X10273Y20048D01*
X10234Y20243D01*
X10123Y20409D01*
X9958Y20519D01*
X9950Y20521D01*
X9950Y20776D01*
X9958Y20777D01*
X10123Y20888D01*
X10208Y21015D01*
X11708Y21015D01*
X12022Y20700D01*
X12022Y20700D02*
G37*
G36*
X20012Y24892D02*
X20190Y24844D01*
X20262Y24844D01*
X21044Y24062D01*
X21044Y24062D01*
X21044Y19868D01*
X20812Y19662D01*
X20712Y19662D01*
X20712Y19004D01*
X20562Y19004D01*
X20562Y18854D01*
X19853Y18854D01*
X19853Y18804D01*
X19888Y18628D01*
X19988Y18479D01*
X20136Y18380D01*
X20253Y18357D01*
X20253Y18102D01*
X20117Y18075D01*
X19964Y17973D01*
X19893Y17987D01*
X19714Y18059D01*
X19714Y18390D01*
X19025Y18390D01*
X18958Y18640D01*
X19036Y18685D01*
X19166Y18815D01*
X19258Y18975D01*
X19306Y19153D01*
X19306Y19337D01*
X19258Y19515D01*
X19166Y19675D01*
X19036Y19805D01*
X18876Y19897D01*
X18698Y19945D01*
X18514Y19945D01*
X18362Y20139D01*
X18358Y20162D01*
X19421Y21225D01*
X19515Y21365D01*
X19548Y21531D01*
X19548Y21690D01*
X19714Y21690D01*
X19714Y23790D01*
X19548Y23790D01*
X19548Y24151D01*
X19515Y24316D01*
X19495Y24345D01*
X19554Y24447D01*
X19617Y24685D01*
X19617Y24866D01*
X19790Y24967D01*
X19857Y24982D01*
X20012Y24892D01*
X20012Y24892D02*
G37*
G36*
X4062Y21687D02*
X3962Y21538D01*
X3927Y21363D01*
X3927Y21313D01*
X4636Y21313D01*
X4636Y21013D01*
X3927Y21013D01*
X3927Y20963D01*
X3962Y20787D01*
X4062Y20638D01*
X4211Y20539D01*
X4327Y20516D01*
X4327Y20261D01*
X4191Y20234D01*
X4026Y20123D01*
X3915Y19958D01*
X3876Y19763D01*
X3876Y19363D01*
X3915Y19168D01*
X4026Y19002D01*
X4101Y18952D01*
X4101Y13563D01*
X3389Y12851D01*
X3275Y12870D01*
X3139Y12941D01*
X3139Y15074D01*
X3106Y15240D01*
X3012Y15381D01*
X2318Y16075D01*
X2319Y16076D01*
X2395Y16362D01*
X2395Y16658D01*
X2319Y16944D01*
X2171Y17201D01*
X1961Y17411D01*
X1704Y17559D01*
X1418Y17636D01*
X1122Y17636D01*
X836Y17559D01*
X760Y17515D01*
X510Y17659D01*
X510Y17901D01*
X760Y18045D01*
X836Y18001D01*
X1122Y17925D01*
X1418Y17925D01*
X1704Y18001D01*
X1961Y18149D01*
X2171Y18359D01*
X2319Y18616D01*
X2395Y18902D01*
X2395Y19198D01*
X2319Y19484D01*
X2171Y19741D01*
X1961Y19951D01*
X1704Y20099D01*
X1418Y20176D01*
X1122Y20176D01*
X836Y20099D01*
X760Y20055D01*
X510Y20199D01*
X510Y20465D01*
X2395Y20465D01*
X2395Y21936D01*
X3984Y21936D01*
X4062Y21687D01*
X4062Y21687D02*
G37*
G36*
X21044Y14561D02*
X21044Y10978D01*
X20812Y10772D01*
X20712Y10772D01*
X20712Y10114D01*
X20562Y10114D01*
X20562Y9964D01*
X19853Y9964D01*
X19853Y9914D01*
X19888Y9738D01*
X19701Y9569D01*
X18514Y9569D01*
X18514Y9569D01*
X18442Y9578D01*
X18399Y9819D01*
X18430Y9849D01*
X18522Y10009D01*
X18570Y10187D01*
X18570Y10371D01*
X18522Y10549D01*
X18430Y10709D01*
X18299Y10839D01*
X18140Y10931D01*
X17962Y10979D01*
X17777Y10979D01*
X17599Y10931D01*
X17440Y10839D01*
X17364Y10763D01*
X16665Y11461D01*
X16524Y11555D01*
X16359Y11588D01*
X13896Y11588D01*
X13452Y12033D01*
X13448Y12035D01*
X13524Y12285D01*
X18785Y12285D01*
X18951Y12318D01*
X19092Y12412D01*
X19421Y12741D01*
X19506Y12869D01*
X19714Y12869D01*
X19714Y14500D01*
X19964Y14645D01*
X19973Y14640D01*
X20210Y14576D01*
X20456Y14576D01*
X20694Y14640D01*
X20794Y14697D01*
X21044Y14561D01*
X21044Y14561D02*
G37*
G36*
X8331Y13917D02*
X8497Y13884D01*
X8978Y13884D01*
X9055Y13770D01*
X9220Y13659D01*
X9228Y13657D01*
X9228Y13403D01*
X9220Y13401D01*
X9055Y13291D01*
X8944Y13125D01*
X8906Y12930D01*
X8906Y12530D01*
X8944Y12335D01*
X9055Y12170D01*
X9220Y12059D01*
X9246Y12054D01*
X9373Y11776D01*
X9369Y11768D01*
X9321Y11590D01*
X9321Y11406D01*
X9335Y11352D01*
X9183Y11123D01*
X9152Y11106D01*
X9141Y11106D01*
X8963Y11058D01*
X8846Y10991D01*
X8697Y11041D01*
X8596Y11112D01*
X8596Y11185D01*
X8558Y11380D01*
X8447Y11545D01*
X8282Y11656D01*
X8087Y11694D01*
X7587Y11694D01*
X7533Y11684D01*
X7522Y11689D01*
X7340Y11899D01*
X7350Y11950D01*
X7350Y12127D01*
X7567Y12339D01*
X7752Y12376D01*
X7909Y12481D01*
X8014Y12638D01*
X8051Y12823D01*
X8051Y13173D01*
X7567Y13173D01*
X7567Y13473D01*
X8051Y13473D01*
X8051Y13804D01*
X8100Y13850D01*
X8281Y13951D01*
X8331Y13917D01*
X8331Y13917D02*
G37*
G36*
X8580Y10141D02*
X8581Y10136D01*
X8673Y9976D01*
X8804Y9846D01*
X8963Y9754D01*
X9141Y9706D01*
X9326Y9706D01*
X9504Y9754D01*
X9663Y9846D01*
X9738Y9920D01*
X10197Y9920D01*
X10261Y9838D01*
X10261Y9653D01*
X10309Y9475D01*
X10401Y9316D01*
X10531Y9185D01*
X10691Y9093D01*
X10869Y9045D01*
X10894Y9045D01*
X10894Y7646D01*
X5527Y7646D01*
X5527Y8740D01*
X5608Y8794D01*
X5864Y8860D01*
X5927Y8818D01*
X6013Y8761D01*
X6189Y8726D01*
X6289Y8726D01*
X6289Y9385D01*
X6589Y9385D01*
X6589Y8726D01*
X6689Y8726D01*
X6864Y8761D01*
X7013Y8860D01*
X7262Y8860D01*
X7411Y8761D01*
X7587Y8726D01*
X7687Y8726D01*
X7687Y9385D01*
X7837Y9385D01*
X7837Y9535D01*
X8545Y9535D01*
X8545Y9585D01*
X8510Y9760D01*
X8411Y9909D01*
X8336Y9959D01*
X8302Y10038D01*
X8297Y10157D01*
X8318Y10249D01*
X8338Y10257D01*
X8580Y10141D01*
X8580Y10141D02*
G37*
G36*
X22155Y5253D02*
X21578Y4675D01*
X19014Y4675D01*
X18980Y4726D01*
X18814Y4836D01*
X18619Y4875D01*
X18119Y4875D01*
X17924Y4836D01*
X17904Y4823D01*
X17660Y4808D01*
X17660Y4808D01*
X16010Y4808D01*
X16010Y3558D01*
X17660Y3558D01*
X17660Y3558D01*
X17893Y3516D01*
X17924Y3494D01*
X18060Y3467D01*
X18060Y3212D01*
X17944Y3189D01*
X17795Y3090D01*
X17695Y2941D01*
X17661Y2765D01*
X17661Y2715D01*
X18369Y2715D01*
X19078Y2715D01*
X19078Y2765D01*
X19043Y2941D01*
X18944Y3090D01*
X18795Y3189D01*
X18678Y3212D01*
X18678Y3467D01*
X18814Y3494D01*
X18980Y3605D01*
X19014Y3656D01*
X21789Y3656D01*
X21984Y3694D01*
X22150Y3805D01*
X23664Y5319D01*
X23696Y5301D01*
X23982Y5225D01*
X24278Y5225D01*
X24564Y5301D01*
X24640Y5345D01*
X24890Y5201D01*
X24890Y4902D01*
X24640Y4757D01*
X24545Y4812D01*
X24280Y4883D01*
X24280Y3810D01*
X24280Y2737D01*
X24545Y2808D01*
X24742Y2633D01*
X24750Y2611D01*
X22649Y510D01*
X510Y510D01*
X510Y2718D01*
X760Y2863D01*
X855Y2808D01*
X1120Y2737D01*
X1120Y3810D01*
X1270Y3810D01*
X1270Y3960D01*
X2343Y3960D01*
X2272Y4225D01*
X2206Y4339D01*
X2406Y4493D01*
X2499Y4400D01*
X2664Y4290D01*
X2859Y4251D01*
X5355Y4251D01*
X5422Y4150D01*
X5553Y4063D01*
X5586Y3905D01*
X5585Y3786D01*
X5553Y3765D01*
X4203Y3765D01*
X4203Y2365D01*
X4203Y2365D01*
X4233Y2115D01*
X4181Y2037D01*
X4142Y1842D01*
X4142Y1342D01*
X4181Y1147D01*
X4292Y982D01*
X4457Y871D01*
X4652Y832D01*
X5052Y832D01*
X5247Y871D01*
X5413Y982D01*
X5523Y1147D01*
X5550Y1283D01*
X5805Y1283D01*
X5828Y1166D01*
X5928Y1018D01*
X6077Y918D01*
X6252Y883D01*
X6302Y883D01*
X6302Y1592D01*
X6452Y1592D01*
X6452Y1742D01*
X7111Y1742D01*
X7111Y1842D01*
X7076Y2018D01*
X7011Y2115D01*
X7072Y2297D01*
X7122Y2365D01*
X7203Y2365D01*
X7203Y3006D01*
X7943Y3746D01*
X8054Y3912D01*
X8092Y4107D01*
X8322Y4166D01*
X8429Y4165D01*
X8560Y4077D01*
X8696Y4050D01*
X8696Y3795D01*
X8579Y3772D01*
X8431Y3673D01*
X8331Y3524D01*
X8296Y3348D01*
X8296Y3298D01*
X9005Y3298D01*
X9714Y3298D01*
X9714Y3348D01*
X9679Y3524D01*
X9579Y3673D01*
X9431Y3772D01*
X9314Y3795D01*
X9314Y4050D01*
X9450Y4077D01*
X9615Y4188D01*
X9658Y4251D01*
X9939Y4251D01*
X10007Y4150D01*
X10172Y4040D01*
X10367Y4001D01*
X10767Y4001D01*
X10962Y4040D01*
X11128Y4150D01*
X11238Y4316D01*
X11482Y4265D01*
X11560Y4220D01*
X11607Y4150D01*
X11772Y4040D01*
X11967Y4001D01*
X12206Y4001D01*
X13335Y2872D01*
X13500Y2762D01*
X13695Y2723D01*
X13710Y2723D01*
X13710Y2608D01*
X15360Y2608D01*
X15360Y3858D01*
X13791Y3858D01*
X12877Y4772D01*
X12877Y5011D01*
X12838Y5206D01*
X12807Y5253D01*
X12941Y5503D01*
X13760Y5503D01*
X13760Y5283D01*
X14535Y5283D01*
X15310Y5283D01*
X15310Y5503D01*
X22052Y5503D01*
X22155Y5253D01*
X22155Y5253D02*
G37*
G36*
X22975Y23652D02*
X22975Y6443D01*
X22340Y5808D01*
X12409Y5808D01*
X12121Y5521D01*
X11967Y5521D01*
X11772Y5482D01*
X11607Y5371D01*
X11496Y5206D01*
X11457Y5011D01*
X11457Y4857D01*
X11226Y4626D01*
X11226Y5011D01*
X11191Y5187D01*
X11092Y5335D01*
X10943Y5435D01*
X10767Y5470D01*
X10717Y5470D01*
X10717Y4761D01*
X10417Y4761D01*
X10417Y5470D01*
X10367Y5470D01*
X10192Y5435D01*
X10043Y5335D01*
X10000Y5271D01*
X9581Y5271D01*
X9579Y5273D01*
X9431Y5372D01*
X9255Y5407D01*
X9155Y5407D01*
X9155Y4748D01*
X8855Y4748D01*
X8855Y5407D01*
X8755Y5407D01*
X8579Y5372D01*
X8431Y5273D01*
X8429Y5271D01*
X8150Y5271D01*
X8107Y5335D01*
X7958Y5435D01*
X7783Y5470D01*
X7733Y5470D01*
X7733Y4761D01*
X7583Y4761D01*
X7583Y4611D01*
X6924Y4611D01*
X6924Y4588D01*
X6692Y4819D01*
X6692Y5011D01*
X6654Y5206D01*
X6543Y5371D01*
X6378Y5482D01*
X6183Y5521D01*
X5991Y5521D01*
X5703Y5808D01*
X2820Y5808D01*
X2820Y7340D01*
X20849Y7340D01*
X21349Y7840D01*
X21349Y8221D01*
X21349Y24062D01*
X21349Y24062D01*
X21349Y24062D01*
X21349Y24478D01*
X21570Y24596D01*
X22975Y23652D01*
X22975Y23652D02*
G37*
G36*
X224613Y-109042D02*
X224697Y-109070D01*
X224810Y-109112D01*
X224909Y-109169D01*
X224994Y-109267D01*
X225050Y-109408D01*
X225078Y-109578D01*
X225078Y-109606D01*
X225064Y-109662D01*
X225050Y-109761D01*
X225008Y-109860D01*
X224951Y-109973D01*
X224852Y-110058D01*
X224711Y-110128D01*
X224528Y-110156D01*
X224486Y-110156D01*
X224443Y-110142D01*
X224387Y-110128D01*
X224246Y-110086D01*
X224175Y-110043D01*
X224105Y-109987D01*
X224105Y-109973D01*
X224076Y-109959D01*
X224020Y-109874D01*
X223964Y-109747D01*
X223949Y-109662D01*
X223935Y-109578D01*
X223935Y-109564D01*
X223935Y-109535D01*
X223949Y-109493D01*
X223964Y-109451D01*
X224020Y-109324D01*
X224062Y-109253D01*
X224119Y-109197D01*
X224133Y-109183D01*
X224147Y-109169D01*
X224232Y-109112D01*
X224359Y-109056D01*
X224443Y-109028D01*
X224556Y-109028D01*
X224613Y-109042D01*
X224613Y-109042D02*
G37*
G36*
X221001Y-108548D02*
X221113Y-108562D01*
X221255Y-108562D01*
X221396Y-108590D01*
X221720Y-108632D01*
X222073Y-108717D01*
X222426Y-108816D01*
X222778Y-108957D01*
X225939Y-113994D01*
X225939Y-114008D01*
X225939Y-114036D01*
X225925Y-114093D01*
X225925Y-114149D01*
X225911Y-114234D01*
X225897Y-114333D01*
X225854Y-114544D01*
X225854Y-114559D01*
X225840Y-114601D01*
X225826Y-114657D01*
X225812Y-114728D01*
X225784Y-114827D01*
X225756Y-114925D01*
X225685Y-115165D01*
X222934Y-110862D01*
X222919Y-110848D01*
X222905Y-110805D01*
X222849Y-110749D01*
X222792Y-110692D01*
X222722Y-110636D01*
X222637Y-110580D01*
X222553Y-110537D01*
X222440Y-110523D01*
X222397Y-110523D01*
X222355Y-110537D01*
X222299Y-110565D01*
X222228Y-110608D01*
X222143Y-110664D01*
X222073Y-110735D01*
X221988Y-110848D01*
X221071Y-112103D01*
X224302Y-117197D01*
X224288Y-117211D01*
X224232Y-117253D01*
X224147Y-117324D01*
X224034Y-117409D01*
X223879Y-117522D01*
X223695Y-117634D01*
X223498Y-117761D01*
X223258Y-117888D01*
X223004Y-118015D01*
X222708Y-118142D01*
X222412Y-118255D01*
X222073Y-118368D01*
X221720Y-118453D01*
X221353Y-118523D01*
X220972Y-118566D01*
X220563Y-118580D01*
X220464Y-118580D01*
X220352Y-118566D01*
X220196Y-118552D01*
X219999Y-118523D01*
X219773Y-118495D01*
X219533Y-118439D01*
X219251Y-118368D01*
X218969Y-118283D01*
X218658Y-118171D01*
X218334Y-118044D01*
X218009Y-117888D01*
X217685Y-117691D01*
X217360Y-117479D01*
X217050Y-117225D01*
X216739Y-116929D01*
X218108Y-115038D01*
X218122Y-115024D01*
X218136Y-114968D01*
X218165Y-114883D01*
X218179Y-114812D01*
X218193Y-114728D01*
X218193Y-114700D01*
X218179Y-114629D01*
X218136Y-114502D01*
X218052Y-114347D01*
X217036Y-112752D01*
X215526Y-114855D01*
X215526Y-114841D01*
X215512Y-114827D01*
X215498Y-114742D01*
X215470Y-114615D01*
X215441Y-114446D01*
X215399Y-114234D01*
X215371Y-114008D01*
X215357Y-113740D01*
X215343Y-113472D01*
X215343Y-113444D01*
X215343Y-113387D01*
X215357Y-113275D01*
X215371Y-113148D01*
X215385Y-112978D01*
X215413Y-112781D01*
X215470Y-112555D01*
X215526Y-112315D01*
X215597Y-112061D01*
X215695Y-111779D01*
X215822Y-111497D01*
X215949Y-111215D01*
X216119Y-110932D01*
X216316Y-110636D01*
X216542Y-110354D01*
X216796Y-110086D01*
X216810Y-110072D01*
X216866Y-110015D01*
X216951Y-109945D01*
X217078Y-109846D01*
X217233Y-109719D01*
X217417Y-109592D01*
X217628Y-109451D01*
X217868Y-109310D01*
X218136Y-109169D01*
X218433Y-109028D01*
X218757Y-108886D01*
X219096Y-108774D01*
X219463Y-108675D01*
X219858Y-108604D01*
X220267Y-108548D01*
X220704Y-108534D01*
X220902Y-108534D01*
X221001Y-108548D01*
X221001Y-108548D02*
G37*
G36*
X226249Y-120005D02*
X226320Y-120019D01*
X226376Y-120033D01*
X226390Y-120033D01*
X226419Y-120047D01*
X226517Y-120090D01*
X226574Y-120146D01*
X226616Y-120202D01*
X226659Y-120273D01*
X226687Y-120372D01*
X226687Y-120386D01*
X226701Y-120400D01*
X226701Y-120442D01*
X226715Y-120513D01*
X226715Y-120583D01*
X226729Y-120682D01*
X226729Y-120795D01*
X226729Y-120922D01*
X224838Y-120880D01*
X224824Y-120880D01*
X224768Y-120894D01*
X224697Y-120908D01*
X224627Y-120964D01*
X224542Y-121035D01*
X224472Y-121162D01*
X224443Y-121247D01*
X224415Y-121345D01*
X224401Y-121444D01*
X224401Y-121571D01*
X224401Y-121952D01*
X224401Y-121966D01*
X224401Y-121980D01*
X224415Y-122065D01*
X224429Y-122164D01*
X224457Y-122291D01*
X224500Y-122418D01*
X224584Y-122531D01*
X224683Y-122615D01*
X224754Y-122629D01*
X224824Y-122643D01*
X226757Y-122643D01*
X226757Y-122672D01*
X226757Y-122728D01*
X226757Y-122827D01*
X226743Y-122940D01*
X226729Y-123053D01*
X226715Y-123165D01*
X226687Y-123264D01*
X226644Y-123335D01*
X226644Y-123349D01*
X226616Y-123363D01*
X226574Y-123391D01*
X226517Y-123419D01*
X226433Y-123462D01*
X226320Y-123490D01*
X226179Y-123504D01*
X226009Y-123518D01*
X224599Y-123518D01*
X224486Y-123504D01*
X224345Y-123476D01*
X224203Y-123434D01*
X224048Y-123363D01*
X223921Y-123278D01*
X223822Y-123151D01*
X223822Y-123137D01*
X223794Y-123095D01*
X223766Y-123024D01*
X223738Y-122940D01*
X223710Y-122813D01*
X223681Y-122672D01*
X223667Y-122488D01*
X223653Y-122291D01*
X223653Y-121247D01*
X223653Y-121232D01*
X223653Y-121204D01*
X223653Y-121162D01*
X223667Y-121105D01*
X223681Y-120964D01*
X223710Y-120781D01*
X223752Y-120597D01*
X223837Y-120414D01*
X223935Y-120259D01*
X224006Y-120188D01*
X224076Y-120132D01*
X224091Y-120132D01*
X224119Y-120104D01*
X224161Y-120090D01*
X224232Y-120061D01*
X224316Y-120033D01*
X224429Y-120019D01*
X224556Y-119991D01*
X226080Y-119991D01*
X226249Y-120005D01*
X226249Y-120005D02*
G37*
G36*
X230172Y-123490D02*
X229452Y-123490D01*
X229452Y-122178D01*
X227886Y-122178D01*
X227886Y-123490D01*
X227209Y-123490D01*
X227209Y-120033D01*
X227886Y-120033D01*
X227886Y-121247D01*
X229452Y-121247D01*
X229452Y-120033D01*
X230172Y-120033D01*
X230172Y-123490D01*
X230172Y-123490D02*
G37*
G36*
X210475Y-118904D02*
X210545Y-118918D01*
X210630Y-118961D01*
X210700Y-119017D01*
X210771Y-119116D01*
X210842Y-119243D01*
X210870Y-119426D01*
X211335Y-123490D01*
X210461Y-123490D01*
X210221Y-120569D01*
X210207Y-120569D01*
X209318Y-122911D01*
X209318Y-122926D01*
X209290Y-122968D01*
X209247Y-123038D01*
X209191Y-123109D01*
X209120Y-123180D01*
X209036Y-123250D01*
X208937Y-123292D01*
X208810Y-123307D01*
X208753Y-123307D01*
X208683Y-123278D01*
X208598Y-123250D01*
X208499Y-123208D01*
X208415Y-123137D01*
X208344Y-123038D01*
X208274Y-122911D01*
X207385Y-120612D01*
X207371Y-120612D01*
X207117Y-123490D01*
X206270Y-123490D01*
X206707Y-119384D01*
X206707Y-119356D01*
X206722Y-119299D01*
X206750Y-119229D01*
X206792Y-119130D01*
X206849Y-119045D01*
X206933Y-118961D01*
X207046Y-118904D01*
X207173Y-118890D01*
X207244Y-118890D01*
X207328Y-118918D01*
X207427Y-118947D01*
X207526Y-119003D01*
X207639Y-119088D01*
X207723Y-119201D01*
X207808Y-119356D01*
X208796Y-121867D01*
X208810Y-121867D01*
X209797Y-119356D01*
X209812Y-119342D01*
X209826Y-119285D01*
X209882Y-119215D01*
X209939Y-119116D01*
X210023Y-119031D01*
X210136Y-118961D01*
X210263Y-118904D01*
X210418Y-118890D01*
X210432Y-118890D01*
X210475Y-118904D01*
X210475Y-118904D02*
G37*
G36*
X234306Y-120047D02*
X234419Y-120061D01*
X234546Y-120104D01*
X234687Y-120174D01*
X234814Y-120273D01*
X234927Y-120414D01*
X235011Y-120612D01*
X235011Y-120626D01*
X235026Y-120654D01*
X235026Y-120710D01*
X235040Y-120781D01*
X235054Y-120866D01*
X235054Y-120964D01*
X235068Y-121091D01*
X235068Y-121218D01*
X235068Y-121486D01*
X235068Y-121515D01*
X235068Y-121585D01*
X235054Y-121698D01*
X235040Y-121825D01*
X235011Y-121980D01*
X234983Y-122135D01*
X234927Y-122262D01*
X234856Y-122389D01*
X234856Y-122404D01*
X234828Y-122418D01*
X234786Y-122460D01*
X234743Y-122502D01*
X234673Y-122545D01*
X234588Y-122573D01*
X234504Y-122601D01*
X234391Y-122615D01*
X232669Y-122615D01*
X232669Y-123490D01*
X231964Y-123490D01*
X231964Y-120033D01*
X234235Y-120033D01*
X234306Y-120047D01*
X234306Y-120047D02*
G37*
G36*
X231498Y-123490D02*
X230680Y-123490D01*
X230680Y-120033D01*
X231498Y-120033D01*
X231498Y-123490D01*
X231498Y-123490D02*
G37*
G36*
X218997Y-120047D02*
X219110Y-120090D01*
X219237Y-120160D01*
X219293Y-120217D01*
X219364Y-120287D01*
X219420Y-120372D01*
X219463Y-120470D01*
X219519Y-120583D01*
X219547Y-120724D01*
X219561Y-120880D01*
X219575Y-121063D01*
X219575Y-121275D01*
X219575Y-121289D01*
X219575Y-121303D01*
X219575Y-121388D01*
X219561Y-121515D01*
X219533Y-121656D01*
X219477Y-121797D01*
X219406Y-121938D01*
X219307Y-122051D01*
X219180Y-122135D01*
X219180Y-122150D01*
X219195Y-122150D01*
X219237Y-122178D01*
X219307Y-122220D01*
X219378Y-122291D01*
X219448Y-122389D01*
X219519Y-122516D01*
X219561Y-122686D01*
X219575Y-122911D01*
X219575Y-123490D01*
X218842Y-123490D01*
X218842Y-123081D01*
X218842Y-123067D01*
X218842Y-123038D01*
X218842Y-122982D01*
X218842Y-122926D01*
X218828Y-122813D01*
X218828Y-122756D01*
X218814Y-122714D01*
X218799Y-122700D01*
X218757Y-122643D01*
X218687Y-122601D01*
X218560Y-122587D01*
X217276Y-122587D01*
X217276Y-123490D01*
X216542Y-123490D01*
X216542Y-120033D01*
X218912Y-120033D01*
X218997Y-120047D01*
X218997Y-120047D02*
G37*
G36*
X212577Y-123490D02*
X211773Y-123490D01*
X211773Y-120033D01*
X212577Y-120033D01*
X212577Y-123490D01*
X212577Y-123490D02*
G37*
G36*
X222426Y-120005D02*
X222553Y-120033D01*
X222680Y-120061D01*
X222821Y-120118D01*
X222934Y-120202D01*
X223032Y-120301D01*
X223046Y-120315D01*
X223075Y-120358D01*
X223103Y-120428D01*
X223145Y-120527D01*
X223188Y-120668D01*
X223230Y-120823D01*
X223244Y-121007D01*
X223258Y-121232D01*
X223258Y-122277D01*
X223258Y-122291D01*
X223258Y-122319D01*
X223258Y-122361D01*
X223244Y-122432D01*
X223230Y-122587D01*
X223202Y-122784D01*
X223131Y-122982D01*
X223046Y-123180D01*
X222919Y-123335D01*
X222835Y-123405D01*
X222750Y-123448D01*
X222736Y-123448D01*
X222708Y-123462D01*
X222665Y-123476D01*
X222609Y-123476D01*
X222538Y-123490D01*
X222454Y-123504D01*
X222228Y-123518D01*
X220958Y-123518D01*
X220845Y-123504D01*
X220718Y-123476D01*
X220577Y-123434D01*
X220436Y-123377D01*
X220309Y-123292D01*
X220196Y-123180D01*
X220182Y-123165D01*
X220168Y-123123D01*
X220140Y-123053D01*
X220112Y-122954D01*
X220069Y-122841D01*
X220041Y-122686D01*
X220027Y-122488D01*
X220013Y-122277D01*
X220013Y-121232D01*
X220013Y-121218D01*
X220013Y-121190D01*
X220013Y-121134D01*
X220027Y-121063D01*
X220041Y-120894D01*
X220083Y-120696D01*
X220154Y-120485D01*
X220267Y-120301D01*
X220337Y-120217D01*
X220408Y-120146D01*
X220507Y-120090D01*
X220605Y-120047D01*
X220620Y-120047D01*
X220634Y-120033D01*
X220676Y-120033D01*
X220732Y-120019D01*
X220874Y-120005D01*
X221057Y-119991D01*
X222327Y-119991D01*
X222426Y-120005D01*
X222426Y-120005D02*
G37*
G36*
X215357Y-120005D02*
X215526Y-120005D01*
X215681Y-120019D01*
X215808Y-120047D01*
X215851Y-120061D01*
X215879Y-120075D01*
X215893Y-120075D01*
X215907Y-120104D01*
X215935Y-120146D01*
X215977Y-120217D01*
X216020Y-120315D01*
X216048Y-120456D01*
X216062Y-120640D01*
X216076Y-120880D01*
X214171Y-120880D01*
X214087Y-120894D01*
X213988Y-120936D01*
X213889Y-121021D01*
X213875Y-121049D01*
X213861Y-121077D01*
X213833Y-121134D01*
X213819Y-121204D01*
X213790Y-121303D01*
X213776Y-121430D01*
X213776Y-121571D01*
X213776Y-121952D01*
X213776Y-121966D01*
X213776Y-122023D01*
X213776Y-122093D01*
X213790Y-122164D01*
X213805Y-122347D01*
X213819Y-122418D01*
X213833Y-122474D01*
X213847Y-122502D01*
X213903Y-122559D01*
X213960Y-122587D01*
X214016Y-122615D01*
X214101Y-122629D01*
X214186Y-122643D01*
X216119Y-122643D01*
X216119Y-122672D01*
X216119Y-122728D01*
X216119Y-122813D01*
X216104Y-122911D01*
X216076Y-123137D01*
X216048Y-123236D01*
X216020Y-123307D01*
X216020Y-123321D01*
X215992Y-123335D01*
X215949Y-123377D01*
X215893Y-123405D01*
X215794Y-123448D01*
X215681Y-123490D01*
X215540Y-123504D01*
X215371Y-123518D01*
X213974Y-123518D01*
X213875Y-123504D01*
X213748Y-123476D01*
X213607Y-123448D01*
X213466Y-123405D01*
X213339Y-123335D01*
X213240Y-123236D01*
X213226Y-123222D01*
X213212Y-123180D01*
X213170Y-123109D01*
X213127Y-123010D01*
X213085Y-122883D01*
X213057Y-122714D01*
X213029Y-122516D01*
X213014Y-122277D01*
X213014Y-121232D01*
X213014Y-121218D01*
X213014Y-121190D01*
X213014Y-121134D01*
X213029Y-121063D01*
X213057Y-120880D01*
X213099Y-120668D01*
X213184Y-120456D01*
X213311Y-120259D01*
X213395Y-120174D01*
X213494Y-120104D01*
X213593Y-120047D01*
X213720Y-120019D01*
X213748Y-120019D01*
X213819Y-120005D01*
X213932Y-119991D01*
X215187Y-119991D01*
X215357Y-120005D01*
X215357Y-120005D02*
G37*
%LPC*%
G36*
X23998Y29645D02*
X23898Y29645D01*
X23898Y29136D01*
X24457Y29136D01*
X24457Y29186D01*
X24422Y29361D01*
X24322Y29510D01*
X24173Y29610D01*
X23998Y29645D01*
X23998Y29645D02*
G37*
G36*
X20412Y19662D02*
X20312Y19662D01*
X20136Y19628D01*
X19988Y19528D01*
X19888Y19379D01*
X19853Y19204D01*
X19853Y19154D01*
X20412Y19154D01*
X20412Y19662D01*
X20412Y19662D02*
G37*
G36*
X20412Y10772D02*
X20312Y10772D01*
X20136Y10738D01*
X19988Y10638D01*
X19888Y10489D01*
X19853Y10314D01*
X19853Y10264D01*
X20412Y10264D01*
X20412Y10772D01*
X20412Y10772D02*
G37*
G36*
X8545Y9235D02*
X7987Y9235D01*
X7987Y8726D01*
X8087Y8726D01*
X8262Y8761D01*
X8411Y8860D01*
X8510Y9009D01*
X8545Y9185D01*
X8545Y9235D01*
X8545Y9235D02*
G37*
G36*
X15310Y4983D02*
X14685Y4983D01*
X14685Y4558D01*
X15310Y4558D01*
X15310Y4983D01*
X15310Y4983D02*
G37*
G36*
X14385Y4983D02*
X13760Y4983D01*
X13760Y4558D01*
X14385Y4558D01*
X14385Y4983D01*
X14385Y4983D02*
G37*
G36*
X23980Y4883D02*
X23715Y4812D01*
X23470Y4671D01*
X23269Y4470D01*
X23128Y4225D01*
X23057Y3960D01*
X23980Y3960D01*
X23980Y4883D01*
X23980Y4883D02*
G37*
G36*
X23980Y3660D02*
X23057Y3660D01*
X23128Y3395D01*
X23269Y3150D01*
X23470Y2949D01*
X23715Y2808D01*
X23980Y2737D01*
X23980Y3660D01*
X23980Y3660D02*
G37*
G36*
X2343Y3660D02*
X1420Y3660D01*
X1420Y2737D01*
X1685Y2808D01*
X1930Y2949D01*
X2131Y3150D01*
X2272Y3395D01*
X2343Y3660D01*
X2343Y3660D02*
G37*
G36*
X9714Y2998D02*
X9155Y2998D01*
X9155Y2489D01*
X9255Y2489D01*
X9431Y2524D01*
X9579Y2624D01*
X9679Y2773D01*
X9714Y2948D01*
X9714Y2998D01*
X9714Y2998D02*
G37*
G36*
X8855Y2998D02*
X8296Y2998D01*
X8296Y2948D01*
X8331Y2773D01*
X8431Y2624D01*
X8579Y2524D01*
X8755Y2489D01*
X8855Y2489D01*
X8855Y2998D01*
X8855Y2998D02*
G37*
G36*
X19078Y2415D02*
X18519Y2415D01*
X18519Y1907D01*
X18619Y1907D01*
X18795Y1942D01*
X18944Y2041D01*
X19043Y2190D01*
X19078Y2365D01*
X19078Y2415D01*
X19078Y2415D02*
G37*
G36*
X18219Y2415D02*
X17661Y2415D01*
X17661Y2365D01*
X17695Y2190D01*
X17795Y2041D01*
X17944Y1942D01*
X18119Y1907D01*
X18219Y1907D01*
X18219Y2415D01*
X18219Y2415D02*
G37*
G36*
X7111Y1442D02*
X6602Y1442D01*
X6602Y883D01*
X6652Y883D01*
X6828Y918D01*
X6977Y1018D01*
X7076Y1166D01*
X7111Y1342D01*
X7111Y1442D01*
X7111Y1442D02*
G37*
G36*
X7433Y5470D02*
X7383Y5470D01*
X7207Y5435D01*
X7058Y5335D01*
X6959Y5187D01*
X6924Y5011D01*
X6924Y4911D01*
X7433Y4911D01*
X7433Y5470D01*
X7433Y5470D02*
G37*
G36*
X224528Y-109126D02*
X224457Y-109126D01*
X224373Y-109155D01*
X224288Y-109183D01*
X224189Y-109239D01*
X224119Y-109310D01*
X224062Y-109423D01*
X224034Y-109578D01*
X224034Y-109592D01*
X224034Y-109606D01*
X224048Y-109691D01*
X224091Y-109804D01*
X224175Y-109931D01*
X224203Y-109959D01*
X224274Y-110001D01*
X224387Y-110043D01*
X224528Y-110072D01*
X224542Y-110072D01*
X224599Y-110058D01*
X224669Y-110043D01*
X224768Y-110015D01*
X224852Y-109945D01*
X224923Y-109860D01*
X224979Y-109747D01*
X224994Y-109578D01*
X224994Y-109564D01*
X224994Y-109507D01*
X224965Y-109437D01*
X224937Y-109352D01*
X224881Y-109267D01*
X224796Y-109197D01*
X224683Y-109140D01*
X224528Y-109126D01*
X224528Y-109126D02*
G37*
%LPD*%
G36*
X224655Y-109282D02*
X224726Y-109338D01*
X224754Y-109380D01*
X224768Y-109451D01*
X224768Y-109465D01*
X224768Y-109479D01*
X224754Y-109550D01*
X224697Y-109606D01*
X224655Y-109634D01*
X224599Y-109648D01*
X224782Y-109931D01*
X224669Y-109931D01*
X224500Y-109648D01*
X224387Y-109648D01*
X224387Y-109931D01*
X224288Y-109931D01*
X224288Y-109253D01*
X224570Y-109253D01*
X224655Y-109282D01*
X224655Y-109282D02*
G37*
%LPC*%
G36*
X224556Y-109352D02*
X224387Y-109352D01*
X224387Y-109564D01*
X224570Y-109564D01*
X224613Y-109550D01*
X224641Y-109521D01*
X224655Y-109451D01*
X224655Y-109437D01*
X224641Y-109394D01*
X224613Y-109366D01*
X224556Y-109352D01*
X224556Y-109352D02*
G37*
G36*
X218870Y-110509D02*
X218828Y-110509D01*
X218771Y-110523D01*
X218715Y-110551D01*
X218644Y-110594D01*
X218560Y-110650D01*
X218475Y-110721D01*
X218390Y-110834D01*
X217501Y-112089D01*
X220196Y-116365D01*
X220210Y-116379D01*
X220239Y-116421D01*
X220281Y-116492D01*
X220337Y-116548D01*
X220408Y-116619D01*
X220493Y-116689D01*
X220563Y-116731D01*
X220648Y-116746D01*
X220690Y-116746D01*
X220747Y-116731D01*
X220803Y-116703D01*
X220874Y-116675D01*
X220958Y-116633D01*
X221043Y-116562D01*
X221113Y-116463D01*
X222059Y-115109D01*
X219350Y-110848D01*
X219336Y-110834D01*
X219307Y-110791D01*
X219265Y-110735D01*
X219209Y-110678D01*
X219138Y-110622D01*
X219053Y-110565D01*
X218969Y-110523D01*
X218870Y-110509D01*
X218870Y-110509D02*
G37*
G36*
X234038Y-120866D02*
X232669Y-120866D01*
X232669Y-121740D01*
X234123Y-121740D01*
X234151Y-121726D01*
X234193Y-121698D01*
X234235Y-121656D01*
X234278Y-121585D01*
X234292Y-121501D01*
X234306Y-121388D01*
X234306Y-121247D01*
X234306Y-121232D01*
X234306Y-121190D01*
X234292Y-121120D01*
X234278Y-121049D01*
X234235Y-120993D01*
X234193Y-120922D01*
X234123Y-120880D01*
X234038Y-120866D01*
X234038Y-120866D02*
G37*
G36*
X218531Y-120866D02*
X217276Y-120866D01*
X217276Y-121726D01*
X218644Y-121726D01*
X218687Y-121712D01*
X218743Y-121684D01*
X218799Y-121642D01*
X218842Y-121571D01*
X218870Y-121486D01*
X218884Y-121359D01*
X218884Y-121247D01*
X218884Y-121232D01*
X218884Y-121190D01*
X218870Y-121120D01*
X218842Y-121049D01*
X218799Y-120993D01*
X218729Y-120922D01*
X218644Y-120880D01*
X218531Y-120866D01*
X218531Y-120866D02*
G37*
G36*
X222129Y-120866D02*
X221170Y-120866D01*
X221085Y-120880D01*
X220972Y-120936D01*
X220916Y-120964D01*
X220874Y-121021D01*
X220859Y-121049D01*
X220845Y-121091D01*
X220817Y-121148D01*
X220803Y-121218D01*
X220775Y-121317D01*
X220761Y-121430D01*
X220761Y-121571D01*
X220761Y-121952D01*
X220761Y-121966D01*
X220761Y-122023D01*
X220761Y-122079D01*
X220775Y-122164D01*
X220789Y-122347D01*
X220803Y-122432D01*
X220831Y-122502D01*
X220845Y-122531D01*
X220902Y-122573D01*
X221001Y-122615D01*
X221071Y-122643D01*
X222101Y-122643D01*
X222158Y-122629D01*
X222228Y-122601D01*
X222313Y-122559D01*
X222397Y-122474D01*
X222468Y-122347D01*
X222496Y-122277D01*
X222524Y-122178D01*
X222538Y-122079D01*
X222538Y-121952D01*
X222538Y-121571D01*
X222538Y-121557D01*
X222538Y-121501D01*
X222538Y-121444D01*
X222524Y-121359D01*
X222482Y-121176D01*
X222440Y-121091D01*
X222397Y-121021D01*
X222397Y-121007D01*
X222369Y-120993D01*
X222299Y-120936D01*
X222200Y-120894D01*
X222129Y-120866D01*
X222129Y-120866D02*
G37*
%LPD*%
D10*
X303544Y-108490D02*
X302770Y-108490D01*
X302770Y-109740D01*
X303544Y-109740D01*
X302770Y-109085D02*
X303246Y-109085D01*
X303752Y-108490D02*
X304228Y-109740D01*
X304704Y-108490D02*
X304228Y-109740D01*
X305162Y-108490D02*
X305162Y-109204D01*
X304865Y-108669D02*
X305460Y-109026D01*
X305460Y-108669D02*
X304865Y-109026D01*
X306013Y-108490D02*
X306013Y-109204D01*
X305716Y-108669D02*
X306311Y-109026D01*
X306311Y-108669D02*
X305716Y-109026D01*
D12*
X10610Y15545D02*
X11430Y15545D01*
X10491Y15664D02*
X10610Y15545D01*
X11405Y17250D02*
X11430Y17225D01*
X11430Y15545D02*
X11430Y17225D01*
X11405Y17250D02*
X11494Y17340D01*
X23635Y22404D02*
X24130Y21910D01*
X24130Y21590D02*
X24130Y21910D01*
X23635Y22404D02*
X23635Y27273D01*
X16955Y34841D02*
X20359Y38244D01*
X7752Y24435D02*
X7862Y24325D01*
X6198Y24435D02*
X7752Y24435D01*
X5639Y24994D02*
X6198Y24435D01*
X17844Y8519D02*
X17844Y10253D01*
X17870Y10279D01*
X16359Y11155D02*
X17235Y10279D01*
X17870Y10279D01*
X11748Y19728D02*
X11824Y19804D01*
X13526Y19804D02*
X14034Y19296D01*
X11824Y19804D02*
X13526Y19804D01*
X9640Y12755D02*
X9677Y12719D01*
X18785Y12719D02*
X19114Y13047D01*
X9677Y12719D02*
X18785Y12719D01*
X10021Y11498D02*
X10170Y11498D01*
X10398Y11727D02*
X13145Y11727D01*
X10170Y11498D02*
X10398Y11727D01*
X6917Y19223D02*
X6917Y22311D01*
X9602Y14317D02*
X9640Y14355D01*
X6917Y15897D02*
X8497Y14317D01*
X6917Y15897D02*
X6917Y19223D01*
X8497Y14317D02*
X9602Y14317D01*
X13145Y11727D02*
X13717Y11155D01*
X19114Y13919D02*
X19114Y15181D01*
X19114Y13047D02*
X19114Y13919D01*
X13717Y11155D02*
X16359Y11155D01*
X10473Y10353D02*
X10741Y10622D01*
X16134Y10622D02*
X16549Y10207D01*
X9286Y10353D02*
X10473Y10353D01*
X16549Y9111D02*
X16549Y10207D01*
X9234Y10406D02*
X9286Y10353D01*
X10741Y10622D02*
X16134Y10622D01*
X15304Y9466D02*
X15685Y9847D01*
X15304Y8519D02*
X15304Y9466D01*
X13970Y9771D02*
X14002Y9739D01*
X14002Y8551D02*
X14034Y8519D01*
X14002Y8551D02*
X14002Y9739D01*
X11240Y9644D02*
X11516Y9368D01*
X10961Y9745D02*
X11063Y9644D01*
X11240Y9644D01*
X5119Y37762D02*
X5525Y37685D01*
X16342Y15743D02*
X16447Y15638D01*
X16037Y15743D02*
X16342Y15743D01*
X15330Y16451D02*
X16037Y15743D01*
X13970Y34841D02*
X16955Y34841D01*
X5525Y37685D02*
X8370Y34841D01*
X11354Y34841D01*
X2706Y9441D02*
X2706Y15074D01*
X1270Y16510D02*
X2706Y15074D01*
X7792Y16965D02*
X8863Y16965D01*
X7735Y16908D02*
X7792Y16965D01*
X15330Y16451D02*
X15330Y17315D01*
X7887Y24350D02*
X9526Y24350D01*
X9602Y24427D01*
X7862Y24325D02*
X7862Y29684D01*
X7862Y24325D02*
X7887Y24350D01*
X7862Y29684D02*
X9422Y31245D01*
X20383Y28897D02*
X22164Y28897D01*
X20268Y29012D02*
X20383Y28897D01*
X22164Y28897D02*
X22252Y28986D01*
X20244Y27602D02*
X20244Y28989D01*
X20268Y29012D01*
X5617Y13323D02*
X5617Y14866D01*
X5652Y14902D01*
X15844Y27655D02*
X17216Y27655D01*
X23635Y27273D02*
X23748Y27386D01*
X23635Y27386D02*
X23748Y27386D01*
X22252Y27386D02*
X23635Y27386D01*
X6439Y10985D02*
X6439Y11472D01*
X6917Y11950D02*
X6917Y13323D01*
X6439Y11472D02*
X6917Y11950D01*
X8863Y15666D02*
X8891Y15638D01*
X8863Y15666D02*
X8863Y16965D01*
X9513Y16965D01*
X8993Y26509D02*
X9439Y26064D01*
X11915Y26064D01*
X8878Y26509D02*
X8993Y26509D01*
X2049Y22369D02*
X5259Y22369D01*
X1270Y21590D02*
X2049Y22369D01*
X5259Y22369D02*
X5284Y22344D01*
X6267Y19223D02*
X6267Y21292D01*
X5244Y22316D02*
X6267Y21292D01*
X6884Y22344D02*
X6917Y22311D01*
X6419Y10965D02*
X6439Y10985D01*
X5639Y13301D02*
X6245Y13301D01*
X6267Y13323D01*
X5617Y13323D02*
X5639Y13301D01*
X14034Y13919D02*
X14034Y15143D01*
X15304Y15308D02*
X15340Y15344D01*
X15304Y13919D02*
X15304Y15308D01*
X16486Y9048D02*
X16549Y9111D01*
X17844Y17340D02*
X17844Y18483D01*
X16574Y17340D02*
X16574Y18686D01*
X14034Y17340D02*
X14034Y19296D01*
X16574Y18686D02*
X17133Y19245D01*
X14034Y21633D02*
X14034Y22740D01*
X15304Y22740D02*
X15304Y23190D01*
X15304Y21328D02*
X15380Y21252D01*
X15304Y21328D02*
X15304Y22740D01*
X17844Y18483D02*
X18606Y19245D01*
X5061Y10965D02*
X6419Y10965D01*
X1270Y11054D02*
X1270Y11430D01*
X11494Y8519D02*
X11516Y8541D01*
X11516Y9368D01*
X13615Y15562D02*
X14034Y15143D01*
X16486Y8607D02*
X16574Y8519D01*
X16486Y8607D02*
X16486Y9048D01*
X6439Y10985D02*
X7837Y10985D01*
X19444Y15511D02*
X20333Y15511D01*
X19114Y15181D02*
X19444Y15511D01*
X7506Y19198D02*
X9513Y19198D01*
X9513Y18565D02*
X9513Y19198D01*
X9513Y19848D01*
X4852Y1592D02*
X4852Y3014D01*
X4903Y3065D01*
X12894Y20442D02*
X18025Y20442D01*
X19114Y21531D01*
X11887Y21448D02*
X12894Y20442D01*
X13653Y21252D02*
X14034Y21633D01*
X9552Y21448D02*
X11887Y21448D01*
X16574Y22740D02*
X16574Y24071D01*
X14034Y22740D02*
X14034Y23944D01*
X15304Y23190D02*
X15304Y23995D01*
X19114Y21531D02*
X19114Y24151D01*
X12764Y22740D02*
X12764Y23842D01*
X18809Y24455D02*
X19114Y24151D01*
X18809Y24455D02*
X18809Y24731D01*
X14523Y24776D02*
X15304Y23995D01*
X14523Y24776D02*
X14523Y26208D01*
X10605Y27664D02*
X10605Y28921D01*
X12695Y30595D02*
X13543Y30595D01*
X10743Y30595D02*
X12695Y30595D01*
X9755Y30470D02*
X9769Y30470D01*
X9821Y30521D01*
X10605Y30521D01*
X15844Y29284D02*
X15863Y29303D01*
X15844Y27808D02*
X15844Y29284D01*
X11074Y31245D02*
X12695Y31245D01*
X11073Y31246D02*
X11074Y31245D01*
X12695Y31245D02*
X14350Y31245D01*
X9422Y31245D02*
X10137Y31245D01*
X10138Y31246D02*
X11073Y31246D01*
X10137Y31245D02*
X10138Y31246D01*
X11915Y26064D02*
X14034Y23944D01*
X10707Y28910D02*
X10831Y28910D01*
X11866Y29945D01*
X12695Y29945D01*
X15736Y32631D02*
X18619Y32631D01*
X14350Y31245D02*
X15736Y32631D01*
X15863Y24782D02*
X16574Y24071D01*
X15863Y24782D02*
X15863Y26189D01*
X15844Y26208D02*
X15863Y26189D01*
X11202Y24427D02*
X12180Y24427D01*
X12764Y23842D01*
X20250Y30595D02*
X20268Y30612D01*
X18595Y30595D02*
X20250Y30595D01*
X17195Y26053D02*
X18670Y27528D01*
X18595Y29295D02*
X18691Y29199D01*
X18691Y27756D02*
X18691Y29199D01*
X18595Y29295D02*
X18595Y29945D01*
X13543Y30595D02*
X14523Y29615D01*
X14523Y27808D02*
X14523Y29615D01*
X20268Y30612D02*
X20268Y32506D01*
X18670Y27528D02*
X18670Y27602D01*
D13*
X300948Y-131051D02*
X301067Y-130991D01*
X301245Y-130813D01*
X301245Y-132062D01*
X238651Y-119890D02*
X238651Y-120804D01*
X238270Y-120119D02*
X239032Y-120576D01*
X239032Y-120119D02*
X238270Y-120576D01*
X239740Y-119890D02*
X239740Y-120804D01*
X239359Y-120119D02*
X240121Y-120576D01*
X240121Y-120119D02*
X239359Y-120576D01*
X208540Y-130636D02*
X208455Y-130466D01*
X208286Y-130297D01*
X208117Y-130212D01*
X207778Y-130212D01*
X207609Y-130297D01*
X207439Y-130466D01*
X207355Y-130636D01*
X207270Y-130890D01*
X207270Y-131313D01*
X207355Y-131567D01*
X207439Y-131736D01*
X207609Y-131905D01*
X207778Y-131990D01*
X208117Y-131990D01*
X208286Y-131905D01*
X208455Y-131736D01*
X208540Y-131567D01*
X209039Y-130212D02*
X209039Y-131990D01*
X209039Y-131143D02*
X209293Y-130890D01*
X209462Y-130805D01*
X209716Y-130805D01*
X209886Y-130890D01*
X209970Y-131143D01*
X209970Y-131990D01*
X211452Y-130805D02*
X211452Y-131990D01*
X211452Y-131059D02*
X211282Y-130890D01*
X211113Y-130805D01*
X210859Y-130805D01*
X210690Y-130890D01*
X210521Y-131059D01*
X210436Y-131313D01*
X210436Y-131482D01*
X210521Y-131736D01*
X210690Y-131905D01*
X210859Y-131990D01*
X211113Y-131990D01*
X211282Y-131905D01*
X211452Y-131736D01*
X211926Y-130805D02*
X211926Y-131990D01*
X211926Y-131143D02*
X212180Y-130890D01*
X212349Y-130805D01*
X212603Y-130805D01*
X212772Y-130890D01*
X212857Y-131143D01*
X212857Y-131990D01*
X214338Y-130212D02*
X214338Y-131990D01*
X214338Y-131059D02*
X214169Y-130890D01*
X214000Y-130805D01*
X213746Y-130805D01*
X213576Y-130890D01*
X213407Y-131059D01*
X213322Y-131313D01*
X213322Y-131482D01*
X213407Y-131736D01*
X213576Y-131905D01*
X213746Y-131990D01*
X214000Y-131990D01*
X214169Y-131905D01*
X214338Y-131736D01*
X214812Y-130212D02*
X214812Y-131990D01*
X215185Y-131313D02*
X216200Y-131313D01*
X216200Y-131143D01*
X216116Y-130974D01*
X216031Y-130890D01*
X215862Y-130805D01*
X215608Y-130805D01*
X215439Y-130890D01*
X215269Y-131059D01*
X215185Y-131313D01*
X215185Y-131482D01*
X215269Y-131736D01*
X215439Y-131905D01*
X215608Y-131990D01*
X215862Y-131990D01*
X216031Y-131905D01*
X216200Y-131736D01*
X216581Y-130805D02*
X216581Y-131990D01*
X216581Y-131313D02*
X216666Y-131059D01*
X216835Y-130890D01*
X217005Y-130805D01*
X217259Y-130805D01*
X217589Y-131905D02*
X217504Y-131990D01*
X217419Y-131905D01*
X217504Y-131821D01*
X217589Y-131905D01*
X217589Y-132075D01*
X217504Y-132244D01*
X217419Y-132329D01*
X220729Y-131990D02*
X220052Y-130212D01*
X219375Y-131990D01*
X219629Y-131397D02*
X220475Y-131397D01*
X222329Y-130212D02*
X221144Y-131990D01*
X221144Y-130212D02*
X222329Y-130212D01*
X221144Y-131990D02*
X222329Y-131990D01*
X225943Y-130212D02*
X225690Y-130297D01*
X225605Y-130466D01*
X225605Y-130636D01*
X225690Y-130805D01*
X225859Y-130890D01*
X226197Y-130974D01*
X226451Y-131059D01*
X226621Y-131228D01*
X226705Y-131397D01*
X226705Y-131651D01*
X226621Y-131821D01*
X226536Y-131905D01*
X226282Y-131990D01*
X225943Y-131990D01*
X225690Y-131905D01*
X225605Y-131821D01*
X225520Y-131651D01*
X225520Y-131397D01*
X225605Y-131228D01*
X225774Y-131059D01*
X226028Y-130974D01*
X226367Y-130890D01*
X226536Y-130805D01*
X226621Y-130636D01*
X226621Y-130466D01*
X226536Y-130297D01*
X226282Y-130212D01*
X225943Y-130212D01*
X228119Y-130212D02*
X227272Y-130212D01*
X227188Y-130974D01*
X227272Y-130890D01*
X227526Y-130805D01*
X227780Y-130805D01*
X228034Y-130890D01*
X228204Y-131059D01*
X228288Y-131313D01*
X228288Y-131482D01*
X228204Y-131736D01*
X228034Y-131905D01*
X227780Y-131990D01*
X227526Y-131990D01*
X227272Y-131905D01*
X227188Y-131821D01*
X227103Y-131651D01*
X228771Y-130636D02*
X228771Y-130551D01*
X228855Y-130382D01*
X228940Y-130297D01*
X229109Y-130212D01*
X229448Y-130212D01*
X229617Y-130297D01*
X229702Y-130382D01*
X229787Y-130551D01*
X229787Y-130720D01*
X229702Y-130890D01*
X229533Y-131143D01*
X228686Y-131990D01*
X229871Y-131990D01*
X230354Y-130636D02*
X230354Y-130551D01*
X230438Y-130382D01*
X230523Y-130297D01*
X230692Y-130212D01*
X231031Y-130212D01*
X231200Y-130297D01*
X231285Y-130382D01*
X231369Y-130551D01*
X231369Y-130720D01*
X231285Y-130890D01*
X231116Y-131143D01*
X230269Y-131990D01*
X231454Y-131990D01*
X232698Y-130212D02*
X231852Y-131397D01*
X233122Y-131397D01*
X232698Y-130212D02*
X232698Y-131990D01*
X206355Y-128136D02*
X206355Y-128051D01*
X206439Y-127882D01*
X206524Y-127797D01*
X206693Y-127712D01*
X207032Y-127712D01*
X207201Y-127797D01*
X207286Y-127882D01*
X207370Y-128051D01*
X207370Y-128220D01*
X207286Y-128390D01*
X207117Y-128643D01*
X206270Y-129490D01*
X207455Y-129490D01*
X208022Y-127712D02*
X208953Y-127712D01*
X208445Y-128390D01*
X208699Y-128390D01*
X208869Y-128474D01*
X208953Y-128559D01*
X209038Y-128813D01*
X209038Y-128982D01*
X208953Y-129236D01*
X208784Y-129405D01*
X208530Y-129490D01*
X208276Y-129490D01*
X208022Y-129405D01*
X207938Y-129321D01*
X207853Y-129151D01*
X210452Y-127712D02*
X209605Y-127712D01*
X209521Y-128474D01*
X209605Y-128390D01*
X209859Y-128305D01*
X210113Y-128305D01*
X210367Y-128390D01*
X210536Y-128559D01*
X210621Y-128813D01*
X210621Y-128982D01*
X210536Y-129236D01*
X210367Y-129405D01*
X210113Y-129490D01*
X209859Y-129490D01*
X209605Y-129405D01*
X209521Y-129321D01*
X209436Y-129151D01*
X212035Y-127712D02*
X211188Y-127712D01*
X211103Y-128474D01*
X211188Y-128390D01*
X211442Y-128305D01*
X211696Y-128305D01*
X211950Y-128390D01*
X212119Y-128559D01*
X212204Y-128813D01*
X212204Y-128982D01*
X212119Y-129236D01*
X211950Y-129405D01*
X211696Y-129490D01*
X211442Y-129490D01*
X211188Y-129405D01*
X211103Y-129321D01*
X211019Y-129151D01*
X213998Y-127712D02*
X214422Y-129490D01*
X214845Y-127712D02*
X214422Y-129490D01*
X214845Y-127712D02*
X215268Y-129490D01*
X215691Y-127712D02*
X215268Y-129490D01*
X216132Y-129321D02*
X216047Y-129405D01*
X216132Y-129490D01*
X216216Y-129405D01*
X216132Y-129321D01*
X219272Y-128136D02*
X219187Y-127966D01*
X219018Y-127797D01*
X218849Y-127712D01*
X218510Y-127712D01*
X218341Y-127797D01*
X218172Y-127966D01*
X218087Y-128136D01*
X218002Y-128390D01*
X218002Y-128813D01*
X218087Y-129067D01*
X218172Y-129236D01*
X218341Y-129405D01*
X218510Y-129490D01*
X218849Y-129490D01*
X219018Y-129405D01*
X219187Y-129236D01*
X219272Y-129067D01*
X219771Y-127712D02*
X219771Y-129490D01*
X219771Y-128643D02*
X220025Y-128390D01*
X220195Y-128305D01*
X220449Y-128305D01*
X220618Y-128390D01*
X220703Y-128643D01*
X220703Y-129490D01*
X222184Y-128305D02*
X222184Y-129490D01*
X222184Y-128559D02*
X222015Y-128390D01*
X221845Y-128305D01*
X221591Y-128305D01*
X221422Y-128390D01*
X221253Y-128559D01*
X221168Y-128813D01*
X221168Y-128982D01*
X221253Y-129236D01*
X221422Y-129405D01*
X221591Y-129490D01*
X221845Y-129490D01*
X222015Y-129405D01*
X222184Y-129236D01*
X222658Y-128305D02*
X222658Y-129490D01*
X222658Y-128643D02*
X222912Y-128390D01*
X223081Y-128305D01*
X223335Y-128305D01*
X223504Y-128390D01*
X223589Y-128643D01*
X223589Y-129490D01*
X225070Y-127712D02*
X225070Y-129490D01*
X225070Y-128559D02*
X224901Y-128390D01*
X224732Y-128305D01*
X224478Y-128305D01*
X224309Y-128390D01*
X224139Y-128559D01*
X224055Y-128813D01*
X224055Y-128982D01*
X224139Y-129236D01*
X224309Y-129405D01*
X224478Y-129490D01*
X224732Y-129490D01*
X224901Y-129405D01*
X225070Y-129236D01*
X225544Y-127712D02*
X225544Y-129490D01*
X225917Y-128813D02*
X226933Y-128813D01*
X226933Y-128643D01*
X226848Y-128474D01*
X226763Y-128390D01*
X226594Y-128305D01*
X226340Y-128305D01*
X226171Y-128390D01*
X226002Y-128559D01*
X225917Y-128813D01*
X225917Y-128982D01*
X226002Y-129236D01*
X226171Y-129405D01*
X226340Y-129490D01*
X226594Y-129490D01*
X226763Y-129405D01*
X226933Y-129236D01*
X227314Y-128305D02*
X227314Y-129490D01*
X227314Y-128813D02*
X227398Y-128559D01*
X227568Y-128390D01*
X227737Y-128305D01*
X227991Y-128305D01*
X229548Y-127712D02*
X229548Y-129490D01*
X229548Y-127712D02*
X230310Y-127712D01*
X230564Y-127797D01*
X230649Y-127882D01*
X230733Y-128051D01*
X230733Y-128220D01*
X230649Y-128390D01*
X230564Y-128474D01*
X230310Y-128559D01*
X229548Y-128559D02*
X230310Y-128559D01*
X230564Y-128643D01*
X230649Y-128728D01*
X230733Y-128897D01*
X230733Y-129151D01*
X230649Y-129321D01*
X230564Y-129405D01*
X230310Y-129490D01*
X229548Y-129490D01*
X231131Y-127712D02*
X231131Y-129490D01*
X231504Y-128305D02*
X232012Y-129490D01*
X232520Y-128305D02*
X232012Y-129490D01*
X233823Y-127712D02*
X233823Y-129490D01*
X233823Y-128559D02*
X233654Y-128390D01*
X233485Y-128305D01*
X233231Y-128305D01*
X233061Y-128390D01*
X232892Y-128559D01*
X232807Y-128813D01*
X232807Y-128982D01*
X232892Y-129236D01*
X233061Y-129405D01*
X233231Y-129490D01*
X233485Y-129490D01*
X233654Y-129405D01*
X233823Y-129236D01*
X234382Y-129321D02*
X234297Y-129405D01*
X234382Y-129490D01*
X234466Y-129405D01*
X234382Y-129321D01*
X205040Y-124972D02*
X205040Y-126750D01*
X205040Y-124972D02*
X205717Y-126750D01*
X206394Y-124972D02*
X205717Y-126750D01*
X206394Y-124972D02*
X206394Y-126750D01*
X207072Y-124972D02*
X207156Y-125057D01*
X207241Y-124972D01*
X207156Y-124888D01*
X207072Y-124972D01*
X207156Y-125565D02*
X207156Y-126750D01*
X208570Y-125819D02*
X208401Y-125650D01*
X208231Y-125565D01*
X207977Y-125565D01*
X207808Y-125650D01*
X207639Y-125819D01*
X207554Y-126073D01*
X207554Y-126242D01*
X207639Y-126496D01*
X207808Y-126665D01*
X207977Y-126750D01*
X208231Y-126750D01*
X208401Y-126665D01*
X208570Y-126496D01*
X208951Y-125565D02*
X208951Y-126750D01*
X208951Y-126073D02*
X209035Y-125819D01*
X209205Y-125650D01*
X209374Y-125565D01*
X209628Y-125565D01*
X210212Y-125565D02*
X210043Y-125650D01*
X209873Y-125819D01*
X209789Y-126073D01*
X209789Y-126242D01*
X209873Y-126496D01*
X210043Y-126665D01*
X210212Y-126750D01*
X210466Y-126750D01*
X210635Y-126665D01*
X210805Y-126496D01*
X210889Y-126242D01*
X210889Y-126073D01*
X210805Y-125819D01*
X210635Y-125650D01*
X210466Y-125565D01*
X210212Y-125565D01*
X212294Y-125819D02*
X212125Y-125650D01*
X211956Y-125565D01*
X211702Y-125565D01*
X211533Y-125650D01*
X211363Y-125819D01*
X211279Y-126073D01*
X211279Y-126242D01*
X211363Y-126496D01*
X211533Y-126665D01*
X211702Y-126750D01*
X211956Y-126750D01*
X212125Y-126665D01*
X212294Y-126496D01*
X212675Y-124972D02*
X212675Y-126750D01*
X212675Y-125903D02*
X212929Y-125650D01*
X213099Y-125565D01*
X213353Y-125565D01*
X213522Y-125650D01*
X213606Y-125903D01*
X213606Y-126750D01*
X214241Y-124972D02*
X214326Y-125057D01*
X214411Y-124972D01*
X214326Y-124888D01*
X214241Y-124972D01*
X214326Y-125565D02*
X214326Y-126750D01*
X214724Y-125565D02*
X214724Y-127343D01*
X214724Y-125819D02*
X214893Y-125650D01*
X215062Y-125565D01*
X215316Y-125565D01*
X215486Y-125650D01*
X215655Y-125819D01*
X215740Y-126073D01*
X215740Y-126242D01*
X215655Y-126496D01*
X215486Y-126665D01*
X215316Y-126750D01*
X215062Y-126750D01*
X214893Y-126665D01*
X214724Y-126496D01*
X218110Y-124972D02*
X218110Y-126750D01*
X217517Y-124972D02*
X218702Y-124972D01*
X218914Y-126073D02*
X219930Y-126073D01*
X219930Y-125903D01*
X219845Y-125734D01*
X219760Y-125650D01*
X219591Y-125565D01*
X219337Y-125565D01*
X219168Y-125650D01*
X218999Y-125819D01*
X218914Y-126073D01*
X218914Y-126242D01*
X218999Y-126496D01*
X219168Y-126665D01*
X219337Y-126750D01*
X219591Y-126750D01*
X219760Y-126665D01*
X219930Y-126496D01*
X221326Y-125819D02*
X221157Y-125650D01*
X220988Y-125565D01*
X220734Y-125565D01*
X220565Y-125650D01*
X220395Y-125819D01*
X220311Y-126073D01*
X220311Y-126242D01*
X220395Y-126496D01*
X220565Y-126665D01*
X220734Y-126750D01*
X220988Y-126750D01*
X221157Y-126665D01*
X221326Y-126496D01*
X221707Y-124972D02*
X221707Y-126750D01*
X221707Y-125903D02*
X221961Y-125650D01*
X222131Y-125565D01*
X222385Y-125565D01*
X222554Y-125650D01*
X222638Y-125903D01*
X222638Y-126750D01*
X223104Y-125565D02*
X223104Y-126750D01*
X223104Y-125903D02*
X223358Y-125650D01*
X223527Y-125565D01*
X223781Y-125565D01*
X223951Y-125650D01*
X224035Y-125903D01*
X224035Y-126750D01*
X224924Y-125565D02*
X224755Y-125650D01*
X224585Y-125819D01*
X224501Y-126073D01*
X224501Y-126242D01*
X224585Y-126496D01*
X224755Y-126665D01*
X224924Y-126750D01*
X225178Y-126750D01*
X225347Y-126665D01*
X225516Y-126496D01*
X225601Y-126242D01*
X225601Y-126073D01*
X225516Y-125819D01*
X225347Y-125650D01*
X225178Y-125565D01*
X224924Y-125565D01*
X225991Y-124972D02*
X225991Y-126750D01*
X226786Y-125565D02*
X226617Y-125650D01*
X226448Y-125819D01*
X226363Y-126073D01*
X226363Y-126242D01*
X226448Y-126496D01*
X226617Y-126665D01*
X226786Y-126750D01*
X227040Y-126750D01*
X227209Y-126665D01*
X227379Y-126496D01*
X227463Y-126242D01*
X227463Y-126073D01*
X227379Y-125819D01*
X227209Y-125650D01*
X227040Y-125565D01*
X226786Y-125565D01*
X228869Y-125565D02*
X228869Y-126919D01*
X228784Y-127173D01*
X228699Y-127258D01*
X228530Y-127343D01*
X228276Y-127343D01*
X228107Y-127258D01*
X228869Y-125819D02*
X228699Y-125650D01*
X228530Y-125565D01*
X228276Y-125565D01*
X228107Y-125650D01*
X227937Y-125819D01*
X227853Y-126073D01*
X227853Y-126242D01*
X227937Y-126496D01*
X228107Y-126665D01*
X228276Y-126750D01*
X228530Y-126750D01*
X228699Y-126665D01*
X228869Y-126496D01*
X229427Y-125565D02*
X229935Y-126750D01*
X230443Y-125565D02*
X229935Y-126750D01*
X229766Y-127089D01*
X229597Y-127258D01*
X229427Y-127343D01*
X229343Y-127343D01*
X232136Y-124972D02*
X232136Y-126750D01*
X232508Y-125565D02*
X232508Y-126750D01*
X232508Y-125903D02*
X232762Y-125650D01*
X232932Y-125565D01*
X233186Y-125565D01*
X233355Y-125650D01*
X233440Y-125903D01*
X233440Y-126750D01*
X234921Y-125819D02*
X234752Y-125650D01*
X234582Y-125565D01*
X234328Y-125565D01*
X234159Y-125650D01*
X233990Y-125819D01*
X233905Y-126073D01*
X233905Y-126242D01*
X233990Y-126496D01*
X234159Y-126665D01*
X234328Y-126750D01*
X234582Y-126750D01*
X234752Y-126665D01*
X234921Y-126496D01*
X235387Y-126581D02*
X235302Y-126665D01*
X235387Y-126750D01*
X235471Y-126665D01*
X235387Y-126581D01*
X266330Y-120359D02*
X266270Y-120300D01*
X266330Y-120240D01*
X266389Y-120300D01*
X266389Y-120419D01*
X266330Y-120538D01*
X266270Y-120597D01*
X267020Y-120240D02*
X266841Y-120300D01*
X266722Y-120478D01*
X266663Y-120776D01*
X266663Y-120954D01*
X266722Y-121252D01*
X266841Y-121430D01*
X267020Y-121490D01*
X267139Y-121490D01*
X267317Y-121430D01*
X267436Y-121252D01*
X267496Y-120954D01*
X267496Y-120776D01*
X267436Y-120478D01*
X267317Y-120300D01*
X267139Y-120240D01*
X267020Y-120240D01*
X268371Y-120240D02*
X267776Y-121073D01*
X268668Y-121073D01*
X268371Y-120240D02*
X268371Y-121490D01*
X268889Y-120954D02*
X269960Y-120954D01*
X270329Y-121907D02*
X271281Y-121907D01*
X271442Y-121907D02*
X272394Y-121907D01*
X272554Y-120954D02*
X273626Y-120954D01*
X273995Y-120240D02*
X273995Y-121490D01*
X273995Y-120240D02*
X274530Y-120240D01*
X274709Y-120300D01*
X274768Y-120359D01*
X274828Y-120478D01*
X274828Y-120597D01*
X274768Y-120716D01*
X274709Y-120776D01*
X274530Y-120835D01*
X273995Y-120835D01*
X274411Y-120835D02*
X274828Y-121490D01*
X275107Y-120478D02*
X275226Y-120419D01*
X275405Y-120240D01*
X275405Y-121490D01*
X276083Y-121371D02*
X276024Y-121430D01*
X276083Y-121490D01*
X276143Y-121430D01*
X276083Y-121371D01*
X277309Y-120538D02*
X277250Y-120419D01*
X277131Y-120300D01*
X277012Y-120240D01*
X276774Y-120240D01*
X276655Y-120300D01*
X276536Y-120419D01*
X276476Y-120538D01*
X276417Y-120716D01*
X276417Y-121014D01*
X276476Y-121192D01*
X276536Y-121311D01*
X276655Y-121430D01*
X276774Y-121490D01*
X277012Y-121490D01*
X277131Y-121430D01*
X277250Y-121311D01*
X277309Y-121192D01*
X277309Y-121014D01*
X277012Y-121014D02*
X277309Y-121014D01*
X278012Y-120240D02*
X278012Y-121490D01*
X277595Y-120240D02*
X278428Y-120240D01*
X278577Y-120240D02*
X278577Y-121490D01*
X279291Y-121490D01*
X279487Y-120359D02*
X279428Y-120300D01*
X279487Y-120240D01*
X279547Y-120300D01*
X279547Y-120419D01*
X279487Y-120538D01*
X279428Y-120597D01*
X292852Y-134688D02*
X292767Y-134519D01*
X292513Y-134434D01*
X292344Y-134434D01*
X292090Y-134519D01*
X291920Y-134773D01*
X291836Y-135196D01*
X291836Y-135619D01*
X291920Y-135958D01*
X292090Y-136127D01*
X292344Y-136212D01*
X292428Y-136212D01*
X292682Y-136127D01*
X292852Y-135958D01*
X292936Y-135704D01*
X292936Y-135619D01*
X292852Y-135365D01*
X292682Y-135196D01*
X292428Y-135112D01*
X292344Y-135112D01*
X292090Y-135196D01*
X291920Y-135365D01*
X291836Y-135619D01*
X229225Y-134434D02*
X228378Y-134434D01*
X228293Y-135196D01*
X228378Y-135112D01*
X228632Y-135027D01*
X228886Y-135027D01*
X229140Y-135112D01*
X229309Y-135281D01*
X229394Y-135535D01*
X229394Y-135704D01*
X229309Y-135958D01*
X229140Y-136127D01*
X228886Y-136212D01*
X228632Y-136212D01*
X228378Y-136127D01*
X228293Y-136043D01*
X228209Y-135873D01*
X165581Y-134434D02*
X164734Y-135619D01*
X166004Y-135619D01*
X165581Y-134434D02*
X165581Y-136212D01*
X101234Y-134434D02*
X102166Y-134434D01*
X101658Y-135112D01*
X101912Y-135112D01*
X102081Y-135196D01*
X102166Y-135281D01*
X102250Y-135535D01*
X102250Y-135704D01*
X102166Y-135958D01*
X101996Y-136127D01*
X101742Y-136212D01*
X101488Y-136212D01*
X101234Y-136127D01*
X101150Y-136043D01*
X101065Y-135873D01*
X37920Y-134858D02*
X37920Y-134773D01*
X38005Y-134604D01*
X38090Y-134519D01*
X38259Y-134434D01*
X38598Y-134434D01*
X38767Y-134519D01*
X38852Y-134604D01*
X38936Y-134773D01*
X38936Y-134942D01*
X38852Y-135112D01*
X38682Y-135365D01*
X37836Y-136212D01*
X39021Y-136212D01*
X-25554Y-134773D02*
X-25385Y-134688D01*
X-25131Y-134434D01*
X-25131Y-136212D01*
X-54925Y-108222D02*
X-54925Y-109999D01*
X-54925Y-108222D02*
X-54332Y-108222D01*
X-54078Y-108306D01*
X-53909Y-108476D01*
X-53825Y-108645D01*
X-53740Y-108899D01*
X-53740Y-109322D01*
X-53825Y-109576D01*
X-53909Y-109745D01*
X-54078Y-109915D01*
X-54332Y-109999D01*
X-54925Y-109999D01*
X-53655Y-48447D02*
X-53740Y-48278D01*
X-53909Y-48108D01*
X-54078Y-48024D01*
X-54417Y-48024D01*
X-54586Y-48108D01*
X-54756Y-48278D01*
X-54840Y-48447D01*
X-54925Y-48701D01*
X-54925Y-49124D01*
X-54840Y-49378D01*
X-54756Y-49547D01*
X-54586Y-49717D01*
X-54417Y-49801D01*
X-54078Y-49801D01*
X-53909Y-49717D01*
X-53740Y-49547D01*
X-53655Y-49378D01*
X-54925Y12301D02*
X-54925Y10524D01*
X-54925Y12301D02*
X-54163Y12301D01*
X-53909Y12217D01*
X-53825Y12132D01*
X-53740Y11963D01*
X-53740Y11794D01*
X-53825Y11624D01*
X-53909Y11540D01*
X-54163Y11455D01*
X-54925Y11455D02*
X-54163Y11455D01*
X-53909Y11370D01*
X-53825Y11286D01*
X-53740Y11116D01*
X-53740Y10862D01*
X-53825Y10693D01*
X-53909Y10608D01*
X-54163Y10524D01*
X-54925Y10524D01*
X-53571Y70976D02*
X-54248Y72753D01*
X-54925Y70976D01*
X-54671Y71568D02*
X-53825Y71568D01*
X320995Y-108222D02*
X320995Y-109999D01*
X320995Y-108222D02*
X321588Y-108222D01*
X321842Y-108306D01*
X322011Y-108476D01*
X322095Y-108645D01*
X322180Y-108899D01*
X322180Y-109322D01*
X322095Y-109576D01*
X322011Y-109745D01*
X321842Y-109915D01*
X321588Y-109999D01*
X320995Y-109999D01*
X322265Y-48447D02*
X322180Y-48278D01*
X322011Y-48108D01*
X321842Y-48024D01*
X321503Y-48024D01*
X321334Y-48108D01*
X321164Y-48278D01*
X321080Y-48447D01*
X320995Y-48701D01*
X320995Y-49124D01*
X321080Y-49378D01*
X321164Y-49547D01*
X321334Y-49717D01*
X321503Y-49801D01*
X321842Y-49801D01*
X322011Y-49717D01*
X322180Y-49547D01*
X322265Y-49378D01*
X320995Y12301D02*
X320995Y10524D01*
X320995Y12301D02*
X321757Y12301D01*
X322011Y12217D01*
X322095Y12132D01*
X322180Y11963D01*
X322180Y11794D01*
X322095Y11624D01*
X322011Y11540D01*
X321757Y11455D01*
X320995Y11455D02*
X321757Y11455D01*
X322011Y11370D01*
X322095Y11286D01*
X322180Y11116D01*
X322180Y10862D01*
X322095Y10693D01*
X322011Y10608D01*
X321757Y10524D01*
X320995Y10524D01*
X322349Y70976D02*
X321672Y72753D01*
X320995Y70976D01*
X321249Y71568D02*
X322095Y71568D01*
X292852Y101532D02*
X292767Y101701D01*
X292513Y101786D01*
X292344Y101786D01*
X292090Y101701D01*
X291920Y101447D01*
X291836Y101024D01*
X291836Y100601D01*
X291920Y100262D01*
X292090Y100093D01*
X292344Y100008D01*
X292428Y100008D01*
X292682Y100093D01*
X292852Y100262D01*
X292936Y100516D01*
X292936Y100601D01*
X292852Y100855D01*
X292682Y101024D01*
X292428Y101108D01*
X292344Y101108D01*
X292090Y101024D01*
X291920Y100855D01*
X291836Y100601D01*
X229225Y101786D02*
X228378Y101786D01*
X228293Y101024D01*
X228378Y101108D01*
X228632Y101193D01*
X228886Y101193D01*
X229140Y101108D01*
X229309Y100939D01*
X229394Y100685D01*
X229394Y100516D01*
X229309Y100262D01*
X229140Y100093D01*
X228886Y100008D01*
X228632Y100008D01*
X228378Y100093D01*
X228293Y100177D01*
X228209Y100347D01*
X165581Y101786D02*
X164734Y100601D01*
X166004Y100601D01*
X165581Y101786D02*
X165581Y100008D01*
X101234Y101786D02*
X102166Y101786D01*
X101658Y101108D01*
X101912Y101108D01*
X102081Y101024D01*
X102166Y100939D01*
X102250Y100685D01*
X102250Y100516D01*
X102166Y100262D01*
X101996Y100093D01*
X101742Y100008D01*
X101488Y100008D01*
X101234Y100093D01*
X101150Y100177D01*
X101065Y100347D01*
X37920Y101362D02*
X37920Y101447D01*
X38005Y101616D01*
X38090Y101701D01*
X38259Y101786D01*
X38598Y101786D01*
X38767Y101701D01*
X38852Y101616D01*
X38936Y101447D01*
X38936Y101278D01*
X38852Y101108D01*
X38682Y100855D01*
X37836Y100008D01*
X39021Y100008D01*
X-25554Y101447D02*
X-25385Y101532D01*
X-25131Y101786D01*
X-25131Y100008D01*
D14*
X266187Y-130990D02*
X266187Y-132240D01*
X265770Y-130990D02*
X266603Y-130990D01*
X267049Y-131407D02*
X266930Y-131466D01*
X266811Y-131585D01*
X266752Y-131764D01*
X266752Y-131883D01*
X266811Y-132061D01*
X266930Y-132180D01*
X267049Y-132240D01*
X267228Y-132240D01*
X267347Y-132180D01*
X267466Y-132061D01*
X267526Y-131883D01*
X267526Y-131764D01*
X267466Y-131585D01*
X267347Y-131466D01*
X267228Y-131407D01*
X267049Y-131407D01*
X267799Y-131407D02*
X267799Y-132657D01*
X267799Y-131585D02*
X267918Y-131466D01*
X268037Y-131407D01*
X268216Y-131407D01*
X268335Y-131466D01*
X268454Y-131585D01*
X268513Y-131764D01*
X268513Y-131883D01*
X268454Y-132061D01*
X268335Y-132180D01*
X268216Y-132240D01*
X268037Y-132240D01*
X267918Y-132180D01*
X267799Y-132061D01*
X269763Y-130990D02*
X269763Y-132240D01*
X270477Y-132240D01*
X271328Y-131407D02*
X271328Y-132240D01*
X271328Y-131585D02*
X271209Y-131466D01*
X271090Y-131407D01*
X270912Y-131407D01*
X270793Y-131466D01*
X270674Y-131585D01*
X270614Y-131764D01*
X270614Y-131883D01*
X270674Y-132061D01*
X270793Y-132180D01*
X270912Y-132240D01*
X271090Y-132240D01*
X271209Y-132180D01*
X271328Y-132061D01*
X271721Y-131407D02*
X272078Y-132240D01*
X272435Y-131407D02*
X272078Y-132240D01*
X271959Y-132478D01*
X271840Y-132597D01*
X271721Y-132657D01*
X271662Y-132657D01*
X272644Y-131764D02*
X273358Y-131764D01*
X273358Y-131645D01*
X273298Y-131526D01*
X273239Y-131466D01*
X273120Y-131407D01*
X272941Y-131407D01*
X272822Y-131466D01*
X272703Y-131585D01*
X272644Y-131764D01*
X272644Y-131883D01*
X272703Y-132061D01*
X272822Y-132180D01*
X272941Y-132240D01*
X273120Y-132240D01*
X273239Y-132180D01*
X273358Y-132061D01*
X273625Y-131407D02*
X273625Y-132240D01*
X273625Y-131764D02*
X273685Y-131585D01*
X273804Y-131466D01*
X273923Y-131407D01*
X274102Y-131407D01*
X266270Y-128840D02*
X266270Y-129990D01*
X266927Y-129990D01*
X267929Y-129990D02*
X267491Y-128840D01*
X267053Y-129990D01*
X267217Y-129607D02*
X267765Y-129607D01*
X268197Y-128840D02*
X268635Y-129388D01*
X268635Y-129990D01*
X269073Y-128840D02*
X268635Y-129388D01*
X269933Y-128840D02*
X269221Y-128840D01*
X269221Y-129990D01*
X269933Y-129990D01*
X269221Y-129388D02*
X269659Y-129388D01*
X270124Y-128840D02*
X270124Y-129990D01*
X270124Y-128840D02*
X270617Y-128840D01*
X270781Y-128895D01*
X270836Y-128950D01*
X270891Y-129059D01*
X270891Y-129169D01*
X270836Y-129278D01*
X270781Y-129333D01*
X270617Y-129388D01*
X270124Y-129388D01*
X270508Y-129388D02*
X270891Y-129990D01*
X272052Y-128840D02*
X272052Y-129990D01*
X272052Y-128840D02*
X272818Y-129990D01*
X272818Y-128840D02*
X272818Y-129990D01*
X274012Y-129990D02*
X273574Y-128840D01*
X273136Y-129990D01*
X273300Y-129607D02*
X273847Y-129607D01*
X274280Y-128840D02*
X274280Y-129990D01*
X274280Y-128840D02*
X274718Y-129990D01*
X275156Y-128840D02*
X274718Y-129990D01*
X275156Y-128840D02*
X275156Y-129990D01*
X276196Y-128840D02*
X275484Y-128840D01*
X275484Y-129990D01*
X276196Y-129990D01*
X275484Y-129388D02*
X275922Y-129388D01*
X276443Y-129223D02*
X276388Y-129278D01*
X276443Y-129333D01*
X276497Y-129278D01*
X276443Y-129223D01*
X276443Y-129880D02*
X276388Y-129935D01*
X276443Y-129990D01*
X276497Y-129935D01*
X276443Y-129880D01*
X238270Y-129692D02*
X238763Y-129692D01*
X238927Y-129638D01*
X238982Y-129583D01*
X239037Y-129473D01*
X239037Y-129309D01*
X238982Y-129200D01*
X238927Y-129145D01*
X238763Y-129090D01*
X238270Y-129090D01*
X238270Y-130240D01*
X240115Y-129364D02*
X240060Y-129254D01*
X239951Y-129145D01*
X239841Y-129090D01*
X239622Y-129090D01*
X239513Y-129145D01*
X239403Y-129254D01*
X239349Y-129364D01*
X239294Y-129528D01*
X239294Y-129802D01*
X239349Y-129966D01*
X239403Y-130076D01*
X239513Y-130185D01*
X239622Y-130240D01*
X239841Y-130240D01*
X239951Y-130185D01*
X240060Y-130076D01*
X240115Y-129966D01*
X240438Y-129090D02*
X240438Y-130240D01*
X240438Y-129090D02*
X240931Y-129090D01*
X241095Y-129145D01*
X241150Y-129200D01*
X241205Y-129309D01*
X241205Y-129419D01*
X241150Y-129528D01*
X241095Y-129583D01*
X240931Y-129638D01*
X240438Y-129638D02*
X240931Y-129638D01*
X241095Y-129692D01*
X241150Y-129747D01*
X241205Y-129857D01*
X241205Y-130021D01*
X241150Y-130130D01*
X241095Y-130185D01*
X240931Y-130240D01*
X240438Y-130240D01*
X242365Y-129090D02*
X242365Y-130240D01*
X242365Y-129090D02*
X243077Y-129090D01*
X242365Y-129638D02*
X242803Y-129638D01*
X243208Y-129090D02*
X243208Y-130240D01*
X243449Y-129090D02*
X243449Y-130240D01*
X244106Y-130240D01*
X244944Y-129090D02*
X244232Y-129090D01*
X244232Y-130240D01*
X244944Y-130240D01*
X244232Y-129638D02*
X244670Y-129638D01*
X246039Y-129090D02*
X246039Y-130240D01*
X246039Y-129090D02*
X246806Y-130240D01*
X246806Y-129090D02*
X246806Y-130240D01*
X247999Y-130240D02*
X247561Y-129090D01*
X247123Y-130240D01*
X247287Y-129857D02*
X247835Y-129857D01*
X248267Y-129090D02*
X248267Y-130240D01*
X248267Y-129090D02*
X248705Y-130240D01*
X249143Y-129090D02*
X248705Y-130240D01*
X249143Y-129090D02*
X249143Y-130240D01*
X250184Y-129090D02*
X249472Y-129090D01*
X249472Y-130240D01*
X250184Y-130240D01*
X249472Y-129638D02*
X249910Y-129638D01*
X250430Y-129473D02*
X250375Y-129528D01*
X250430Y-129583D01*
X250485Y-129528D01*
X250430Y-129473D01*
X250430Y-130130D02*
X250375Y-130185D01*
X250430Y-130240D01*
X250485Y-130185D01*
X250430Y-130130D01*
X238270Y-131240D02*
X238270Y-132240D01*
X238270Y-131240D02*
X238699Y-131240D01*
X238841Y-131288D01*
X238889Y-131335D01*
X238937Y-131431D01*
X238937Y-131526D01*
X238889Y-131621D01*
X238841Y-131669D01*
X238699Y-131716D01*
X238270Y-131716D01*
X238603Y-131716D02*
X238937Y-132240D01*
X239160Y-131240D02*
X239160Y-132240D01*
X239732Y-132240D01*
X240555Y-131478D02*
X240508Y-131383D01*
X240412Y-131288D01*
X240317Y-131240D01*
X240127Y-131240D01*
X240032Y-131288D01*
X239936Y-131383D01*
X239889Y-131478D01*
X239841Y-131621D01*
X239841Y-131859D01*
X239889Y-132002D01*
X239936Y-132097D01*
X240032Y-132192D01*
X240127Y-132240D01*
X240317Y-132240D01*
X240412Y-132192D01*
X240508Y-132097D01*
X240555Y-132002D01*
X240836Y-132573D02*
X241598Y-132573D01*
X241726Y-131240D02*
X241726Y-132240D01*
X241726Y-131240D02*
X242107Y-132240D01*
X242488Y-131240D02*
X242107Y-132240D01*
X242488Y-131240D02*
X242488Y-132240D01*
X242774Y-131859D02*
X243345Y-131859D01*
X243345Y-131764D01*
X243298Y-131669D01*
X243250Y-131621D01*
X243155Y-131573D01*
X243012Y-131573D01*
X242917Y-131621D01*
X242821Y-131716D01*
X242774Y-131859D01*
X242774Y-131954D01*
X242821Y-132097D01*
X242917Y-132192D01*
X243012Y-132240D01*
X243155Y-132240D01*
X243250Y-132192D01*
X243345Y-132097D01*
X243702Y-131240D02*
X243702Y-132050D01*
X243750Y-132192D01*
X243845Y-132240D01*
X243940Y-132240D01*
X243559Y-131573D02*
X243893Y-131573D01*
X244083Y-131859D02*
X244654Y-131859D01*
X244654Y-131764D01*
X244607Y-131669D01*
X244559Y-131621D01*
X244464Y-131573D01*
X244321Y-131573D01*
X244226Y-131621D01*
X244131Y-131716D01*
X244083Y-131859D01*
X244083Y-131954D01*
X244131Y-132097D01*
X244226Y-132192D01*
X244321Y-132240D01*
X244464Y-132240D01*
X244559Y-132192D01*
X244654Y-132097D01*
X244869Y-131573D02*
X244869Y-132240D01*
X244869Y-131859D02*
X244916Y-131716D01*
X245011Y-131621D01*
X245107Y-131573D01*
X245249Y-131573D01*
X245340Y-132573D02*
X246102Y-132573D01*
X246230Y-131240D02*
X246611Y-132240D01*
X246992Y-131240D02*
X246611Y-132240D01*
X247168Y-131478D02*
X247168Y-131431D01*
X247216Y-131335D01*
X247263Y-131288D01*
X247359Y-131240D01*
X247549Y-131240D01*
X247644Y-131288D01*
X247692Y-131335D01*
X247739Y-131431D01*
X247739Y-131526D01*
X247692Y-131621D01*
X247597Y-131764D01*
X247120Y-132240D01*
X247787Y-132240D01*
X248058Y-132145D02*
X248011Y-132192D01*
X248058Y-132240D01*
X248106Y-132192D01*
X248058Y-132145D01*
X248325Y-131764D02*
X248753Y-131764D01*
X248896Y-131716D01*
X248944Y-131669D01*
X248992Y-131573D01*
X248992Y-131431D01*
X248944Y-131335D01*
X248896Y-131288D01*
X248753Y-131240D01*
X248325Y-131240D01*
X248325Y-132240D01*
X249787Y-131716D02*
X249691Y-131621D01*
X249596Y-131573D01*
X249453Y-131573D01*
X249358Y-131621D01*
X249263Y-131716D01*
X249215Y-131859D01*
X249215Y-131954D01*
X249263Y-132097D01*
X249358Y-132192D01*
X249453Y-132240D01*
X249596Y-132240D01*
X249691Y-132192D01*
X249787Y-132097D01*
X250001Y-131240D02*
X250001Y-132240D01*
X250001Y-131716D02*
X250096Y-131621D01*
X250191Y-131573D01*
X250334Y-131573D01*
X250429Y-131621D01*
X250525Y-131716D01*
X250572Y-131859D01*
X250572Y-131954D01*
X250525Y-132097D01*
X250429Y-132192D01*
X250334Y-132240D01*
X250191Y-132240D01*
X250096Y-132192D01*
X250001Y-132097D01*
X250786Y-131240D02*
X250786Y-132240D01*
X250786Y-131240D02*
X251120Y-131240D01*
X251262Y-131288D01*
X251358Y-131383D01*
X251405Y-131478D01*
X251453Y-131621D01*
X251453Y-131859D01*
X251405Y-132002D01*
X251358Y-132097D01*
X251262Y-132192D01*
X251120Y-132240D01*
X250786Y-132240D01*
X251915Y-131573D02*
X251819Y-131621D01*
X251724Y-131716D01*
X251677Y-131859D01*
X251677Y-131954D01*
X251724Y-132097D01*
X251819Y-132192D01*
X251915Y-132240D01*
X252058Y-132240D01*
X252153Y-132192D01*
X252248Y-132097D01*
X252296Y-131954D01*
X252296Y-131859D01*
X252248Y-131716D01*
X252153Y-131621D01*
X252058Y-131573D01*
X251915Y-131573D01*
X253086Y-131716D02*
X252991Y-131621D01*
X252895Y-131573D01*
X252753Y-131573D01*
X252657Y-131621D01*
X252562Y-131716D01*
X252515Y-131859D01*
X252515Y-131954D01*
X252562Y-132097D01*
X252657Y-132192D01*
X252753Y-132240D01*
X252895Y-132240D01*
X252991Y-132192D01*
X253086Y-132097D01*
X238270Y-117942D02*
X238763Y-117942D01*
X238927Y-117888D01*
X238982Y-117833D01*
X239037Y-117723D01*
X239037Y-117559D01*
X238982Y-117450D01*
X238927Y-117395D01*
X238763Y-117340D01*
X238270Y-117340D01*
X238270Y-118490D01*
X240115Y-117614D02*
X240060Y-117504D01*
X239951Y-117395D01*
X239841Y-117340D01*
X239622Y-117340D01*
X239513Y-117395D01*
X239403Y-117504D01*
X239349Y-117614D01*
X239294Y-117778D01*
X239294Y-118052D01*
X239349Y-118216D01*
X239403Y-118326D01*
X239513Y-118435D01*
X239622Y-118490D01*
X239841Y-118490D01*
X239951Y-118435D01*
X240060Y-118326D01*
X240115Y-118216D01*
X240438Y-117340D02*
X240438Y-118490D01*
X240438Y-117340D02*
X240931Y-117340D01*
X241095Y-117395D01*
X241150Y-117450D01*
X241205Y-117559D01*
X241205Y-117669D01*
X241150Y-117778D01*
X241095Y-117833D01*
X240931Y-117888D01*
X240438Y-117888D02*
X240931Y-117888D01*
X241095Y-117942D01*
X241150Y-117997D01*
X241205Y-118107D01*
X241205Y-118271D01*
X241150Y-118380D01*
X241095Y-118435D01*
X240931Y-118490D01*
X240438Y-118490D01*
X242365Y-117340D02*
X242365Y-118490D01*
X243022Y-118490D01*
X243805Y-117723D02*
X243805Y-118490D01*
X243805Y-117888D02*
X243696Y-117778D01*
X243586Y-117723D01*
X243422Y-117723D01*
X243313Y-117778D01*
X243203Y-117888D01*
X243148Y-118052D01*
X243148Y-118161D01*
X243203Y-118326D01*
X243313Y-118435D01*
X243422Y-118490D01*
X243586Y-118490D01*
X243696Y-118435D01*
X243805Y-118326D01*
X244167Y-117723D02*
X244495Y-118490D01*
X244824Y-117723D02*
X244495Y-118490D01*
X244386Y-118709D01*
X244276Y-118818D01*
X244167Y-118873D01*
X244112Y-118873D01*
X245289Y-117723D02*
X245179Y-117778D01*
X245070Y-117888D01*
X245015Y-118052D01*
X245015Y-118161D01*
X245070Y-118326D01*
X245179Y-118435D01*
X245289Y-118490D01*
X245453Y-118490D01*
X245563Y-118435D01*
X245672Y-118326D01*
X245727Y-118161D01*
X245727Y-118052D01*
X245672Y-117888D01*
X245563Y-117778D01*
X245453Y-117723D01*
X245289Y-117723D01*
X245979Y-117723D02*
X245979Y-118271D01*
X246034Y-118435D01*
X246143Y-118490D01*
X246307Y-118490D01*
X246417Y-118435D01*
X246581Y-118271D01*
X246581Y-117723D02*
X246581Y-118490D01*
X247046Y-117340D02*
X247046Y-118271D01*
X247101Y-118435D01*
X247211Y-118490D01*
X247320Y-118490D01*
X246882Y-117723D02*
X247265Y-117723D01*
X249209Y-117614D02*
X249154Y-117504D01*
X249045Y-117395D01*
X248935Y-117340D01*
X248716Y-117340D01*
X248607Y-117395D01*
X248497Y-117504D01*
X248443Y-117614D01*
X248388Y-117778D01*
X248388Y-118052D01*
X248443Y-118216D01*
X248497Y-118326D01*
X248607Y-118435D01*
X248716Y-118490D01*
X248935Y-118490D01*
X249045Y-118435D01*
X249154Y-118326D01*
X249209Y-118216D01*
X249806Y-117723D02*
X249696Y-117778D01*
X249587Y-117888D01*
X249532Y-118052D01*
X249532Y-118161D01*
X249587Y-118326D01*
X249696Y-118435D01*
X249806Y-118490D01*
X249970Y-118490D01*
X250080Y-118435D01*
X250189Y-118326D01*
X250244Y-118161D01*
X250244Y-118052D01*
X250189Y-117888D01*
X250080Y-117778D01*
X249970Y-117723D01*
X249806Y-117723D01*
X250496Y-117723D02*
X250496Y-118490D01*
X250496Y-117942D02*
X250660Y-117778D01*
X250769Y-117723D01*
X250934Y-117723D01*
X251043Y-117778D01*
X251098Y-117942D01*
X251098Y-118490D01*
X251563Y-117340D02*
X251563Y-118271D01*
X251618Y-118435D01*
X251728Y-118490D01*
X251837Y-118490D01*
X251399Y-117723D02*
X251782Y-117723D01*
X252658Y-117723D02*
X252658Y-118490D01*
X252658Y-117888D02*
X252549Y-117778D01*
X252439Y-117723D01*
X252275Y-117723D01*
X252166Y-117778D01*
X252056Y-117888D01*
X252001Y-118052D01*
X252001Y-118161D01*
X252056Y-118326D01*
X252166Y-118435D01*
X252275Y-118490D01*
X252439Y-118490D01*
X252549Y-118435D01*
X252658Y-118326D01*
X253622Y-117888D02*
X253512Y-117778D01*
X253403Y-117723D01*
X253239Y-117723D01*
X253129Y-117778D01*
X253020Y-117888D01*
X252965Y-118052D01*
X252965Y-118161D01*
X253020Y-118326D01*
X253129Y-118435D01*
X253239Y-118490D01*
X253403Y-118490D01*
X253512Y-118435D01*
X253622Y-118326D01*
X254033Y-117340D02*
X254033Y-118271D01*
X254087Y-118435D01*
X254197Y-118490D01*
X254306Y-118490D01*
X253868Y-117723D02*
X254252Y-117723D01*
X254525Y-117723D02*
X254471Y-117778D01*
X254525Y-117833D01*
X254580Y-117778D01*
X254525Y-117723D01*
X254525Y-118380D02*
X254471Y-118435D01*
X254525Y-118490D01*
X254580Y-118435D01*
X254525Y-118380D01*
X238270Y-123942D02*
X238763Y-123942D01*
X238927Y-123888D01*
X238982Y-123833D01*
X239037Y-123723D01*
X239037Y-123559D01*
X238982Y-123450D01*
X238927Y-123395D01*
X238763Y-123340D01*
X238270Y-123340D01*
X238270Y-124490D01*
X239294Y-123723D02*
X239294Y-124490D01*
X239294Y-124052D02*
X239349Y-123888D01*
X239458Y-123778D01*
X239568Y-123723D01*
X239732Y-123723D01*
X240110Y-123723D02*
X240000Y-123778D01*
X239891Y-123888D01*
X239836Y-124052D01*
X239836Y-124161D01*
X239891Y-124326D01*
X240000Y-124435D01*
X240110Y-124490D01*
X240274Y-124490D01*
X240383Y-124435D01*
X240493Y-124326D01*
X240548Y-124161D01*
X240548Y-124052D01*
X240493Y-123888D01*
X240383Y-123778D01*
X240274Y-123723D01*
X240110Y-123723D01*
X241018Y-123340D02*
X241073Y-123395D01*
X241128Y-123340D01*
X241073Y-123285D01*
X241018Y-123340D01*
X241073Y-123723D02*
X241073Y-124654D01*
X241018Y-124818D01*
X240909Y-124873D01*
X240799Y-124873D01*
X241342Y-124052D02*
X241999Y-124052D01*
X241999Y-123942D01*
X241944Y-123833D01*
X241889Y-123778D01*
X241779Y-123723D01*
X241615Y-123723D01*
X241506Y-123778D01*
X241396Y-123888D01*
X241342Y-124052D01*
X241342Y-124161D01*
X241396Y-124326D01*
X241506Y-124435D01*
X241615Y-124490D01*
X241779Y-124490D01*
X241889Y-124435D01*
X241999Y-124326D01*
X242902Y-123888D02*
X242792Y-123778D01*
X242683Y-123723D01*
X242519Y-123723D01*
X242409Y-123778D01*
X242300Y-123888D01*
X242245Y-124052D01*
X242245Y-124161D01*
X242300Y-124326D01*
X242409Y-124435D01*
X242519Y-124490D01*
X242683Y-124490D01*
X242792Y-124435D01*
X242902Y-124326D01*
X243313Y-123340D02*
X243313Y-124271D01*
X243367Y-124435D01*
X243477Y-124490D01*
X243586Y-124490D01*
X243148Y-123723D02*
X243532Y-123723D01*
X244982Y-123340D02*
X244873Y-123395D01*
X244763Y-123504D01*
X244709Y-123614D01*
X244654Y-123778D01*
X244654Y-124052D01*
X244709Y-124216D01*
X244763Y-124326D01*
X244873Y-124435D01*
X244982Y-124490D01*
X245201Y-124490D01*
X245311Y-124435D01*
X245420Y-124326D01*
X245475Y-124216D01*
X245530Y-124052D01*
X245530Y-123778D01*
X245475Y-123614D01*
X245420Y-123504D01*
X245311Y-123395D01*
X245201Y-123340D01*
X244982Y-123340D01*
X245798Y-123723D02*
X246017Y-124490D01*
X246236Y-123723D02*
X246017Y-124490D01*
X246236Y-123723D02*
X246455Y-124490D01*
X246674Y-123723D02*
X246455Y-124490D01*
X246942Y-123723D02*
X246942Y-124490D01*
X246942Y-123942D02*
X247107Y-123778D01*
X247216Y-123723D01*
X247380Y-123723D01*
X247490Y-123778D01*
X247545Y-123942D01*
X247545Y-124490D01*
X247846Y-124052D02*
X248503Y-124052D01*
X248503Y-123942D01*
X248448Y-123833D01*
X248393Y-123778D01*
X248284Y-123723D01*
X248120Y-123723D01*
X248010Y-123778D01*
X247901Y-123888D01*
X247846Y-124052D01*
X247846Y-124161D01*
X247901Y-124326D01*
X248010Y-124435D01*
X248120Y-124490D01*
X248284Y-124490D01*
X248393Y-124435D01*
X248503Y-124326D01*
X248749Y-123723D02*
X248749Y-124490D01*
X248749Y-124052D02*
X248804Y-123888D01*
X248913Y-123778D01*
X249023Y-123723D01*
X249187Y-123723D01*
X249346Y-123723D02*
X249291Y-123778D01*
X249346Y-123833D01*
X249401Y-123778D01*
X249346Y-123723D01*
X249346Y-124380D02*
X249291Y-124435D01*
X249346Y-124490D01*
X249401Y-124435D01*
X249346Y-124380D01*
X266270Y-123942D02*
X266763Y-123942D01*
X266927Y-123888D01*
X266982Y-123833D01*
X267037Y-123723D01*
X267037Y-123559D01*
X266982Y-123450D01*
X266927Y-123395D01*
X266763Y-123340D01*
X266270Y-123340D01*
X266270Y-124490D01*
X268115Y-123614D02*
X268060Y-123504D01*
X267951Y-123395D01*
X267841Y-123340D01*
X267622Y-123340D01*
X267513Y-123395D01*
X267403Y-123504D01*
X267349Y-123614D01*
X267294Y-123778D01*
X267294Y-124052D01*
X267349Y-124216D01*
X267403Y-124326D01*
X267513Y-124435D01*
X267622Y-124490D01*
X267841Y-124490D01*
X267951Y-124435D01*
X268060Y-124326D01*
X268115Y-124216D01*
X268438Y-123340D02*
X268438Y-124490D01*
X268438Y-123340D02*
X268931Y-123340D01*
X269095Y-123395D01*
X269150Y-123450D01*
X269205Y-123559D01*
X269205Y-123669D01*
X269150Y-123778D01*
X269095Y-123833D01*
X268931Y-123888D01*
X268438Y-123888D02*
X268931Y-123888D01*
X269095Y-123942D01*
X269150Y-123997D01*
X269205Y-124107D01*
X269205Y-124271D01*
X269150Y-124380D01*
X269095Y-124435D01*
X268931Y-124490D01*
X268438Y-124490D01*
X270365Y-123340D02*
X270365Y-124490D01*
X270365Y-123340D02*
X271132Y-124490D01*
X271132Y-123340D02*
X271132Y-124490D01*
X271449Y-123340D02*
X271449Y-124161D01*
X271504Y-124326D01*
X271614Y-124435D01*
X271778Y-124490D01*
X271887Y-124490D01*
X272052Y-124435D01*
X272161Y-124326D01*
X272216Y-124161D01*
X272216Y-123340D01*
X272533Y-123340D02*
X272533Y-124490D01*
X272533Y-123340D02*
X272971Y-124490D01*
X273409Y-123340D02*
X272971Y-124490D01*
X273409Y-123340D02*
X273409Y-124490D01*
X273738Y-123340D02*
X273738Y-124490D01*
X273738Y-123340D02*
X274231Y-123340D01*
X274395Y-123395D01*
X274450Y-123450D01*
X274504Y-123559D01*
X274504Y-123669D01*
X274450Y-123778D01*
X274395Y-123833D01*
X274231Y-123888D01*
X273738Y-123888D02*
X274231Y-123888D01*
X274395Y-123942D01*
X274450Y-123997D01*
X274504Y-124107D01*
X274504Y-124271D01*
X274450Y-124380D01*
X274395Y-124435D01*
X274231Y-124490D01*
X273738Y-124490D01*
X275474Y-123340D02*
X274762Y-123340D01*
X274762Y-124490D01*
X275474Y-124490D01*
X274762Y-123888D02*
X275200Y-123888D01*
X275665Y-123340D02*
X275665Y-124490D01*
X275665Y-123340D02*
X276158Y-123340D01*
X276322Y-123395D01*
X276377Y-123450D01*
X276432Y-123559D01*
X276432Y-123669D01*
X276377Y-123778D01*
X276322Y-123833D01*
X276158Y-123888D01*
X275665Y-123888D01*
X276048Y-123888D02*
X276432Y-124490D01*
X276744Y-123723D02*
X276689Y-123778D01*
X276744Y-123833D01*
X276798Y-123778D01*
X276744Y-123723D01*
X276744Y-124380D02*
X276689Y-124435D01*
X276744Y-124490D01*
X276798Y-124435D01*
X276744Y-124380D01*
X266270Y-117942D02*
X266763Y-117942D01*
X266927Y-117888D01*
X266982Y-117833D01*
X267037Y-117723D01*
X267037Y-117559D01*
X266982Y-117450D01*
X266927Y-117395D01*
X266763Y-117340D01*
X266270Y-117340D01*
X266270Y-118490D01*
X267294Y-117340D02*
X267294Y-118490D01*
X267951Y-118490D01*
X268405Y-117340D02*
X268296Y-117395D01*
X268186Y-117504D01*
X268132Y-117614D01*
X268077Y-117778D01*
X268077Y-118052D01*
X268132Y-118216D01*
X268186Y-118326D01*
X268296Y-118435D01*
X268405Y-118490D01*
X268624Y-118490D01*
X268734Y-118435D01*
X268843Y-118326D01*
X268898Y-118216D01*
X268953Y-118052D01*
X268953Y-117778D01*
X268898Y-117614D01*
X268843Y-117504D01*
X268734Y-117395D01*
X268624Y-117340D01*
X268405Y-117340D01*
X269604Y-117340D02*
X269604Y-118490D01*
X269221Y-117340D02*
X269988Y-117340D01*
X271028Y-117340D02*
X271028Y-118490D01*
X271028Y-117340D02*
X271794Y-118490D01*
X271794Y-117340D02*
X271794Y-118490D01*
X272988Y-118490D02*
X272550Y-117340D01*
X272112Y-118490D01*
X272276Y-118107D02*
X272824Y-118107D01*
X273256Y-117340D02*
X273256Y-118490D01*
X273256Y-117340D02*
X273694Y-118490D01*
X274132Y-117340D02*
X273694Y-118490D01*
X274132Y-117340D02*
X274132Y-118490D01*
X275172Y-117340D02*
X274461Y-117340D01*
X274461Y-118490D01*
X275172Y-118490D01*
X274461Y-117888D02*
X274899Y-117888D01*
X276267Y-118654D02*
X277034Y-117340D01*
X278835Y-117614D02*
X278780Y-117504D01*
X278671Y-117395D01*
X278561Y-117340D01*
X278342Y-117340D01*
X278233Y-117395D01*
X278123Y-117504D01*
X278069Y-117614D01*
X278014Y-117778D01*
X278014Y-118052D01*
X278069Y-118216D01*
X278123Y-118326D01*
X278233Y-118435D01*
X278342Y-118490D01*
X278561Y-118490D01*
X278671Y-118435D01*
X278780Y-118326D01*
X278835Y-118216D01*
X278835Y-118052D01*
X278561Y-118052D02*
X278835Y-118052D01*
X279810Y-117340D02*
X279098Y-117340D01*
X279098Y-118490D01*
X279810Y-118490D01*
X279098Y-117888D02*
X279536Y-117888D01*
X280001Y-117340D02*
X280001Y-118490D01*
X280001Y-117340D02*
X280494Y-117340D01*
X280658Y-117395D01*
X280713Y-117450D01*
X280768Y-117559D01*
X280768Y-117669D01*
X280713Y-117778D01*
X280658Y-117833D01*
X280494Y-117888D01*
X280001Y-117888D01*
X280385Y-117888D02*
X280768Y-118490D01*
X281025Y-117340D02*
X281025Y-118490D01*
X281025Y-117340D02*
X281518Y-117340D01*
X281682Y-117395D01*
X281737Y-117450D01*
X281792Y-117559D01*
X281792Y-117669D01*
X281737Y-117778D01*
X281682Y-117833D01*
X281518Y-117888D01*
X281025Y-117888D02*
X281518Y-117888D01*
X281682Y-117942D01*
X281737Y-117997D01*
X281792Y-118107D01*
X281792Y-118271D01*
X281737Y-118380D01*
X281682Y-118435D01*
X281518Y-118490D01*
X281025Y-118490D01*
X282761Y-117340D02*
X282049Y-117340D01*
X282049Y-118490D01*
X282761Y-118490D01*
X282049Y-117888D02*
X282487Y-117888D01*
X282952Y-117340D02*
X282952Y-118490D01*
X282952Y-117340D02*
X283445Y-117340D01*
X283609Y-117395D01*
X283664Y-117450D01*
X283719Y-117559D01*
X283719Y-117669D01*
X283664Y-117778D01*
X283609Y-117833D01*
X283445Y-117888D01*
X282952Y-117888D01*
X283336Y-117888D02*
X283719Y-118490D01*
X284880Y-117340D02*
X284880Y-118490D01*
X284880Y-117340D02*
X285591Y-117340D01*
X284880Y-117888D02*
X285318Y-117888D01*
X285723Y-117340D02*
X285723Y-118490D01*
X285964Y-117340D02*
X285964Y-118490D01*
X286621Y-118490D01*
X287458Y-117340D02*
X286747Y-117340D01*
X286747Y-118490D01*
X287458Y-118490D01*
X286747Y-117888D02*
X287185Y-117888D01*
X287705Y-117723D02*
X287650Y-117778D01*
X287705Y-117833D01*
X287759Y-117778D01*
X287705Y-117723D01*
X287705Y-118380D02*
X287650Y-118435D01*
X287705Y-118490D01*
X287759Y-118435D01*
X287705Y-118380D01*
X297020Y-129090D02*
X297020Y-130240D01*
X297020Y-129090D02*
X297513Y-129090D01*
X297677Y-129145D01*
X297732Y-129200D01*
X297787Y-129309D01*
X297787Y-129419D01*
X297732Y-129528D01*
X297677Y-129583D01*
X297513Y-129638D01*
X297020Y-129638D01*
X297403Y-129638D02*
X297787Y-130240D01*
X298756Y-129090D02*
X298044Y-129090D01*
X298044Y-130240D01*
X298756Y-130240D01*
X298044Y-129638D02*
X298482Y-129638D01*
X298947Y-129090D02*
X299385Y-130240D01*
X299823Y-129090D02*
X299385Y-130240D01*
X300026Y-129473D02*
X299971Y-129528D01*
X300026Y-129583D01*
X300081Y-129528D01*
X300026Y-129473D01*
X300026Y-130130D02*
X299971Y-130185D01*
X300026Y-130240D01*
X300081Y-130185D01*
X300026Y-130130D01*
X305268Y-126240D02*
X305089Y-126300D01*
X305030Y-126419D01*
X305030Y-126538D01*
X305089Y-126657D01*
X305208Y-126716D01*
X305446Y-126776D01*
X305625Y-126835D01*
X305744Y-126954D01*
X305803Y-127073D01*
X305803Y-127252D01*
X305744Y-127371D01*
X305684Y-127430D01*
X305506Y-127490D01*
X305268Y-127490D01*
X305089Y-127430D01*
X305030Y-127371D01*
X304970Y-127252D01*
X304970Y-127073D01*
X305030Y-126954D01*
X305149Y-126835D01*
X305327Y-126776D01*
X305565Y-126716D01*
X305684Y-126657D01*
X305744Y-126538D01*
X305744Y-126419D01*
X305684Y-126300D01*
X305506Y-126240D01*
X305268Y-126240D01*
X306083Y-127669D02*
X306916Y-126240D01*
X306999Y-126478D02*
X307118Y-126419D01*
X307297Y-126240D01*
X307297Y-127490D01*
X308511Y-126240D02*
X307916Y-127073D01*
X308808Y-127073D01*
X308511Y-126240D02*
X308511Y-127490D01*
X309029Y-127669D02*
X309862Y-126240D01*
X310005Y-126538D02*
X310005Y-126478D01*
X310064Y-126359D01*
X310124Y-126300D01*
X310243Y-126240D01*
X310481Y-126240D01*
X310600Y-126300D01*
X310659Y-126359D01*
X310719Y-126478D01*
X310719Y-126597D01*
X310659Y-126716D01*
X310540Y-126895D01*
X309945Y-127490D01*
X310778Y-127490D01*
X311415Y-126240D02*
X311237Y-126300D01*
X311118Y-126478D01*
X311058Y-126776D01*
X311058Y-126954D01*
X311118Y-127252D01*
X311237Y-127430D01*
X311415Y-127490D01*
X311534Y-127490D01*
X311713Y-127430D01*
X311832Y-127252D01*
X311891Y-126954D01*
X311891Y-126776D01*
X311832Y-126478D01*
X311713Y-126300D01*
X311534Y-126240D01*
X311415Y-126240D01*
X312230Y-126538D02*
X312230Y-126478D01*
X312290Y-126359D01*
X312349Y-126300D01*
X312468Y-126240D01*
X312706Y-126240D01*
X312825Y-126300D01*
X312885Y-126359D01*
X312944Y-126478D01*
X312944Y-126597D01*
X312885Y-126716D01*
X312766Y-126895D01*
X312171Y-127490D01*
X313004Y-127490D01*
X313879Y-126240D02*
X313284Y-127073D01*
X314176Y-127073D01*
X313879Y-126240D02*
X313879Y-127490D01*
X304970Y-123340D02*
X304970Y-124490D01*
X304970Y-123340D02*
X305353Y-123340D01*
X305518Y-123395D01*
X305627Y-123504D01*
X305682Y-123614D01*
X305737Y-123778D01*
X305737Y-124052D01*
X305682Y-124216D01*
X305627Y-124326D01*
X305518Y-124435D01*
X305353Y-124490D01*
X304970Y-124490D01*
X306870Y-124490D02*
X306432Y-123340D01*
X305994Y-124490D01*
X306158Y-124107D02*
X306706Y-124107D01*
X307521Y-123340D02*
X307521Y-124490D01*
X307138Y-123340D02*
X307905Y-123340D01*
X308753Y-123340D02*
X308042Y-123340D01*
X308042Y-124490D01*
X308753Y-124490D01*
X308042Y-123888D02*
X308480Y-123888D01*
X309000Y-123723D02*
X308945Y-123778D01*
X309000Y-123833D01*
X309054Y-123778D01*
X309000Y-123723D01*
X309000Y-124380D02*
X308945Y-124435D01*
X309000Y-124490D01*
X309054Y-124435D01*
X309000Y-124380D01*
X238653Y-108840D02*
X238653Y-109990D01*
X238270Y-108840D02*
X239037Y-108840D01*
X239173Y-108840D02*
X239173Y-109990D01*
X239798Y-108840D02*
X239798Y-109990D01*
X239414Y-108840D02*
X240181Y-108840D01*
X240318Y-108840D02*
X240318Y-109990D01*
X240975Y-109990D01*
X241812Y-108840D02*
X241101Y-108840D01*
X241101Y-109990D01*
X241812Y-109990D01*
X241101Y-109388D02*
X241539Y-109388D01*
X242059Y-109223D02*
X242004Y-109278D01*
X242059Y-109333D01*
X242113Y-109278D01*
X242059Y-109223D01*
X242059Y-109880D02*
X242004Y-109935D01*
X242059Y-109990D01*
X242113Y-109935D01*
X242059Y-109880D01*
X290270Y-108942D02*
X290763Y-108942D01*
X290927Y-108888D01*
X290982Y-108833D01*
X291037Y-108723D01*
X291037Y-108559D01*
X290982Y-108450D01*
X290927Y-108395D01*
X290763Y-108340D01*
X290270Y-108340D01*
X290270Y-109490D01*
X292170Y-109490D02*
X291732Y-108340D01*
X291294Y-109490D01*
X291458Y-109107D02*
X292006Y-109107D01*
X292438Y-108340D02*
X292438Y-109490D01*
X292438Y-108340D02*
X292931Y-108340D01*
X293095Y-108395D01*
X293150Y-108450D01*
X293205Y-108559D01*
X293205Y-108669D01*
X293150Y-108778D01*
X293095Y-108833D01*
X292931Y-108888D01*
X292438Y-108888D01*
X292821Y-108888D02*
X293205Y-109490D01*
X293845Y-108340D02*
X293845Y-109490D01*
X293462Y-108340D02*
X294228Y-108340D01*
X295269Y-108340D02*
X295269Y-109490D01*
X295269Y-108340D02*
X296035Y-109490D01*
X296035Y-108340D02*
X296035Y-109490D01*
X296353Y-108340D02*
X296353Y-109161D01*
X296408Y-109326D01*
X296517Y-109435D01*
X296681Y-109490D01*
X296791Y-109490D01*
X296955Y-109435D01*
X297065Y-109326D01*
X297119Y-109161D01*
X297119Y-108340D01*
X297437Y-108340D02*
X297437Y-109490D01*
X297437Y-108340D02*
X297875Y-109490D01*
X298313Y-108340D02*
X297875Y-109490D01*
X298313Y-108340D02*
X298313Y-109490D01*
X298641Y-108340D02*
X298641Y-109490D01*
X298641Y-108340D02*
X299134Y-108340D01*
X299298Y-108395D01*
X299353Y-108450D01*
X299408Y-108559D01*
X299408Y-108669D01*
X299353Y-108778D01*
X299298Y-108833D01*
X299134Y-108888D01*
X298641Y-108888D02*
X299134Y-108888D01*
X299298Y-108942D01*
X299353Y-108997D01*
X299408Y-109107D01*
X299408Y-109271D01*
X299353Y-109380D01*
X299298Y-109435D01*
X299134Y-109490D01*
X298641Y-109490D01*
X300377Y-108340D02*
X299665Y-108340D01*
X299665Y-109490D01*
X300377Y-109490D01*
X299665Y-108888D02*
X300103Y-108888D01*
X300569Y-108340D02*
X300569Y-109490D01*
X300569Y-108340D02*
X301061Y-108340D01*
X301226Y-108395D01*
X301280Y-108450D01*
X301335Y-108559D01*
X301335Y-108669D01*
X301280Y-108778D01*
X301226Y-108833D01*
X301061Y-108888D01*
X300569Y-108888D01*
X300952Y-108888D02*
X301335Y-109490D01*
X301647Y-108723D02*
X301592Y-108778D01*
X301647Y-108833D01*
X301702Y-108778D01*
X301647Y-108723D01*
X301647Y-109380D02*
X301592Y-109435D01*
X301647Y-109490D01*
X301702Y-109435D01*
X301647Y-109380D01*
D15*
X312970Y-130090D02*
X312970Y-129490D01*
X319090Y-110490D02*
X319090Y-110490D01*
X307970Y-130290D02*
X307970Y-129290D01*
X307810Y-132125D02*
X307810Y-130855D01*
X310350Y-132125D02*
X310350Y-130855D01*
X312890Y-132125D02*
X312890Y-130855D01*
X315430Y-132125D02*
X315430Y-130855D01*
X317970Y-130290D02*
X317970Y-129290D01*
X317970Y-132125D02*
X317970Y-130855D01*
X289270Y-110490D02*
X289270Y-107490D01*
X307810Y-131490D02*
X317970Y-131490D01*
X307970Y-129790D02*
X317970Y-129790D01*
X289270Y-110490D02*
X319090Y-110490D01*
X237270Y-114990D02*
X319090Y-114990D01*
X304503Y-131090D02*
X304170Y-131557D01*
X304670Y-131557D01*
X304503Y-131090D02*
X304503Y-131790D01*
X304993Y-131090D02*
X304893Y-131123D01*
X304827Y-131223D01*
X304793Y-131390D01*
X304793Y-131490D01*
X304827Y-131657D01*
X304893Y-131757D01*
X304993Y-131790D01*
X305060Y-131790D01*
X305160Y-131757D01*
X305226Y-131657D01*
X305260Y-131490D01*
X305260Y-131390D01*
X305226Y-131223D01*
X305160Y-131123D01*
X305060Y-131090D01*
X304993Y-131090D01*
X305616Y-131090D02*
X305516Y-131123D01*
X305450Y-131223D01*
X305416Y-131390D01*
X305416Y-131490D01*
X305450Y-131657D01*
X305516Y-131757D01*
X305616Y-131790D01*
X305683Y-131790D01*
X305783Y-131757D01*
X305850Y-131657D01*
X305883Y-131490D01*
X305883Y-131390D01*
X305850Y-131223D01*
X305783Y-131123D01*
X305683Y-131090D01*
X305616Y-131090D01*
X306040Y-131323D02*
X306040Y-131790D01*
X306040Y-131457D02*
X306140Y-131357D01*
X306206Y-131323D01*
X306306Y-131323D01*
X306373Y-131357D01*
X306406Y-131457D01*
X306406Y-131790D01*
X306406Y-131457D02*
X306506Y-131357D01*
X306573Y-131323D01*
X306673Y-131323D01*
X306739Y-131357D01*
X306773Y-131457D01*
X306773Y-131790D01*
X307059Y-131090D02*
X307093Y-131123D01*
X307126Y-131090D01*
X307093Y-131057D01*
X307059Y-131090D01*
X307093Y-131323D02*
X307093Y-131790D01*
X307249Y-131090D02*
X307249Y-131790D01*
X304270Y-129523D02*
X304337Y-129490D01*
X304437Y-129390D01*
X304437Y-130090D01*
X304983Y-129390D02*
X304883Y-129423D01*
X304817Y-129523D01*
X304783Y-129690D01*
X304783Y-129790D01*
X304817Y-129957D01*
X304883Y-130057D01*
X304983Y-130090D01*
X305050Y-130090D01*
X305150Y-130057D01*
X305216Y-129957D01*
X305250Y-129790D01*
X305250Y-129690D01*
X305216Y-129523D01*
X305150Y-129423D01*
X305050Y-129390D01*
X304983Y-129390D01*
X305406Y-129623D02*
X305406Y-130090D01*
X305406Y-129757D02*
X305506Y-129657D01*
X305573Y-129623D01*
X305673Y-129623D01*
X305740Y-129657D01*
X305773Y-129757D01*
X305773Y-130090D01*
X305773Y-129757D02*
X305873Y-129657D01*
X305940Y-129623D01*
X306040Y-129623D01*
X306106Y-129657D01*
X306140Y-129757D01*
X306140Y-130090D01*
X306360Y-129623D02*
X306360Y-130090D01*
X306360Y-129757D02*
X306460Y-129657D01*
X306526Y-129623D01*
X306626Y-129623D01*
X306693Y-129657D01*
X306726Y-129757D01*
X306726Y-130090D01*
X306726Y-129757D02*
X306826Y-129657D01*
X306893Y-129623D01*
X306993Y-129623D01*
X307059Y-129657D01*
X307093Y-129757D01*
X307093Y-130090D01*
D16*
X296270Y-132910D02*
X296270Y-128490D01*
X265270Y-132910D02*
X265270Y-116490D01*
X283270Y-128490D02*
X283270Y-122490D01*
X303770Y-132910D02*
X303770Y-122490D01*
X203270Y-132910D02*
X203270Y-107490D01*
X237270Y-132910D02*
X237270Y-107490D01*
X319090Y-132910D02*
X319090Y-107490D01*
X203270Y-132910D02*
X319090Y-132910D01*
X237270Y-128490D02*
X319090Y-128490D01*
X237270Y-122490D02*
X319090Y-122490D01*
X237270Y-116490D02*
X319090Y-116490D01*
X203270Y-107490D02*
X319090Y-107490D01*
X169230Y-132910D02*
X204790Y-132910D01*
X6670Y-137990D02*
X6670Y-132910D01*
X-56830Y-77665D02*
X-51750Y-77665D01*
X-56830Y-17340D02*
X-51750Y-17340D01*
X-56830Y42985D02*
X-51750Y42985D01*
X-51750Y-132910D02*
X319090Y-132910D01*
X-51750Y-132910D02*
X-51750Y98230D01*
X-56830Y-137990D02*
X324170Y-137990D01*
X-56830Y-137990D02*
X-56830Y103310D01*
X319090Y-132910D02*
X319090Y-102430D01*
X70170Y-137990D02*
X70170Y-132910D01*
X133670Y-137990D02*
X133670Y-132910D01*
X197170Y-137990D02*
X197170Y-132910D01*
X260670Y-137990D02*
X260670Y-132910D01*
X319090Y-77665D02*
X324170Y-77665D01*
X319090Y-17340D02*
X324170Y-17340D01*
X319090Y42985D02*
X324170Y42985D01*
X324170Y-137990D02*
X324170Y103310D01*
X319090Y-132910D02*
X319090Y98230D01*
X6670Y98230D02*
X6670Y103310D01*
X-56830Y103310D02*
X324170Y103310D01*
X-51750Y98230D02*
X319090Y98230D01*
X70170Y98230D02*
X70170Y103310D01*
X133670Y98230D02*
X133670Y103310D01*
X197170Y98230D02*
X197170Y103310D01*
X260670Y98230D02*
X260670Y103310D01*
D17*
X238651Y-125890D02*
X238651Y-126804D01*
X238270Y-126119D02*
X239032Y-126576D01*
X239032Y-126119D02*
X238270Y-126576D01*
X239740Y-125890D02*
X239740Y-126804D01*
X239359Y-126119D02*
X240121Y-126576D01*
X240121Y-126119D02*
X239359Y-126576D01*
X266727Y-125890D02*
X266499Y-125966D01*
X266346Y-126195D01*
X266270Y-126576D01*
X266270Y-126804D01*
X266346Y-127185D01*
X266499Y-127414D01*
X266727Y-127490D01*
X266879Y-127490D01*
X267108Y-127414D01*
X267260Y-127185D01*
X267336Y-126804D01*
X267336Y-126576D01*
X267260Y-126195D01*
X267108Y-125966D01*
X266879Y-125890D01*
X266727Y-125890D01*
X268456Y-125890D02*
X267694Y-126957D01*
X268837Y-126957D01*
X268456Y-125890D02*
X268456Y-127490D01*
X269119Y-126804D02*
X270490Y-126804D01*
X271343Y-125890D02*
X271343Y-126804D01*
X270962Y-126119D02*
X271724Y-126576D01*
X271724Y-126119D02*
X270962Y-126576D01*
X272432Y-125890D02*
X272432Y-126804D01*
X272052Y-126119D02*
X272813Y-126576D01*
X272813Y-126119D02*
X272052Y-126576D01*
D18*
X238865Y-111491D02*
X238865Y-112919D01*
X238270Y-111848D02*
X239460Y-112562D01*
X239460Y-111848D02*
X238270Y-112562D01*
X240567Y-111491D02*
X240567Y-112919D01*
X239972Y-111848D02*
X241162Y-112562D01*
X241162Y-111848D02*
X239972Y-112562D01*
D19*
X9665Y12730D02*
D03*
X9665Y14330D02*
D03*
X20562Y8514D02*
D03*
X20562Y10114D02*
D03*
X20562Y19004D02*
D03*
X20562Y17404D02*
D03*
X9005Y4748D02*
D03*
X9005Y3148D02*
D03*
X7837Y10985D02*
D03*
X7837Y9385D02*
D03*
X18369Y2565D02*
D03*
X18369Y4165D02*
D03*
X9513Y18565D02*
D03*
X9513Y16965D02*
D03*
X6439Y9385D02*
D03*
X6439Y10985D02*
D03*
X5043Y9385D02*
D03*
X5043Y10985D02*
D03*
X4636Y21163D02*
D03*
X4636Y19563D02*
D03*
X9513Y19848D02*
D03*
X9513Y21448D02*
D03*
X10605Y28921D02*
D03*
X10605Y30521D02*
D03*
X10605Y27664D02*
D03*
X10605Y26064D02*
D03*
X14523Y27655D02*
D03*
X14523Y26055D02*
D03*
X15844Y26055D02*
D03*
X15844Y27655D02*
D03*
X17216Y26055D02*
D03*
X17216Y27655D02*
D03*
X20268Y29012D02*
D03*
X20268Y30612D02*
D03*
X22252Y28986D02*
D03*
X22252Y27386D02*
D03*
X23748Y27386D02*
D03*
X23748Y28986D02*
D03*
D20*
X20333Y15511D02*
D03*
X5639Y24994D02*
D03*
X18682Y24808D02*
D03*
X8846Y26509D02*
D03*
D21*
X6503Y3065D02*
D03*
X4903Y3065D02*
D03*
D22*
X14034Y8519D02*
D03*
X15304Y8519D02*
D03*
X16574Y8519D02*
D03*
X17844Y8519D02*
D03*
X19114Y8519D02*
D03*
X12764Y8519D02*
D03*
X11494Y8519D02*
D03*
X11494Y13919D02*
D03*
X12764Y13919D02*
D03*
X14034Y13919D02*
D03*
X15304Y13919D02*
D03*
X16574Y13919D02*
D03*
X17844Y13919D02*
D03*
X19114Y13919D02*
D03*
X14034Y17340D02*
D03*
X15304Y17340D02*
D03*
X16574Y17340D02*
D03*
X17844Y17340D02*
D03*
X19114Y17340D02*
D03*
X12764Y17340D02*
D03*
X11494Y17340D02*
D03*
X11494Y22740D02*
D03*
X12764Y22740D02*
D03*
X14034Y22740D02*
D03*
X15304Y22740D02*
D03*
X16574Y22740D02*
D03*
X17844Y22740D02*
D03*
X19114Y22740D02*
D03*
D23*
X8891Y15664D02*
D03*
X10491Y15664D02*
D03*
X10567Y4761D02*
D03*
X12167Y4761D02*
D03*
X5983Y4761D02*
D03*
X7583Y4761D02*
D03*
X5284Y22344D02*
D03*
X6884Y22344D02*
D03*
X6452Y1592D02*
D03*
X4852Y1592D02*
D03*
X9602Y24427D02*
D03*
X11202Y24427D02*
D03*
X11761Y27779D02*
D03*
X13361Y27779D02*
D03*
X20244Y27602D02*
D03*
X18644Y27602D02*
D03*
X18619Y32631D02*
D03*
X20219Y32631D02*
D03*
D24*
X16835Y4183D02*
D03*
X14535Y5133D02*
D03*
X14535Y3233D02*
D03*
D25*
X7567Y19223D02*
D03*
X6917Y19223D02*
D03*
X6267Y19223D02*
D03*
X5617Y19223D02*
D03*
X7567Y13323D02*
D03*
X6917Y13323D02*
D03*
X6267Y13323D02*
D03*
X5617Y13323D02*
D03*
D26*
X18595Y29295D02*
D03*
X18595Y29945D02*
D03*
X18595Y30595D02*
D03*
X18595Y31245D02*
D03*
X12695Y29295D02*
D03*
X12695Y29945D02*
D03*
X12695Y30595D02*
D03*
X12695Y31245D02*
D03*
D39*
X5119Y37914D02*
D03*
D40*
X20333Y37914D02*
D03*
D41*
X12730Y8553D02*
X12764Y8519D01*
X12696Y9719D02*
X12730Y9684D01*
X12730Y8553D02*
X12730Y9684D01*
X1944Y23741D02*
X1944Y23792D01*
X13348Y5097D02*
X13366Y5115D01*
X14517Y5115D01*
X14535Y5133D01*
X12764Y17340D02*
X12764Y18940D01*
X11761Y27779D02*
X11761Y27805D01*
X11761Y27157D02*
X11761Y27779D01*
X4539Y21116D02*
X4826Y21116D01*
X6452Y1592D02*
X7557Y1592D01*
X6300Y1592D02*
X6452Y1592D01*
X23974Y6350D02*
X24130Y6350D01*
X21789Y4165D02*
X23974Y6350D01*
X18082Y31245D02*
X18595Y31245D01*
X18057Y31220D02*
X18082Y31245D01*
X7567Y13323D02*
X7588Y13323D01*
X7590Y13321D01*
X6741Y3265D02*
X7583Y4107D01*
X7583Y4761D01*
X8992Y4761D01*
X20283Y25544D02*
X21756Y24071D01*
X21756Y23208D02*
X21756Y24071D01*
X7557Y1592D02*
X7557Y1592D01*
X7837Y9385D02*
X7887Y9385D01*
X8087Y9185D01*
X3722Y12463D02*
X4611Y13352D01*
X4611Y19537D01*
X3722Y6748D02*
X3722Y12463D01*
X3722Y6748D02*
X3747Y6723D01*
X4636Y19563D02*
X4696Y19503D01*
X5594Y19503D02*
X5617Y19480D01*
X5617Y19223D02*
X5617Y19480D01*
X4696Y19503D02*
X5594Y19503D01*
X19190Y17404D02*
X20562Y17404D01*
X21591Y17404D01*
X20562Y8564D02*
X21591Y8564D01*
X2859Y4761D02*
X5983Y4761D01*
X1270Y6350D02*
X2859Y4761D01*
X9018Y4761D02*
X10542Y4761D01*
X7980Y3132D02*
X8849Y3132D01*
X7964Y3116D02*
X7980Y3132D01*
X16835Y4183D02*
X18352Y4183D01*
X18369Y4165D02*
X21789Y4165D01*
X18352Y4183D02*
X18369Y4165D01*
X18386Y2549D02*
X19301Y2549D01*
X19317Y2532D01*
X18369Y2565D02*
X18386Y2549D01*
X12764Y18940D02*
X12815Y18991D01*
X6703Y3265D02*
X6741Y3265D01*
X6541Y3065D02*
X6541Y3103D01*
X6703Y3265D01*
X13695Y3233D02*
X14535Y3233D01*
X12167Y4761D02*
X13695Y3233D01*
X5017Y6850D02*
X5017Y9359D01*
X19114Y8544D02*
X20478Y8544D01*
X13361Y26497D02*
X13374Y26484D01*
X13361Y26497D02*
X13361Y27805D01*
X11748Y26955D02*
X11748Y27144D01*
X11761Y27157D01*
X12695Y28471D02*
X12695Y29295D01*
X12695Y28471D02*
X13361Y27805D01*
D42*
X1270Y21590D02*
D03*
D43*
X1270Y19050D02*
D03*
X1270Y11430D02*
D03*
X1270Y6350D02*
D03*
X1270Y8890D02*
D03*
X1270Y13970D02*
D03*
X1270Y3810D02*
D03*
X1270Y16510D02*
D03*
X24130Y3810D02*
D03*
X24130Y13970D02*
D03*
X24130Y8890D02*
D03*
X24130Y11430D02*
D03*
X24130Y21590D02*
D03*
X24130Y16510D02*
D03*
X24130Y19050D02*
D03*
X24130Y6350D02*
D03*
D44*
X13919Y34874D02*
D03*
D45*
X11379Y34874D02*
D03*
D46*
X11430Y15545D02*
D03*
X7811Y8247D02*
D03*
X16981Y11854D02*
D03*
X17870Y10279D02*
D03*
X3722Y15537D02*
D03*
X10478Y17797D02*
D03*
X12764Y39425D02*
D03*
X12764Y41546D02*
D03*
X12764Y37304D02*
D03*
X12764Y32478D02*
D03*
X10021Y11498D02*
D03*
X8599Y12082D02*
D03*
X14364Y11930D02*
D03*
X15685Y9847D02*
D03*
X13970Y9771D02*
D03*
X12696Y9719D02*
D03*
X10961Y9745D02*
D03*
X8294Y32478D02*
D03*
X15761Y5097D02*
D03*
X2071Y23792D02*
D03*
X6948Y23512D02*
D03*
X5728Y28364D02*
D03*
X20359Y5097D02*
D03*
X13348Y5097D02*
D03*
X8472Y13301D02*
D03*
X10631Y20566D02*
D03*
X20422Y13970D02*
D03*
X23737Y33088D02*
D03*
X2071Y32936D02*
D03*
X2071Y30650D02*
D03*
X2071Y28364D02*
D03*
X2071Y26078D02*
D03*
X19216Y10228D02*
D03*
X19394Y11701D02*
D03*
X2706Y9441D02*
D03*
X2376Y17746D02*
D03*
X11697Y2710D02*
D03*
X21299Y1363D02*
D03*
X20562Y20185D02*
D03*
X23737Y30243D02*
D03*
X16930Y31107D02*
D03*
X15025Y30548D02*
D03*
X10199Y8221D02*
D03*
X7735Y16908D02*
D03*
X8599Y20642D02*
D03*
X9386Y22725D02*
D03*
X19190Y20337D02*
D03*
X20384Y23563D02*
D03*
X24423Y25544D02*
D03*
X24423Y23360D02*
D03*
X5652Y14902D02*
D03*
X13615Y15562D02*
D03*
X7557Y1592D02*
D03*
X6440Y8221D02*
D03*
X3620Y21201D02*
D03*
X9234Y10406D02*
D03*
X7964Y3116D02*
D03*
X15340Y15344D02*
D03*
X12815Y18991D02*
D03*
X13653Y21252D02*
D03*
X15380Y21252D02*
D03*
X16447Y15638D02*
D03*
X17133Y19245D02*
D03*
X18606Y19245D02*
D03*
X19317Y2532D02*
D03*
X11748Y19728D02*
D03*
X7862Y24325D02*
D03*
X20283Y25544D02*
D03*
X13374Y26484D02*
D03*
X9755Y30470D02*
D03*
X15863Y29303D02*
D03*
X11748Y26929D02*
D03*
M02*
