G04*
G04 #@! TF.GenerationSoftware,Altium Limited,Altium Designer,24.4.1 (13)*
G04*
G04 Layer_Color=32896*
%FSLAX43Y43*%
%MOMM*%
G71*
G04*
G04 #@! TF.SameCoordinates,2DE5EF95-E663-491B-9A70-27DC17531A01*
G04*
G04*
G04 #@! TF.FilePolarity,Positive*
G04*
G01*
G75*
%ADD10C,0.200*%
%ADD11C,0.152*%
%ADD13C,0.178*%
%ADD14C,0.150*%
%ADD15C,0.100*%
%ADD16C,0.127*%
%ADD17C,0.180*%
%ADD18C,0.350*%
G36*
X4666Y38828D02*
X4560Y38828D01*
X4560Y38849D01*
X4539Y38849D01*
X4539Y38954D01*
X4666Y38954D01*
X4666Y38828D01*
X4666Y38828D02*
G37*
G36*
X4434Y38280D02*
X4328Y38280D01*
X4328Y38301D01*
X4307Y38301D01*
X4307Y38427D01*
X4328Y38427D01*
X4328Y38469D01*
X4286Y38469D01*
X4286Y38448D01*
X4265Y38448D01*
X4265Y38427D01*
X4244Y38427D01*
X4244Y38406D01*
X4223Y38406D01*
X4223Y38385D01*
X4223Y38364D01*
X4202Y38364D01*
X4202Y38343D01*
X4181Y38343D01*
X4181Y38322D01*
X4160Y38322D01*
X4160Y38301D01*
X4138Y38301D01*
X4138Y38280D01*
X3991Y38280D01*
X3991Y38322D01*
X4012Y38322D01*
X4012Y38343D01*
X4033Y38343D01*
X4033Y38364D01*
X4054Y38364D01*
X4054Y38385D01*
X4075Y38385D01*
X4075Y38406D01*
X4096Y38406D01*
X4096Y38448D01*
X4117Y38448D01*
X4117Y38469D01*
X4138Y38469D01*
X4138Y38490D01*
X4160Y38490D01*
X4160Y38511D01*
X4181Y38511D01*
X4181Y38533D01*
X4160Y38533D01*
X4160Y38554D01*
X4138Y38554D01*
X4138Y38575D01*
X4117Y38575D01*
X4117Y38596D01*
X4096Y38596D01*
X4096Y38617D01*
X4075Y38617D01*
X4075Y38638D01*
X4054Y38638D01*
X4054Y38659D01*
X4033Y38659D01*
X4033Y38680D01*
X4012Y38680D01*
X4012Y38701D01*
X3991Y38701D01*
X3991Y38743D01*
X4138Y38743D01*
X4138Y38722D01*
X4160Y38722D01*
X4160Y38701D01*
X4181Y38701D01*
X4181Y38680D01*
X4202Y38680D01*
X4202Y38659D01*
X4223Y38659D01*
X4223Y38617D01*
X4244Y38617D01*
X4244Y38596D01*
X4265Y38596D01*
X4265Y38575D01*
X4286Y38575D01*
X4286Y38554D01*
X4328Y38554D01*
X4328Y38596D01*
X4307Y38596D01*
X4307Y38933D01*
X4328Y38933D01*
X4328Y38954D01*
X4434Y38954D01*
X4434Y38280D01*
X4434Y38280D02*
G37*
G36*
X5424Y38427D02*
X5424Y38406D01*
X5424Y38301D01*
X5403Y38301D01*
X5403Y38280D01*
X5298Y38280D01*
X5298Y38638D01*
X5172Y38638D01*
X5172Y38617D01*
X5150Y38617D01*
X5150Y38343D01*
X5172Y38343D01*
X5172Y38301D01*
X5150Y38301D01*
X5150Y38280D01*
X5045Y38280D01*
X5045Y38301D01*
X5024Y38301D01*
X5024Y38596D01*
X5045Y38596D01*
X5045Y38617D01*
X5024Y38617D01*
X5024Y38638D01*
X4919Y38638D01*
X4919Y38617D01*
X4897Y38617D01*
X4897Y38280D01*
X4771Y38280D01*
X4771Y38638D01*
X4792Y38638D01*
X4792Y38680D01*
X4813Y38680D01*
X4813Y38701D01*
X4834Y38701D01*
X4834Y38722D01*
X4876Y38722D01*
X4876Y38743D01*
X5424Y38743D01*
X5424Y38427D01*
X5424Y38427D02*
G37*
G36*
X4666Y38280D02*
X4560Y38280D01*
X4560Y38301D01*
X4539Y38301D01*
X4539Y38743D01*
X4666Y38743D01*
X4666Y38280D01*
X4666Y38280D02*
G37*
G36*
X3928Y38722D02*
X3928Y38701D01*
X3928Y38280D01*
X3822Y38280D01*
X3822Y38301D01*
X3801Y38301D01*
X3801Y38659D01*
X3759Y38659D01*
X3759Y38638D01*
X3717Y38638D01*
X3717Y38554D01*
X3590Y38554D01*
X3590Y38638D01*
X3611Y38638D01*
X3611Y38701D01*
X3633Y38701D01*
X3633Y38722D01*
X3654Y38722D01*
X3654Y38743D01*
X3928Y38743D01*
X3928Y38722D01*
X3928Y38722D02*
G37*
G36*
X3422Y38722D02*
X3464Y38722D01*
X3464Y38701D01*
X3485Y38701D01*
X3485Y38680D01*
X3506Y38680D01*
X3506Y38659D01*
X3527Y38659D01*
X3527Y38617D01*
X3548Y38617D01*
X3548Y38533D01*
X3569Y38533D01*
X3569Y38511D01*
X3548Y38511D01*
X3548Y38490D01*
X3569Y38490D01*
X3569Y38469D01*
X3548Y38469D01*
X3548Y38406D01*
X3527Y38406D01*
X3527Y38364D01*
X3506Y38364D01*
X3506Y38343D01*
X3485Y38343D01*
X3485Y38322D01*
X3443Y38322D01*
X3443Y38301D01*
X3401Y38301D01*
X3401Y38280D01*
X3232Y38280D01*
X3232Y38301D01*
X3190Y38301D01*
X3190Y38322D01*
X3148Y38322D01*
X3148Y38343D01*
X3127Y38343D01*
X3127Y38385D01*
X3105Y38385D01*
X3105Y38427D01*
X3084Y38427D01*
X3084Y38617D01*
X3105Y38617D01*
X3105Y38659D01*
X3127Y38659D01*
X3127Y38680D01*
X3148Y38680D01*
X3148Y38701D01*
X3169Y38701D01*
X3169Y38722D01*
X3211Y38722D01*
X3211Y38743D01*
X3422Y38743D01*
X3422Y38722D01*
X3422Y38722D02*
G37*
G36*
X7406Y38912D02*
X7469Y38912D01*
X7469Y38891D01*
X7491Y38891D01*
X7491Y38870D01*
X7512Y38870D01*
X7512Y38849D01*
X7533Y38849D01*
X7533Y38828D01*
X7554Y38828D01*
X7554Y38785D01*
X7575Y38785D01*
X7575Y38617D01*
X7554Y38617D01*
X7554Y38575D01*
X7533Y38575D01*
X7533Y38554D01*
X7512Y38554D01*
X7512Y38533D01*
X7491Y38533D01*
X7491Y38511D01*
X7469Y38511D01*
X7469Y38490D01*
X7406Y38490D01*
X7406Y38448D01*
X7385Y38448D01*
X7385Y38132D01*
X7406Y38132D01*
X7406Y38111D01*
X7870Y38111D01*
X7870Y38090D01*
X7891Y38090D01*
X7891Y38069D01*
X7870Y38069D01*
X7870Y37710D01*
X7891Y37710D01*
X7891Y37668D01*
X7933Y37668D01*
X7933Y37647D01*
X7975Y37647D01*
X7975Y37626D01*
X7997Y37626D01*
X7997Y37605D01*
X8018Y37605D01*
X8018Y37584D01*
X8039Y37584D01*
X8039Y37542D01*
X8060Y37542D01*
X8060Y37373D01*
X8039Y37373D01*
X8039Y37331D01*
X8018Y37331D01*
X8018Y37310D01*
X7997Y37310D01*
X7997Y37289D01*
X7975Y37289D01*
X7975Y37268D01*
X7954Y37268D01*
X7954Y37247D01*
X7912Y37247D01*
X7912Y37225D01*
X7765Y37225D01*
X7765Y37247D01*
X7722Y37247D01*
X7722Y37268D01*
X7680Y37268D01*
X7680Y37289D01*
X7659Y37289D01*
X7659Y37331D01*
X7638Y37331D01*
X7638Y37352D01*
X7617Y37352D01*
X7617Y37436D01*
X7596Y37436D01*
X7596Y37478D01*
X7617Y37478D01*
X7617Y37542D01*
X7638Y37542D01*
X7638Y37584D01*
X7659Y37584D01*
X7659Y37605D01*
X7680Y37605D01*
X7680Y37626D01*
X7701Y37626D01*
X7701Y37647D01*
X7722Y37647D01*
X7722Y37668D01*
X7786Y37668D01*
X7786Y37710D01*
X7807Y37710D01*
X7807Y37731D01*
X7786Y37731D01*
X7786Y37984D01*
X7807Y37984D01*
X7807Y38005D01*
X7786Y38005D01*
X7786Y38027D01*
X6921Y38027D01*
X6921Y38005D01*
X6900Y38005D01*
X6900Y37710D01*
X6921Y37710D01*
X6921Y37668D01*
X6985Y37668D01*
X6985Y37647D01*
X7006Y37647D01*
X7006Y37626D01*
X7027Y37626D01*
X7027Y37605D01*
X7048Y37605D01*
X7048Y37584D01*
X7069Y37584D01*
X7069Y37542D01*
X7090Y37542D01*
X7090Y37352D01*
X7069Y37352D01*
X7069Y37331D01*
X7048Y37331D01*
X7048Y37289D01*
X7027Y37289D01*
X7027Y37268D01*
X6985Y37268D01*
X6985Y37247D01*
X6942Y37247D01*
X6942Y37225D01*
X6795Y37225D01*
X6795Y37247D01*
X6753Y37247D01*
X6753Y37268D01*
X6732Y37268D01*
X6732Y37289D01*
X6689Y37289D01*
X6689Y37331D01*
X6668Y37331D01*
X6668Y37373D01*
X6647Y37373D01*
X6647Y37542D01*
X6668Y37542D01*
X6668Y37584D01*
X6689Y37584D01*
X6689Y37605D01*
X6710Y37605D01*
X6710Y37626D01*
X6732Y37626D01*
X6732Y37647D01*
X6774Y37647D01*
X6774Y37668D01*
X6816Y37668D01*
X6816Y37689D01*
X6837Y37689D01*
X6837Y38027D01*
X5952Y38027D01*
X5952Y37668D01*
X6015Y37668D01*
X6015Y37647D01*
X6036Y37647D01*
X6036Y37626D01*
X6078Y37626D01*
X6078Y37584D01*
X6099Y37584D01*
X6099Y37563D01*
X6120Y37563D01*
X6120Y37499D01*
X6141Y37499D01*
X6141Y37415D01*
X6120Y37415D01*
X6120Y37352D01*
X6099Y37352D01*
X6099Y37310D01*
X6078Y37310D01*
X6078Y37289D01*
X6057Y37289D01*
X6057Y37268D01*
X6015Y37268D01*
X6015Y37247D01*
X5973Y37247D01*
X5973Y37225D01*
X5846Y37225D01*
X5846Y37247D01*
X5783Y37247D01*
X5783Y37268D01*
X5762Y37268D01*
X5762Y37289D01*
X5741Y37289D01*
X5741Y37310D01*
X5720Y37310D01*
X5720Y37331D01*
X5699Y37331D01*
X5699Y37373D01*
X5677Y37373D01*
X5677Y37521D01*
X5699Y37521D01*
X5699Y37584D01*
X5720Y37584D01*
X5720Y37605D01*
X5741Y37605D01*
X5741Y37626D01*
X5762Y37626D01*
X5762Y37647D01*
X5804Y37647D01*
X5804Y37668D01*
X5846Y37668D01*
X5846Y37689D01*
X5867Y37689D01*
X5867Y38111D01*
X6352Y38111D01*
X6352Y38469D01*
X6331Y38469D01*
X6331Y38490D01*
X6268Y38490D01*
X6268Y38511D01*
X6247Y38511D01*
X6247Y38533D01*
X6226Y38533D01*
X6226Y38554D01*
X6205Y38554D01*
X6205Y38575D01*
X6183Y38575D01*
X6183Y38617D01*
X6162Y38617D01*
X6162Y38785D01*
X6183Y38785D01*
X6183Y38828D01*
X6205Y38828D01*
X6205Y38849D01*
X6226Y38849D01*
X6226Y38870D01*
X6247Y38870D01*
X6247Y38891D01*
X6268Y38891D01*
X6268Y38912D01*
X6331Y38912D01*
X6331Y38933D01*
X6458Y38933D01*
X6458Y38912D01*
X6500Y38912D01*
X6500Y38891D01*
X6542Y38891D01*
X6542Y38870D01*
X6563Y38870D01*
X6563Y38828D01*
X6584Y38828D01*
X6584Y38807D01*
X6605Y38807D01*
X6605Y38722D01*
X6626Y38722D01*
X6626Y38701D01*
X6605Y38701D01*
X6605Y38680D01*
X6626Y38680D01*
X6626Y38659D01*
X6605Y38659D01*
X6605Y38596D01*
X6584Y38596D01*
X6584Y38575D01*
X6563Y38575D01*
X6563Y38533D01*
X6521Y38533D01*
X6521Y38511D01*
X6500Y38511D01*
X6500Y38490D01*
X6436Y38490D01*
X6436Y38111D01*
X7301Y38111D01*
X7301Y38132D01*
X7322Y38132D01*
X7322Y38469D01*
X7301Y38469D01*
X7301Y38490D01*
X7238Y38490D01*
X7238Y38511D01*
X7216Y38511D01*
X7216Y38533D01*
X7195Y38533D01*
X7195Y38554D01*
X7174Y38554D01*
X7174Y38575D01*
X7153Y38575D01*
X7153Y38617D01*
X7132Y38617D01*
X7132Y38785D01*
X7153Y38785D01*
X7153Y38828D01*
X7174Y38828D01*
X7174Y38849D01*
X7195Y38849D01*
X7195Y38870D01*
X7216Y38870D01*
X7216Y38891D01*
X7238Y38891D01*
X7238Y38912D01*
X7301Y38912D01*
X7301Y38933D01*
X7406Y38933D01*
X7406Y38912D01*
X7406Y38912D02*
G37*
G36*
X3696Y38005D02*
X3738Y38005D01*
X3738Y37984D01*
X3780Y37984D01*
X3780Y37942D01*
X3801Y37942D01*
X3801Y37921D01*
X3822Y37921D01*
X3822Y37816D01*
X3843Y37816D01*
X3843Y37774D01*
X3822Y37774D01*
X3822Y37689D01*
X3801Y37689D01*
X3801Y37647D01*
X3780Y37647D01*
X3780Y37626D01*
X3759Y37626D01*
X3759Y37605D01*
X3717Y37605D01*
X3717Y37584D01*
X3611Y37584D01*
X3611Y37563D01*
X3590Y37563D01*
X3590Y37584D01*
X3380Y37584D01*
X3380Y37563D01*
X3295Y37563D01*
X3295Y37542D01*
X3274Y37542D01*
X3274Y37436D01*
X3295Y37436D01*
X3295Y37415D01*
X3780Y37415D01*
X3780Y37394D01*
X3801Y37394D01*
X3801Y37268D01*
X3232Y37268D01*
X3232Y37289D01*
X3190Y37289D01*
X3190Y37310D01*
X3148Y37310D01*
X3148Y37352D01*
X3127Y37352D01*
X3127Y37373D01*
X3105Y37373D01*
X3105Y37478D01*
X3084Y37478D01*
X3084Y37499D01*
X3105Y37499D01*
X3105Y37605D01*
X3127Y37605D01*
X3127Y37647D01*
X3148Y37647D01*
X3148Y37668D01*
X3169Y37668D01*
X3169Y37689D01*
X3232Y37689D01*
X3232Y37710D01*
X3611Y37710D01*
X3611Y37731D01*
X3633Y37731D01*
X3633Y37752D01*
X3654Y37752D01*
X3654Y37837D01*
X3633Y37837D01*
X3633Y37879D01*
X3148Y37879D01*
X3148Y37900D01*
X3127Y37900D01*
X3127Y38027D01*
X3696Y38027D01*
X3696Y38005D01*
X3696Y38005D02*
G37*
G36*
X4602Y38005D02*
X4623Y38005D01*
X4623Y37984D01*
X4602Y37984D01*
X4602Y37394D01*
X4581Y37394D01*
X4581Y37352D01*
X4560Y37352D01*
X4560Y37331D01*
X4539Y37331D01*
X4539Y37310D01*
X4497Y37310D01*
X4497Y37289D01*
X4455Y37289D01*
X4455Y37268D01*
X4349Y37268D01*
X4349Y37247D01*
X4202Y37247D01*
X4202Y37268D01*
X4096Y37268D01*
X4096Y37289D01*
X4054Y37289D01*
X4054Y37310D01*
X4012Y37310D01*
X4012Y37331D01*
X3991Y37331D01*
X3991Y37373D01*
X3970Y37373D01*
X3970Y37394D01*
X3949Y37394D01*
X3949Y37542D01*
X3928Y37542D01*
X3928Y38005D01*
X3949Y38005D01*
X3949Y38027D01*
X4096Y38027D01*
X4096Y38005D01*
X4117Y38005D01*
X4117Y37984D01*
X4096Y37984D01*
X4096Y37542D01*
X4117Y37542D01*
X4117Y37457D01*
X4138Y37457D01*
X4138Y37415D01*
X4160Y37415D01*
X4160Y37394D01*
X4244Y37394D01*
X4244Y37373D01*
X4307Y37373D01*
X4307Y37394D01*
X4391Y37394D01*
X4391Y37415D01*
X4413Y37415D01*
X4413Y37457D01*
X4434Y37457D01*
X4434Y38005D01*
X4455Y38005D01*
X4455Y38027D01*
X4602Y38027D01*
X4602Y38005D01*
X4602Y38005D02*
G37*
G36*
X5424Y37268D02*
X4855Y37268D01*
X4855Y37289D01*
X4813Y37289D01*
X4813Y37310D01*
X4792Y37310D01*
X4792Y37331D01*
X4771Y37331D01*
X4771Y37352D01*
X4750Y37352D01*
X4750Y37415D01*
X4729Y37415D01*
X4729Y37542D01*
X4750Y37542D01*
X4750Y37584D01*
X4771Y37584D01*
X4771Y37605D01*
X4792Y37605D01*
X4792Y37626D01*
X4813Y37626D01*
X4813Y37647D01*
X4834Y37647D01*
X4834Y37668D01*
X4792Y37668D01*
X4792Y37689D01*
X4771Y37689D01*
X4771Y37731D01*
X4750Y37731D01*
X4750Y37774D01*
X4729Y37774D01*
X4729Y37858D01*
X4750Y37858D01*
X4750Y37921D01*
X4771Y37921D01*
X4771Y37963D01*
X4792Y37963D01*
X4792Y37984D01*
X4813Y37984D01*
X4813Y38005D01*
X4876Y38005D01*
X4876Y38027D01*
X5424Y38027D01*
X5424Y37268D01*
X5424Y37268D02*
G37*
G36*
X4326Y20925D02*
X4093Y20925D01*
X4093Y21660D01*
X3799Y20925D01*
X3615Y20925D01*
X3615Y22255D01*
X3840Y22255D01*
X3840Y21564D01*
X4137Y22255D01*
X4326Y22255D01*
X4326Y20925D01*
X4326Y20925D02*
G37*
G36*
X21570Y20925D02*
X21338Y20925D01*
X21214Y21766D01*
X21084Y20925D01*
X20854Y20925D01*
X20684Y22255D01*
X20909Y22255D01*
X21002Y21445D01*
X21123Y22252D01*
X21307Y22252D01*
X21423Y21443D01*
X21516Y22255D01*
X21744Y22255D01*
X21570Y20925D01*
X21570Y20925D02*
G37*
G36*
X20541Y20925D02*
X20342Y20925D01*
X20322Y21833D01*
X20146Y20925D01*
X19978Y20925D01*
X19807Y21828D01*
X19786Y20925D01*
X19590Y20925D01*
X19616Y22255D01*
X19892Y22255D01*
X20066Y21414D01*
X20231Y22255D01*
X20518Y22255D01*
X20541Y20925D01*
X20541Y20925D02*
G37*
G36*
X5275Y20925D02*
X5022Y20925D01*
X4970Y21218D01*
X4760Y21218D01*
X4711Y20925D01*
X4461Y20925D01*
X4717Y22255D01*
X5016Y22255D01*
X5275Y20925D01*
X5275Y20925D02*
G37*
G36*
X22597Y20925D02*
X22328Y20925D01*
X22328Y21500D01*
X22201Y21500D01*
X22139Y21502D01*
X22085Y21512D01*
X22038Y21525D01*
X21997Y21543D01*
X21969Y21559D01*
X21945Y21572D01*
X21932Y21582D01*
X21927Y21585D01*
X21909Y21603D01*
X21894Y21621D01*
X21870Y21665D01*
X21852Y21714D01*
X21842Y21761D01*
X21834Y21805D01*
X21832Y21823D01*
X21832Y21838D01*
X21829Y21854D01*
X21829Y21864D01*
X21829Y21869D01*
X21829Y21872D01*
X21832Y21939D01*
X21845Y21999D01*
X21860Y22050D01*
X21883Y22094D01*
X21909Y22130D01*
X21938Y22161D01*
X21969Y22187D01*
X22002Y22208D01*
X22033Y22223D01*
X22067Y22234D01*
X22095Y22244D01*
X22121Y22249D01*
X22144Y22252D01*
X22160Y22255D01*
X22597Y22255D01*
X22597Y20925D01*
X22597Y20925D02*
G37*
G36*
X5274Y18385D02*
X5041Y18385D01*
X5041Y19120D01*
X4746Y18385D01*
X4565Y18385D01*
X4565Y19715D01*
X4788Y19715D01*
X4788Y19022D01*
X5085Y19715D01*
X5274Y19715D01*
X5274Y18385D01*
X5274Y18385D02*
G37*
G36*
X21920Y18385D02*
X21687Y18385D01*
X21687Y19120D01*
X21392Y18385D01*
X21211Y18385D01*
X21211Y19715D01*
X21433Y19715D01*
X21433Y19022D01*
X21731Y19715D01*
X21920Y19715D01*
X21920Y18385D01*
X21920Y18385D02*
G37*
G36*
X4046Y19727D02*
X4092Y19722D01*
X4133Y19712D01*
X4167Y19704D01*
X4193Y19694D01*
X4214Y19684D01*
X4224Y19678D01*
X4229Y19676D01*
X4258Y19652D01*
X4283Y19629D01*
X4304Y19603D01*
X4320Y19577D01*
X4333Y19554D01*
X4340Y19536D01*
X4345Y19526D01*
X4348Y19521D01*
X4358Y19482D01*
X4366Y19443D01*
X4374Y19404D01*
X4376Y19365D01*
X4379Y19334D01*
X4382Y19309D01*
X4382Y19298D01*
X4382Y19290D01*
X4382Y19288D01*
X4382Y19285D01*
X4382Y18807D01*
X4379Y18760D01*
X4376Y18716D01*
X4371Y18678D01*
X4364Y18644D01*
X4358Y18616D01*
X4353Y18595D01*
X4351Y18582D01*
X4348Y18577D01*
X4333Y18543D01*
X4314Y18512D01*
X4296Y18486D01*
X4276Y18463D01*
X4258Y18448D01*
X4242Y18435D01*
X4232Y18427D01*
X4229Y18424D01*
X4193Y18406D01*
X4154Y18393D01*
X4115Y18383D01*
X4079Y18378D01*
X4046Y18373D01*
X4017Y18370D01*
X3994Y18370D01*
X3942Y18373D01*
X3896Y18378D01*
X3857Y18385D01*
X3826Y18396D01*
X3800Y18404D01*
X3782Y18411D01*
X3769Y18417D01*
X3766Y18419D01*
X3738Y18440D01*
X3715Y18463D01*
X3696Y18486D01*
X3681Y18510D01*
X3668Y18528D01*
X3660Y18543D01*
X3658Y18556D01*
X3655Y18559D01*
X3645Y18595D01*
X3634Y18629D01*
X3629Y18665D01*
X3627Y18696D01*
X3624Y18724D01*
X3621Y18745D01*
X3621Y18760D01*
X3621Y18766D01*
X3621Y18874D01*
X3883Y18874D01*
X3883Y18745D01*
X3883Y18711D01*
X3885Y18683D01*
X3888Y18670D01*
X3888Y18662D01*
X3890Y18657D01*
X3890Y18654D01*
X3898Y18626D01*
X3906Y18605D01*
X3916Y18592D01*
X3919Y18587D01*
X3927Y18579D01*
X3940Y18572D01*
X3963Y18564D01*
X3973Y18564D01*
X3983Y18561D01*
X3991Y18561D01*
X4025Y18564D01*
X4048Y18572D01*
X4061Y18579D01*
X4066Y18582D01*
X4082Y18603D01*
X4092Y18623D01*
X4097Y18639D01*
X4100Y18644D01*
X4100Y18647D01*
X4105Y18680D01*
X4108Y18711D01*
X4108Y18724D01*
X4108Y18735D01*
X4108Y18742D01*
X4108Y18745D01*
X4108Y19350D01*
X4108Y19386D01*
X4105Y19417D01*
X4105Y19428D01*
X4102Y19435D01*
X4102Y19440D01*
X4102Y19443D01*
X4095Y19471D01*
X4084Y19492D01*
X4074Y19505D01*
X4071Y19510D01*
X4061Y19518D01*
X4048Y19526D01*
X4022Y19534D01*
X4009Y19536D01*
X3973Y19536D01*
X3958Y19531D01*
X3945Y19528D01*
X3934Y19523D01*
X3921Y19515D01*
X3916Y19510D01*
X3901Y19490D01*
X3893Y19469D01*
X3888Y19453D01*
X3888Y19448D01*
X3888Y19446D01*
X3885Y19415D01*
X3883Y19389D01*
X3883Y19376D01*
X3883Y19368D01*
X3883Y19363D01*
X3883Y19360D01*
X3883Y19234D01*
X3621Y19234D01*
X3621Y19347D01*
X3624Y19389D01*
X3627Y19428D01*
X3632Y19461D01*
X3637Y19490D01*
X3645Y19513D01*
X3650Y19531D01*
X3652Y19544D01*
X3655Y19546D01*
X3671Y19577D01*
X3686Y19606D01*
X3707Y19627D01*
X3725Y19647D01*
X3743Y19663D01*
X3759Y19673D01*
X3769Y19678D01*
X3771Y19681D01*
X3805Y19696D01*
X3839Y19709D01*
X3877Y19717D01*
X3914Y19725D01*
X3945Y19727D01*
X3971Y19730D01*
X3994Y19730D01*
X4046Y19727D01*
X4046Y19727D02*
G37*
G36*
X20691Y19727D02*
X20738Y19722D01*
X20779Y19712D01*
X20813Y19704D01*
X20839Y19694D01*
X20859Y19684D01*
X20870Y19678D01*
X20875Y19676D01*
X20903Y19652D01*
X20929Y19629D01*
X20950Y19603D01*
X20965Y19577D01*
X20978Y19554D01*
X20986Y19536D01*
X20991Y19526D01*
X20994Y19521D01*
X21004Y19482D01*
X21012Y19443D01*
X21020Y19404D01*
X21022Y19365D01*
X21025Y19334D01*
X21027Y19309D01*
X21027Y19298D01*
X21027Y19290D01*
X21027Y19288D01*
X21027Y19285D01*
X21027Y18807D01*
X21025Y18760D01*
X21022Y18716D01*
X21017Y18678D01*
X21009Y18644D01*
X21004Y18616D01*
X20999Y18595D01*
X20996Y18582D01*
X20994Y18577D01*
X20978Y18543D01*
X20960Y18512D01*
X20942Y18486D01*
X20921Y18463D01*
X20903Y18448D01*
X20888Y18435D01*
X20877Y18427D01*
X20875Y18424D01*
X20839Y18406D01*
X20800Y18393D01*
X20761Y18383D01*
X20725Y18378D01*
X20691Y18373D01*
X20663Y18370D01*
X20640Y18370D01*
X20588Y18373D01*
X20541Y18378D01*
X20503Y18385D01*
X20472Y18396D01*
X20446Y18404D01*
X20428Y18411D01*
X20415Y18417D01*
X20412Y18419D01*
X20384Y18440D01*
X20360Y18463D01*
X20342Y18486D01*
X20327Y18510D01*
X20314Y18528D01*
X20306Y18543D01*
X20303Y18556D01*
X20301Y18559D01*
X20291Y18595D01*
X20280Y18629D01*
X20275Y18665D01*
X20272Y18696D01*
X20270Y18724D01*
X20267Y18745D01*
X20267Y18760D01*
X20267Y18766D01*
X20267Y18874D01*
X20528Y18874D01*
X20528Y18745D01*
X20528Y18711D01*
X20531Y18683D01*
X20534Y18670D01*
X20534Y18662D01*
X20536Y18657D01*
X20536Y18654D01*
X20544Y18626D01*
X20552Y18605D01*
X20562Y18592D01*
X20565Y18587D01*
X20572Y18579D01*
X20585Y18572D01*
X20609Y18564D01*
X20619Y18564D01*
X20629Y18561D01*
X20637Y18561D01*
X20671Y18564D01*
X20694Y18572D01*
X20707Y18579D01*
X20712Y18582D01*
X20728Y18603D01*
X20738Y18623D01*
X20743Y18639D01*
X20746Y18644D01*
X20746Y18647D01*
X20751Y18680D01*
X20753Y18711D01*
X20753Y18724D01*
X20753Y18735D01*
X20753Y18742D01*
X20753Y18745D01*
X20753Y19350D01*
X20753Y19386D01*
X20751Y19417D01*
X20751Y19428D01*
X20748Y19435D01*
X20748Y19440D01*
X20748Y19443D01*
X20740Y19471D01*
X20730Y19492D01*
X20720Y19505D01*
X20717Y19510D01*
X20707Y19518D01*
X20694Y19526D01*
X20668Y19534D01*
X20655Y19536D01*
X20619Y19536D01*
X20603Y19531D01*
X20590Y19528D01*
X20580Y19523D01*
X20567Y19515D01*
X20562Y19510D01*
X20547Y19490D01*
X20539Y19469D01*
X20534Y19453D01*
X20534Y19448D01*
X20534Y19446D01*
X20531Y19415D01*
X20528Y19389D01*
X20528Y19376D01*
X20528Y19368D01*
X20528Y19363D01*
X20528Y19360D01*
X20528Y19234D01*
X20267Y19234D01*
X20267Y19347D01*
X20270Y19389D01*
X20272Y19428D01*
X20278Y19461D01*
X20283Y19490D01*
X20291Y19513D01*
X20296Y19531D01*
X20298Y19544D01*
X20301Y19546D01*
X20316Y19577D01*
X20332Y19606D01*
X20353Y19627D01*
X20371Y19647D01*
X20389Y19663D01*
X20404Y19673D01*
X20415Y19678D01*
X20417Y19681D01*
X20451Y19696D01*
X20484Y19709D01*
X20523Y19717D01*
X20559Y19725D01*
X20590Y19727D01*
X20616Y19730D01*
X20640Y19730D01*
X20691Y19727D01*
X20691Y19727D02*
G37*
G36*
X21920Y15845D02*
X21687Y15845D01*
X21687Y16580D01*
X21392Y15845D01*
X21211Y15845D01*
X21211Y17175D01*
X21433Y17175D01*
X21433Y16482D01*
X21731Y17175D01*
X21920Y17175D01*
X21920Y15845D01*
X21920Y15845D02*
G37*
G36*
X4924Y17354D02*
X4958Y17349D01*
X4989Y17342D01*
X5015Y17334D01*
X5041Y17323D01*
X5061Y17313D01*
X5082Y17303D01*
X5113Y17282D01*
X5134Y17264D01*
X5147Y17251D01*
X5152Y17248D01*
X5152Y17246D01*
X5180Y17199D01*
X5204Y17148D01*
X5219Y17093D01*
X5229Y17039D01*
X5235Y16990D01*
X5237Y16969D01*
X5237Y16951D01*
X5240Y16936D01*
X5240Y16925D01*
X5240Y16917D01*
X5240Y16915D01*
X5240Y16439D01*
X5237Y16364D01*
X5227Y16297D01*
X5211Y16240D01*
X5196Y16194D01*
X5180Y16157D01*
X5173Y16144D01*
X5165Y16131D01*
X5160Y16124D01*
X5154Y16116D01*
X5152Y16113D01*
X5152Y16111D01*
X5134Y16090D01*
X5113Y16075D01*
X5067Y16046D01*
X5017Y16028D01*
X4968Y16013D01*
X4924Y16005D01*
X4904Y16002D01*
X4886Y16002D01*
X4873Y16000D01*
X4816Y16000D01*
X4782Y16005D01*
X4748Y16010D01*
X4720Y16015D01*
X4694Y16023D01*
X4671Y16031D01*
X4632Y16051D01*
X4601Y16069D01*
X4580Y16085D01*
X4567Y16095D01*
X4565Y16100D01*
X4536Y16142D01*
X4516Y16191D01*
X4500Y16240D01*
X4490Y16287D01*
X4485Y16331D01*
X4482Y16349D01*
X4480Y16364D01*
X4480Y16377D01*
X4480Y16387D01*
X4480Y16393D01*
X4480Y16395D01*
X4480Y16504D01*
X4741Y16504D01*
X4741Y16375D01*
X4741Y16343D01*
X4743Y16315D01*
X4746Y16292D01*
X4751Y16271D01*
X4754Y16256D01*
X4759Y16245D01*
X4761Y16237D01*
X4761Y16235D01*
X4772Y16219D01*
X4785Y16209D01*
X4798Y16199D01*
X4813Y16194D01*
X4826Y16191D01*
X4839Y16188D01*
X4849Y16188D01*
X4873Y16191D01*
X4893Y16196D01*
X4909Y16204D01*
X4922Y16212D01*
X4929Y16219D01*
X4937Y16227D01*
X4940Y16232D01*
X4942Y16235D01*
X4950Y16256D01*
X4955Y16276D01*
X4963Y16323D01*
X4963Y16343D01*
X4966Y16359D01*
X4966Y16369D01*
X4966Y16375D01*
X4966Y16980D01*
X4966Y17011D01*
X4963Y17039D01*
X4958Y17062D01*
X4955Y17083D01*
X4950Y17096D01*
X4948Y17109D01*
X4945Y17114D01*
X4945Y17117D01*
X4935Y17132D01*
X4922Y17145D01*
X4906Y17153D01*
X4888Y17161D01*
X4875Y17163D01*
X4862Y17166D01*
X4849Y17166D01*
X4818Y17163D01*
X4795Y17155D01*
X4782Y17145D01*
X4777Y17142D01*
X4761Y17124D01*
X4754Y17104D01*
X4748Y17088D01*
X4748Y17086D01*
X4748Y17083D01*
X4743Y17052D01*
X4741Y17021D01*
X4741Y17008D01*
X4741Y16998D01*
X4741Y16990D01*
X4741Y16987D01*
X4741Y16863D01*
X4480Y16863D01*
X4480Y16977D01*
X4482Y17042D01*
X4492Y17099D01*
X4505Y17148D01*
X4521Y17186D01*
X4539Y17217D01*
X4552Y17241D01*
X4562Y17254D01*
X4565Y17259D01*
X4580Y17277D01*
X4601Y17292D01*
X4645Y17318D01*
X4692Y17336D01*
X4738Y17347D01*
X4782Y17354D01*
X4803Y17357D01*
X4818Y17357D01*
X4831Y17360D01*
X4891Y17360D01*
X4924Y17354D01*
X4924Y17354D02*
G37*
G36*
X20691Y17187D02*
X20738Y17182D01*
X20779Y17172D01*
X20813Y17164D01*
X20839Y17154D01*
X20859Y17143D01*
X20870Y17138D01*
X20875Y17136D01*
X20903Y17112D01*
X20929Y17089D01*
X20950Y17063D01*
X20965Y17037D01*
X20978Y17014D01*
X20986Y16996D01*
X20991Y16986D01*
X20994Y16981D01*
X21004Y16942D01*
X21012Y16903D01*
X21020Y16864D01*
X21022Y16825D01*
X21025Y16794D01*
X21027Y16769D01*
X21027Y16758D01*
X21027Y16750D01*
X21027Y16748D01*
X21027Y16745D01*
X21027Y16267D01*
X21025Y16220D01*
X21022Y16176D01*
X21017Y16138D01*
X21009Y16104D01*
X21004Y16076D01*
X20999Y16055D01*
X20996Y16042D01*
X20994Y16037D01*
X20978Y16003D01*
X20960Y15972D01*
X20942Y15946D01*
X20921Y15923D01*
X20903Y15908D01*
X20888Y15895D01*
X20877Y15887D01*
X20875Y15884D01*
X20839Y15866D01*
X20800Y15853D01*
X20761Y15843D01*
X20725Y15838D01*
X20691Y15833D01*
X20663Y15830D01*
X20640Y15830D01*
X20588Y15833D01*
X20541Y15838D01*
X20503Y15845D01*
X20472Y15856D01*
X20446Y15864D01*
X20428Y15871D01*
X20415Y15877D01*
X20412Y15879D01*
X20384Y15900D01*
X20360Y15923D01*
X20342Y15946D01*
X20327Y15970D01*
X20314Y15988D01*
X20306Y16003D01*
X20303Y16016D01*
X20301Y16019D01*
X20291Y16055D01*
X20280Y16089D01*
X20275Y16125D01*
X20272Y16156D01*
X20270Y16184D01*
X20267Y16205D01*
X20267Y16220D01*
X20267Y16226D01*
X20267Y16334D01*
X20528Y16334D01*
X20528Y16205D01*
X20528Y16171D01*
X20531Y16143D01*
X20534Y16130D01*
X20534Y16122D01*
X20536Y16117D01*
X20536Y16114D01*
X20544Y16086D01*
X20552Y16065D01*
X20562Y16052D01*
X20565Y16047D01*
X20572Y16039D01*
X20585Y16032D01*
X20609Y16024D01*
X20619Y16024D01*
X20629Y16021D01*
X20637Y16021D01*
X20671Y16024D01*
X20694Y16032D01*
X20707Y16039D01*
X20712Y16042D01*
X20728Y16063D01*
X20738Y16083D01*
X20743Y16099D01*
X20746Y16104D01*
X20746Y16107D01*
X20751Y16140D01*
X20753Y16171D01*
X20753Y16184D01*
X20753Y16195D01*
X20753Y16202D01*
X20753Y16205D01*
X20753Y16810D01*
X20753Y16846D01*
X20751Y16877D01*
X20751Y16888D01*
X20748Y16895D01*
X20748Y16900D01*
X20748Y16903D01*
X20740Y16931D01*
X20730Y16952D01*
X20720Y16965D01*
X20717Y16970D01*
X20707Y16978D01*
X20694Y16986D01*
X20668Y16994D01*
X20655Y16996D01*
X20619Y16996D01*
X20603Y16991D01*
X20590Y16988D01*
X20580Y16983D01*
X20567Y16975D01*
X20562Y16970D01*
X20547Y16950D01*
X20539Y16929D01*
X20534Y16913D01*
X20534Y16908D01*
X20534Y16906D01*
X20531Y16875D01*
X20528Y16849D01*
X20528Y16836D01*
X20528Y16828D01*
X20528Y16823D01*
X20528Y16820D01*
X20528Y16694D01*
X20267Y16694D01*
X20267Y16807D01*
X20270Y16849D01*
X20272Y16888D01*
X20278Y16921D01*
X20283Y16950D01*
X20291Y16973D01*
X20296Y16991D01*
X20298Y17004D01*
X20301Y17006D01*
X20316Y17037D01*
X20332Y17066D01*
X20353Y17087D01*
X20371Y17107D01*
X20389Y17123D01*
X20404Y17133D01*
X20415Y17138D01*
X20417Y17141D01*
X20451Y17156D01*
X20484Y17169D01*
X20523Y17177D01*
X20559Y17185D01*
X20590Y17187D01*
X20616Y17190D01*
X20640Y17190D01*
X20691Y17187D01*
X20691Y17187D02*
G37*
G36*
X4040Y17357D02*
X4094Y17347D01*
X4141Y17331D01*
X4180Y17316D01*
X4208Y17300D01*
X4231Y17285D01*
X4244Y17274D01*
X4249Y17272D01*
X4280Y17236D01*
X4304Y17197D01*
X4322Y17153D01*
X4332Y17114D01*
X4340Y17078D01*
X4343Y17047D01*
X4345Y17036D01*
X4345Y17029D01*
X4345Y17024D01*
X4345Y17021D01*
X4343Y16982D01*
X4337Y16946D01*
X4332Y16912D01*
X4324Y16886D01*
X4317Y16863D01*
X4309Y16848D01*
X4306Y16837D01*
X4304Y16835D01*
X4286Y16806D01*
X4265Y16780D01*
X4244Y16755D01*
X4224Y16731D01*
X4203Y16713D01*
X4187Y16698D01*
X4177Y16687D01*
X4174Y16685D01*
X4037Y16566D01*
X4012Y16543D01*
X3988Y16519D01*
X3970Y16499D01*
X3955Y16481D01*
X3944Y16465D01*
X3934Y16455D01*
X3931Y16447D01*
X3929Y16444D01*
X3916Y16424D01*
X3908Y16400D01*
X3898Y16356D01*
X3895Y16338D01*
X3893Y16323D01*
X3893Y16312D01*
X3893Y16310D01*
X3895Y16279D01*
X3903Y16253D01*
X3911Y16237D01*
X3913Y16235D01*
X3913Y16232D01*
X3921Y16222D01*
X3931Y16217D01*
X3955Y16206D01*
X3965Y16206D01*
X3973Y16204D01*
X3981Y16204D01*
X4004Y16206D01*
X4022Y16214D01*
X4040Y16222D01*
X4053Y16235D01*
X4066Y16245D01*
X4074Y16253D01*
X4076Y16261D01*
X4079Y16263D01*
X4089Y16289D01*
X4097Y16318D01*
X4102Y16349D01*
X4107Y16380D01*
X4110Y16406D01*
X4112Y16429D01*
X4112Y16444D01*
X4112Y16447D01*
X4112Y16449D01*
X4345Y16411D01*
X4343Y16372D01*
X4337Y16336D01*
X4327Y16274D01*
X4311Y16219D01*
X4293Y16175D01*
X4275Y16142D01*
X4260Y16116D01*
X4249Y16103D01*
X4247Y16098D01*
X4208Y16064D01*
X4164Y16041D01*
X4118Y16023D01*
X4074Y16013D01*
X4032Y16005D01*
X4017Y16002D01*
X4001Y16002D01*
X3988Y16000D01*
X3970Y16000D01*
X3934Y16002D01*
X3900Y16007D01*
X3869Y16013D01*
X3843Y16020D01*
X3823Y16028D01*
X3805Y16036D01*
X3794Y16038D01*
X3792Y16041D01*
X3763Y16059D01*
X3740Y16077D01*
X3717Y16095D01*
X3701Y16113D01*
X3688Y16129D01*
X3678Y16142D01*
X3673Y16152D01*
X3670Y16155D01*
X3655Y16183D01*
X3644Y16214D01*
X3637Y16243D01*
X3631Y16268D01*
X3629Y16292D01*
X3626Y16310D01*
X3626Y16320D01*
X3626Y16325D01*
X3629Y16369D01*
X3634Y16411D01*
X3644Y16447D01*
X3652Y16481D01*
X3662Y16504D01*
X3673Y16524D01*
X3678Y16535D01*
X3681Y16540D01*
X3701Y16574D01*
X3727Y16607D01*
X3753Y16638D01*
X3776Y16664D01*
X3797Y16687D01*
X3815Y16705D01*
X3825Y16716D01*
X3831Y16721D01*
X3965Y16837D01*
X3986Y16858D01*
X4006Y16876D01*
X4022Y16892D01*
X4032Y16907D01*
X4043Y16920D01*
X4050Y16928D01*
X4053Y16933D01*
X4055Y16936D01*
X4066Y16954D01*
X4071Y16974D01*
X4081Y17011D01*
X4081Y17026D01*
X4084Y17039D01*
X4084Y17047D01*
X4084Y17049D01*
X4081Y17080D01*
X4071Y17106D01*
X4063Y17122D01*
X4061Y17124D01*
X4061Y17127D01*
X4050Y17137D01*
X4037Y17148D01*
X4014Y17155D01*
X4004Y17158D01*
X3993Y17161D01*
X3986Y17161D01*
X3965Y17158D01*
X3949Y17153D01*
X3937Y17145D01*
X3926Y17135D01*
X3918Y17124D01*
X3913Y17117D01*
X3911Y17111D01*
X3911Y17109D01*
X3903Y17088D01*
X3898Y17065D01*
X3890Y17013D01*
X3890Y16992D01*
X3887Y16974D01*
X3887Y16961D01*
X3887Y16956D01*
X3652Y16990D01*
X3657Y17049D01*
X3668Y17101D01*
X3683Y17145D01*
X3696Y17184D01*
X3709Y17215D01*
X3722Y17238D01*
X3730Y17251D01*
X3732Y17256D01*
X3763Y17290D01*
X3799Y17316D01*
X3841Y17334D01*
X3882Y17347D01*
X3921Y17354D01*
X3952Y17357D01*
X3962Y17360D01*
X3981Y17360D01*
X4040Y17357D01*
X4040Y17357D02*
G37*
G36*
X3958Y13305D02*
X3689Y13305D01*
X3689Y13825D01*
X3642Y13898D01*
X3438Y13305D01*
X3164Y13305D01*
X3433Y14037D01*
X3184Y14635D01*
X3446Y14635D01*
X3689Y14073D01*
X3689Y14635D01*
X3958Y14635D01*
X3958Y13305D01*
X3958Y13305D02*
G37*
G36*
X21920Y13305D02*
X21687Y13305D01*
X21687Y14040D01*
X21392Y13305D01*
X21211Y13305D01*
X21211Y14635D01*
X21433Y14635D01*
X21433Y13942D01*
X21731Y14635D01*
X21920Y14635D01*
X21920Y13305D01*
X21920Y13305D02*
G37*
G36*
X20691Y14647D02*
X20738Y14642D01*
X20779Y14632D01*
X20813Y14624D01*
X20839Y14614D01*
X20859Y14604D01*
X20870Y14598D01*
X20875Y14596D01*
X20903Y14572D01*
X20929Y14549D01*
X20950Y14523D01*
X20965Y14497D01*
X20978Y14474D01*
X20986Y14456D01*
X20991Y14446D01*
X20994Y14441D01*
X21004Y14402D01*
X21012Y14363D01*
X21020Y14324D01*
X21022Y14285D01*
X21025Y14254D01*
X21027Y14229D01*
X21027Y14218D01*
X21027Y14210D01*
X21027Y14208D01*
X21027Y14205D01*
X21027Y13727D01*
X21025Y13680D01*
X21022Y13636D01*
X21017Y13598D01*
X21009Y13564D01*
X21004Y13536D01*
X20999Y13515D01*
X20996Y13502D01*
X20994Y13497D01*
X20978Y13463D01*
X20960Y13432D01*
X20942Y13406D01*
X20921Y13383D01*
X20903Y13368D01*
X20888Y13355D01*
X20877Y13347D01*
X20875Y13344D01*
X20839Y13326D01*
X20800Y13313D01*
X20761Y13303D01*
X20725Y13298D01*
X20691Y13293D01*
X20663Y13290D01*
X20640Y13290D01*
X20588Y13293D01*
X20541Y13298D01*
X20503Y13305D01*
X20472Y13316D01*
X20446Y13324D01*
X20428Y13331D01*
X20415Y13337D01*
X20412Y13339D01*
X20384Y13360D01*
X20360Y13383D01*
X20342Y13406D01*
X20327Y13430D01*
X20314Y13448D01*
X20306Y13463D01*
X20303Y13476D01*
X20301Y13479D01*
X20291Y13515D01*
X20280Y13549D01*
X20275Y13585D01*
X20272Y13616D01*
X20270Y13644D01*
X20267Y13665D01*
X20267Y13680D01*
X20267Y13686D01*
X20267Y13794D01*
X20528Y13794D01*
X20528Y13665D01*
X20528Y13631D01*
X20531Y13603D01*
X20534Y13590D01*
X20534Y13582D01*
X20536Y13577D01*
X20536Y13574D01*
X20544Y13546D01*
X20552Y13525D01*
X20562Y13512D01*
X20565Y13507D01*
X20572Y13499D01*
X20585Y13492D01*
X20609Y13484D01*
X20619Y13484D01*
X20629Y13481D01*
X20637Y13481D01*
X20671Y13484D01*
X20694Y13492D01*
X20707Y13499D01*
X20712Y13502D01*
X20728Y13523D01*
X20738Y13543D01*
X20743Y13559D01*
X20746Y13564D01*
X20746Y13567D01*
X20751Y13600D01*
X20753Y13631D01*
X20753Y13644D01*
X20753Y13655D01*
X20753Y13662D01*
X20753Y13665D01*
X20753Y14270D01*
X20753Y14306D01*
X20751Y14337D01*
X20751Y14348D01*
X20748Y14355D01*
X20748Y14360D01*
X20748Y14363D01*
X20740Y14391D01*
X20730Y14412D01*
X20720Y14425D01*
X20717Y14430D01*
X20707Y14438D01*
X20694Y14446D01*
X20668Y14454D01*
X20655Y14456D01*
X20619Y14456D01*
X20603Y14451D01*
X20590Y14448D01*
X20580Y14443D01*
X20567Y14435D01*
X20562Y14430D01*
X20547Y14410D01*
X20539Y14389D01*
X20534Y14373D01*
X20534Y14368D01*
X20534Y14366D01*
X20531Y14335D01*
X20528Y14309D01*
X20528Y14296D01*
X20528Y14288D01*
X20528Y14283D01*
X20528Y14280D01*
X20528Y14154D01*
X20267Y14154D01*
X20267Y14267D01*
X20270Y14309D01*
X20272Y14348D01*
X20278Y14381D01*
X20283Y14410D01*
X20291Y14433D01*
X20296Y14451D01*
X20298Y14464D01*
X20301Y14466D01*
X20316Y14497D01*
X20332Y14526D01*
X20353Y14547D01*
X20371Y14567D01*
X20389Y14583D01*
X20404Y14593D01*
X20415Y14598D01*
X20417Y14601D01*
X20451Y14616D01*
X20484Y14629D01*
X20523Y14637D01*
X20559Y14645D01*
X20590Y14647D01*
X20616Y14650D01*
X20640Y14650D01*
X20691Y14647D01*
X20691Y14647D02*
G37*
G36*
X4568Y14645D02*
X4601Y14640D01*
X4632Y14632D01*
X4658Y14624D01*
X4684Y14614D01*
X4705Y14604D01*
X4726Y14593D01*
X4757Y14572D01*
X4777Y14554D01*
X4790Y14541D01*
X4795Y14539D01*
X4795Y14536D01*
X4824Y14490D01*
X4847Y14438D01*
X4863Y14384D01*
X4873Y14329D01*
X4878Y14280D01*
X4881Y14260D01*
X4881Y14242D01*
X4883Y14226D01*
X4883Y14216D01*
X4883Y14208D01*
X4883Y14205D01*
X4883Y13730D01*
X4881Y13655D01*
X4870Y13587D01*
X4855Y13530D01*
X4839Y13484D01*
X4824Y13448D01*
X4816Y13435D01*
X4808Y13422D01*
X4803Y13414D01*
X4798Y13406D01*
X4795Y13404D01*
X4795Y13401D01*
X4777Y13380D01*
X4757Y13365D01*
X4710Y13337D01*
X4661Y13318D01*
X4612Y13303D01*
X4568Y13295D01*
X4547Y13293D01*
X4529Y13293D01*
X4516Y13290D01*
X4459Y13290D01*
X4426Y13295D01*
X4392Y13300D01*
X4364Y13305D01*
X4338Y13313D01*
X4314Y13321D01*
X4276Y13342D01*
X4245Y13360D01*
X4224Y13375D01*
X4211Y13386D01*
X4208Y13391D01*
X4180Y13432D01*
X4159Y13481D01*
X4144Y13530D01*
X4133Y13577D01*
X4128Y13621D01*
X4126Y13639D01*
X4123Y13655D01*
X4123Y13667D01*
X4123Y13678D01*
X4123Y13683D01*
X4123Y13686D01*
X4123Y13794D01*
X4384Y13794D01*
X4384Y13665D01*
X4384Y13634D01*
X4387Y13605D01*
X4389Y13582D01*
X4395Y13561D01*
X4397Y13546D01*
X4402Y13536D01*
X4405Y13528D01*
X4405Y13525D01*
X4415Y13510D01*
X4428Y13499D01*
X4441Y13489D01*
X4457Y13484D01*
X4470Y13481D01*
X4483Y13479D01*
X4493Y13479D01*
X4516Y13481D01*
X4537Y13486D01*
X4552Y13494D01*
X4565Y13502D01*
X4573Y13510D01*
X4581Y13518D01*
X4583Y13523D01*
X4586Y13525D01*
X4594Y13546D01*
X4599Y13567D01*
X4607Y13613D01*
X4607Y13634D01*
X4609Y13649D01*
X4609Y13660D01*
X4609Y13665D01*
X4609Y14270D01*
X4609Y14301D01*
X4607Y14329D01*
X4601Y14353D01*
X4599Y14373D01*
X4594Y14386D01*
X4591Y14399D01*
X4589Y14404D01*
X4589Y14407D01*
X4578Y14423D01*
X4565Y14435D01*
X4550Y14443D01*
X4532Y14451D01*
X4519Y14454D01*
X4506Y14456D01*
X4493Y14456D01*
X4462Y14454D01*
X4439Y14446D01*
X4426Y14435D01*
X4420Y14433D01*
X4405Y14415D01*
X4397Y14394D01*
X4392Y14379D01*
X4392Y14376D01*
X4392Y14373D01*
X4387Y14342D01*
X4384Y14311D01*
X4384Y14298D01*
X4384Y14288D01*
X4384Y14280D01*
X4384Y14278D01*
X4384Y14154D01*
X4123Y14154D01*
X4123Y14267D01*
X4126Y14332D01*
X4136Y14389D01*
X4149Y14438D01*
X4164Y14477D01*
X4183Y14508D01*
X4195Y14531D01*
X4206Y14544D01*
X4208Y14549D01*
X4224Y14567D01*
X4245Y14583D01*
X4289Y14609D01*
X4335Y14627D01*
X4382Y14637D01*
X4426Y14645D01*
X4446Y14647D01*
X4462Y14647D01*
X4475Y14650D01*
X4534Y14650D01*
X4568Y14645D01*
X4568Y14645D02*
G37*
G36*
X5421Y14647D02*
X5475Y14637D01*
X5522Y14622D01*
X5561Y14606D01*
X5589Y14591D01*
X5612Y14575D01*
X5625Y14565D01*
X5631Y14562D01*
X5662Y14526D01*
X5685Y14487D01*
X5703Y14443D01*
X5713Y14404D01*
X5721Y14368D01*
X5724Y14337D01*
X5726Y14327D01*
X5726Y14319D01*
X5726Y14314D01*
X5726Y14311D01*
X5724Y14273D01*
X5718Y14236D01*
X5713Y14203D01*
X5706Y14177D01*
X5698Y14154D01*
X5690Y14138D01*
X5687Y14128D01*
X5685Y14125D01*
X5667Y14097D01*
X5646Y14071D01*
X5625Y14045D01*
X5605Y14022D01*
X5584Y14004D01*
X5569Y13988D01*
X5558Y13978D01*
X5556Y13975D01*
X5419Y13856D01*
X5393Y13833D01*
X5369Y13810D01*
X5351Y13789D01*
X5336Y13771D01*
X5325Y13755D01*
X5315Y13745D01*
X5313Y13737D01*
X5310Y13735D01*
X5297Y13714D01*
X5289Y13691D01*
X5279Y13647D01*
X5276Y13629D01*
X5274Y13613D01*
X5274Y13603D01*
X5274Y13600D01*
X5276Y13569D01*
X5284Y13543D01*
X5292Y13528D01*
X5294Y13525D01*
X5294Y13523D01*
X5302Y13512D01*
X5313Y13507D01*
X5336Y13497D01*
X5346Y13497D01*
X5354Y13494D01*
X5362Y13494D01*
X5385Y13497D01*
X5403Y13505D01*
X5421Y13512D01*
X5434Y13525D01*
X5447Y13536D01*
X5455Y13543D01*
X5457Y13551D01*
X5460Y13554D01*
X5470Y13580D01*
X5478Y13608D01*
X5483Y13639D01*
X5488Y13670D01*
X5491Y13696D01*
X5494Y13719D01*
X5494Y13735D01*
X5494Y13737D01*
X5494Y13740D01*
X5726Y13701D01*
X5724Y13662D01*
X5718Y13626D01*
X5708Y13564D01*
X5693Y13510D01*
X5675Y13466D01*
X5656Y13432D01*
X5641Y13406D01*
X5631Y13393D01*
X5628Y13388D01*
X5589Y13355D01*
X5545Y13331D01*
X5499Y13313D01*
X5455Y13303D01*
X5413Y13295D01*
X5398Y13293D01*
X5382Y13293D01*
X5369Y13290D01*
X5351Y13290D01*
X5315Y13293D01*
X5281Y13298D01*
X5250Y13303D01*
X5225Y13311D01*
X5204Y13318D01*
X5186Y13326D01*
X5175Y13329D01*
X5173Y13331D01*
X5144Y13349D01*
X5121Y13368D01*
X5098Y13386D01*
X5082Y13404D01*
X5069Y13419D01*
X5059Y13432D01*
X5054Y13443D01*
X5051Y13445D01*
X5036Y13474D01*
X5025Y13505D01*
X5018Y13533D01*
X5013Y13559D01*
X5010Y13582D01*
X5007Y13600D01*
X5007Y13611D01*
X5007Y13616D01*
X5010Y13660D01*
X5015Y13701D01*
X5025Y13737D01*
X5033Y13771D01*
X5044Y13794D01*
X5054Y13815D01*
X5059Y13825D01*
X5062Y13830D01*
X5082Y13864D01*
X5108Y13898D01*
X5134Y13929D01*
X5157Y13954D01*
X5178Y13978D01*
X5196Y13996D01*
X5207Y14006D01*
X5212Y14011D01*
X5346Y14128D01*
X5367Y14148D01*
X5387Y14167D01*
X5403Y14182D01*
X5413Y14198D01*
X5424Y14210D01*
X5431Y14218D01*
X5434Y14223D01*
X5437Y14226D01*
X5447Y14244D01*
X5452Y14265D01*
X5462Y14301D01*
X5462Y14316D01*
X5465Y14329D01*
X5465Y14337D01*
X5465Y14340D01*
X5462Y14371D01*
X5452Y14397D01*
X5444Y14412D01*
X5442Y14415D01*
X5442Y14417D01*
X5431Y14428D01*
X5419Y14438D01*
X5395Y14446D01*
X5385Y14448D01*
X5375Y14451D01*
X5367Y14451D01*
X5346Y14448D01*
X5331Y14443D01*
X5318Y14435D01*
X5307Y14425D01*
X5300Y14415D01*
X5294Y14407D01*
X5292Y14402D01*
X5292Y14399D01*
X5284Y14379D01*
X5279Y14355D01*
X5271Y14304D01*
X5271Y14283D01*
X5269Y14265D01*
X5269Y14252D01*
X5269Y14247D01*
X5033Y14280D01*
X5038Y14340D01*
X5049Y14391D01*
X5064Y14435D01*
X5077Y14474D01*
X5090Y14505D01*
X5103Y14529D01*
X5111Y14541D01*
X5113Y14547D01*
X5144Y14580D01*
X5181Y14606D01*
X5222Y14624D01*
X5263Y14637D01*
X5302Y14645D01*
X5333Y14647D01*
X5344Y14650D01*
X5362Y14650D01*
X5421Y14647D01*
X5421Y14647D02*
G37*
G36*
X21920Y10765D02*
X21687Y10765D01*
X21687Y11500D01*
X21392Y10765D01*
X21211Y10765D01*
X21211Y12095D01*
X21433Y12095D01*
X21433Y11402D01*
X21731Y12095D01*
X21920Y12095D01*
X21920Y10765D01*
X21920Y10765D02*
G37*
G36*
X20691Y12107D02*
X20738Y12102D01*
X20779Y12092D01*
X20813Y12084D01*
X20839Y12074D01*
X20859Y12064D01*
X20870Y12058D01*
X20875Y12056D01*
X20903Y12032D01*
X20929Y12009D01*
X20950Y11983D01*
X20965Y11957D01*
X20978Y11934D01*
X20986Y11916D01*
X20991Y11906D01*
X20994Y11901D01*
X21004Y11862D01*
X21012Y11823D01*
X21020Y11784D01*
X21022Y11745D01*
X21025Y11714D01*
X21027Y11689D01*
X21027Y11678D01*
X21027Y11670D01*
X21027Y11668D01*
X21027Y11665D01*
X21027Y11187D01*
X21025Y11140D01*
X21022Y11096D01*
X21017Y11058D01*
X21009Y11024D01*
X21004Y10996D01*
X20999Y10975D01*
X20996Y10962D01*
X20994Y10957D01*
X20978Y10923D01*
X20960Y10892D01*
X20942Y10866D01*
X20921Y10843D01*
X20903Y10828D01*
X20888Y10815D01*
X20877Y10807D01*
X20875Y10804D01*
X20839Y10786D01*
X20800Y10773D01*
X20761Y10763D01*
X20725Y10758D01*
X20691Y10753D01*
X20663Y10750D01*
X20640Y10750D01*
X20588Y10753D01*
X20541Y10758D01*
X20503Y10765D01*
X20472Y10776D01*
X20446Y10784D01*
X20428Y10791D01*
X20415Y10797D01*
X20412Y10799D01*
X20384Y10820D01*
X20360Y10843D01*
X20342Y10866D01*
X20327Y10890D01*
X20314Y10908D01*
X20306Y10923D01*
X20303Y10936D01*
X20301Y10939D01*
X20291Y10975D01*
X20280Y11009D01*
X20275Y11045D01*
X20272Y11076D01*
X20270Y11104D01*
X20267Y11125D01*
X20267Y11140D01*
X20267Y11146D01*
X20267Y11254D01*
X20528Y11254D01*
X20528Y11125D01*
X20528Y11091D01*
X20531Y11063D01*
X20534Y11050D01*
X20534Y11042D01*
X20536Y11037D01*
X20536Y11034D01*
X20544Y11006D01*
X20552Y10985D01*
X20562Y10972D01*
X20565Y10967D01*
X20572Y10959D01*
X20585Y10952D01*
X20609Y10944D01*
X20619Y10944D01*
X20629Y10941D01*
X20637Y10941D01*
X20671Y10944D01*
X20694Y10952D01*
X20707Y10959D01*
X20712Y10962D01*
X20728Y10983D01*
X20738Y11003D01*
X20743Y11019D01*
X20746Y11024D01*
X20746Y11027D01*
X20751Y11060D01*
X20753Y11091D01*
X20753Y11104D01*
X20753Y11115D01*
X20753Y11122D01*
X20753Y11125D01*
X20753Y11730D01*
X20753Y11766D01*
X20751Y11797D01*
X20751Y11808D01*
X20748Y11815D01*
X20748Y11820D01*
X20748Y11823D01*
X20740Y11851D01*
X20730Y11872D01*
X20720Y11885D01*
X20717Y11890D01*
X20707Y11898D01*
X20694Y11906D01*
X20668Y11914D01*
X20655Y11916D01*
X20619Y11916D01*
X20603Y11911D01*
X20590Y11908D01*
X20580Y11903D01*
X20567Y11895D01*
X20562Y11890D01*
X20547Y11870D01*
X20539Y11849D01*
X20534Y11833D01*
X20534Y11828D01*
X20534Y11826D01*
X20531Y11795D01*
X20528Y11769D01*
X20528Y11756D01*
X20528Y11748D01*
X20528Y11743D01*
X20528Y11740D01*
X20528Y11614D01*
X20267Y11614D01*
X20267Y11727D01*
X20270Y11769D01*
X20272Y11808D01*
X20278Y11841D01*
X20283Y11870D01*
X20291Y11893D01*
X20296Y11911D01*
X20298Y11924D01*
X20301Y11926D01*
X20316Y11957D01*
X20332Y11986D01*
X20353Y12007D01*
X20371Y12027D01*
X20389Y12043D01*
X20404Y12053D01*
X20415Y12058D01*
X20417Y12061D01*
X20451Y12076D01*
X20484Y12089D01*
X20523Y12097D01*
X20559Y12105D01*
X20590Y12107D01*
X20616Y12110D01*
X20640Y12110D01*
X20691Y12107D01*
X20691Y12107D02*
G37*
G36*
X4969Y10802D02*
X4635Y10802D01*
X4579Y10805D01*
X4527Y10810D01*
X4483Y10815D01*
X4447Y10826D01*
X4418Y10833D01*
X4398Y10839D01*
X4385Y10844D01*
X4379Y10846D01*
X4346Y10864D01*
X4320Y10885D01*
X4297Y10908D01*
X4279Y10932D01*
X4266Y10952D01*
X4255Y10968D01*
X4250Y10978D01*
X4248Y10983D01*
X4235Y11020D01*
X4224Y11061D01*
X4217Y11102D01*
X4211Y11141D01*
X4209Y11175D01*
X4206Y11203D01*
X4206Y11213D01*
X4206Y11221D01*
X4206Y11226D01*
X4206Y11229D01*
X4206Y11715D01*
X4209Y11767D01*
X4211Y11813D01*
X4219Y11855D01*
X4227Y11888D01*
X4235Y11917D01*
X4240Y11937D01*
X4245Y11948D01*
X4248Y11953D01*
X4266Y11984D01*
X4284Y12012D01*
X4307Y12036D01*
X4330Y12054D01*
X4348Y12069D01*
X4366Y12080D01*
X4377Y12085D01*
X4382Y12087D01*
X4421Y12103D01*
X4462Y12113D01*
X4506Y12121D01*
X4547Y12126D01*
X4586Y12129D01*
X4615Y12131D01*
X4969Y12131D01*
X4969Y10802D01*
X4969Y10802D02*
G37*
G36*
X5525Y12144D02*
X5579Y12134D01*
X5626Y12118D01*
X5665Y12103D01*
X5693Y12087D01*
X5716Y12072D01*
X5729Y12062D01*
X5734Y12059D01*
X5765Y12023D01*
X5789Y11984D01*
X5807Y11940D01*
X5817Y11901D01*
X5825Y11865D01*
X5827Y11834D01*
X5830Y11824D01*
X5830Y11816D01*
X5830Y11811D01*
X5830Y11808D01*
X5827Y11769D01*
X5822Y11733D01*
X5817Y11700D01*
X5809Y11674D01*
X5802Y11650D01*
X5794Y11635D01*
X5791Y11625D01*
X5789Y11622D01*
X5771Y11594D01*
X5750Y11568D01*
X5729Y11542D01*
X5708Y11519D01*
X5688Y11500D01*
X5672Y11485D01*
X5662Y11475D01*
X5659Y11472D01*
X5522Y11353D01*
X5496Y11330D01*
X5473Y11307D01*
X5455Y11286D01*
X5440Y11268D01*
X5429Y11252D01*
X5419Y11242D01*
X5416Y11234D01*
X5414Y11232D01*
X5401Y11211D01*
X5393Y11188D01*
X5383Y11144D01*
X5380Y11126D01*
X5378Y11110D01*
X5378Y11100D01*
X5378Y11097D01*
X5380Y11066D01*
X5388Y11040D01*
X5396Y11025D01*
X5398Y11022D01*
X5398Y11020D01*
X5406Y11009D01*
X5416Y11004D01*
X5440Y10994D01*
X5450Y10994D01*
X5458Y10991D01*
X5465Y10991D01*
X5489Y10994D01*
X5507Y11001D01*
X5525Y11009D01*
X5538Y11022D01*
X5551Y11032D01*
X5559Y11040D01*
X5561Y11048D01*
X5564Y11051D01*
X5574Y11076D01*
X5582Y11105D01*
X5587Y11136D01*
X5592Y11167D01*
X5595Y11193D01*
X5597Y11216D01*
X5597Y11232D01*
X5597Y11234D01*
X5597Y11237D01*
X5830Y11198D01*
X5827Y11159D01*
X5822Y11123D01*
X5812Y11061D01*
X5796Y11007D01*
X5778Y10963D01*
X5760Y10929D01*
X5745Y10903D01*
X5734Y10890D01*
X5732Y10885D01*
X5693Y10851D01*
X5649Y10828D01*
X5602Y10810D01*
X5559Y10800D01*
X5517Y10792D01*
X5502Y10789D01*
X5486Y10789D01*
X5473Y10787D01*
X5455Y10787D01*
X5419Y10789D01*
X5385Y10795D01*
X5354Y10800D01*
X5328Y10807D01*
X5308Y10815D01*
X5290Y10823D01*
X5279Y10826D01*
X5277Y10828D01*
X5248Y10846D01*
X5225Y10864D01*
X5202Y10882D01*
X5186Y10901D01*
X5173Y10916D01*
X5163Y10929D01*
X5158Y10939D01*
X5155Y10942D01*
X5140Y10970D01*
X5129Y11001D01*
X5122Y11030D01*
X5116Y11056D01*
X5114Y11079D01*
X5111Y11097D01*
X5111Y11107D01*
X5111Y11113D01*
X5114Y11157D01*
X5119Y11198D01*
X5129Y11234D01*
X5137Y11268D01*
X5147Y11291D01*
X5158Y11312D01*
X5163Y11322D01*
X5165Y11327D01*
X5186Y11361D01*
X5212Y11394D01*
X5238Y11425D01*
X5261Y11451D01*
X5282Y11475D01*
X5300Y11493D01*
X5310Y11503D01*
X5315Y11508D01*
X5450Y11625D01*
X5471Y11645D01*
X5491Y11663D01*
X5507Y11679D01*
X5517Y11694D01*
X5527Y11707D01*
X5535Y11715D01*
X5538Y11720D01*
X5540Y11723D01*
X5551Y11741D01*
X5556Y11762D01*
X5566Y11798D01*
X5566Y11813D01*
X5569Y11826D01*
X5569Y11834D01*
X5569Y11837D01*
X5566Y11868D01*
X5556Y11894D01*
X5548Y11909D01*
X5546Y11912D01*
X5546Y11914D01*
X5535Y11925D01*
X5522Y11935D01*
X5499Y11943D01*
X5489Y11945D01*
X5478Y11948D01*
X5471Y11948D01*
X5450Y11945D01*
X5434Y11940D01*
X5421Y11932D01*
X5411Y11922D01*
X5403Y11912D01*
X5398Y11904D01*
X5396Y11899D01*
X5396Y11896D01*
X5388Y11875D01*
X5383Y11852D01*
X5375Y11800D01*
X5375Y11780D01*
X5372Y11762D01*
X5372Y11749D01*
X5372Y11744D01*
X5137Y11777D01*
X5142Y11837D01*
X5153Y11888D01*
X5168Y11932D01*
X5181Y11971D01*
X5194Y12002D01*
X5207Y12025D01*
X5215Y12038D01*
X5217Y12043D01*
X5248Y12077D01*
X5284Y12103D01*
X5326Y12121D01*
X5367Y12134D01*
X5406Y12142D01*
X5437Y12144D01*
X5447Y12147D01*
X5465Y12147D01*
X5525Y12144D01*
X5525Y12144D02*
G37*
G36*
X3730Y12142D02*
X3761Y12137D01*
X3792Y12129D01*
X3818Y12121D01*
X3844Y12113D01*
X3886Y12093D01*
X3919Y12072D01*
X3940Y12056D01*
X3953Y12043D01*
X3958Y12038D01*
X3986Y11994D01*
X4010Y11943D01*
X4025Y11888D01*
X4036Y11837D01*
X4041Y11790D01*
X4043Y11769D01*
X4043Y11751D01*
X4046Y11736D01*
X4046Y11725D01*
X4046Y11718D01*
X4046Y11715D01*
X4046Y11219D01*
X4043Y11144D01*
X4033Y11076D01*
X4017Y11022D01*
X4002Y10976D01*
X3986Y10942D01*
X3971Y10916D01*
X3961Y10901D01*
X3958Y10895D01*
X3940Y10877D01*
X3919Y10859D01*
X3873Y10833D01*
X3823Y10813D01*
X3772Y10800D01*
X3728Y10792D01*
X3707Y10789D01*
X3689Y10789D01*
X3676Y10787D01*
X3655Y10787D01*
X3617Y10789D01*
X3580Y10792D01*
X3549Y10797D01*
X3518Y10805D01*
X3490Y10813D01*
X3467Y10820D01*
X3425Y10841D01*
X3392Y10862D01*
X3371Y10877D01*
X3358Y10890D01*
X3353Y10895D01*
X3322Y10939D01*
X3301Y10991D01*
X3286Y11045D01*
X3273Y11097D01*
X3268Y11146D01*
X3265Y11164D01*
X3265Y11182D01*
X3262Y11198D01*
X3262Y11208D01*
X3262Y11216D01*
X3262Y11219D01*
X3262Y11715D01*
X3265Y11790D01*
X3275Y11857D01*
X3291Y11912D01*
X3306Y11958D01*
X3324Y11992D01*
X3337Y12018D01*
X3348Y12033D01*
X3353Y12038D01*
X3371Y12056D01*
X3392Y12075D01*
X3438Y12100D01*
X3487Y12121D01*
X3539Y12134D01*
X3583Y12142D01*
X3604Y12144D01*
X3622Y12144D01*
X3635Y12147D01*
X3694Y12147D01*
X3730Y12142D01*
X3730Y12142D02*
G37*
G36*
X21920Y8225D02*
X21687Y8225D01*
X21687Y8960D01*
X21392Y8225D01*
X21211Y8225D01*
X21211Y9555D01*
X21433Y9555D01*
X21433Y8862D01*
X21731Y9555D01*
X21920Y9555D01*
X21920Y8225D01*
X21920Y8225D02*
G37*
G36*
X20691Y9567D02*
X20738Y9562D01*
X20779Y9552D01*
X20813Y9544D01*
X20839Y9534D01*
X20859Y9524D01*
X20870Y9518D01*
X20875Y9516D01*
X20903Y9492D01*
X20929Y9469D01*
X20950Y9443D01*
X20965Y9417D01*
X20978Y9394D01*
X20986Y9376D01*
X20991Y9366D01*
X20994Y9361D01*
X21004Y9322D01*
X21012Y9283D01*
X21020Y9244D01*
X21022Y9205D01*
X21025Y9174D01*
X21027Y9149D01*
X21027Y9138D01*
X21027Y9130D01*
X21027Y9128D01*
X21027Y9125D01*
X21027Y8647D01*
X21025Y8600D01*
X21022Y8556D01*
X21017Y8518D01*
X21009Y8484D01*
X21004Y8456D01*
X20999Y8435D01*
X20996Y8422D01*
X20994Y8417D01*
X20978Y8383D01*
X20960Y8352D01*
X20942Y8326D01*
X20921Y8303D01*
X20903Y8288D01*
X20888Y8275D01*
X20877Y8267D01*
X20875Y8264D01*
X20839Y8246D01*
X20800Y8233D01*
X20761Y8223D01*
X20725Y8218D01*
X20691Y8213D01*
X20663Y8210D01*
X20640Y8210D01*
X20588Y8213D01*
X20541Y8218D01*
X20503Y8225D01*
X20472Y8236D01*
X20446Y8244D01*
X20428Y8251D01*
X20415Y8257D01*
X20412Y8259D01*
X20384Y8280D01*
X20360Y8303D01*
X20342Y8326D01*
X20327Y8350D01*
X20314Y8368D01*
X20306Y8383D01*
X20303Y8396D01*
X20301Y8399D01*
X20291Y8435D01*
X20280Y8469D01*
X20275Y8505D01*
X20272Y8536D01*
X20270Y8564D01*
X20267Y8585D01*
X20267Y8600D01*
X20267Y8606D01*
X20267Y8714D01*
X20528Y8714D01*
X20528Y8585D01*
X20528Y8551D01*
X20531Y8523D01*
X20534Y8510D01*
X20534Y8502D01*
X20536Y8497D01*
X20536Y8494D01*
X20544Y8466D01*
X20552Y8445D01*
X20562Y8432D01*
X20565Y8427D01*
X20572Y8419D01*
X20585Y8412D01*
X20609Y8404D01*
X20619Y8404D01*
X20629Y8401D01*
X20637Y8401D01*
X20671Y8404D01*
X20694Y8412D01*
X20707Y8419D01*
X20712Y8422D01*
X20728Y8443D01*
X20738Y8463D01*
X20743Y8479D01*
X20746Y8484D01*
X20746Y8487D01*
X20751Y8520D01*
X20753Y8551D01*
X20753Y8564D01*
X20753Y8575D01*
X20753Y8582D01*
X20753Y8585D01*
X20753Y9190D01*
X20753Y9226D01*
X20751Y9257D01*
X20751Y9268D01*
X20748Y9275D01*
X20748Y9280D01*
X20748Y9283D01*
X20740Y9311D01*
X20730Y9332D01*
X20720Y9345D01*
X20717Y9350D01*
X20707Y9358D01*
X20694Y9366D01*
X20668Y9374D01*
X20655Y9376D01*
X20619Y9376D01*
X20603Y9371D01*
X20590Y9368D01*
X20580Y9363D01*
X20567Y9355D01*
X20562Y9350D01*
X20547Y9330D01*
X20539Y9309D01*
X20534Y9293D01*
X20534Y9288D01*
X20534Y9286D01*
X20531Y9255D01*
X20528Y9229D01*
X20528Y9216D01*
X20528Y9208D01*
X20528Y9203D01*
X20528Y9200D01*
X20528Y9074D01*
X20267Y9074D01*
X20267Y9187D01*
X20270Y9229D01*
X20272Y9268D01*
X20278Y9301D01*
X20283Y9330D01*
X20291Y9353D01*
X20296Y9371D01*
X20298Y9384D01*
X20301Y9386D01*
X20316Y9417D01*
X20332Y9446D01*
X20353Y9467D01*
X20371Y9487D01*
X20389Y9503D01*
X20404Y9513D01*
X20415Y9518D01*
X20417Y9521D01*
X20451Y9536D01*
X20484Y9549D01*
X20523Y9557D01*
X20559Y9565D01*
X20590Y9567D01*
X20616Y9570D01*
X20640Y9570D01*
X20691Y9567D01*
X20691Y9567D02*
G37*
G36*
X4622Y8225D02*
X4289Y8225D01*
X4232Y8228D01*
X4180Y8233D01*
X4136Y8238D01*
X4100Y8249D01*
X4071Y8257D01*
X4051Y8262D01*
X4038Y8267D01*
X4033Y8269D01*
X3999Y8288D01*
X3973Y8308D01*
X3950Y8331D01*
X3932Y8355D01*
X3919Y8375D01*
X3908Y8391D01*
X3903Y8401D01*
X3901Y8406D01*
X3888Y8443D01*
X3877Y8484D01*
X3870Y8525D01*
X3865Y8564D01*
X3862Y8598D01*
X3859Y8626D01*
X3859Y8637D01*
X3859Y8644D01*
X3859Y8650D01*
X3859Y8652D01*
X3859Y9138D01*
X3862Y9190D01*
X3865Y9236D01*
X3872Y9278D01*
X3880Y9311D01*
X3888Y9340D01*
X3893Y9361D01*
X3898Y9371D01*
X3901Y9376D01*
X3919Y9407D01*
X3937Y9436D01*
X3960Y9459D01*
X3983Y9477D01*
X4002Y9492D01*
X4020Y9503D01*
X4030Y9508D01*
X4035Y9511D01*
X4074Y9526D01*
X4115Y9536D01*
X4159Y9544D01*
X4201Y9549D01*
X4239Y9552D01*
X4268Y9555D01*
X4622Y9555D01*
X4622Y8225D01*
X4622Y8225D02*
G37*
G36*
X3676Y8225D02*
X3407Y8225D01*
X3407Y9555D01*
X3676Y9555D01*
X3676Y8225D01*
X3676Y8225D02*
G37*
G36*
X5178Y9567D02*
X5232Y9557D01*
X5279Y9542D01*
X5318Y9526D01*
X5346Y9511D01*
X5369Y9495D01*
X5382Y9485D01*
X5387Y9482D01*
X5419Y9446D01*
X5442Y9407D01*
X5460Y9363D01*
X5470Y9324D01*
X5478Y9288D01*
X5481Y9257D01*
X5483Y9247D01*
X5483Y9239D01*
X5483Y9234D01*
X5483Y9231D01*
X5481Y9193D01*
X5475Y9156D01*
X5470Y9123D01*
X5462Y9097D01*
X5455Y9074D01*
X5447Y9058D01*
X5444Y9048D01*
X5442Y9045D01*
X5424Y9017D01*
X5403Y8991D01*
X5382Y8965D01*
X5362Y8942D01*
X5341Y8924D01*
X5325Y8908D01*
X5315Y8898D01*
X5313Y8895D01*
X5175Y8776D01*
X5150Y8753D01*
X5126Y8730D01*
X5108Y8709D01*
X5093Y8691D01*
X5082Y8675D01*
X5072Y8665D01*
X5069Y8657D01*
X5067Y8655D01*
X5054Y8634D01*
X5046Y8611D01*
X5036Y8567D01*
X5033Y8549D01*
X5031Y8533D01*
X5031Y8523D01*
X5031Y8520D01*
X5033Y8489D01*
X5041Y8463D01*
X5049Y8448D01*
X5051Y8445D01*
X5051Y8443D01*
X5059Y8432D01*
X5069Y8427D01*
X5093Y8417D01*
X5103Y8417D01*
X5111Y8414D01*
X5119Y8414D01*
X5142Y8417D01*
X5160Y8425D01*
X5178Y8432D01*
X5191Y8445D01*
X5204Y8456D01*
X5212Y8463D01*
X5214Y8471D01*
X5217Y8474D01*
X5227Y8500D01*
X5235Y8528D01*
X5240Y8559D01*
X5245Y8590D01*
X5248Y8616D01*
X5250Y8639D01*
X5250Y8655D01*
X5250Y8657D01*
X5250Y8660D01*
X5483Y8621D01*
X5481Y8582D01*
X5475Y8546D01*
X5465Y8484D01*
X5450Y8430D01*
X5431Y8386D01*
X5413Y8352D01*
X5398Y8326D01*
X5387Y8313D01*
X5385Y8308D01*
X5346Y8275D01*
X5302Y8251D01*
X5256Y8233D01*
X5212Y8223D01*
X5170Y8215D01*
X5155Y8213D01*
X5139Y8213D01*
X5126Y8210D01*
X5108Y8210D01*
X5072Y8213D01*
X5038Y8218D01*
X5007Y8223D01*
X4982Y8231D01*
X4961Y8238D01*
X4943Y8246D01*
X4932Y8249D01*
X4930Y8251D01*
X4901Y8269D01*
X4878Y8288D01*
X4855Y8306D01*
X4839Y8324D01*
X4826Y8339D01*
X4816Y8352D01*
X4811Y8363D01*
X4808Y8365D01*
X4793Y8394D01*
X4782Y8425D01*
X4775Y8453D01*
X4770Y8479D01*
X4767Y8502D01*
X4764Y8520D01*
X4764Y8531D01*
X4764Y8536D01*
X4767Y8580D01*
X4772Y8621D01*
X4782Y8657D01*
X4790Y8691D01*
X4801Y8714D01*
X4811Y8735D01*
X4816Y8745D01*
X4819Y8750D01*
X4839Y8784D01*
X4865Y8818D01*
X4891Y8849D01*
X4914Y8874D01*
X4935Y8898D01*
X4953Y8916D01*
X4963Y8926D01*
X4969Y8931D01*
X5103Y9048D01*
X5124Y9068D01*
X5144Y9087D01*
X5160Y9102D01*
X5170Y9118D01*
X5181Y9130D01*
X5188Y9138D01*
X5191Y9143D01*
X5194Y9146D01*
X5204Y9164D01*
X5209Y9185D01*
X5219Y9221D01*
X5219Y9236D01*
X5222Y9249D01*
X5222Y9257D01*
X5222Y9260D01*
X5219Y9291D01*
X5209Y9317D01*
X5201Y9332D01*
X5199Y9335D01*
X5199Y9337D01*
X5188Y9348D01*
X5175Y9358D01*
X5152Y9366D01*
X5142Y9368D01*
X5132Y9371D01*
X5124Y9371D01*
X5103Y9368D01*
X5088Y9363D01*
X5075Y9355D01*
X5064Y9345D01*
X5057Y9335D01*
X5051Y9327D01*
X5049Y9322D01*
X5049Y9319D01*
X5041Y9299D01*
X5036Y9275D01*
X5028Y9224D01*
X5028Y9203D01*
X5025Y9185D01*
X5025Y9172D01*
X5025Y9167D01*
X4790Y9200D01*
X4795Y9260D01*
X4806Y9311D01*
X4821Y9355D01*
X4834Y9394D01*
X4847Y9425D01*
X4860Y9449D01*
X4868Y9461D01*
X4870Y9467D01*
X4901Y9500D01*
X4938Y9526D01*
X4979Y9544D01*
X5020Y9557D01*
X5059Y9565D01*
X5090Y9567D01*
X5100Y9570D01*
X5119Y9570D01*
X5178Y9567D01*
X5178Y9567D02*
G37*
G36*
X5360Y7029D02*
X5415Y7018D01*
X5459Y7003D01*
X5497Y6987D01*
X5526Y6969D01*
X5547Y6954D01*
X5559Y6943D01*
X5565Y6938D01*
X5596Y6899D01*
X5619Y6856D01*
X5634Y6812D01*
X5645Y6768D01*
X5653Y6729D01*
X5655Y6713D01*
X5655Y6698D01*
X5658Y6685D01*
X5658Y6677D01*
X5658Y6672D01*
X5658Y6669D01*
X5658Y6597D01*
X5404Y6597D01*
X5404Y6656D01*
X5402Y6687D01*
X5399Y6713D01*
X5397Y6734D01*
X5391Y6752D01*
X5389Y6768D01*
X5384Y6778D01*
X5381Y6783D01*
X5381Y6786D01*
X5371Y6801D01*
X5360Y6812D01*
X5347Y6822D01*
X5332Y6827D01*
X5322Y6830D01*
X5311Y6832D01*
X5301Y6832D01*
X5280Y6830D01*
X5262Y6827D01*
X5249Y6819D01*
X5236Y6812D01*
X5228Y6804D01*
X5223Y6799D01*
X5218Y6793D01*
X5218Y6791D01*
X5210Y6773D01*
X5205Y6755D01*
X5197Y6713D01*
X5195Y6693D01*
X5195Y6677D01*
X5195Y6667D01*
X5195Y6664D01*
X5197Y6628D01*
X5200Y6597D01*
X5205Y6569D01*
X5210Y6548D01*
X5218Y6532D01*
X5223Y6519D01*
X5226Y6514D01*
X5228Y6512D01*
X5241Y6496D01*
X5260Y6486D01*
X5278Y6478D01*
X5298Y6473D01*
X5316Y6470D01*
X5332Y6468D01*
X5386Y6468D01*
X5386Y6281D01*
X5347Y6281D01*
X5342Y6279D01*
X5340Y6279D01*
X5311Y6276D01*
X5288Y6271D01*
X5267Y6263D01*
X5252Y6253D01*
X5239Y6243D01*
X5231Y6235D01*
X5228Y6230D01*
X5226Y6227D01*
X5216Y6207D01*
X5208Y6181D01*
X5197Y6129D01*
X5197Y6103D01*
X5195Y6085D01*
X5195Y6072D01*
X5195Y6067D01*
X5195Y6031D01*
X5197Y6002D01*
X5200Y5976D01*
X5205Y5956D01*
X5208Y5940D01*
X5213Y5927D01*
X5216Y5922D01*
X5216Y5919D01*
X5223Y5904D01*
X5236Y5894D01*
X5249Y5886D01*
X5262Y5881D01*
X5275Y5878D01*
X5285Y5876D01*
X5296Y5876D01*
X5316Y5878D01*
X5334Y5883D01*
X5347Y5888D01*
X5360Y5899D01*
X5368Y5907D01*
X5373Y5912D01*
X5378Y5917D01*
X5378Y5919D01*
X5386Y5938D01*
X5391Y5961D01*
X5399Y6010D01*
X5402Y6031D01*
X5404Y6051D01*
X5404Y6062D01*
X5404Y6067D01*
X5404Y6111D01*
X5658Y6111D01*
X5658Y6064D01*
X5655Y5997D01*
X5645Y5938D01*
X5632Y5886D01*
X5616Y5845D01*
X5601Y5813D01*
X5588Y5788D01*
X5578Y5775D01*
X5575Y5770D01*
X5539Y5736D01*
X5495Y5710D01*
X5451Y5692D01*
X5404Y5679D01*
X5363Y5671D01*
X5345Y5669D01*
X5329Y5669D01*
X5316Y5666D01*
X5298Y5666D01*
X5234Y5671D01*
X5177Y5682D01*
X5130Y5700D01*
X5091Y5720D01*
X5063Y5738D01*
X5042Y5757D01*
X5032Y5767D01*
X5027Y5772D01*
X4998Y5816D01*
X4978Y5865D01*
X4962Y5914D01*
X4952Y5963D01*
X4947Y6005D01*
X4944Y6025D01*
X4941Y6041D01*
X4941Y6054D01*
X4941Y6064D01*
X4941Y6069D01*
X4941Y6072D01*
X4944Y6119D01*
X4949Y6157D01*
X4957Y6196D01*
X4967Y6227D01*
X4980Y6258D01*
X4996Y6284D01*
X5011Y6305D01*
X5027Y6325D01*
X5042Y6341D01*
X5058Y6354D01*
X5073Y6364D01*
X5086Y6375D01*
X5097Y6380D01*
X5104Y6385D01*
X5110Y6387D01*
X5112Y6387D01*
X5086Y6398D01*
X5060Y6411D01*
X5040Y6426D01*
X5024Y6442D01*
X5009Y6457D01*
X4998Y6470D01*
X4993Y6481D01*
X4991Y6483D01*
X4975Y6514D01*
X4962Y6548D01*
X4954Y6579D01*
X4947Y6610D01*
X4944Y6636D01*
X4941Y6659D01*
X4941Y6672D01*
X4941Y6677D01*
X4947Y6739D01*
X4957Y6791D01*
X4972Y6837D01*
X4988Y6874D01*
X5006Y6902D01*
X5022Y6925D01*
X5032Y6936D01*
X5037Y6941D01*
X5076Y6972D01*
X5117Y6995D01*
X5161Y7011D01*
X5203Y7024D01*
X5241Y7029D01*
X5272Y7031D01*
X5285Y7034D01*
X5301Y7034D01*
X5360Y7029D01*
X5360Y7029D02*
G37*
G36*
X3656Y7029D02*
X3711Y7018D01*
X3755Y7003D01*
X3793Y6987D01*
X3822Y6969D01*
X3843Y6954D01*
X3855Y6943D01*
X3861Y6938D01*
X3892Y6899D01*
X3915Y6856D01*
X3930Y6812D01*
X3941Y6768D01*
X3949Y6729D01*
X3951Y6713D01*
X3951Y6698D01*
X3954Y6685D01*
X3954Y6677D01*
X3954Y6672D01*
X3954Y6669D01*
X3954Y6597D01*
X3700Y6597D01*
X3700Y6656D01*
X3698Y6687D01*
X3695Y6713D01*
X3693Y6734D01*
X3687Y6752D01*
X3685Y6768D01*
X3680Y6778D01*
X3677Y6783D01*
X3677Y6786D01*
X3667Y6801D01*
X3656Y6812D01*
X3643Y6822D01*
X3628Y6827D01*
X3618Y6830D01*
X3607Y6832D01*
X3597Y6832D01*
X3576Y6830D01*
X3558Y6827D01*
X3545Y6819D01*
X3532Y6812D01*
X3524Y6804D01*
X3519Y6799D01*
X3514Y6793D01*
X3514Y6791D01*
X3506Y6773D01*
X3501Y6755D01*
X3493Y6713D01*
X3491Y6693D01*
X3491Y6677D01*
X3491Y6667D01*
X3491Y6664D01*
X3493Y6628D01*
X3496Y6597D01*
X3501Y6569D01*
X3506Y6548D01*
X3514Y6532D01*
X3519Y6519D01*
X3522Y6514D01*
X3524Y6512D01*
X3537Y6496D01*
X3556Y6486D01*
X3574Y6478D01*
X3594Y6473D01*
X3612Y6470D01*
X3628Y6468D01*
X3682Y6468D01*
X3682Y6281D01*
X3643Y6281D01*
X3638Y6279D01*
X3636Y6279D01*
X3607Y6276D01*
X3584Y6271D01*
X3563Y6263D01*
X3548Y6253D01*
X3535Y6243D01*
X3527Y6235D01*
X3524Y6230D01*
X3522Y6227D01*
X3512Y6207D01*
X3504Y6181D01*
X3493Y6129D01*
X3493Y6103D01*
X3491Y6085D01*
X3491Y6072D01*
X3491Y6067D01*
X3491Y6031D01*
X3493Y6002D01*
X3496Y5976D01*
X3501Y5956D01*
X3504Y5940D01*
X3509Y5927D01*
X3512Y5922D01*
X3512Y5919D01*
X3519Y5904D01*
X3532Y5894D01*
X3545Y5886D01*
X3558Y5881D01*
X3571Y5878D01*
X3581Y5876D01*
X3592Y5876D01*
X3612Y5878D01*
X3631Y5883D01*
X3643Y5888D01*
X3656Y5899D01*
X3664Y5907D01*
X3669Y5912D01*
X3674Y5917D01*
X3674Y5919D01*
X3682Y5938D01*
X3687Y5961D01*
X3695Y6010D01*
X3698Y6031D01*
X3700Y6051D01*
X3700Y6062D01*
X3700Y6067D01*
X3700Y6111D01*
X3954Y6111D01*
X3954Y6064D01*
X3951Y5997D01*
X3941Y5938D01*
X3928Y5886D01*
X3912Y5845D01*
X3897Y5813D01*
X3884Y5788D01*
X3874Y5775D01*
X3871Y5770D01*
X3835Y5736D01*
X3791Y5710D01*
X3747Y5692D01*
X3700Y5679D01*
X3659Y5671D01*
X3641Y5669D01*
X3625Y5669D01*
X3612Y5666D01*
X3594Y5666D01*
X3530Y5671D01*
X3473Y5682D01*
X3426Y5700D01*
X3387Y5720D01*
X3359Y5738D01*
X3338Y5757D01*
X3328Y5767D01*
X3323Y5772D01*
X3294Y5816D01*
X3274Y5865D01*
X3258Y5914D01*
X3248Y5963D01*
X3243Y6005D01*
X3240Y6025D01*
X3237Y6041D01*
X3237Y6054D01*
X3237Y6064D01*
X3237Y6069D01*
X3237Y6072D01*
X3240Y6119D01*
X3245Y6157D01*
X3253Y6196D01*
X3263Y6227D01*
X3276Y6258D01*
X3292Y6284D01*
X3307Y6305D01*
X3323Y6325D01*
X3338Y6341D01*
X3354Y6354D01*
X3369Y6364D01*
X3382Y6375D01*
X3393Y6380D01*
X3400Y6385D01*
X3406Y6387D01*
X3408Y6387D01*
X3382Y6398D01*
X3356Y6411D01*
X3336Y6426D01*
X3320Y6442D01*
X3305Y6457D01*
X3294Y6470D01*
X3289Y6481D01*
X3287Y6483D01*
X3271Y6514D01*
X3258Y6548D01*
X3250Y6579D01*
X3243Y6610D01*
X3240Y6636D01*
X3237Y6659D01*
X3237Y6672D01*
X3237Y6677D01*
X3243Y6739D01*
X3253Y6791D01*
X3269Y6837D01*
X3284Y6874D01*
X3302Y6902D01*
X3318Y6925D01*
X3328Y6936D01*
X3333Y6941D01*
X3372Y6972D01*
X3413Y6995D01*
X3457Y7011D01*
X3499Y7024D01*
X3537Y7029D01*
X3568Y7031D01*
X3581Y7034D01*
X3597Y7034D01*
X3656Y7029D01*
X3656Y7029D02*
G37*
G36*
X21872Y6270D02*
X21652Y6270D01*
X21647Y6291D01*
X21642Y6309D01*
X21623Y6340D01*
X21605Y6360D01*
X21587Y6373D01*
X21569Y6384D01*
X21554Y6386D01*
X21543Y6389D01*
X21541Y6389D01*
X21517Y6386D01*
X21497Y6378D01*
X21481Y6371D01*
X21468Y6360D01*
X21461Y6347D01*
X21455Y6340D01*
X21450Y6332D01*
X21450Y6329D01*
X21442Y6303D01*
X21437Y6275D01*
X21432Y6247D01*
X21430Y6216D01*
X21427Y6190D01*
X21427Y6169D01*
X21427Y6153D01*
X21427Y6151D01*
X21427Y6148D01*
X21427Y6110D01*
X21427Y6076D01*
X21430Y6047D01*
X21430Y6024D01*
X21430Y6006D01*
X21432Y5993D01*
X21432Y5985D01*
X21432Y5983D01*
X21440Y5947D01*
X21448Y5918D01*
X21453Y5908D01*
X21458Y5900D01*
X21461Y5898D01*
X21461Y5895D01*
X21471Y5885D01*
X21481Y5877D01*
X21505Y5866D01*
X21515Y5864D01*
X21525Y5861D01*
X21533Y5861D01*
X21554Y5864D01*
X21572Y5869D01*
X21587Y5877D01*
X21598Y5887D01*
X21608Y5898D01*
X21613Y5905D01*
X21618Y5910D01*
X21618Y5913D01*
X21626Y5936D01*
X21631Y5962D01*
X21636Y6016D01*
X21639Y6042D01*
X21639Y6063D01*
X21639Y6076D01*
X21639Y6081D01*
X21885Y6081D01*
X21882Y6032D01*
X21879Y5991D01*
X21874Y5952D01*
X21869Y5921D01*
X21864Y5895D01*
X21861Y5874D01*
X21856Y5864D01*
X21856Y5859D01*
X21843Y5828D01*
X21828Y5799D01*
X21810Y5776D01*
X21794Y5758D01*
X21779Y5742D01*
X21766Y5732D01*
X21755Y5724D01*
X21753Y5722D01*
X21722Y5706D01*
X21688Y5696D01*
X21654Y5685D01*
X21621Y5680D01*
X21590Y5678D01*
X21567Y5675D01*
X21543Y5675D01*
X21492Y5678D01*
X21448Y5685D01*
X21409Y5693D01*
X21378Y5706D01*
X21352Y5716D01*
X21336Y5724D01*
X21324Y5732D01*
X21321Y5735D01*
X21295Y5758D01*
X21272Y5786D01*
X21254Y5812D01*
X21238Y5838D01*
X21228Y5861D01*
X21220Y5879D01*
X21215Y5892D01*
X21215Y5898D01*
X21205Y5939D01*
X21199Y5983D01*
X21194Y6027D01*
X21189Y6068D01*
X21189Y6104D01*
X21186Y6133D01*
X21186Y6143D01*
X21186Y6151D01*
X21186Y6156D01*
X21186Y6159D01*
X21189Y6228D01*
X21197Y6291D01*
X21210Y6345D01*
X21220Y6386D01*
X21233Y6422D01*
X21246Y6446D01*
X21254Y6461D01*
X21256Y6466D01*
X21269Y6487D01*
X21285Y6503D01*
X21316Y6531D01*
X21349Y6552D01*
X21383Y6565D01*
X21414Y6572D01*
X21437Y6575D01*
X21448Y6578D01*
X21461Y6578D01*
X21507Y6575D01*
X21528Y6572D01*
X21546Y6570D01*
X21561Y6565D01*
X21572Y6562D01*
X21580Y6559D01*
X21582Y6559D01*
X21600Y6552D01*
X21618Y6544D01*
X21631Y6536D01*
X21642Y6528D01*
X21654Y6518D01*
X21660Y6516D01*
X21644Y6805D01*
X21241Y6805D01*
X21241Y7025D01*
X21854Y7025D01*
X21872Y6270D01*
X21872Y6270D02*
G37*
G36*
X20835Y5696D02*
X20556Y5696D01*
X20302Y7025D01*
X20548Y7025D01*
X20695Y6104D01*
X20853Y7025D01*
X21088Y7025D01*
X20835Y5696D01*
X20835Y5696D02*
G37*
G36*
X4598Y5687D02*
X4318Y5687D01*
X4065Y7016D01*
X4311Y7016D01*
X4458Y6095D01*
X4616Y7016D01*
X4851Y7016D01*
X4598Y5687D01*
X4598Y5687D02*
G37*
G36*
X4803Y3147D02*
X4570Y3147D01*
X4570Y3881D01*
X4276Y3147D01*
X4092Y3147D01*
X4092Y4476D01*
X4317Y4476D01*
X4317Y3785D01*
X4614Y4476D01*
X4803Y4476D01*
X4803Y3147D01*
X4803Y3147D02*
G37*
G36*
X21449Y3147D02*
X21216Y3147D01*
X21216Y3881D01*
X20921Y3147D01*
X20738Y3147D01*
X20738Y4476D01*
X20963Y4476D01*
X20963Y3785D01*
X21260Y4476D01*
X21449Y4476D01*
X21449Y3147D01*
X21449Y3147D02*
G37*
G36*
X5444Y4486D02*
X5478Y4481D01*
X5509Y4473D01*
X5535Y4463D01*
X5561Y4453D01*
X5581Y4442D01*
X5602Y4432D01*
X5633Y4411D01*
X5654Y4391D01*
X5667Y4378D01*
X5672Y4375D01*
X5672Y4372D01*
X5700Y4323D01*
X5724Y4269D01*
X5739Y4212D01*
X5749Y4158D01*
X5755Y4109D01*
X5757Y4088D01*
X5757Y4067D01*
X5760Y4052D01*
X5760Y4041D01*
X5760Y4034D01*
X5760Y4031D01*
X5760Y3586D01*
X5757Y3509D01*
X5747Y3439D01*
X5734Y3379D01*
X5726Y3356D01*
X5718Y3333D01*
X5711Y3312D01*
X5703Y3294D01*
X5695Y3279D01*
X5690Y3268D01*
X5685Y3258D01*
X5680Y3250D01*
X5677Y3248D01*
X5677Y3245D01*
X5659Y3224D01*
X5641Y3206D01*
X5600Y3178D01*
X5553Y3157D01*
X5506Y3144D01*
X5465Y3134D01*
X5447Y3131D01*
X5431Y3131D01*
X5419Y3129D01*
X5400Y3129D01*
X5372Y3131D01*
X5346Y3134D01*
X5300Y3149D01*
X5263Y3170D01*
X5232Y3196D01*
X5209Y3222D01*
X5196Y3242D01*
X5186Y3258D01*
X5183Y3261D01*
X5183Y3263D01*
X5165Y3147D01*
X4987Y3147D01*
X4987Y3829D01*
X5362Y3829D01*
X5362Y3664D01*
X5232Y3664D01*
X5232Y3524D01*
X5232Y3491D01*
X5238Y3460D01*
X5240Y3434D01*
X5245Y3413D01*
X5250Y3398D01*
X5256Y3385D01*
X5258Y3377D01*
X5261Y3374D01*
X5274Y3356D01*
X5289Y3343D01*
X5305Y3333D01*
X5320Y3328D01*
X5336Y3323D01*
X5349Y3320D01*
X5359Y3320D01*
X5385Y3323D01*
X5406Y3328D01*
X5424Y3336D01*
X5437Y3346D01*
X5447Y3354D01*
X5455Y3361D01*
X5457Y3367D01*
X5460Y3369D01*
X5468Y3390D01*
X5475Y3413D01*
X5483Y3462D01*
X5483Y3483D01*
X5486Y3498D01*
X5486Y3509D01*
X5486Y3514D01*
X5486Y4106D01*
X5486Y4140D01*
X5483Y4168D01*
X5478Y4191D01*
X5475Y4212D01*
X5470Y4228D01*
X5468Y4241D01*
X5465Y4246D01*
X5465Y4248D01*
X5455Y4264D01*
X5439Y4277D01*
X5424Y4284D01*
X5408Y4292D01*
X5393Y4295D01*
X5380Y4297D01*
X5369Y4297D01*
X5344Y4295D01*
X5325Y4290D01*
X5307Y4284D01*
X5294Y4277D01*
X5287Y4266D01*
X5281Y4261D01*
X5276Y4256D01*
X5276Y4253D01*
X5269Y4235D01*
X5263Y4215D01*
X5258Y4171D01*
X5256Y4150D01*
X5256Y4135D01*
X5256Y4124D01*
X5256Y4119D01*
X5256Y4026D01*
X4992Y4026D01*
X4992Y4103D01*
X4994Y4171D01*
X5005Y4228D01*
X5020Y4277D01*
X5036Y4318D01*
X5051Y4349D01*
X5067Y4372D01*
X5077Y4385D01*
X5080Y4391D01*
X5098Y4409D01*
X5119Y4424D01*
X5163Y4450D01*
X5212Y4468D01*
X5258Y4478D01*
X5302Y4486D01*
X5323Y4489D01*
X5338Y4489D01*
X5351Y4491D01*
X5411Y4491D01*
X5444Y4486D01*
X5444Y4486D02*
G37*
G36*
X22090Y4486D02*
X22124Y4481D01*
X22155Y4473D01*
X22181Y4463D01*
X22207Y4453D01*
X22227Y4442D01*
X22248Y4432D01*
X22279Y4411D01*
X22300Y4390D01*
X22313Y4378D01*
X22318Y4375D01*
X22318Y4372D01*
X22346Y4323D01*
X22369Y4269D01*
X22385Y4212D01*
X22395Y4158D01*
X22400Y4109D01*
X22403Y4088D01*
X22403Y4067D01*
X22406Y4052D01*
X22406Y4041D01*
X22406Y4034D01*
X22406Y4031D01*
X22406Y3586D01*
X22403Y3509D01*
X22393Y3439D01*
X22380Y3379D01*
X22372Y3356D01*
X22364Y3333D01*
X22357Y3312D01*
X22349Y3294D01*
X22341Y3279D01*
X22336Y3268D01*
X22331Y3258D01*
X22325Y3250D01*
X22323Y3248D01*
X22323Y3245D01*
X22305Y3224D01*
X22287Y3206D01*
X22245Y3178D01*
X22199Y3157D01*
X22152Y3144D01*
X22111Y3134D01*
X22093Y3131D01*
X22077Y3131D01*
X22064Y3129D01*
X22046Y3129D01*
X22018Y3131D01*
X21992Y3134D01*
X21945Y3149D01*
X21909Y3170D01*
X21878Y3196D01*
X21855Y3222D01*
X21842Y3242D01*
X21832Y3258D01*
X21829Y3261D01*
X21829Y3263D01*
X21811Y3147D01*
X21633Y3147D01*
X21633Y3829D01*
X22007Y3829D01*
X22007Y3664D01*
X21878Y3664D01*
X21878Y3524D01*
X21878Y3491D01*
X21883Y3460D01*
X21886Y3434D01*
X21891Y3413D01*
X21896Y3398D01*
X21901Y3385D01*
X21904Y3377D01*
X21907Y3374D01*
X21920Y3356D01*
X21935Y3343D01*
X21951Y3333D01*
X21966Y3328D01*
X21982Y3323D01*
X21995Y3320D01*
X22005Y3320D01*
X22031Y3323D01*
X22051Y3328D01*
X22069Y3336D01*
X22082Y3346D01*
X22093Y3354D01*
X22101Y3361D01*
X22103Y3367D01*
X22106Y3369D01*
X22113Y3390D01*
X22121Y3413D01*
X22129Y3462D01*
X22129Y3483D01*
X22132Y3498D01*
X22132Y3509D01*
X22132Y3514D01*
X22132Y4106D01*
X22132Y4140D01*
X22129Y4168D01*
X22124Y4191D01*
X22121Y4212D01*
X22116Y4228D01*
X22113Y4241D01*
X22111Y4246D01*
X22111Y4248D01*
X22101Y4264D01*
X22085Y4277D01*
X22069Y4284D01*
X22054Y4292D01*
X22038Y4295D01*
X22026Y4297D01*
X22015Y4297D01*
X21989Y4295D01*
X21971Y4290D01*
X21953Y4284D01*
X21940Y4277D01*
X21932Y4266D01*
X21927Y4261D01*
X21922Y4256D01*
X21922Y4253D01*
X21914Y4235D01*
X21909Y4215D01*
X21904Y4171D01*
X21901Y4150D01*
X21901Y4135D01*
X21901Y4124D01*
X21901Y4119D01*
X21901Y4026D01*
X21638Y4026D01*
X21638Y4103D01*
X21640Y4171D01*
X21651Y4228D01*
X21666Y4277D01*
X21682Y4318D01*
X21697Y4349D01*
X21713Y4372D01*
X21723Y4385D01*
X21726Y4390D01*
X21744Y4409D01*
X21764Y4424D01*
X21808Y4450D01*
X21857Y4468D01*
X21904Y4478D01*
X21948Y4486D01*
X21969Y4489D01*
X21984Y4489D01*
X21997Y4491D01*
X22057Y4491D01*
X22090Y4486D01*
X22090Y4486D02*
G37*
G36*
X3893Y3147D02*
X3559Y3147D01*
X3503Y3149D01*
X3451Y3155D01*
X3407Y3160D01*
X3371Y3170D01*
X3342Y3178D01*
X3322Y3183D01*
X3309Y3188D01*
X3303Y3191D01*
X3270Y3209D01*
X3244Y3230D01*
X3221Y3253D01*
X3203Y3276D01*
X3190Y3297D01*
X3179Y3312D01*
X3174Y3323D01*
X3172Y3328D01*
X3159Y3364D01*
X3148Y3405D01*
X3141Y3447D01*
X3135Y3486D01*
X3133Y3519D01*
X3130Y3548D01*
X3130Y3558D01*
X3130Y3566D01*
X3130Y3571D01*
X3130Y3573D01*
X3130Y4060D01*
X3133Y4111D01*
X3135Y4158D01*
X3143Y4199D01*
X3151Y4233D01*
X3159Y4261D01*
X3164Y4282D01*
X3169Y4292D01*
X3172Y4297D01*
X3190Y4328D01*
X3208Y4357D01*
X3231Y4380D01*
X3254Y4398D01*
X3272Y4414D01*
X3290Y4424D01*
X3301Y4429D01*
X3306Y4432D01*
X3345Y4447D01*
X3386Y4458D01*
X3430Y4465D01*
X3471Y4471D01*
X3510Y4473D01*
X3539Y4476D01*
X3893Y4476D01*
X3893Y3147D01*
X3893Y3147D02*
G37*
G36*
X20539Y3147D02*
X20205Y3147D01*
X20148Y3149D01*
X20097Y3155D01*
X20053Y3160D01*
X20016Y3170D01*
X19988Y3178D01*
X19967Y3183D01*
X19954Y3188D01*
X19949Y3191D01*
X19916Y3209D01*
X19890Y3230D01*
X19866Y3253D01*
X19848Y3276D01*
X19835Y3297D01*
X19825Y3312D01*
X19820Y3323D01*
X19817Y3328D01*
X19804Y3364D01*
X19794Y3405D01*
X19786Y3447D01*
X19781Y3485D01*
X19779Y3519D01*
X19776Y3548D01*
X19776Y3558D01*
X19776Y3566D01*
X19776Y3571D01*
X19776Y3573D01*
X19776Y4060D01*
X19779Y4111D01*
X19781Y4158D01*
X19789Y4199D01*
X19797Y4233D01*
X19804Y4261D01*
X19810Y4282D01*
X19815Y4292D01*
X19817Y4297D01*
X19835Y4328D01*
X19854Y4357D01*
X19877Y4380D01*
X19900Y4398D01*
X19918Y4414D01*
X19936Y4424D01*
X19947Y4429D01*
X19952Y4432D01*
X19991Y4447D01*
X20032Y4458D01*
X20076Y4465D01*
X20117Y4471D01*
X20156Y4473D01*
X20185Y4476D01*
X20539Y4476D01*
X20539Y3147D01*
X20539Y3147D02*
G37*
G36*
X224613Y-109042D02*
X224697Y-109070D01*
X224810Y-109112D01*
X224909Y-109169D01*
X224994Y-109267D01*
X225050Y-109408D01*
X225078Y-109578D01*
X225078Y-109606D01*
X225064Y-109662D01*
X225050Y-109761D01*
X225008Y-109860D01*
X224951Y-109973D01*
X224852Y-110058D01*
X224711Y-110128D01*
X224528Y-110156D01*
X224486Y-110156D01*
X224443Y-110142D01*
X224387Y-110128D01*
X224246Y-110086D01*
X224175Y-110043D01*
X224105Y-109987D01*
X224105Y-109973D01*
X224076Y-109959D01*
X224020Y-109874D01*
X223964Y-109747D01*
X223949Y-109662D01*
X223935Y-109578D01*
X223935Y-109564D01*
X223935Y-109535D01*
X223949Y-109493D01*
X223964Y-109451D01*
X224020Y-109324D01*
X224062Y-109253D01*
X224119Y-109197D01*
X224133Y-109183D01*
X224147Y-109169D01*
X224232Y-109112D01*
X224359Y-109056D01*
X224443Y-109028D01*
X224556Y-109028D01*
X224613Y-109042D01*
X224613Y-109042D02*
G37*
G36*
X221001Y-108548D02*
X221113Y-108562D01*
X221255Y-108562D01*
X221396Y-108590D01*
X221720Y-108632D01*
X222073Y-108717D01*
X222426Y-108816D01*
X222778Y-108957D01*
X225939Y-113994D01*
X225939Y-114008D01*
X225939Y-114036D01*
X225925Y-114093D01*
X225925Y-114149D01*
X225911Y-114234D01*
X225897Y-114333D01*
X225854Y-114544D01*
X225854Y-114559D01*
X225840Y-114601D01*
X225826Y-114657D01*
X225812Y-114728D01*
X225784Y-114827D01*
X225756Y-114925D01*
X225685Y-115165D01*
X222934Y-110862D01*
X222919Y-110848D01*
X222905Y-110805D01*
X222849Y-110749D01*
X222792Y-110692D01*
X222722Y-110636D01*
X222637Y-110580D01*
X222553Y-110537D01*
X222440Y-110523D01*
X222397Y-110523D01*
X222355Y-110537D01*
X222299Y-110565D01*
X222228Y-110608D01*
X222143Y-110664D01*
X222073Y-110735D01*
X221988Y-110848D01*
X221071Y-112103D01*
X224302Y-117197D01*
X224288Y-117211D01*
X224232Y-117253D01*
X224147Y-117324D01*
X224034Y-117409D01*
X223879Y-117522D01*
X223695Y-117634D01*
X223498Y-117761D01*
X223258Y-117888D01*
X223004Y-118015D01*
X222708Y-118142D01*
X222412Y-118255D01*
X222073Y-118368D01*
X221720Y-118453D01*
X221353Y-118523D01*
X220972Y-118566D01*
X220563Y-118580D01*
X220464Y-118580D01*
X220352Y-118566D01*
X220196Y-118552D01*
X219999Y-118523D01*
X219773Y-118495D01*
X219533Y-118439D01*
X219251Y-118368D01*
X218969Y-118283D01*
X218658Y-118171D01*
X218334Y-118044D01*
X218009Y-117888D01*
X217685Y-117691D01*
X217360Y-117479D01*
X217050Y-117225D01*
X216739Y-116929D01*
X218108Y-115038D01*
X218122Y-115024D01*
X218136Y-114968D01*
X218165Y-114883D01*
X218179Y-114812D01*
X218193Y-114728D01*
X218193Y-114700D01*
X218179Y-114629D01*
X218136Y-114502D01*
X218052Y-114347D01*
X217036Y-112752D01*
X215526Y-114855D01*
X215526Y-114841D01*
X215512Y-114827D01*
X215498Y-114742D01*
X215470Y-114615D01*
X215441Y-114446D01*
X215399Y-114234D01*
X215371Y-114008D01*
X215357Y-113740D01*
X215343Y-113472D01*
X215343Y-113444D01*
X215343Y-113387D01*
X215357Y-113275D01*
X215371Y-113148D01*
X215385Y-112978D01*
X215413Y-112781D01*
X215470Y-112555D01*
X215526Y-112315D01*
X215597Y-112061D01*
X215695Y-111779D01*
X215822Y-111497D01*
X215949Y-111215D01*
X216119Y-110932D01*
X216316Y-110636D01*
X216542Y-110354D01*
X216796Y-110086D01*
X216810Y-110072D01*
X216866Y-110015D01*
X216951Y-109945D01*
X217078Y-109846D01*
X217233Y-109719D01*
X217417Y-109592D01*
X217628Y-109451D01*
X217868Y-109310D01*
X218136Y-109169D01*
X218433Y-109028D01*
X218757Y-108886D01*
X219096Y-108774D01*
X219463Y-108675D01*
X219858Y-108604D01*
X220267Y-108548D01*
X220704Y-108534D01*
X220902Y-108534D01*
X221001Y-108548D01*
X221001Y-108548D02*
G37*
G36*
X226249Y-120005D02*
X226320Y-120019D01*
X226376Y-120033D01*
X226390Y-120033D01*
X226419Y-120047D01*
X226517Y-120090D01*
X226574Y-120146D01*
X226616Y-120202D01*
X226659Y-120273D01*
X226687Y-120372D01*
X226687Y-120386D01*
X226701Y-120400D01*
X226701Y-120442D01*
X226715Y-120513D01*
X226715Y-120583D01*
X226729Y-120682D01*
X226729Y-120795D01*
X226729Y-120922D01*
X224838Y-120880D01*
X224824Y-120880D01*
X224768Y-120894D01*
X224697Y-120908D01*
X224627Y-120964D01*
X224542Y-121035D01*
X224472Y-121162D01*
X224443Y-121247D01*
X224415Y-121345D01*
X224401Y-121444D01*
X224401Y-121571D01*
X224401Y-121952D01*
X224401Y-121966D01*
X224401Y-121980D01*
X224415Y-122065D01*
X224429Y-122164D01*
X224457Y-122291D01*
X224500Y-122418D01*
X224584Y-122531D01*
X224683Y-122615D01*
X224754Y-122629D01*
X224824Y-122643D01*
X226757Y-122643D01*
X226757Y-122672D01*
X226757Y-122728D01*
X226757Y-122827D01*
X226743Y-122940D01*
X226729Y-123053D01*
X226715Y-123165D01*
X226687Y-123264D01*
X226644Y-123335D01*
X226644Y-123349D01*
X226616Y-123363D01*
X226574Y-123391D01*
X226517Y-123419D01*
X226433Y-123462D01*
X226320Y-123490D01*
X226179Y-123504D01*
X226009Y-123518D01*
X224599Y-123518D01*
X224486Y-123504D01*
X224345Y-123476D01*
X224203Y-123434D01*
X224048Y-123363D01*
X223921Y-123278D01*
X223822Y-123151D01*
X223822Y-123137D01*
X223794Y-123095D01*
X223766Y-123024D01*
X223738Y-122940D01*
X223710Y-122813D01*
X223681Y-122672D01*
X223667Y-122488D01*
X223653Y-122291D01*
X223653Y-121247D01*
X223653Y-121232D01*
X223653Y-121204D01*
X223653Y-121162D01*
X223667Y-121105D01*
X223681Y-120964D01*
X223710Y-120781D01*
X223752Y-120597D01*
X223837Y-120414D01*
X223935Y-120259D01*
X224006Y-120188D01*
X224076Y-120132D01*
X224091Y-120132D01*
X224119Y-120104D01*
X224161Y-120090D01*
X224232Y-120061D01*
X224316Y-120033D01*
X224429Y-120019D01*
X224556Y-119991D01*
X226080Y-119991D01*
X226249Y-120005D01*
X226249Y-120005D02*
G37*
G36*
X230172Y-123490D02*
X229452Y-123490D01*
X229452Y-122178D01*
X227886Y-122178D01*
X227886Y-123490D01*
X227209Y-123490D01*
X227209Y-120033D01*
X227886Y-120033D01*
X227886Y-121247D01*
X229452Y-121247D01*
X229452Y-120033D01*
X230172Y-120033D01*
X230172Y-123490D01*
X230172Y-123490D02*
G37*
G36*
X210475Y-118904D02*
X210545Y-118918D01*
X210630Y-118961D01*
X210700Y-119017D01*
X210771Y-119116D01*
X210842Y-119243D01*
X210870Y-119426D01*
X211335Y-123490D01*
X210461Y-123490D01*
X210221Y-120569D01*
X210207Y-120569D01*
X209318Y-122911D01*
X209318Y-122926D01*
X209290Y-122968D01*
X209247Y-123038D01*
X209191Y-123109D01*
X209120Y-123180D01*
X209036Y-123250D01*
X208937Y-123292D01*
X208810Y-123307D01*
X208753Y-123307D01*
X208683Y-123278D01*
X208598Y-123250D01*
X208499Y-123208D01*
X208415Y-123137D01*
X208344Y-123038D01*
X208274Y-122911D01*
X207385Y-120612D01*
X207371Y-120612D01*
X207117Y-123490D01*
X206270Y-123490D01*
X206707Y-119384D01*
X206707Y-119356D01*
X206722Y-119299D01*
X206750Y-119229D01*
X206792Y-119130D01*
X206849Y-119045D01*
X206933Y-118961D01*
X207046Y-118904D01*
X207173Y-118890D01*
X207244Y-118890D01*
X207328Y-118918D01*
X207427Y-118947D01*
X207526Y-119003D01*
X207639Y-119088D01*
X207723Y-119201D01*
X207808Y-119356D01*
X208796Y-121867D01*
X208810Y-121867D01*
X209797Y-119356D01*
X209812Y-119342D01*
X209826Y-119285D01*
X209882Y-119215D01*
X209939Y-119116D01*
X210023Y-119031D01*
X210136Y-118961D01*
X210263Y-118904D01*
X210418Y-118890D01*
X210432Y-118890D01*
X210475Y-118904D01*
X210475Y-118904D02*
G37*
G36*
X234306Y-120047D02*
X234419Y-120061D01*
X234546Y-120104D01*
X234687Y-120174D01*
X234814Y-120273D01*
X234927Y-120414D01*
X235011Y-120612D01*
X235011Y-120626D01*
X235026Y-120654D01*
X235026Y-120710D01*
X235040Y-120781D01*
X235054Y-120866D01*
X235054Y-120964D01*
X235068Y-121091D01*
X235068Y-121218D01*
X235068Y-121486D01*
X235068Y-121515D01*
X235068Y-121585D01*
X235054Y-121698D01*
X235040Y-121825D01*
X235011Y-121980D01*
X234983Y-122135D01*
X234927Y-122262D01*
X234856Y-122389D01*
X234856Y-122404D01*
X234828Y-122418D01*
X234786Y-122460D01*
X234743Y-122502D01*
X234673Y-122545D01*
X234588Y-122573D01*
X234504Y-122601D01*
X234391Y-122615D01*
X232669Y-122615D01*
X232669Y-123490D01*
X231964Y-123490D01*
X231964Y-120033D01*
X234235Y-120033D01*
X234306Y-120047D01*
X234306Y-120047D02*
G37*
G36*
X231498Y-123490D02*
X230680Y-123490D01*
X230680Y-120033D01*
X231498Y-120033D01*
X231498Y-123490D01*
X231498Y-123490D02*
G37*
G36*
X218997Y-120047D02*
X219110Y-120090D01*
X219237Y-120160D01*
X219293Y-120217D01*
X219364Y-120287D01*
X219420Y-120372D01*
X219463Y-120470D01*
X219519Y-120583D01*
X219547Y-120724D01*
X219561Y-120880D01*
X219575Y-121063D01*
X219575Y-121275D01*
X219575Y-121289D01*
X219575Y-121303D01*
X219575Y-121388D01*
X219561Y-121515D01*
X219533Y-121656D01*
X219477Y-121797D01*
X219406Y-121938D01*
X219307Y-122051D01*
X219180Y-122135D01*
X219180Y-122150D01*
X219195Y-122150D01*
X219237Y-122178D01*
X219307Y-122220D01*
X219378Y-122291D01*
X219448Y-122389D01*
X219519Y-122516D01*
X219561Y-122686D01*
X219575Y-122911D01*
X219575Y-123490D01*
X218842Y-123490D01*
X218842Y-123081D01*
X218842Y-123067D01*
X218842Y-123038D01*
X218842Y-122982D01*
X218842Y-122926D01*
X218828Y-122813D01*
X218828Y-122756D01*
X218814Y-122714D01*
X218799Y-122700D01*
X218757Y-122643D01*
X218687Y-122601D01*
X218560Y-122587D01*
X217276Y-122587D01*
X217276Y-123490D01*
X216542Y-123490D01*
X216542Y-120033D01*
X218912Y-120033D01*
X218997Y-120047D01*
X218997Y-120047D02*
G37*
G36*
X212577Y-123490D02*
X211773Y-123490D01*
X211773Y-120033D01*
X212577Y-120033D01*
X212577Y-123490D01*
X212577Y-123490D02*
G37*
G36*
X222426Y-120005D02*
X222553Y-120033D01*
X222680Y-120061D01*
X222821Y-120118D01*
X222934Y-120202D01*
X223032Y-120301D01*
X223046Y-120315D01*
X223075Y-120358D01*
X223103Y-120428D01*
X223145Y-120527D01*
X223188Y-120668D01*
X223230Y-120823D01*
X223244Y-121007D01*
X223258Y-121232D01*
X223258Y-122277D01*
X223258Y-122291D01*
X223258Y-122319D01*
X223258Y-122361D01*
X223244Y-122432D01*
X223230Y-122587D01*
X223202Y-122784D01*
X223131Y-122982D01*
X223046Y-123180D01*
X222919Y-123335D01*
X222835Y-123405D01*
X222750Y-123448D01*
X222736Y-123448D01*
X222708Y-123462D01*
X222665Y-123476D01*
X222609Y-123476D01*
X222538Y-123490D01*
X222454Y-123504D01*
X222228Y-123518D01*
X220958Y-123518D01*
X220845Y-123504D01*
X220718Y-123476D01*
X220577Y-123434D01*
X220436Y-123377D01*
X220309Y-123292D01*
X220196Y-123180D01*
X220182Y-123165D01*
X220168Y-123123D01*
X220140Y-123053D01*
X220112Y-122954D01*
X220069Y-122841D01*
X220041Y-122686D01*
X220027Y-122488D01*
X220013Y-122277D01*
X220013Y-121232D01*
X220013Y-121218D01*
X220013Y-121190D01*
X220013Y-121134D01*
X220027Y-121063D01*
X220041Y-120894D01*
X220083Y-120696D01*
X220154Y-120485D01*
X220267Y-120301D01*
X220337Y-120217D01*
X220408Y-120146D01*
X220507Y-120090D01*
X220605Y-120047D01*
X220620Y-120047D01*
X220634Y-120033D01*
X220676Y-120033D01*
X220732Y-120019D01*
X220874Y-120005D01*
X221057Y-119991D01*
X222327Y-119991D01*
X222426Y-120005D01*
X222426Y-120005D02*
G37*
G36*
X215357Y-120005D02*
X215526Y-120005D01*
X215681Y-120019D01*
X215808Y-120047D01*
X215851Y-120061D01*
X215879Y-120075D01*
X215893Y-120075D01*
X215907Y-120104D01*
X215935Y-120146D01*
X215977Y-120217D01*
X216020Y-120315D01*
X216048Y-120456D01*
X216062Y-120640D01*
X216076Y-120880D01*
X214171Y-120880D01*
X214087Y-120894D01*
X213988Y-120936D01*
X213889Y-121021D01*
X213875Y-121049D01*
X213861Y-121077D01*
X213833Y-121134D01*
X213819Y-121204D01*
X213790Y-121303D01*
X213776Y-121430D01*
X213776Y-121571D01*
X213776Y-121952D01*
X213776Y-121966D01*
X213776Y-122023D01*
X213776Y-122093D01*
X213790Y-122164D01*
X213805Y-122347D01*
X213819Y-122418D01*
X213833Y-122474D01*
X213847Y-122502D01*
X213903Y-122559D01*
X213960Y-122587D01*
X214016Y-122615D01*
X214101Y-122629D01*
X214186Y-122643D01*
X216119Y-122643D01*
X216119Y-122672D01*
X216119Y-122728D01*
X216119Y-122813D01*
X216104Y-122911D01*
X216076Y-123137D01*
X216048Y-123236D01*
X216020Y-123307D01*
X216020Y-123321D01*
X215992Y-123335D01*
X215949Y-123377D01*
X215893Y-123405D01*
X215794Y-123448D01*
X215681Y-123490D01*
X215540Y-123504D01*
X215371Y-123518D01*
X213974Y-123518D01*
X213875Y-123504D01*
X213748Y-123476D01*
X213607Y-123448D01*
X213466Y-123405D01*
X213339Y-123335D01*
X213240Y-123236D01*
X213226Y-123222D01*
X213212Y-123180D01*
X213170Y-123109D01*
X213127Y-123010D01*
X213085Y-122883D01*
X213057Y-122714D01*
X213029Y-122516D01*
X213014Y-122277D01*
X213014Y-121232D01*
X213014Y-121218D01*
X213014Y-121190D01*
X213014Y-121134D01*
X213029Y-121063D01*
X213057Y-120880D01*
X213099Y-120668D01*
X213184Y-120456D01*
X213311Y-120259D01*
X213395Y-120174D01*
X213494Y-120104D01*
X213593Y-120047D01*
X213720Y-120019D01*
X213748Y-120019D01*
X213819Y-120005D01*
X213932Y-119991D01*
X215187Y-119991D01*
X215357Y-120005D01*
X215357Y-120005D02*
G37*
%LPC*%
G36*
X3380Y38638D02*
X3253Y38638D01*
X3253Y38617D01*
X3232Y38617D01*
X3232Y38575D01*
X3211Y38575D01*
X3211Y38448D01*
X3232Y38448D01*
X3232Y38427D01*
X3253Y38427D01*
X3253Y38406D01*
X3274Y38406D01*
X3274Y38385D01*
X3380Y38385D01*
X3380Y38406D01*
X3401Y38406D01*
X3401Y38427D01*
X3422Y38427D01*
X3422Y38490D01*
X3443Y38490D01*
X3443Y38511D01*
X3422Y38511D01*
X3422Y38596D01*
X3401Y38596D01*
X3401Y38617D01*
X3380Y38617D01*
X3380Y38638D01*
X3380Y38638D02*
G37*
G36*
X5256Y37879D02*
X4940Y37879D01*
X4940Y37858D01*
X4919Y37858D01*
X4919Y37752D01*
X4940Y37752D01*
X4940Y37731D01*
X4982Y37731D01*
X4982Y37710D01*
X5235Y37710D01*
X5235Y37731D01*
X5256Y37731D01*
X5256Y37879D01*
X5256Y37879D02*
G37*
G36*
X5256Y37584D02*
X4982Y37584D01*
X4982Y37563D01*
X4940Y37563D01*
X4940Y37542D01*
X4919Y37542D01*
X4919Y37436D01*
X4940Y37436D01*
X4940Y37415D01*
X4982Y37415D01*
X4982Y37394D01*
X5235Y37394D01*
X5235Y37415D01*
X5256Y37415D01*
X5256Y37584D01*
X5256Y37584D02*
G37*
G36*
X4866Y21918D02*
X4786Y21383D01*
X4947Y21383D01*
X4866Y21918D01*
X4866Y21918D02*
G37*
G36*
X22328Y22063D02*
X22209Y22063D01*
X22191Y22061D01*
X22173Y22058D01*
X22160Y22053D01*
X22150Y22050D01*
X22142Y22045D01*
X22139Y22042D01*
X22137Y22042D01*
X22116Y22024D01*
X22103Y22006D01*
X22098Y21991D01*
X22095Y21986D01*
X22095Y21983D01*
X22093Y21968D01*
X22090Y21949D01*
X22085Y21916D01*
X22085Y21900D01*
X22085Y21887D01*
X22085Y21880D01*
X22085Y21877D01*
X22085Y21841D01*
X22090Y21810D01*
X22093Y21787D01*
X22098Y21766D01*
X22103Y21750D01*
X22108Y21740D01*
X22111Y21735D01*
X22113Y21732D01*
X22126Y21719D01*
X22144Y21709D01*
X22163Y21701D01*
X22183Y21696D01*
X22201Y21693D01*
X22214Y21691D01*
X22328Y21691D01*
X22328Y22063D01*
X22328Y22063D02*
G37*
G36*
X4700Y11940D02*
X4617Y11940D01*
X4594Y11937D01*
X4579Y11935D01*
X4563Y11932D01*
X4553Y11927D01*
X4545Y11925D01*
X4542Y11922D01*
X4540Y11922D01*
X4519Y11906D01*
X4506Y11886D01*
X4498Y11870D01*
X4496Y11868D01*
X4496Y11865D01*
X4491Y11850D01*
X4488Y11831D01*
X4485Y11793D01*
X4483Y11777D01*
X4483Y11764D01*
X4483Y11754D01*
X4483Y11751D01*
X4483Y11201D01*
X4483Y11172D01*
X4485Y11146D01*
X4485Y11126D01*
X4488Y11107D01*
X4491Y11095D01*
X4491Y11084D01*
X4493Y11079D01*
X4493Y11076D01*
X4504Y11048D01*
X4516Y11030D01*
X4529Y11017D01*
X4532Y11012D01*
X4535Y11012D01*
X4547Y11004D01*
X4566Y10999D01*
X4599Y10994D01*
X4615Y10991D01*
X4700Y10991D01*
X4700Y11940D01*
X4700Y11940D02*
G37*
G36*
X3666Y11953D02*
X3655Y11953D01*
X3632Y11950D01*
X3611Y11945D01*
X3596Y11937D01*
X3583Y11930D01*
X3573Y11922D01*
X3568Y11914D01*
X3562Y11909D01*
X3562Y11906D01*
X3555Y11888D01*
X3549Y11868D01*
X3542Y11829D01*
X3539Y11811D01*
X3539Y11795D01*
X3539Y11785D01*
X3539Y11782D01*
X3539Y11151D01*
X3539Y11123D01*
X3542Y11097D01*
X3547Y11076D01*
X3549Y11056D01*
X3555Y11043D01*
X3560Y11030D01*
X3562Y11025D01*
X3562Y11022D01*
X3573Y11007D01*
X3586Y10996D01*
X3601Y10986D01*
X3617Y10981D01*
X3632Y10978D01*
X3645Y10976D01*
X3655Y10976D01*
X3679Y10978D01*
X3699Y10983D01*
X3715Y10991D01*
X3728Y10999D01*
X3738Y11007D01*
X3743Y11014D01*
X3749Y11020D01*
X3749Y11022D01*
X3756Y11040D01*
X3761Y11061D01*
X3769Y11105D01*
X3769Y11123D01*
X3772Y11138D01*
X3772Y11149D01*
X3772Y11151D01*
X3772Y11782D01*
X3772Y11811D01*
X3769Y11837D01*
X3764Y11857D01*
X3759Y11875D01*
X3756Y11888D01*
X3751Y11899D01*
X3749Y11904D01*
X3749Y11906D01*
X3738Y11922D01*
X3723Y11932D01*
X3707Y11943D01*
X3692Y11948D01*
X3679Y11950D01*
X3666Y11953D01*
X3666Y11953D02*
G37*
G36*
X4353Y9363D02*
X4270Y9363D01*
X4247Y9361D01*
X4232Y9358D01*
X4216Y9355D01*
X4206Y9350D01*
X4198Y9348D01*
X4195Y9345D01*
X4193Y9345D01*
X4172Y9330D01*
X4159Y9309D01*
X4152Y9293D01*
X4149Y9291D01*
X4149Y9288D01*
X4144Y9273D01*
X4141Y9255D01*
X4139Y9216D01*
X4136Y9200D01*
X4136Y9187D01*
X4136Y9177D01*
X4136Y9174D01*
X4136Y8624D01*
X4136Y8595D01*
X4139Y8569D01*
X4139Y8549D01*
X4141Y8531D01*
X4144Y8518D01*
X4144Y8507D01*
X4146Y8502D01*
X4146Y8500D01*
X4157Y8471D01*
X4170Y8453D01*
X4183Y8440D01*
X4185Y8435D01*
X4188Y8435D01*
X4201Y8427D01*
X4219Y8422D01*
X4252Y8417D01*
X4268Y8414D01*
X4353Y8414D01*
X4353Y9363D01*
X4353Y9363D02*
G37*
G36*
X21660Y6516D02*
X21660Y6513D01*
X21660Y6515D01*
X21660Y6516D01*
X21660Y6516D02*
G37*
G36*
X3624Y4284D02*
X3541Y4284D01*
X3518Y4282D01*
X3503Y4279D01*
X3487Y4277D01*
X3477Y4272D01*
X3469Y4269D01*
X3466Y4266D01*
X3464Y4266D01*
X3443Y4251D01*
X3430Y4230D01*
X3422Y4215D01*
X3420Y4212D01*
X3420Y4209D01*
X3415Y4194D01*
X3412Y4176D01*
X3409Y4137D01*
X3407Y4122D01*
X3407Y4109D01*
X3407Y4098D01*
X3407Y4096D01*
X3407Y3545D01*
X3407Y3517D01*
X3409Y3491D01*
X3409Y3470D01*
X3412Y3452D01*
X3415Y3439D01*
X3415Y3429D01*
X3417Y3423D01*
X3417Y3421D01*
X3428Y3392D01*
X3440Y3374D01*
X3453Y3361D01*
X3456Y3356D01*
X3459Y3356D01*
X3471Y3348D01*
X3490Y3343D01*
X3523Y3338D01*
X3539Y3336D01*
X3624Y3336D01*
X3624Y4284D01*
X3624Y4284D02*
G37*
G36*
X20270Y4284D02*
X20187Y4284D01*
X20164Y4282D01*
X20148Y4279D01*
X20133Y4277D01*
X20122Y4272D01*
X20115Y4269D01*
X20112Y4266D01*
X20110Y4266D01*
X20089Y4251D01*
X20076Y4230D01*
X20068Y4215D01*
X20066Y4212D01*
X20066Y4209D01*
X20060Y4194D01*
X20058Y4176D01*
X20055Y4137D01*
X20053Y4122D01*
X20053Y4109D01*
X20053Y4098D01*
X20053Y4096D01*
X20053Y3545D01*
X20053Y3517D01*
X20055Y3491D01*
X20055Y3470D01*
X20058Y3452D01*
X20060Y3439D01*
X20060Y3429D01*
X20063Y3423D01*
X20063Y3421D01*
X20073Y3392D01*
X20086Y3374D01*
X20099Y3361D01*
X20102Y3356D01*
X20104Y3356D01*
X20117Y3348D01*
X20135Y3343D01*
X20169Y3338D01*
X20185Y3336D01*
X20270Y3336D01*
X20270Y4284D01*
X20270Y4284D02*
G37*
G36*
X224528Y-109126D02*
X224457Y-109126D01*
X224373Y-109155D01*
X224288Y-109183D01*
X224189Y-109239D01*
X224119Y-109310D01*
X224062Y-109423D01*
X224034Y-109578D01*
X224034Y-109592D01*
X224034Y-109606D01*
X224048Y-109691D01*
X224091Y-109804D01*
X224175Y-109931D01*
X224203Y-109959D01*
X224274Y-110001D01*
X224387Y-110043D01*
X224528Y-110072D01*
X224542Y-110072D01*
X224599Y-110058D01*
X224669Y-110043D01*
X224768Y-110015D01*
X224852Y-109945D01*
X224923Y-109860D01*
X224979Y-109747D01*
X224994Y-109578D01*
X224994Y-109564D01*
X224994Y-109507D01*
X224965Y-109437D01*
X224937Y-109352D01*
X224881Y-109267D01*
X224796Y-109197D01*
X224683Y-109140D01*
X224528Y-109126D01*
X224528Y-109126D02*
G37*
%LPD*%
G36*
X224655Y-109282D02*
X224726Y-109338D01*
X224754Y-109380D01*
X224768Y-109451D01*
X224768Y-109465D01*
X224768Y-109479D01*
X224754Y-109550D01*
X224697Y-109606D01*
X224655Y-109634D01*
X224599Y-109648D01*
X224782Y-109931D01*
X224669Y-109931D01*
X224500Y-109648D01*
X224387Y-109648D01*
X224387Y-109931D01*
X224288Y-109931D01*
X224288Y-109253D01*
X224570Y-109253D01*
X224655Y-109282D01*
X224655Y-109282D02*
G37*
%LPC*%
G36*
X224556Y-109352D02*
X224387Y-109352D01*
X224387Y-109564D01*
X224570Y-109564D01*
X224613Y-109550D01*
X224641Y-109521D01*
X224655Y-109451D01*
X224655Y-109437D01*
X224641Y-109394D01*
X224613Y-109366D01*
X224556Y-109352D01*
X224556Y-109352D02*
G37*
G36*
X218870Y-110509D02*
X218828Y-110509D01*
X218771Y-110523D01*
X218715Y-110551D01*
X218644Y-110594D01*
X218560Y-110650D01*
X218475Y-110721D01*
X218390Y-110834D01*
X217501Y-112089D01*
X220196Y-116365D01*
X220210Y-116379D01*
X220239Y-116421D01*
X220281Y-116492D01*
X220337Y-116548D01*
X220408Y-116619D01*
X220493Y-116689D01*
X220563Y-116731D01*
X220648Y-116746D01*
X220690Y-116746D01*
X220747Y-116731D01*
X220803Y-116703D01*
X220874Y-116675D01*
X220958Y-116633D01*
X221043Y-116562D01*
X221113Y-116463D01*
X222059Y-115109D01*
X219350Y-110848D01*
X219336Y-110834D01*
X219307Y-110791D01*
X219265Y-110735D01*
X219209Y-110678D01*
X219138Y-110622D01*
X219053Y-110565D01*
X218969Y-110523D01*
X218870Y-110509D01*
X218870Y-110509D02*
G37*
G36*
X234038Y-120866D02*
X232669Y-120866D01*
X232669Y-121740D01*
X234123Y-121740D01*
X234151Y-121726D01*
X234193Y-121698D01*
X234235Y-121656D01*
X234278Y-121585D01*
X234292Y-121501D01*
X234306Y-121388D01*
X234306Y-121247D01*
X234306Y-121232D01*
X234306Y-121190D01*
X234292Y-121120D01*
X234278Y-121049D01*
X234235Y-120993D01*
X234193Y-120922D01*
X234123Y-120880D01*
X234038Y-120866D01*
X234038Y-120866D02*
G37*
G36*
X218531Y-120866D02*
X217276Y-120866D01*
X217276Y-121726D01*
X218644Y-121726D01*
X218687Y-121712D01*
X218743Y-121684D01*
X218799Y-121642D01*
X218842Y-121571D01*
X218870Y-121486D01*
X218884Y-121359D01*
X218884Y-121247D01*
X218884Y-121232D01*
X218884Y-121190D01*
X218870Y-121120D01*
X218842Y-121049D01*
X218799Y-120993D01*
X218729Y-120922D01*
X218644Y-120880D01*
X218531Y-120866D01*
X218531Y-120866D02*
G37*
G36*
X222129Y-120866D02*
X221170Y-120866D01*
X221085Y-120880D01*
X220972Y-120936D01*
X220916Y-120964D01*
X220874Y-121021D01*
X220859Y-121049D01*
X220845Y-121091D01*
X220817Y-121148D01*
X220803Y-121218D01*
X220775Y-121317D01*
X220761Y-121430D01*
X220761Y-121571D01*
X220761Y-121952D01*
X220761Y-121966D01*
X220761Y-122023D01*
X220761Y-122079D01*
X220775Y-122164D01*
X220789Y-122347D01*
X220803Y-122432D01*
X220831Y-122502D01*
X220845Y-122531D01*
X220902Y-122573D01*
X221001Y-122615D01*
X221071Y-122643D01*
X222101Y-122643D01*
X222158Y-122629D01*
X222228Y-122601D01*
X222313Y-122559D01*
X222397Y-122474D01*
X222468Y-122347D01*
X222496Y-122277D01*
X222524Y-122178D01*
X222538Y-122079D01*
X222538Y-121952D01*
X222538Y-121571D01*
X222538Y-121557D01*
X222538Y-121501D01*
X222538Y-121444D01*
X222524Y-121359D01*
X222482Y-121176D01*
X222440Y-121091D01*
X222397Y-121021D01*
X222397Y-121007D01*
X222369Y-120993D01*
X222299Y-120936D01*
X222200Y-120894D01*
X222129Y-120866D01*
X222129Y-120866D02*
G37*
%LPD*%
D10*
X303544Y-108490D02*
X302770Y-108490D01*
X302770Y-109740D01*
X303544Y-109740D01*
X302770Y-109085D02*
X303246Y-109085D01*
X303752Y-108490D02*
X304228Y-109740D01*
X304704Y-108490D02*
X304228Y-109740D01*
X305162Y-108490D02*
X305162Y-109204D01*
X304865Y-108669D02*
X305460Y-109026D01*
X305460Y-108669D02*
X304865Y-109026D01*
X306013Y-108490D02*
X306013Y-109204D01*
X305716Y-108669D02*
X306311Y-109026D01*
X306311Y-108669D02*
X305716Y-109026D01*
D11*
X19787Y22860D02*
G03*
X19077Y22150I0J-710D01*
G01*
X19075Y3251D02*
G03*
X19785Y2541I710J0D01*
G01*
X19202Y5080D02*
G03*
X19075Y4953I0J-127D01*
G01*
X19075Y5207D02*
G03*
X19202Y5080I127J0D01*
G01*
X19202Y7620D02*
G03*
X19075Y7493I0J-127D01*
G01*
X19075Y7747D02*
G03*
X19202Y7620I127J0D01*
G01*
X19202Y10160D02*
G03*
X19075Y10033I0J-127D01*
G01*
X19075Y10287D02*
G03*
X19202Y10160I127J0D01*
G01*
X19202Y12700D02*
G03*
X19075Y12573I0J-127D01*
G01*
X19075Y12827D02*
G03*
X19202Y12700I127J0D01*
G01*
X19202Y15240D02*
G03*
X19075Y15113I0J-127D01*
G01*
X19075Y15367D02*
G03*
X19202Y15240I127J0D01*
G01*
X19202Y17780D02*
G03*
X19075Y17653I0J-127D01*
G01*
X19075Y17907D02*
G03*
X19202Y17780I127J0D01*
G01*
X19202Y20320D02*
G03*
X19075Y20193I0J-127D01*
G01*
X19075Y20447D02*
G03*
X19202Y20320I127J0D01*
G01*
X6323Y22150D02*
G03*
X5613Y22860I-710J0D01*
G01*
X5615Y2541D02*
G03*
X6325Y3251I0J710D01*
G01*
X6325Y4953D02*
G03*
X6198Y5080I-127J0D01*
G01*
X6198Y5080D02*
G03*
X6325Y5207I0J127D01*
G01*
X6325Y7493D02*
G03*
X6198Y7620I-127J0D01*
G01*
X6198Y7620D02*
G03*
X6325Y7747I0J127D01*
G01*
X6325Y10033D02*
G03*
X6198Y10160I-127J0D01*
G01*
X6198Y10160D02*
G03*
X6325Y10287I0J127D01*
G01*
X6325Y12573D02*
G03*
X6198Y12700I-127J0D01*
G01*
X6198Y12700D02*
G03*
X6325Y12827I0J127D01*
G01*
X6325Y15113D02*
G03*
X6198Y15240I-127J0D01*
G01*
X6198Y15240D02*
G03*
X6325Y15367I0J127D01*
G01*
X6325Y17653D02*
G03*
X6198Y17780I-127J0D01*
G01*
X6198Y17780D02*
G03*
X6325Y17907I0J127D01*
G01*
X6325Y20193D02*
G03*
X6198Y20320I-127J0D01*
G01*
X6198Y20320D02*
G03*
X6325Y20447I0J127D01*
G01*
X19077Y3252D02*
X19077Y22150D01*
X19075Y3252D02*
X19075Y4953D01*
X19202Y5080D02*
X25110Y5080D01*
X19785Y2540D02*
X24990Y2540D01*
X19202Y5080D02*
X25110Y5080D01*
X19202Y7620D02*
X25110Y7620D01*
X19075Y5207D02*
X19075Y7493D01*
X19202Y7620D02*
X25110Y7620D01*
X19202Y10160D02*
X25110Y10160D01*
X19075Y7747D02*
X19075Y10033D01*
X19202Y10160D02*
X25110Y10160D01*
X19202Y12700D02*
X25110Y12700D01*
X19075Y10287D02*
X19075Y12573D01*
X19202Y12700D02*
X25110Y12700D01*
X19202Y15240D02*
X25110Y15240D01*
X19075Y12827D02*
X19075Y15113D01*
X19202Y15240D02*
X25110Y15240D01*
X19202Y17780D02*
X25110Y17780D01*
X19075Y15367D02*
X19075Y17653D01*
X19202Y17780D02*
X25110Y17780D01*
X19202Y20320D02*
X25110Y20320D01*
X19075Y17907D02*
X19075Y20193D01*
X19202Y20320D02*
X25110Y20320D01*
X19787Y22860D02*
X25110Y22860D01*
X6323Y3252D02*
X6323Y22150D01*
X6325Y3252D02*
X6325Y4953D01*
X290Y5080D02*
X6198Y5080D01*
X290Y2540D02*
X5615Y2540D01*
X290Y5080D02*
X6198Y5080D01*
X290Y7620D02*
X6198Y7620D01*
X6325Y5207D02*
X6325Y7493D01*
X290Y7620D02*
X6198Y7620D01*
X290Y10160D02*
X6198Y10160D01*
X6325Y7747D02*
X6325Y10033D01*
X290Y10160D02*
X6198Y10160D01*
X290Y12700D02*
X6198Y12700D01*
X6325Y10287D02*
X6325Y12573D01*
X290Y12700D02*
X6198Y12700D01*
X290Y15240D02*
X6198Y15240D01*
X6325Y12827D02*
X6325Y15113D01*
X290Y15240D02*
X6198Y15240D01*
X290Y17780D02*
X6198Y17780D01*
X6325Y15367D02*
X6325Y17653D01*
X290Y17780D02*
X6198Y17780D01*
X290Y20320D02*
X6198Y20320D01*
X6325Y17907D02*
X6325Y20193D01*
X290Y20320D02*
X6198Y20320D01*
X290Y22860D02*
X5613Y22860D01*
D13*
X300948Y-131051D02*
X301067Y-130991D01*
X301245Y-130813D01*
X301245Y-132062D01*
X238651Y-119890D02*
X238651Y-120804D01*
X238270Y-120119D02*
X239032Y-120576D01*
X239032Y-120119D02*
X238270Y-120576D01*
X239740Y-119890D02*
X239740Y-120804D01*
X239359Y-120119D02*
X240121Y-120576D01*
X240121Y-120119D02*
X239359Y-120576D01*
X208540Y-130636D02*
X208455Y-130466D01*
X208286Y-130297D01*
X208117Y-130212D01*
X207778Y-130212D01*
X207609Y-130297D01*
X207439Y-130466D01*
X207355Y-130636D01*
X207270Y-130890D01*
X207270Y-131313D01*
X207355Y-131567D01*
X207439Y-131736D01*
X207609Y-131905D01*
X207778Y-131990D01*
X208117Y-131990D01*
X208286Y-131905D01*
X208455Y-131736D01*
X208540Y-131567D01*
X209039Y-130212D02*
X209039Y-131990D01*
X209039Y-131143D02*
X209293Y-130890D01*
X209462Y-130805D01*
X209716Y-130805D01*
X209886Y-130890D01*
X209970Y-131143D01*
X209970Y-131990D01*
X211452Y-130805D02*
X211452Y-131990D01*
X211452Y-131059D02*
X211282Y-130890D01*
X211113Y-130805D01*
X210859Y-130805D01*
X210690Y-130890D01*
X210521Y-131059D01*
X210436Y-131313D01*
X210436Y-131482D01*
X210521Y-131736D01*
X210690Y-131905D01*
X210859Y-131990D01*
X211113Y-131990D01*
X211282Y-131905D01*
X211452Y-131736D01*
X211926Y-130805D02*
X211926Y-131990D01*
X211926Y-131143D02*
X212180Y-130890D01*
X212349Y-130805D01*
X212603Y-130805D01*
X212772Y-130890D01*
X212857Y-131143D01*
X212857Y-131990D01*
X214338Y-130212D02*
X214338Y-131990D01*
X214338Y-131059D02*
X214169Y-130890D01*
X214000Y-130805D01*
X213746Y-130805D01*
X213576Y-130890D01*
X213407Y-131059D01*
X213322Y-131313D01*
X213322Y-131482D01*
X213407Y-131736D01*
X213576Y-131905D01*
X213746Y-131990D01*
X214000Y-131990D01*
X214169Y-131905D01*
X214338Y-131736D01*
X214812Y-130212D02*
X214812Y-131990D01*
X215185Y-131313D02*
X216200Y-131313D01*
X216200Y-131143D01*
X216116Y-130974D01*
X216031Y-130890D01*
X215862Y-130805D01*
X215608Y-130805D01*
X215439Y-130890D01*
X215269Y-131059D01*
X215185Y-131313D01*
X215185Y-131482D01*
X215269Y-131736D01*
X215439Y-131905D01*
X215608Y-131990D01*
X215862Y-131990D01*
X216031Y-131905D01*
X216200Y-131736D01*
X216581Y-130805D02*
X216581Y-131990D01*
X216581Y-131313D02*
X216666Y-131059D01*
X216835Y-130890D01*
X217005Y-130805D01*
X217259Y-130805D01*
X217589Y-131905D02*
X217504Y-131990D01*
X217419Y-131905D01*
X217504Y-131821D01*
X217589Y-131905D01*
X217589Y-132075D01*
X217504Y-132244D01*
X217419Y-132329D01*
X220729Y-131990D02*
X220052Y-130212D01*
X219375Y-131990D01*
X219629Y-131397D02*
X220475Y-131397D01*
X222329Y-130212D02*
X221144Y-131990D01*
X221144Y-130212D02*
X222329Y-130212D01*
X221144Y-131990D02*
X222329Y-131990D01*
X225943Y-130212D02*
X225690Y-130297D01*
X225605Y-130466D01*
X225605Y-130636D01*
X225690Y-130805D01*
X225859Y-130890D01*
X226197Y-130974D01*
X226451Y-131059D01*
X226621Y-131228D01*
X226705Y-131397D01*
X226705Y-131651D01*
X226621Y-131821D01*
X226536Y-131905D01*
X226282Y-131990D01*
X225943Y-131990D01*
X225690Y-131905D01*
X225605Y-131821D01*
X225520Y-131651D01*
X225520Y-131397D01*
X225605Y-131228D01*
X225774Y-131059D01*
X226028Y-130974D01*
X226367Y-130890D01*
X226536Y-130805D01*
X226621Y-130636D01*
X226621Y-130466D01*
X226536Y-130297D01*
X226282Y-130212D01*
X225943Y-130212D01*
X228119Y-130212D02*
X227272Y-130212D01*
X227188Y-130974D01*
X227272Y-130890D01*
X227526Y-130805D01*
X227780Y-130805D01*
X228034Y-130890D01*
X228204Y-131059D01*
X228288Y-131313D01*
X228288Y-131482D01*
X228204Y-131736D01*
X228034Y-131905D01*
X227780Y-131990D01*
X227526Y-131990D01*
X227272Y-131905D01*
X227188Y-131821D01*
X227103Y-131651D01*
X228771Y-130636D02*
X228771Y-130551D01*
X228855Y-130382D01*
X228940Y-130297D01*
X229109Y-130212D01*
X229448Y-130212D01*
X229617Y-130297D01*
X229702Y-130382D01*
X229787Y-130551D01*
X229787Y-130720D01*
X229702Y-130890D01*
X229533Y-131143D01*
X228686Y-131990D01*
X229871Y-131990D01*
X230354Y-130636D02*
X230354Y-130551D01*
X230438Y-130382D01*
X230523Y-130297D01*
X230692Y-130212D01*
X231031Y-130212D01*
X231200Y-130297D01*
X231285Y-130382D01*
X231369Y-130551D01*
X231369Y-130720D01*
X231285Y-130890D01*
X231116Y-131143D01*
X230269Y-131990D01*
X231454Y-131990D01*
X232698Y-130212D02*
X231852Y-131397D01*
X233122Y-131397D01*
X232698Y-130212D02*
X232698Y-131990D01*
X206355Y-128136D02*
X206355Y-128051D01*
X206439Y-127882D01*
X206524Y-127797D01*
X206693Y-127712D01*
X207032Y-127712D01*
X207201Y-127797D01*
X207286Y-127882D01*
X207370Y-128051D01*
X207370Y-128220D01*
X207286Y-128390D01*
X207117Y-128643D01*
X206270Y-129490D01*
X207455Y-129490D01*
X208022Y-127712D02*
X208953Y-127712D01*
X208445Y-128390D01*
X208699Y-128390D01*
X208869Y-128474D01*
X208953Y-128559D01*
X209038Y-128813D01*
X209038Y-128982D01*
X208953Y-129236D01*
X208784Y-129405D01*
X208530Y-129490D01*
X208276Y-129490D01*
X208022Y-129405D01*
X207938Y-129321D01*
X207853Y-129151D01*
X210452Y-127712D02*
X209605Y-127712D01*
X209521Y-128474D01*
X209605Y-128390D01*
X209859Y-128305D01*
X210113Y-128305D01*
X210367Y-128390D01*
X210536Y-128559D01*
X210621Y-128813D01*
X210621Y-128982D01*
X210536Y-129236D01*
X210367Y-129405D01*
X210113Y-129490D01*
X209859Y-129490D01*
X209605Y-129405D01*
X209521Y-129321D01*
X209436Y-129151D01*
X212035Y-127712D02*
X211188Y-127712D01*
X211103Y-128474D01*
X211188Y-128390D01*
X211442Y-128305D01*
X211696Y-128305D01*
X211950Y-128390D01*
X212119Y-128559D01*
X212204Y-128813D01*
X212204Y-128982D01*
X212119Y-129236D01*
X211950Y-129405D01*
X211696Y-129490D01*
X211442Y-129490D01*
X211188Y-129405D01*
X211103Y-129321D01*
X211019Y-129151D01*
X213998Y-127712D02*
X214422Y-129490D01*
X214845Y-127712D02*
X214422Y-129490D01*
X214845Y-127712D02*
X215268Y-129490D01*
X215691Y-127712D02*
X215268Y-129490D01*
X216132Y-129321D02*
X216047Y-129405D01*
X216132Y-129490D01*
X216216Y-129405D01*
X216132Y-129321D01*
X219272Y-128136D02*
X219187Y-127966D01*
X219018Y-127797D01*
X218849Y-127712D01*
X218510Y-127712D01*
X218341Y-127797D01*
X218172Y-127966D01*
X218087Y-128136D01*
X218002Y-128390D01*
X218002Y-128813D01*
X218087Y-129067D01*
X218172Y-129236D01*
X218341Y-129405D01*
X218510Y-129490D01*
X218849Y-129490D01*
X219018Y-129405D01*
X219187Y-129236D01*
X219272Y-129067D01*
X219771Y-127712D02*
X219771Y-129490D01*
X219771Y-128643D02*
X220025Y-128390D01*
X220195Y-128305D01*
X220449Y-128305D01*
X220618Y-128390D01*
X220703Y-128643D01*
X220703Y-129490D01*
X222184Y-128305D02*
X222184Y-129490D01*
X222184Y-128559D02*
X222015Y-128390D01*
X221845Y-128305D01*
X221591Y-128305D01*
X221422Y-128390D01*
X221253Y-128559D01*
X221168Y-128813D01*
X221168Y-128982D01*
X221253Y-129236D01*
X221422Y-129405D01*
X221591Y-129490D01*
X221845Y-129490D01*
X222015Y-129405D01*
X222184Y-129236D01*
X222658Y-128305D02*
X222658Y-129490D01*
X222658Y-128643D02*
X222912Y-128390D01*
X223081Y-128305D01*
X223335Y-128305D01*
X223504Y-128390D01*
X223589Y-128643D01*
X223589Y-129490D01*
X225070Y-127712D02*
X225070Y-129490D01*
X225070Y-128559D02*
X224901Y-128390D01*
X224732Y-128305D01*
X224478Y-128305D01*
X224309Y-128390D01*
X224139Y-128559D01*
X224055Y-128813D01*
X224055Y-128982D01*
X224139Y-129236D01*
X224309Y-129405D01*
X224478Y-129490D01*
X224732Y-129490D01*
X224901Y-129405D01*
X225070Y-129236D01*
X225544Y-127712D02*
X225544Y-129490D01*
X225917Y-128813D02*
X226933Y-128813D01*
X226933Y-128643D01*
X226848Y-128474D01*
X226763Y-128390D01*
X226594Y-128305D01*
X226340Y-128305D01*
X226171Y-128390D01*
X226002Y-128559D01*
X225917Y-128813D01*
X225917Y-128982D01*
X226002Y-129236D01*
X226171Y-129405D01*
X226340Y-129490D01*
X226594Y-129490D01*
X226763Y-129405D01*
X226933Y-129236D01*
X227314Y-128305D02*
X227314Y-129490D01*
X227314Y-128813D02*
X227398Y-128559D01*
X227568Y-128390D01*
X227737Y-128305D01*
X227991Y-128305D01*
X229548Y-127712D02*
X229548Y-129490D01*
X229548Y-127712D02*
X230310Y-127712D01*
X230564Y-127797D01*
X230649Y-127882D01*
X230733Y-128051D01*
X230733Y-128220D01*
X230649Y-128390D01*
X230564Y-128474D01*
X230310Y-128559D01*
X229548Y-128559D02*
X230310Y-128559D01*
X230564Y-128643D01*
X230649Y-128728D01*
X230733Y-128897D01*
X230733Y-129151D01*
X230649Y-129321D01*
X230564Y-129405D01*
X230310Y-129490D01*
X229548Y-129490D01*
X231131Y-127712D02*
X231131Y-129490D01*
X231504Y-128305D02*
X232012Y-129490D01*
X232520Y-128305D02*
X232012Y-129490D01*
X233823Y-127712D02*
X233823Y-129490D01*
X233823Y-128559D02*
X233654Y-128390D01*
X233485Y-128305D01*
X233231Y-128305D01*
X233061Y-128390D01*
X232892Y-128559D01*
X232807Y-128813D01*
X232807Y-128982D01*
X232892Y-129236D01*
X233061Y-129405D01*
X233231Y-129490D01*
X233485Y-129490D01*
X233654Y-129405D01*
X233823Y-129236D01*
X234382Y-129321D02*
X234297Y-129405D01*
X234382Y-129490D01*
X234466Y-129405D01*
X234382Y-129321D01*
X205040Y-124972D02*
X205040Y-126750D01*
X205040Y-124972D02*
X205717Y-126750D01*
X206394Y-124972D02*
X205717Y-126750D01*
X206394Y-124972D02*
X206394Y-126750D01*
X207072Y-124972D02*
X207156Y-125057D01*
X207241Y-124972D01*
X207156Y-124888D01*
X207072Y-124972D01*
X207156Y-125565D02*
X207156Y-126750D01*
X208570Y-125819D02*
X208401Y-125650D01*
X208231Y-125565D01*
X207977Y-125565D01*
X207808Y-125650D01*
X207639Y-125819D01*
X207554Y-126073D01*
X207554Y-126242D01*
X207639Y-126496D01*
X207808Y-126665D01*
X207977Y-126750D01*
X208231Y-126750D01*
X208401Y-126665D01*
X208570Y-126496D01*
X208951Y-125565D02*
X208951Y-126750D01*
X208951Y-126073D02*
X209035Y-125819D01*
X209205Y-125650D01*
X209374Y-125565D01*
X209628Y-125565D01*
X210212Y-125565D02*
X210043Y-125650D01*
X209873Y-125819D01*
X209789Y-126073D01*
X209789Y-126242D01*
X209873Y-126496D01*
X210043Y-126665D01*
X210212Y-126750D01*
X210466Y-126750D01*
X210635Y-126665D01*
X210805Y-126496D01*
X210889Y-126242D01*
X210889Y-126073D01*
X210805Y-125819D01*
X210635Y-125650D01*
X210466Y-125565D01*
X210212Y-125565D01*
X212294Y-125819D02*
X212125Y-125650D01*
X211956Y-125565D01*
X211702Y-125565D01*
X211533Y-125650D01*
X211363Y-125819D01*
X211279Y-126073D01*
X211279Y-126242D01*
X211363Y-126496D01*
X211533Y-126665D01*
X211702Y-126750D01*
X211956Y-126750D01*
X212125Y-126665D01*
X212294Y-126496D01*
X212675Y-124972D02*
X212675Y-126750D01*
X212675Y-125903D02*
X212929Y-125650D01*
X213099Y-125565D01*
X213353Y-125565D01*
X213522Y-125650D01*
X213606Y-125903D01*
X213606Y-126750D01*
X214241Y-124972D02*
X214326Y-125057D01*
X214411Y-124972D01*
X214326Y-124888D01*
X214241Y-124972D01*
X214326Y-125565D02*
X214326Y-126750D01*
X214724Y-125565D02*
X214724Y-127343D01*
X214724Y-125819D02*
X214893Y-125650D01*
X215062Y-125565D01*
X215316Y-125565D01*
X215486Y-125650D01*
X215655Y-125819D01*
X215740Y-126073D01*
X215740Y-126242D01*
X215655Y-126496D01*
X215486Y-126665D01*
X215316Y-126750D01*
X215062Y-126750D01*
X214893Y-126665D01*
X214724Y-126496D01*
X218110Y-124972D02*
X218110Y-126750D01*
X217517Y-124972D02*
X218702Y-124972D01*
X218914Y-126073D02*
X219930Y-126073D01*
X219930Y-125903D01*
X219845Y-125734D01*
X219760Y-125650D01*
X219591Y-125565D01*
X219337Y-125565D01*
X219168Y-125650D01*
X218999Y-125819D01*
X218914Y-126073D01*
X218914Y-126242D01*
X218999Y-126496D01*
X219168Y-126665D01*
X219337Y-126750D01*
X219591Y-126750D01*
X219760Y-126665D01*
X219930Y-126496D01*
X221326Y-125819D02*
X221157Y-125650D01*
X220988Y-125565D01*
X220734Y-125565D01*
X220565Y-125650D01*
X220395Y-125819D01*
X220311Y-126073D01*
X220311Y-126242D01*
X220395Y-126496D01*
X220565Y-126665D01*
X220734Y-126750D01*
X220988Y-126750D01*
X221157Y-126665D01*
X221326Y-126496D01*
X221707Y-124972D02*
X221707Y-126750D01*
X221707Y-125903D02*
X221961Y-125650D01*
X222131Y-125565D01*
X222385Y-125565D01*
X222554Y-125650D01*
X222638Y-125903D01*
X222638Y-126750D01*
X223104Y-125565D02*
X223104Y-126750D01*
X223104Y-125903D02*
X223358Y-125650D01*
X223527Y-125565D01*
X223781Y-125565D01*
X223951Y-125650D01*
X224035Y-125903D01*
X224035Y-126750D01*
X224924Y-125565D02*
X224755Y-125650D01*
X224585Y-125819D01*
X224501Y-126073D01*
X224501Y-126242D01*
X224585Y-126496D01*
X224755Y-126665D01*
X224924Y-126750D01*
X225178Y-126750D01*
X225347Y-126665D01*
X225516Y-126496D01*
X225601Y-126242D01*
X225601Y-126073D01*
X225516Y-125819D01*
X225347Y-125650D01*
X225178Y-125565D01*
X224924Y-125565D01*
X225991Y-124972D02*
X225991Y-126750D01*
X226786Y-125565D02*
X226617Y-125650D01*
X226448Y-125819D01*
X226363Y-126073D01*
X226363Y-126242D01*
X226448Y-126496D01*
X226617Y-126665D01*
X226786Y-126750D01*
X227040Y-126750D01*
X227209Y-126665D01*
X227379Y-126496D01*
X227463Y-126242D01*
X227463Y-126073D01*
X227379Y-125819D01*
X227209Y-125650D01*
X227040Y-125565D01*
X226786Y-125565D01*
X228869Y-125565D02*
X228869Y-126919D01*
X228784Y-127173D01*
X228699Y-127258D01*
X228530Y-127343D01*
X228276Y-127343D01*
X228107Y-127258D01*
X228869Y-125819D02*
X228699Y-125650D01*
X228530Y-125565D01*
X228276Y-125565D01*
X228107Y-125650D01*
X227937Y-125819D01*
X227853Y-126073D01*
X227853Y-126242D01*
X227937Y-126496D01*
X228107Y-126665D01*
X228276Y-126750D01*
X228530Y-126750D01*
X228699Y-126665D01*
X228869Y-126496D01*
X229427Y-125565D02*
X229935Y-126750D01*
X230443Y-125565D02*
X229935Y-126750D01*
X229766Y-127089D01*
X229597Y-127258D01*
X229427Y-127343D01*
X229343Y-127343D01*
X232136Y-124972D02*
X232136Y-126750D01*
X232508Y-125565D02*
X232508Y-126750D01*
X232508Y-125903D02*
X232762Y-125650D01*
X232932Y-125565D01*
X233186Y-125565D01*
X233355Y-125650D01*
X233440Y-125903D01*
X233440Y-126750D01*
X234921Y-125819D02*
X234752Y-125650D01*
X234582Y-125565D01*
X234328Y-125565D01*
X234159Y-125650D01*
X233990Y-125819D01*
X233905Y-126073D01*
X233905Y-126242D01*
X233990Y-126496D01*
X234159Y-126665D01*
X234328Y-126750D01*
X234582Y-126750D01*
X234752Y-126665D01*
X234921Y-126496D01*
X235387Y-126581D02*
X235302Y-126665D01*
X235387Y-126750D01*
X235471Y-126665D01*
X235387Y-126581D01*
X266330Y-120359D02*
X266270Y-120300D01*
X266330Y-120240D01*
X266389Y-120300D01*
X266389Y-120419D01*
X266330Y-120538D01*
X266270Y-120597D01*
X267020Y-120240D02*
X266841Y-120300D01*
X266722Y-120478D01*
X266663Y-120776D01*
X266663Y-120954D01*
X266722Y-121252D01*
X266841Y-121430D01*
X267020Y-121490D01*
X267139Y-121490D01*
X267317Y-121430D01*
X267436Y-121252D01*
X267496Y-120954D01*
X267496Y-120776D01*
X267436Y-120478D01*
X267317Y-120300D01*
X267139Y-120240D01*
X267020Y-120240D01*
X268371Y-120240D02*
X267776Y-121073D01*
X268668Y-121073D01*
X268371Y-120240D02*
X268371Y-121490D01*
X268889Y-120954D02*
X269960Y-120954D01*
X270329Y-121907D02*
X271281Y-121907D01*
X271442Y-121907D02*
X272394Y-121907D01*
X272554Y-120954D02*
X273626Y-120954D01*
X273995Y-120240D02*
X273995Y-121490D01*
X273995Y-120240D02*
X274530Y-120240D01*
X274709Y-120300D01*
X274768Y-120359D01*
X274828Y-120478D01*
X274828Y-120597D01*
X274768Y-120716D01*
X274709Y-120776D01*
X274530Y-120835D01*
X273995Y-120835D01*
X274411Y-120835D02*
X274828Y-121490D01*
X275107Y-120478D02*
X275226Y-120419D01*
X275405Y-120240D01*
X275405Y-121490D01*
X276083Y-121371D02*
X276024Y-121430D01*
X276083Y-121490D01*
X276143Y-121430D01*
X276083Y-121371D01*
X277309Y-120538D02*
X277250Y-120419D01*
X277131Y-120300D01*
X277012Y-120240D01*
X276774Y-120240D01*
X276655Y-120300D01*
X276536Y-120419D01*
X276476Y-120538D01*
X276417Y-120716D01*
X276417Y-121014D01*
X276476Y-121192D01*
X276536Y-121311D01*
X276655Y-121430D01*
X276774Y-121490D01*
X277012Y-121490D01*
X277131Y-121430D01*
X277250Y-121311D01*
X277309Y-121192D01*
X277309Y-121014D01*
X277012Y-121014D02*
X277309Y-121014D01*
X277595Y-120240D02*
X277595Y-121490D01*
X277595Y-120240D02*
X278131Y-120240D01*
X278309Y-120300D01*
X278369Y-120359D01*
X278428Y-120478D01*
X278428Y-120597D01*
X278369Y-120716D01*
X278309Y-120776D01*
X278131Y-120835D01*
X277595Y-120835D02*
X278131Y-120835D01*
X278309Y-120895D01*
X278369Y-120954D01*
X278428Y-121073D01*
X278428Y-121252D01*
X278369Y-121371D01*
X278309Y-121430D01*
X278131Y-121490D01*
X277595Y-121490D01*
X279065Y-120240D02*
X278946Y-120300D01*
X278827Y-120419D01*
X278767Y-120538D01*
X278708Y-120716D01*
X278708Y-121014D01*
X278767Y-121192D01*
X278827Y-121311D01*
X278946Y-121430D01*
X279065Y-121490D01*
X279303Y-121490D01*
X279422Y-121430D01*
X279541Y-121311D01*
X279600Y-121192D01*
X279660Y-121014D01*
X279660Y-120716D01*
X279600Y-120538D01*
X279541Y-120419D01*
X279422Y-120300D01*
X279303Y-120240D01*
X279065Y-120240D01*
X280011Y-120359D02*
X279952Y-120300D01*
X280011Y-120240D01*
X280071Y-120300D01*
X280071Y-120419D01*
X280011Y-120538D01*
X279952Y-120597D01*
X292852Y-134688D02*
X292767Y-134519D01*
X292513Y-134434D01*
X292344Y-134434D01*
X292090Y-134519D01*
X291920Y-134773D01*
X291836Y-135196D01*
X291836Y-135619D01*
X291920Y-135958D01*
X292090Y-136127D01*
X292344Y-136212D01*
X292428Y-136212D01*
X292682Y-136127D01*
X292852Y-135958D01*
X292936Y-135704D01*
X292936Y-135619D01*
X292852Y-135365D01*
X292682Y-135196D01*
X292428Y-135112D01*
X292344Y-135112D01*
X292090Y-135196D01*
X291920Y-135365D01*
X291836Y-135619D01*
X229225Y-134434D02*
X228378Y-134434D01*
X228293Y-135196D01*
X228378Y-135112D01*
X228632Y-135027D01*
X228886Y-135027D01*
X229140Y-135112D01*
X229309Y-135281D01*
X229394Y-135535D01*
X229394Y-135704D01*
X229309Y-135958D01*
X229140Y-136127D01*
X228886Y-136212D01*
X228632Y-136212D01*
X228378Y-136127D01*
X228293Y-136043D01*
X228209Y-135873D01*
X165581Y-134434D02*
X164734Y-135619D01*
X166004Y-135619D01*
X165581Y-134434D02*
X165581Y-136212D01*
X101234Y-134434D02*
X102166Y-134434D01*
X101658Y-135112D01*
X101912Y-135112D01*
X102081Y-135196D01*
X102166Y-135281D01*
X102250Y-135535D01*
X102250Y-135704D01*
X102166Y-135958D01*
X101996Y-136127D01*
X101742Y-136212D01*
X101488Y-136212D01*
X101234Y-136127D01*
X101150Y-136043D01*
X101065Y-135873D01*
X37920Y-134858D02*
X37920Y-134773D01*
X38005Y-134604D01*
X38090Y-134519D01*
X38259Y-134434D01*
X38598Y-134434D01*
X38767Y-134519D01*
X38852Y-134604D01*
X38936Y-134773D01*
X38936Y-134942D01*
X38852Y-135112D01*
X38682Y-135365D01*
X37836Y-136212D01*
X39021Y-136212D01*
X-25554Y-134773D02*
X-25385Y-134688D01*
X-25131Y-134434D01*
X-25131Y-136212D01*
X-54925Y-108222D02*
X-54925Y-109999D01*
X-54925Y-108222D02*
X-54332Y-108222D01*
X-54078Y-108306D01*
X-53909Y-108476D01*
X-53825Y-108645D01*
X-53740Y-108899D01*
X-53740Y-109322D01*
X-53825Y-109576D01*
X-53909Y-109745D01*
X-54078Y-109915D01*
X-54332Y-109999D01*
X-54925Y-109999D01*
X-53655Y-48447D02*
X-53740Y-48278D01*
X-53909Y-48108D01*
X-54078Y-48024D01*
X-54417Y-48024D01*
X-54586Y-48108D01*
X-54756Y-48278D01*
X-54840Y-48447D01*
X-54925Y-48701D01*
X-54925Y-49124D01*
X-54840Y-49378D01*
X-54756Y-49547D01*
X-54586Y-49717D01*
X-54417Y-49801D01*
X-54078Y-49801D01*
X-53909Y-49717D01*
X-53740Y-49547D01*
X-53655Y-49378D01*
X-54925Y12301D02*
X-54925Y10524D01*
X-54925Y12301D02*
X-54163Y12301D01*
X-53909Y12217D01*
X-53825Y12132D01*
X-53740Y11963D01*
X-53740Y11794D01*
X-53825Y11624D01*
X-53909Y11540D01*
X-54163Y11455D01*
X-54925Y11455D02*
X-54163Y11455D01*
X-53909Y11370D01*
X-53825Y11286D01*
X-53740Y11116D01*
X-53740Y10862D01*
X-53825Y10693D01*
X-53909Y10608D01*
X-54163Y10524D01*
X-54925Y10524D01*
X-53571Y70976D02*
X-54248Y72753D01*
X-54925Y70976D01*
X-54671Y71568D02*
X-53825Y71568D01*
X320995Y-108222D02*
X320995Y-109999D01*
X320995Y-108222D02*
X321588Y-108222D01*
X321842Y-108306D01*
X322011Y-108476D01*
X322095Y-108645D01*
X322180Y-108899D01*
X322180Y-109322D01*
X322095Y-109576D01*
X322011Y-109745D01*
X321842Y-109915D01*
X321588Y-109999D01*
X320995Y-109999D01*
X322265Y-48447D02*
X322180Y-48278D01*
X322011Y-48108D01*
X321842Y-48024D01*
X321503Y-48024D01*
X321334Y-48108D01*
X321164Y-48278D01*
X321080Y-48447D01*
X320995Y-48701D01*
X320995Y-49124D01*
X321080Y-49378D01*
X321164Y-49547D01*
X321334Y-49717D01*
X321503Y-49801D01*
X321842Y-49801D01*
X322011Y-49717D01*
X322180Y-49547D01*
X322265Y-49378D01*
X320995Y12301D02*
X320995Y10524D01*
X320995Y12301D02*
X321757Y12301D01*
X322011Y12217D01*
X322095Y12132D01*
X322180Y11963D01*
X322180Y11794D01*
X322095Y11624D01*
X322011Y11540D01*
X321757Y11455D01*
X320995Y11455D02*
X321757Y11455D01*
X322011Y11370D01*
X322095Y11286D01*
X322180Y11116D01*
X322180Y10862D01*
X322095Y10693D01*
X322011Y10608D01*
X321757Y10524D01*
X320995Y10524D01*
X322349Y70976D02*
X321672Y72753D01*
X320995Y70976D01*
X321249Y71568D02*
X322095Y71568D01*
X292852Y101532D02*
X292767Y101701D01*
X292513Y101786D01*
X292344Y101786D01*
X292090Y101701D01*
X291920Y101447D01*
X291836Y101024D01*
X291836Y100601D01*
X291920Y100262D01*
X292090Y100093D01*
X292344Y100008D01*
X292428Y100008D01*
X292682Y100093D01*
X292852Y100262D01*
X292936Y100516D01*
X292936Y100601D01*
X292852Y100855D01*
X292682Y101024D01*
X292428Y101108D01*
X292344Y101108D01*
X292090Y101024D01*
X291920Y100855D01*
X291836Y100601D01*
X229225Y101786D02*
X228378Y101786D01*
X228293Y101024D01*
X228378Y101108D01*
X228632Y101193D01*
X228886Y101193D01*
X229140Y101108D01*
X229309Y100939D01*
X229394Y100685D01*
X229394Y100516D01*
X229309Y100262D01*
X229140Y100093D01*
X228886Y100008D01*
X228632Y100008D01*
X228378Y100093D01*
X228293Y100177D01*
X228209Y100347D01*
X165581Y101786D02*
X164734Y100601D01*
X166004Y100601D01*
X165581Y101786D02*
X165581Y100008D01*
X101234Y101786D02*
X102166Y101786D01*
X101658Y101108D01*
X101912Y101108D01*
X102081Y101024D01*
X102166Y100939D01*
X102250Y100685D01*
X102250Y100516D01*
X102166Y100262D01*
X101996Y100093D01*
X101742Y100008D01*
X101488Y100008D01*
X101234Y100093D01*
X101150Y100177D01*
X101065Y100347D01*
X37920Y101362D02*
X37920Y101447D01*
X38005Y101616D01*
X38090Y101701D01*
X38259Y101786D01*
X38598Y101786D01*
X38767Y101701D01*
X38852Y101616D01*
X38936Y101447D01*
X38936Y101278D01*
X38852Y101108D01*
X38682Y100855D01*
X37836Y100008D01*
X39021Y100008D01*
X-25554Y101447D02*
X-25385Y101532D01*
X-25131Y101786D01*
X-25131Y100008D01*
D14*
X265770Y-130990D02*
X265770Y-132240D01*
X265770Y-130990D02*
X266306Y-130990D01*
X266484Y-131050D01*
X266544Y-131109D01*
X266603Y-131228D01*
X266603Y-131347D01*
X266544Y-131466D01*
X266484Y-131526D01*
X266306Y-131585D01*
X265770Y-131585D02*
X266306Y-131585D01*
X266484Y-131645D01*
X266544Y-131704D01*
X266603Y-131823D01*
X266603Y-132002D01*
X266544Y-132121D01*
X266484Y-132180D01*
X266306Y-132240D01*
X265770Y-132240D01*
X267180Y-131407D02*
X267061Y-131466D01*
X266942Y-131585D01*
X266883Y-131764D01*
X266883Y-131883D01*
X266942Y-132061D01*
X267061Y-132180D01*
X267180Y-132240D01*
X267359Y-132240D01*
X267478Y-132180D01*
X267597Y-132061D01*
X267657Y-131883D01*
X267657Y-131764D01*
X267597Y-131585D01*
X267478Y-131466D01*
X267359Y-131407D01*
X267180Y-131407D01*
X268109Y-130990D02*
X268109Y-132002D01*
X268168Y-132180D01*
X268287Y-132240D01*
X268406Y-132240D01*
X267930Y-131407D02*
X268347Y-131407D01*
X268763Y-130990D02*
X268763Y-132002D01*
X268823Y-132180D01*
X268942Y-132240D01*
X269061Y-132240D01*
X268585Y-131407D02*
X269001Y-131407D01*
X269537Y-131407D02*
X269418Y-131466D01*
X269299Y-131585D01*
X269240Y-131764D01*
X269240Y-131883D01*
X269299Y-132061D01*
X269418Y-132180D01*
X269537Y-132240D01*
X269716Y-132240D01*
X269835Y-132180D01*
X269954Y-132061D01*
X270013Y-131883D01*
X270013Y-131764D01*
X269954Y-131585D01*
X269835Y-131466D01*
X269716Y-131407D01*
X269537Y-131407D01*
X270287Y-131407D02*
X270287Y-132240D01*
X270287Y-131645D02*
X270465Y-131466D01*
X270584Y-131407D01*
X270763Y-131407D01*
X270882Y-131466D01*
X270942Y-131645D01*
X270942Y-132240D01*
X270942Y-131645D02*
X271120Y-131466D01*
X271239Y-131407D01*
X271418Y-131407D01*
X271537Y-131466D01*
X271596Y-131645D01*
X271596Y-132240D01*
X273328Y-130990D02*
X273209Y-131050D01*
X273090Y-131169D01*
X273030Y-131288D01*
X272971Y-131466D01*
X272971Y-131764D01*
X273030Y-131942D01*
X273090Y-132061D01*
X273209Y-132180D01*
X273328Y-132240D01*
X273566Y-132240D01*
X273685Y-132180D01*
X273804Y-132061D01*
X273864Y-131942D01*
X273923Y-131764D01*
X273923Y-131466D01*
X273864Y-131288D01*
X273804Y-131169D01*
X273685Y-131050D01*
X273566Y-130990D01*
X273328Y-130990D01*
X274215Y-131407D02*
X274572Y-132240D01*
X274929Y-131407D02*
X274572Y-132240D01*
X275131Y-131764D02*
X275845Y-131764D01*
X275845Y-131645D01*
X275786Y-131526D01*
X275726Y-131466D01*
X275607Y-131407D01*
X275429Y-131407D01*
X275310Y-131466D01*
X275191Y-131585D01*
X275131Y-131764D01*
X275131Y-131883D01*
X275191Y-132061D01*
X275310Y-132180D01*
X275429Y-132240D01*
X275607Y-132240D01*
X275726Y-132180D01*
X275845Y-132061D01*
X276113Y-131407D02*
X276113Y-132240D01*
X276113Y-131764D02*
X276173Y-131585D01*
X276292Y-131466D01*
X276411Y-131407D01*
X276589Y-131407D01*
X276702Y-130990D02*
X276702Y-132240D01*
X277678Y-131407D02*
X277678Y-132240D01*
X277678Y-131585D02*
X277559Y-131466D01*
X277440Y-131407D01*
X277262Y-131407D01*
X277143Y-131466D01*
X277024Y-131585D01*
X276964Y-131764D01*
X276964Y-131883D01*
X277024Y-132061D01*
X277143Y-132180D01*
X277262Y-132240D01*
X277440Y-132240D01*
X277559Y-132180D01*
X277678Y-132061D01*
X278071Y-131407D02*
X278428Y-132240D01*
X278785Y-131407D02*
X278428Y-132240D01*
X278309Y-132478D01*
X278190Y-132597D01*
X278071Y-132657D01*
X278011Y-132657D01*
X266270Y-128840D02*
X266270Y-129990D01*
X266927Y-129990D01*
X267929Y-129990D02*
X267491Y-128840D01*
X267053Y-129990D01*
X267217Y-129607D02*
X267765Y-129607D01*
X268197Y-128840D02*
X268635Y-129388D01*
X268635Y-129990D01*
X269073Y-128840D02*
X268635Y-129388D01*
X269933Y-128840D02*
X269221Y-128840D01*
X269221Y-129990D01*
X269933Y-129990D01*
X269221Y-129388D02*
X269659Y-129388D01*
X270124Y-128840D02*
X270124Y-129990D01*
X270124Y-128840D02*
X270617Y-128840D01*
X270781Y-128895D01*
X270836Y-128950D01*
X270891Y-129059D01*
X270891Y-129169D01*
X270836Y-129278D01*
X270781Y-129333D01*
X270617Y-129388D01*
X270124Y-129388D01*
X270508Y-129388D02*
X270891Y-129990D01*
X272052Y-128840D02*
X272052Y-129990D01*
X272052Y-128840D02*
X272818Y-129990D01*
X272818Y-128840D02*
X272818Y-129990D01*
X274012Y-129990D02*
X273574Y-128840D01*
X273136Y-129990D01*
X273300Y-129607D02*
X273847Y-129607D01*
X274280Y-128840D02*
X274280Y-129990D01*
X274280Y-128840D02*
X274718Y-129990D01*
X275156Y-128840D02*
X274718Y-129990D01*
X275156Y-128840D02*
X275156Y-129990D01*
X276196Y-128840D02*
X275484Y-128840D01*
X275484Y-129990D01*
X276196Y-129990D01*
X275484Y-129388D02*
X275922Y-129388D01*
X276443Y-129223D02*
X276388Y-129278D01*
X276443Y-129333D01*
X276497Y-129278D01*
X276443Y-129223D01*
X276443Y-129880D02*
X276388Y-129935D01*
X276443Y-129990D01*
X276497Y-129935D01*
X276443Y-129880D01*
X238270Y-129692D02*
X238763Y-129692D01*
X238927Y-129638D01*
X238982Y-129583D01*
X239037Y-129473D01*
X239037Y-129309D01*
X238982Y-129200D01*
X238927Y-129145D01*
X238763Y-129090D01*
X238270Y-129090D01*
X238270Y-130240D01*
X240115Y-129364D02*
X240060Y-129254D01*
X239951Y-129145D01*
X239841Y-129090D01*
X239622Y-129090D01*
X239513Y-129145D01*
X239403Y-129254D01*
X239349Y-129364D01*
X239294Y-129528D01*
X239294Y-129802D01*
X239349Y-129966D01*
X239403Y-130076D01*
X239513Y-130185D01*
X239622Y-130240D01*
X239841Y-130240D01*
X239951Y-130185D01*
X240060Y-130076D01*
X240115Y-129966D01*
X240438Y-129090D02*
X240438Y-130240D01*
X240438Y-129090D02*
X240931Y-129090D01*
X241095Y-129145D01*
X241150Y-129200D01*
X241205Y-129309D01*
X241205Y-129419D01*
X241150Y-129528D01*
X241095Y-129583D01*
X240931Y-129638D01*
X240438Y-129638D02*
X240931Y-129638D01*
X241095Y-129692D01*
X241150Y-129747D01*
X241205Y-129857D01*
X241205Y-130021D01*
X241150Y-130130D01*
X241095Y-130185D01*
X240931Y-130240D01*
X240438Y-130240D01*
X242365Y-129090D02*
X242365Y-130240D01*
X242365Y-129090D02*
X243077Y-129090D01*
X242365Y-129638D02*
X242803Y-129638D01*
X243208Y-129090D02*
X243208Y-130240D01*
X243449Y-129090D02*
X243449Y-130240D01*
X244106Y-130240D01*
X244944Y-129090D02*
X244232Y-129090D01*
X244232Y-130240D01*
X244944Y-130240D01*
X244232Y-129638D02*
X244670Y-129638D01*
X246039Y-129090D02*
X246039Y-130240D01*
X246039Y-129090D02*
X246806Y-130240D01*
X246806Y-129090D02*
X246806Y-130240D01*
X247999Y-130240D02*
X247561Y-129090D01*
X247123Y-130240D01*
X247287Y-129857D02*
X247835Y-129857D01*
X248267Y-129090D02*
X248267Y-130240D01*
X248267Y-129090D02*
X248705Y-130240D01*
X249143Y-129090D02*
X248705Y-130240D01*
X249143Y-129090D02*
X249143Y-130240D01*
X250184Y-129090D02*
X249472Y-129090D01*
X249472Y-130240D01*
X250184Y-130240D01*
X249472Y-129638D02*
X249910Y-129638D01*
X250430Y-129473D02*
X250375Y-129528D01*
X250430Y-129583D01*
X250485Y-129528D01*
X250430Y-129473D01*
X250430Y-130130D02*
X250375Y-130185D01*
X250430Y-130240D01*
X250485Y-130185D01*
X250430Y-130130D01*
X238270Y-131240D02*
X238270Y-132240D01*
X238270Y-131240D02*
X238699Y-131240D01*
X238841Y-131288D01*
X238889Y-131335D01*
X238937Y-131431D01*
X238937Y-131526D01*
X238889Y-131621D01*
X238841Y-131669D01*
X238699Y-131716D01*
X238270Y-131716D01*
X238603Y-131716D02*
X238937Y-132240D01*
X239160Y-131240D02*
X239160Y-132240D01*
X239732Y-132240D01*
X240555Y-131478D02*
X240508Y-131383D01*
X240412Y-131288D01*
X240317Y-131240D01*
X240127Y-131240D01*
X240032Y-131288D01*
X239936Y-131383D01*
X239889Y-131478D01*
X239841Y-131621D01*
X239841Y-131859D01*
X239889Y-132002D01*
X239936Y-132097D01*
X240032Y-132192D01*
X240127Y-132240D01*
X240317Y-132240D01*
X240412Y-132192D01*
X240508Y-132097D01*
X240555Y-132002D01*
X240836Y-132573D02*
X241598Y-132573D01*
X241726Y-131240D02*
X241726Y-132240D01*
X241726Y-131240D02*
X242107Y-132240D01*
X242488Y-131240D02*
X242107Y-132240D01*
X242488Y-131240D02*
X242488Y-132240D01*
X242774Y-131859D02*
X243345Y-131859D01*
X243345Y-131764D01*
X243298Y-131669D01*
X243250Y-131621D01*
X243155Y-131573D01*
X243012Y-131573D01*
X242917Y-131621D01*
X242821Y-131716D01*
X242774Y-131859D01*
X242774Y-131954D01*
X242821Y-132097D01*
X242917Y-132192D01*
X243012Y-132240D01*
X243155Y-132240D01*
X243250Y-132192D01*
X243345Y-132097D01*
X243702Y-131240D02*
X243702Y-132050D01*
X243750Y-132192D01*
X243845Y-132240D01*
X243940Y-132240D01*
X243559Y-131573D02*
X243893Y-131573D01*
X244083Y-131859D02*
X244654Y-131859D01*
X244654Y-131764D01*
X244607Y-131669D01*
X244559Y-131621D01*
X244464Y-131573D01*
X244321Y-131573D01*
X244226Y-131621D01*
X244131Y-131716D01*
X244083Y-131859D01*
X244083Y-131954D01*
X244131Y-132097D01*
X244226Y-132192D01*
X244321Y-132240D01*
X244464Y-132240D01*
X244559Y-132192D01*
X244654Y-132097D01*
X244869Y-131573D02*
X244869Y-132240D01*
X244869Y-131859D02*
X244916Y-131716D01*
X245011Y-131621D01*
X245107Y-131573D01*
X245249Y-131573D01*
X245340Y-132573D02*
X246102Y-132573D01*
X246230Y-131240D02*
X246611Y-132240D01*
X246992Y-131240D02*
X246611Y-132240D01*
X247168Y-131478D02*
X247168Y-131431D01*
X247216Y-131335D01*
X247263Y-131288D01*
X247359Y-131240D01*
X247549Y-131240D01*
X247644Y-131288D01*
X247692Y-131335D01*
X247739Y-131431D01*
X247739Y-131526D01*
X247692Y-131621D01*
X247597Y-131764D01*
X247120Y-132240D01*
X247787Y-132240D01*
X248058Y-132145D02*
X248011Y-132192D01*
X248058Y-132240D01*
X248106Y-132192D01*
X248058Y-132145D01*
X248325Y-131764D02*
X248753Y-131764D01*
X248896Y-131716D01*
X248944Y-131669D01*
X248992Y-131573D01*
X248992Y-131431D01*
X248944Y-131335D01*
X248896Y-131288D01*
X248753Y-131240D01*
X248325Y-131240D01*
X248325Y-132240D01*
X249787Y-131716D02*
X249691Y-131621D01*
X249596Y-131573D01*
X249453Y-131573D01*
X249358Y-131621D01*
X249263Y-131716D01*
X249215Y-131859D01*
X249215Y-131954D01*
X249263Y-132097D01*
X249358Y-132192D01*
X249453Y-132240D01*
X249596Y-132240D01*
X249691Y-132192D01*
X249787Y-132097D01*
X250001Y-131240D02*
X250001Y-132240D01*
X250001Y-131716D02*
X250096Y-131621D01*
X250191Y-131573D01*
X250334Y-131573D01*
X250429Y-131621D01*
X250525Y-131716D01*
X250572Y-131859D01*
X250572Y-131954D01*
X250525Y-132097D01*
X250429Y-132192D01*
X250334Y-132240D01*
X250191Y-132240D01*
X250096Y-132192D01*
X250001Y-132097D01*
X250786Y-131240D02*
X250786Y-132240D01*
X250786Y-131240D02*
X251120Y-131240D01*
X251262Y-131288D01*
X251358Y-131383D01*
X251405Y-131478D01*
X251453Y-131621D01*
X251453Y-131859D01*
X251405Y-132002D01*
X251358Y-132097D01*
X251262Y-132192D01*
X251120Y-132240D01*
X250786Y-132240D01*
X251915Y-131573D02*
X251819Y-131621D01*
X251724Y-131716D01*
X251677Y-131859D01*
X251677Y-131954D01*
X251724Y-132097D01*
X251819Y-132192D01*
X251915Y-132240D01*
X252058Y-132240D01*
X252153Y-132192D01*
X252248Y-132097D01*
X252296Y-131954D01*
X252296Y-131859D01*
X252248Y-131716D01*
X252153Y-131621D01*
X252058Y-131573D01*
X251915Y-131573D01*
X253086Y-131716D02*
X252991Y-131621D01*
X252895Y-131573D01*
X252753Y-131573D01*
X252657Y-131621D01*
X252562Y-131716D01*
X252515Y-131859D01*
X252515Y-131954D01*
X252562Y-132097D01*
X252657Y-132192D01*
X252753Y-132240D01*
X252895Y-132240D01*
X252991Y-132192D01*
X253086Y-132097D01*
X238270Y-117942D02*
X238763Y-117942D01*
X238927Y-117888D01*
X238982Y-117833D01*
X239037Y-117723D01*
X239037Y-117559D01*
X238982Y-117450D01*
X238927Y-117395D01*
X238763Y-117340D01*
X238270Y-117340D01*
X238270Y-118490D01*
X240115Y-117614D02*
X240060Y-117504D01*
X239951Y-117395D01*
X239841Y-117340D01*
X239622Y-117340D01*
X239513Y-117395D01*
X239403Y-117504D01*
X239349Y-117614D01*
X239294Y-117778D01*
X239294Y-118052D01*
X239349Y-118216D01*
X239403Y-118326D01*
X239513Y-118435D01*
X239622Y-118490D01*
X239841Y-118490D01*
X239951Y-118435D01*
X240060Y-118326D01*
X240115Y-118216D01*
X240438Y-117340D02*
X240438Y-118490D01*
X240438Y-117340D02*
X240931Y-117340D01*
X241095Y-117395D01*
X241150Y-117450D01*
X241205Y-117559D01*
X241205Y-117669D01*
X241150Y-117778D01*
X241095Y-117833D01*
X240931Y-117888D01*
X240438Y-117888D02*
X240931Y-117888D01*
X241095Y-117942D01*
X241150Y-117997D01*
X241205Y-118107D01*
X241205Y-118271D01*
X241150Y-118380D01*
X241095Y-118435D01*
X240931Y-118490D01*
X240438Y-118490D01*
X242365Y-117340D02*
X242365Y-118490D01*
X243022Y-118490D01*
X243805Y-117723D02*
X243805Y-118490D01*
X243805Y-117888D02*
X243696Y-117778D01*
X243586Y-117723D01*
X243422Y-117723D01*
X243313Y-117778D01*
X243203Y-117888D01*
X243148Y-118052D01*
X243148Y-118161D01*
X243203Y-118326D01*
X243313Y-118435D01*
X243422Y-118490D01*
X243586Y-118490D01*
X243696Y-118435D01*
X243805Y-118326D01*
X244167Y-117723D02*
X244495Y-118490D01*
X244824Y-117723D02*
X244495Y-118490D01*
X244386Y-118709D01*
X244276Y-118818D01*
X244167Y-118873D01*
X244112Y-118873D01*
X245289Y-117723D02*
X245179Y-117778D01*
X245070Y-117888D01*
X245015Y-118052D01*
X245015Y-118161D01*
X245070Y-118326D01*
X245179Y-118435D01*
X245289Y-118490D01*
X245453Y-118490D01*
X245563Y-118435D01*
X245672Y-118326D01*
X245727Y-118161D01*
X245727Y-118052D01*
X245672Y-117888D01*
X245563Y-117778D01*
X245453Y-117723D01*
X245289Y-117723D01*
X245979Y-117723D02*
X245979Y-118271D01*
X246034Y-118435D01*
X246143Y-118490D01*
X246307Y-118490D01*
X246417Y-118435D01*
X246581Y-118271D01*
X246581Y-117723D02*
X246581Y-118490D01*
X247046Y-117340D02*
X247046Y-118271D01*
X247101Y-118435D01*
X247211Y-118490D01*
X247320Y-118490D01*
X246882Y-117723D02*
X247265Y-117723D01*
X249209Y-117614D02*
X249154Y-117504D01*
X249045Y-117395D01*
X248935Y-117340D01*
X248716Y-117340D01*
X248607Y-117395D01*
X248497Y-117504D01*
X248443Y-117614D01*
X248388Y-117778D01*
X248388Y-118052D01*
X248443Y-118216D01*
X248497Y-118326D01*
X248607Y-118435D01*
X248716Y-118490D01*
X248935Y-118490D01*
X249045Y-118435D01*
X249154Y-118326D01*
X249209Y-118216D01*
X249806Y-117723D02*
X249696Y-117778D01*
X249587Y-117888D01*
X249532Y-118052D01*
X249532Y-118161D01*
X249587Y-118326D01*
X249696Y-118435D01*
X249806Y-118490D01*
X249970Y-118490D01*
X250080Y-118435D01*
X250189Y-118326D01*
X250244Y-118161D01*
X250244Y-118052D01*
X250189Y-117888D01*
X250080Y-117778D01*
X249970Y-117723D01*
X249806Y-117723D01*
X250496Y-117723D02*
X250496Y-118490D01*
X250496Y-117942D02*
X250660Y-117778D01*
X250769Y-117723D01*
X250934Y-117723D01*
X251043Y-117778D01*
X251098Y-117942D01*
X251098Y-118490D01*
X251563Y-117340D02*
X251563Y-118271D01*
X251618Y-118435D01*
X251728Y-118490D01*
X251837Y-118490D01*
X251399Y-117723D02*
X251782Y-117723D01*
X252658Y-117723D02*
X252658Y-118490D01*
X252658Y-117888D02*
X252549Y-117778D01*
X252439Y-117723D01*
X252275Y-117723D01*
X252166Y-117778D01*
X252056Y-117888D01*
X252001Y-118052D01*
X252001Y-118161D01*
X252056Y-118326D01*
X252166Y-118435D01*
X252275Y-118490D01*
X252439Y-118490D01*
X252549Y-118435D01*
X252658Y-118326D01*
X253622Y-117888D02*
X253512Y-117778D01*
X253403Y-117723D01*
X253239Y-117723D01*
X253129Y-117778D01*
X253020Y-117888D01*
X252965Y-118052D01*
X252965Y-118161D01*
X253020Y-118326D01*
X253129Y-118435D01*
X253239Y-118490D01*
X253403Y-118490D01*
X253512Y-118435D01*
X253622Y-118326D01*
X254033Y-117340D02*
X254033Y-118271D01*
X254087Y-118435D01*
X254197Y-118490D01*
X254306Y-118490D01*
X253868Y-117723D02*
X254252Y-117723D01*
X254525Y-117723D02*
X254471Y-117778D01*
X254525Y-117833D01*
X254580Y-117778D01*
X254525Y-117723D01*
X254525Y-118380D02*
X254471Y-118435D01*
X254525Y-118490D01*
X254580Y-118435D01*
X254525Y-118380D01*
X238270Y-123942D02*
X238763Y-123942D01*
X238927Y-123888D01*
X238982Y-123833D01*
X239037Y-123723D01*
X239037Y-123559D01*
X238982Y-123450D01*
X238927Y-123395D01*
X238763Y-123340D01*
X238270Y-123340D01*
X238270Y-124490D01*
X239294Y-123723D02*
X239294Y-124490D01*
X239294Y-124052D02*
X239349Y-123888D01*
X239458Y-123778D01*
X239568Y-123723D01*
X239732Y-123723D01*
X240110Y-123723D02*
X240000Y-123778D01*
X239891Y-123888D01*
X239836Y-124052D01*
X239836Y-124161D01*
X239891Y-124326D01*
X240000Y-124435D01*
X240110Y-124490D01*
X240274Y-124490D01*
X240383Y-124435D01*
X240493Y-124326D01*
X240548Y-124161D01*
X240548Y-124052D01*
X240493Y-123888D01*
X240383Y-123778D01*
X240274Y-123723D01*
X240110Y-123723D01*
X241018Y-123340D02*
X241073Y-123395D01*
X241128Y-123340D01*
X241073Y-123285D01*
X241018Y-123340D01*
X241073Y-123723D02*
X241073Y-124654D01*
X241018Y-124818D01*
X240909Y-124873D01*
X240799Y-124873D01*
X241342Y-124052D02*
X241999Y-124052D01*
X241999Y-123942D01*
X241944Y-123833D01*
X241889Y-123778D01*
X241779Y-123723D01*
X241615Y-123723D01*
X241506Y-123778D01*
X241396Y-123888D01*
X241342Y-124052D01*
X241342Y-124161D01*
X241396Y-124326D01*
X241506Y-124435D01*
X241615Y-124490D01*
X241779Y-124490D01*
X241889Y-124435D01*
X241999Y-124326D01*
X242902Y-123888D02*
X242792Y-123778D01*
X242683Y-123723D01*
X242519Y-123723D01*
X242409Y-123778D01*
X242300Y-123888D01*
X242245Y-124052D01*
X242245Y-124161D01*
X242300Y-124326D01*
X242409Y-124435D01*
X242519Y-124490D01*
X242683Y-124490D01*
X242792Y-124435D01*
X242902Y-124326D01*
X243313Y-123340D02*
X243313Y-124271D01*
X243367Y-124435D01*
X243477Y-124490D01*
X243586Y-124490D01*
X243148Y-123723D02*
X243532Y-123723D01*
X244982Y-123340D02*
X244873Y-123395D01*
X244763Y-123504D01*
X244709Y-123614D01*
X244654Y-123778D01*
X244654Y-124052D01*
X244709Y-124216D01*
X244763Y-124326D01*
X244873Y-124435D01*
X244982Y-124490D01*
X245201Y-124490D01*
X245311Y-124435D01*
X245420Y-124326D01*
X245475Y-124216D01*
X245530Y-124052D01*
X245530Y-123778D01*
X245475Y-123614D01*
X245420Y-123504D01*
X245311Y-123395D01*
X245201Y-123340D01*
X244982Y-123340D01*
X245798Y-123723D02*
X246017Y-124490D01*
X246236Y-123723D02*
X246017Y-124490D01*
X246236Y-123723D02*
X246455Y-124490D01*
X246674Y-123723D02*
X246455Y-124490D01*
X246942Y-123723D02*
X246942Y-124490D01*
X246942Y-123942D02*
X247107Y-123778D01*
X247216Y-123723D01*
X247380Y-123723D01*
X247490Y-123778D01*
X247545Y-123942D01*
X247545Y-124490D01*
X247846Y-124052D02*
X248503Y-124052D01*
X248503Y-123942D01*
X248448Y-123833D01*
X248393Y-123778D01*
X248284Y-123723D01*
X248120Y-123723D01*
X248010Y-123778D01*
X247901Y-123888D01*
X247846Y-124052D01*
X247846Y-124161D01*
X247901Y-124326D01*
X248010Y-124435D01*
X248120Y-124490D01*
X248284Y-124490D01*
X248393Y-124435D01*
X248503Y-124326D01*
X248749Y-123723D02*
X248749Y-124490D01*
X248749Y-124052D02*
X248804Y-123888D01*
X248913Y-123778D01*
X249023Y-123723D01*
X249187Y-123723D01*
X249346Y-123723D02*
X249291Y-123778D01*
X249346Y-123833D01*
X249401Y-123778D01*
X249346Y-123723D01*
X249346Y-124380D02*
X249291Y-124435D01*
X249346Y-124490D01*
X249401Y-124435D01*
X249346Y-124380D01*
X266270Y-123942D02*
X266763Y-123942D01*
X266927Y-123888D01*
X266982Y-123833D01*
X267037Y-123723D01*
X267037Y-123559D01*
X266982Y-123450D01*
X266927Y-123395D01*
X266763Y-123340D01*
X266270Y-123340D01*
X266270Y-124490D01*
X268115Y-123614D02*
X268060Y-123504D01*
X267951Y-123395D01*
X267841Y-123340D01*
X267622Y-123340D01*
X267513Y-123395D01*
X267403Y-123504D01*
X267349Y-123614D01*
X267294Y-123778D01*
X267294Y-124052D01*
X267349Y-124216D01*
X267403Y-124326D01*
X267513Y-124435D01*
X267622Y-124490D01*
X267841Y-124490D01*
X267951Y-124435D01*
X268060Y-124326D01*
X268115Y-124216D01*
X268438Y-123340D02*
X268438Y-124490D01*
X268438Y-123340D02*
X268931Y-123340D01*
X269095Y-123395D01*
X269150Y-123450D01*
X269205Y-123559D01*
X269205Y-123669D01*
X269150Y-123778D01*
X269095Y-123833D01*
X268931Y-123888D01*
X268438Y-123888D02*
X268931Y-123888D01*
X269095Y-123942D01*
X269150Y-123997D01*
X269205Y-124107D01*
X269205Y-124271D01*
X269150Y-124380D01*
X269095Y-124435D01*
X268931Y-124490D01*
X268438Y-124490D01*
X270365Y-123340D02*
X270365Y-124490D01*
X270365Y-123340D02*
X271132Y-124490D01*
X271132Y-123340D02*
X271132Y-124490D01*
X271449Y-123340D02*
X271449Y-124161D01*
X271504Y-124326D01*
X271614Y-124435D01*
X271778Y-124490D01*
X271887Y-124490D01*
X272052Y-124435D01*
X272161Y-124326D01*
X272216Y-124161D01*
X272216Y-123340D01*
X272533Y-123340D02*
X272533Y-124490D01*
X272533Y-123340D02*
X272971Y-124490D01*
X273409Y-123340D02*
X272971Y-124490D01*
X273409Y-123340D02*
X273409Y-124490D01*
X273738Y-123340D02*
X273738Y-124490D01*
X273738Y-123340D02*
X274231Y-123340D01*
X274395Y-123395D01*
X274450Y-123450D01*
X274504Y-123559D01*
X274504Y-123669D01*
X274450Y-123778D01*
X274395Y-123833D01*
X274231Y-123888D01*
X273738Y-123888D02*
X274231Y-123888D01*
X274395Y-123942D01*
X274450Y-123997D01*
X274504Y-124107D01*
X274504Y-124271D01*
X274450Y-124380D01*
X274395Y-124435D01*
X274231Y-124490D01*
X273738Y-124490D01*
X275474Y-123340D02*
X274762Y-123340D01*
X274762Y-124490D01*
X275474Y-124490D01*
X274762Y-123888D02*
X275200Y-123888D01*
X275665Y-123340D02*
X275665Y-124490D01*
X275665Y-123340D02*
X276158Y-123340D01*
X276322Y-123395D01*
X276377Y-123450D01*
X276432Y-123559D01*
X276432Y-123669D01*
X276377Y-123778D01*
X276322Y-123833D01*
X276158Y-123888D01*
X275665Y-123888D01*
X276048Y-123888D02*
X276432Y-124490D01*
X276744Y-123723D02*
X276689Y-123778D01*
X276744Y-123833D01*
X276798Y-123778D01*
X276744Y-123723D01*
X276744Y-124380D02*
X276689Y-124435D01*
X276744Y-124490D01*
X276798Y-124435D01*
X276744Y-124380D01*
X266270Y-117942D02*
X266763Y-117942D01*
X266927Y-117888D01*
X266982Y-117833D01*
X267037Y-117723D01*
X267037Y-117559D01*
X266982Y-117450D01*
X266927Y-117395D01*
X266763Y-117340D01*
X266270Y-117340D01*
X266270Y-118490D01*
X267294Y-117340D02*
X267294Y-118490D01*
X267951Y-118490D01*
X268405Y-117340D02*
X268296Y-117395D01*
X268186Y-117504D01*
X268132Y-117614D01*
X268077Y-117778D01*
X268077Y-118052D01*
X268132Y-118216D01*
X268186Y-118326D01*
X268296Y-118435D01*
X268405Y-118490D01*
X268624Y-118490D01*
X268734Y-118435D01*
X268843Y-118326D01*
X268898Y-118216D01*
X268953Y-118052D01*
X268953Y-117778D01*
X268898Y-117614D01*
X268843Y-117504D01*
X268734Y-117395D01*
X268624Y-117340D01*
X268405Y-117340D01*
X269604Y-117340D02*
X269604Y-118490D01*
X269221Y-117340D02*
X269988Y-117340D01*
X271028Y-117340D02*
X271028Y-118490D01*
X271028Y-117340D02*
X271794Y-118490D01*
X271794Y-117340D02*
X271794Y-118490D01*
X272988Y-118490D02*
X272550Y-117340D01*
X272112Y-118490D01*
X272276Y-118107D02*
X272824Y-118107D01*
X273256Y-117340D02*
X273256Y-118490D01*
X273256Y-117340D02*
X273694Y-118490D01*
X274132Y-117340D02*
X273694Y-118490D01*
X274132Y-117340D02*
X274132Y-118490D01*
X275172Y-117340D02*
X274461Y-117340D01*
X274461Y-118490D01*
X275172Y-118490D01*
X274461Y-117888D02*
X274899Y-117888D01*
X276267Y-118654D02*
X277034Y-117340D01*
X278835Y-117614D02*
X278780Y-117504D01*
X278671Y-117395D01*
X278561Y-117340D01*
X278342Y-117340D01*
X278233Y-117395D01*
X278123Y-117504D01*
X278069Y-117614D01*
X278014Y-117778D01*
X278014Y-118052D01*
X278069Y-118216D01*
X278123Y-118326D01*
X278233Y-118435D01*
X278342Y-118490D01*
X278561Y-118490D01*
X278671Y-118435D01*
X278780Y-118326D01*
X278835Y-118216D01*
X278835Y-118052D01*
X278561Y-118052D02*
X278835Y-118052D01*
X279810Y-117340D02*
X279098Y-117340D01*
X279098Y-118490D01*
X279810Y-118490D01*
X279098Y-117888D02*
X279536Y-117888D01*
X280001Y-117340D02*
X280001Y-118490D01*
X280001Y-117340D02*
X280494Y-117340D01*
X280658Y-117395D01*
X280713Y-117450D01*
X280768Y-117559D01*
X280768Y-117669D01*
X280713Y-117778D01*
X280658Y-117833D01*
X280494Y-117888D01*
X280001Y-117888D01*
X280385Y-117888D02*
X280768Y-118490D01*
X281025Y-117340D02*
X281025Y-118490D01*
X281025Y-117340D02*
X281518Y-117340D01*
X281682Y-117395D01*
X281737Y-117450D01*
X281792Y-117559D01*
X281792Y-117669D01*
X281737Y-117778D01*
X281682Y-117833D01*
X281518Y-117888D01*
X281025Y-117888D02*
X281518Y-117888D01*
X281682Y-117942D01*
X281737Y-117997D01*
X281792Y-118107D01*
X281792Y-118271D01*
X281737Y-118380D01*
X281682Y-118435D01*
X281518Y-118490D01*
X281025Y-118490D01*
X282761Y-117340D02*
X282049Y-117340D01*
X282049Y-118490D01*
X282761Y-118490D01*
X282049Y-117888D02*
X282487Y-117888D01*
X282952Y-117340D02*
X282952Y-118490D01*
X282952Y-117340D02*
X283445Y-117340D01*
X283609Y-117395D01*
X283664Y-117450D01*
X283719Y-117559D01*
X283719Y-117669D01*
X283664Y-117778D01*
X283609Y-117833D01*
X283445Y-117888D01*
X282952Y-117888D01*
X283336Y-117888D02*
X283719Y-118490D01*
X284880Y-117340D02*
X284880Y-118490D01*
X284880Y-117340D02*
X285591Y-117340D01*
X284880Y-117888D02*
X285318Y-117888D01*
X285723Y-117340D02*
X285723Y-118490D01*
X285964Y-117340D02*
X285964Y-118490D01*
X286621Y-118490D01*
X287458Y-117340D02*
X286747Y-117340D01*
X286747Y-118490D01*
X287458Y-118490D01*
X286747Y-117888D02*
X287185Y-117888D01*
X287705Y-117723D02*
X287650Y-117778D01*
X287705Y-117833D01*
X287759Y-117778D01*
X287705Y-117723D01*
X287705Y-118380D02*
X287650Y-118435D01*
X287705Y-118490D01*
X287759Y-118435D01*
X287705Y-118380D01*
X297020Y-129090D02*
X297020Y-130240D01*
X297020Y-129090D02*
X297513Y-129090D01*
X297677Y-129145D01*
X297732Y-129200D01*
X297787Y-129309D01*
X297787Y-129419D01*
X297732Y-129528D01*
X297677Y-129583D01*
X297513Y-129638D01*
X297020Y-129638D01*
X297403Y-129638D02*
X297787Y-130240D01*
X298756Y-129090D02*
X298044Y-129090D01*
X298044Y-130240D01*
X298756Y-130240D01*
X298044Y-129638D02*
X298482Y-129638D01*
X298947Y-129090D02*
X299385Y-130240D01*
X299823Y-129090D02*
X299385Y-130240D01*
X300026Y-129473D02*
X299971Y-129528D01*
X300026Y-129583D01*
X300081Y-129528D01*
X300026Y-129473D01*
X300026Y-130130D02*
X299971Y-130185D01*
X300026Y-130240D01*
X300081Y-130185D01*
X300026Y-130130D01*
X305268Y-126240D02*
X305089Y-126300D01*
X305030Y-126419D01*
X305030Y-126538D01*
X305089Y-126657D01*
X305208Y-126716D01*
X305446Y-126776D01*
X305625Y-126835D01*
X305744Y-126954D01*
X305803Y-127073D01*
X305803Y-127252D01*
X305744Y-127371D01*
X305684Y-127430D01*
X305506Y-127490D01*
X305268Y-127490D01*
X305089Y-127430D01*
X305030Y-127371D01*
X304970Y-127252D01*
X304970Y-127073D01*
X305030Y-126954D01*
X305149Y-126835D01*
X305327Y-126776D01*
X305565Y-126716D01*
X305684Y-126657D01*
X305744Y-126538D01*
X305744Y-126419D01*
X305684Y-126300D01*
X305506Y-126240D01*
X305268Y-126240D01*
X306083Y-127669D02*
X306916Y-126240D01*
X306999Y-126478D02*
X307118Y-126419D01*
X307297Y-126240D01*
X307297Y-127490D01*
X308511Y-126240D02*
X307916Y-127073D01*
X308808Y-127073D01*
X308511Y-126240D02*
X308511Y-127490D01*
X309029Y-127669D02*
X309862Y-126240D01*
X310005Y-126538D02*
X310005Y-126478D01*
X310064Y-126359D01*
X310124Y-126300D01*
X310243Y-126240D01*
X310481Y-126240D01*
X310600Y-126300D01*
X310659Y-126359D01*
X310719Y-126478D01*
X310719Y-126597D01*
X310659Y-126716D01*
X310540Y-126895D01*
X309945Y-127490D01*
X310778Y-127490D01*
X311415Y-126240D02*
X311237Y-126300D01*
X311118Y-126478D01*
X311058Y-126776D01*
X311058Y-126954D01*
X311118Y-127252D01*
X311237Y-127430D01*
X311415Y-127490D01*
X311534Y-127490D01*
X311713Y-127430D01*
X311832Y-127252D01*
X311891Y-126954D01*
X311891Y-126776D01*
X311832Y-126478D01*
X311713Y-126300D01*
X311534Y-126240D01*
X311415Y-126240D01*
X312230Y-126538D02*
X312230Y-126478D01*
X312290Y-126359D01*
X312349Y-126300D01*
X312468Y-126240D01*
X312706Y-126240D01*
X312825Y-126300D01*
X312885Y-126359D01*
X312944Y-126478D01*
X312944Y-126597D01*
X312885Y-126716D01*
X312766Y-126895D01*
X312171Y-127490D01*
X313004Y-127490D01*
X313879Y-126240D02*
X313284Y-127073D01*
X314176Y-127073D01*
X313879Y-126240D02*
X313879Y-127490D01*
X304970Y-123340D02*
X304970Y-124490D01*
X304970Y-123340D02*
X305353Y-123340D01*
X305518Y-123395D01*
X305627Y-123504D01*
X305682Y-123614D01*
X305737Y-123778D01*
X305737Y-124052D01*
X305682Y-124216D01*
X305627Y-124326D01*
X305518Y-124435D01*
X305353Y-124490D01*
X304970Y-124490D01*
X306870Y-124490D02*
X306432Y-123340D01*
X305994Y-124490D01*
X306158Y-124107D02*
X306706Y-124107D01*
X307521Y-123340D02*
X307521Y-124490D01*
X307138Y-123340D02*
X307905Y-123340D01*
X308753Y-123340D02*
X308042Y-123340D01*
X308042Y-124490D01*
X308753Y-124490D01*
X308042Y-123888D02*
X308480Y-123888D01*
X309000Y-123723D02*
X308945Y-123778D01*
X309000Y-123833D01*
X309054Y-123778D01*
X309000Y-123723D01*
X309000Y-124380D02*
X308945Y-124435D01*
X309000Y-124490D01*
X309054Y-124435D01*
X309000Y-124380D01*
X238653Y-108840D02*
X238653Y-109990D01*
X238270Y-108840D02*
X239037Y-108840D01*
X239173Y-108840D02*
X239173Y-109990D01*
X239798Y-108840D02*
X239798Y-109990D01*
X239414Y-108840D02*
X240181Y-108840D01*
X240318Y-108840D02*
X240318Y-109990D01*
X240975Y-109990D01*
X241812Y-108840D02*
X241101Y-108840D01*
X241101Y-109990D01*
X241812Y-109990D01*
X241101Y-109388D02*
X241539Y-109388D01*
X242059Y-109223D02*
X242004Y-109278D01*
X242059Y-109333D01*
X242113Y-109278D01*
X242059Y-109223D01*
X242059Y-109880D02*
X242004Y-109935D01*
X242059Y-109990D01*
X242113Y-109935D01*
X242059Y-109880D01*
X290270Y-108942D02*
X290763Y-108942D01*
X290927Y-108888D01*
X290982Y-108833D01*
X291037Y-108723D01*
X291037Y-108559D01*
X290982Y-108450D01*
X290927Y-108395D01*
X290763Y-108340D01*
X290270Y-108340D01*
X290270Y-109490D01*
X292170Y-109490D02*
X291732Y-108340D01*
X291294Y-109490D01*
X291458Y-109107D02*
X292006Y-109107D01*
X292438Y-108340D02*
X292438Y-109490D01*
X292438Y-108340D02*
X292931Y-108340D01*
X293095Y-108395D01*
X293150Y-108450D01*
X293205Y-108559D01*
X293205Y-108669D01*
X293150Y-108778D01*
X293095Y-108833D01*
X292931Y-108888D01*
X292438Y-108888D01*
X292821Y-108888D02*
X293205Y-109490D01*
X293845Y-108340D02*
X293845Y-109490D01*
X293462Y-108340D02*
X294228Y-108340D01*
X295269Y-108340D02*
X295269Y-109490D01*
X295269Y-108340D02*
X296035Y-109490D01*
X296035Y-108340D02*
X296035Y-109490D01*
X296353Y-108340D02*
X296353Y-109161D01*
X296408Y-109326D01*
X296517Y-109435D01*
X296681Y-109490D01*
X296791Y-109490D01*
X296955Y-109435D01*
X297065Y-109326D01*
X297119Y-109161D01*
X297119Y-108340D01*
X297437Y-108340D02*
X297437Y-109490D01*
X297437Y-108340D02*
X297875Y-109490D01*
X298313Y-108340D02*
X297875Y-109490D01*
X298313Y-108340D02*
X298313Y-109490D01*
X298641Y-108340D02*
X298641Y-109490D01*
X298641Y-108340D02*
X299134Y-108340D01*
X299298Y-108395D01*
X299353Y-108450D01*
X299408Y-108559D01*
X299408Y-108669D01*
X299353Y-108778D01*
X299298Y-108833D01*
X299134Y-108888D01*
X298641Y-108888D02*
X299134Y-108888D01*
X299298Y-108942D01*
X299353Y-108997D01*
X299408Y-109107D01*
X299408Y-109271D01*
X299353Y-109380D01*
X299298Y-109435D01*
X299134Y-109490D01*
X298641Y-109490D01*
X300377Y-108340D02*
X299665Y-108340D01*
X299665Y-109490D01*
X300377Y-109490D01*
X299665Y-108888D02*
X300103Y-108888D01*
X300569Y-108340D02*
X300569Y-109490D01*
X300569Y-108340D02*
X301061Y-108340D01*
X301226Y-108395D01*
X301280Y-108450D01*
X301335Y-108559D01*
X301335Y-108669D01*
X301280Y-108778D01*
X301226Y-108833D01*
X301061Y-108888D01*
X300569Y-108888D01*
X300952Y-108888D02*
X301335Y-109490D01*
X301647Y-108723D02*
X301592Y-108778D01*
X301647Y-108833D01*
X301702Y-108778D01*
X301647Y-108723D01*
X301647Y-109380D02*
X301592Y-109435D01*
X301647Y-109490D01*
X301702Y-109435D01*
X301647Y-109380D01*
D15*
X312970Y-130090D02*
X312970Y-129490D01*
X319090Y-110490D02*
X319090Y-110490D01*
X307970Y-130290D02*
X307970Y-129290D01*
X307810Y-132125D02*
X307810Y-130855D01*
X310350Y-132125D02*
X310350Y-130855D01*
X312890Y-132125D02*
X312890Y-130855D01*
X315430Y-132125D02*
X315430Y-130855D01*
X317970Y-130290D02*
X317970Y-129290D01*
X317970Y-132125D02*
X317970Y-130855D01*
X289270Y-110490D02*
X289270Y-107490D01*
X307810Y-131490D02*
X317970Y-131490D01*
X307970Y-129790D02*
X317970Y-129790D01*
X289270Y-110490D02*
X319090Y-110490D01*
X237270Y-114990D02*
X319090Y-114990D01*
X304503Y-131090D02*
X304170Y-131557D01*
X304670Y-131557D01*
X304503Y-131090D02*
X304503Y-131790D01*
X304993Y-131090D02*
X304893Y-131123D01*
X304827Y-131223D01*
X304793Y-131390D01*
X304793Y-131490D01*
X304827Y-131657D01*
X304893Y-131757D01*
X304993Y-131790D01*
X305060Y-131790D01*
X305160Y-131757D01*
X305226Y-131657D01*
X305260Y-131490D01*
X305260Y-131390D01*
X305226Y-131223D01*
X305160Y-131123D01*
X305060Y-131090D01*
X304993Y-131090D01*
X305616Y-131090D02*
X305516Y-131123D01*
X305450Y-131223D01*
X305416Y-131390D01*
X305416Y-131490D01*
X305450Y-131657D01*
X305516Y-131757D01*
X305616Y-131790D01*
X305683Y-131790D01*
X305783Y-131757D01*
X305850Y-131657D01*
X305883Y-131490D01*
X305883Y-131390D01*
X305850Y-131223D01*
X305783Y-131123D01*
X305683Y-131090D01*
X305616Y-131090D01*
X306040Y-131323D02*
X306040Y-131790D01*
X306040Y-131457D02*
X306140Y-131357D01*
X306206Y-131323D01*
X306306Y-131323D01*
X306373Y-131357D01*
X306406Y-131457D01*
X306406Y-131790D01*
X306406Y-131457D02*
X306506Y-131357D01*
X306573Y-131323D01*
X306673Y-131323D01*
X306739Y-131357D01*
X306773Y-131457D01*
X306773Y-131790D01*
X307059Y-131090D02*
X307093Y-131123D01*
X307126Y-131090D01*
X307093Y-131057D01*
X307059Y-131090D01*
X307093Y-131323D02*
X307093Y-131790D01*
X307249Y-131090D02*
X307249Y-131790D01*
X304270Y-129523D02*
X304337Y-129490D01*
X304437Y-129390D01*
X304437Y-130090D01*
X304983Y-129390D02*
X304883Y-129423D01*
X304817Y-129523D01*
X304783Y-129690D01*
X304783Y-129790D01*
X304817Y-129957D01*
X304883Y-130057D01*
X304983Y-130090D01*
X305050Y-130090D01*
X305150Y-130057D01*
X305216Y-129957D01*
X305250Y-129790D01*
X305250Y-129690D01*
X305216Y-129523D01*
X305150Y-129423D01*
X305050Y-129390D01*
X304983Y-129390D01*
X305406Y-129623D02*
X305406Y-130090D01*
X305406Y-129757D02*
X305506Y-129657D01*
X305573Y-129623D01*
X305673Y-129623D01*
X305740Y-129657D01*
X305773Y-129757D01*
X305773Y-130090D01*
X305773Y-129757D02*
X305873Y-129657D01*
X305940Y-129623D01*
X306040Y-129623D01*
X306106Y-129657D01*
X306140Y-129757D01*
X306140Y-130090D01*
X306360Y-129623D02*
X306360Y-130090D01*
X306360Y-129757D02*
X306460Y-129657D01*
X306526Y-129623D01*
X306626Y-129623D01*
X306693Y-129657D01*
X306726Y-129757D01*
X306726Y-130090D01*
X306726Y-129757D02*
X306826Y-129657D01*
X306893Y-129623D01*
X306993Y-129623D01*
X307059Y-129657D01*
X307093Y-129757D01*
X307093Y-130090D01*
D16*
X296270Y-132910D02*
X296270Y-128490D01*
X265270Y-132910D02*
X265270Y-116490D01*
X283270Y-128490D02*
X283270Y-122490D01*
X303770Y-132910D02*
X303770Y-122490D01*
X203270Y-132910D02*
X203270Y-107490D01*
X237270Y-132910D02*
X237270Y-107490D01*
X319090Y-132910D02*
X319090Y-107490D01*
X203270Y-132910D02*
X319090Y-132910D01*
X237270Y-128490D02*
X319090Y-128490D01*
X237270Y-122490D02*
X319090Y-122490D01*
X237270Y-116490D02*
X319090Y-116490D01*
X203270Y-107490D02*
X319090Y-107490D01*
X169230Y-132910D02*
X204790Y-132910D01*
X6670Y-137990D02*
X6670Y-132910D01*
X-56830Y-77665D02*
X-51750Y-77665D01*
X-56830Y-17340D02*
X-51750Y-17340D01*
X-56830Y42985D02*
X-51750Y42985D01*
X-51750Y-132910D02*
X319090Y-132910D01*
X-51750Y-132910D02*
X-51750Y98230D01*
X-56830Y-137990D02*
X324170Y-137990D01*
X-56830Y-137990D02*
X-56830Y103310D01*
X319090Y-132910D02*
X319090Y-102430D01*
X70170Y-137990D02*
X70170Y-132910D01*
X133670Y-137990D02*
X133670Y-132910D01*
X197170Y-137990D02*
X197170Y-132910D01*
X260670Y-137990D02*
X260670Y-132910D01*
X319090Y-77665D02*
X324170Y-77665D01*
X319090Y-17340D02*
X324170Y-17340D01*
X319090Y42985D02*
X324170Y42985D01*
X324170Y-137990D02*
X324170Y103310D01*
X319090Y-132910D02*
X319090Y98230D01*
X6670Y98230D02*
X6670Y103310D01*
X-56830Y103310D02*
X324170Y103310D01*
X-51750Y98230D02*
X319090Y98230D01*
X70170Y98230D02*
X70170Y103310D01*
X133670Y98230D02*
X133670Y103310D01*
X197170Y98230D02*
X197170Y103310D01*
X260670Y98230D02*
X260670Y103310D01*
D17*
X238651Y-125890D02*
X238651Y-126804D01*
X238270Y-126119D02*
X239032Y-126576D01*
X239032Y-126119D02*
X238270Y-126576D01*
X239740Y-125890D02*
X239740Y-126804D01*
X239359Y-126119D02*
X240121Y-126576D01*
X240121Y-126119D02*
X239359Y-126576D01*
X266727Y-125890D02*
X266499Y-125966D01*
X266346Y-126195D01*
X266270Y-126576D01*
X266270Y-126804D01*
X266346Y-127185D01*
X266499Y-127414D01*
X266727Y-127490D01*
X266879Y-127490D01*
X267108Y-127414D01*
X267260Y-127185D01*
X267336Y-126804D01*
X267336Y-126576D01*
X267260Y-126195D01*
X267108Y-125966D01*
X266879Y-125890D01*
X266727Y-125890D01*
X268456Y-125890D02*
X267694Y-126957D01*
X268837Y-126957D01*
X268456Y-125890D02*
X268456Y-127490D01*
X269119Y-126804D02*
X270490Y-126804D01*
X271343Y-125890D02*
X271343Y-126804D01*
X270962Y-126119D02*
X271724Y-126576D01*
X271724Y-126119D02*
X270962Y-126576D01*
X272432Y-125890D02*
X272432Y-126804D01*
X272052Y-126119D02*
X272813Y-126576D01*
X272813Y-126119D02*
X272052Y-126576D01*
D18*
X238865Y-111491D02*
X238865Y-112919D01*
X238270Y-111848D02*
X239460Y-112562D01*
X239460Y-111848D02*
X238270Y-112562D01*
X240567Y-111491D02*
X240567Y-112919D01*
X239972Y-111848D02*
X241162Y-112562D01*
X241162Y-111848D02*
X239972Y-112562D01*
M02*
