G04*
G04 #@! TF.GenerationSoftware,Altium Limited,Altium Designer,24.4.1 (13)*
G04*
G04 Layer_Color=2752767*
%FSLAX43Y43*%
%MOMM*%
G71*
G04*
G04 #@! TF.SameCoordinates,2DE5EF95-E663-491B-9A70-27DC17531A01*
G04*
G04*
G04 #@! TF.FilePolarity,Positive*
G04*
G01*
G75*
%ADD10C,0.200*%
%ADD13C,0.178*%
%ADD14C,0.150*%
%ADD15C,0.100*%
%ADD16C,0.127*%
%ADD17C,0.180*%
%ADD18C,0.350*%
%ADD47C,0.254*%
%ADD52C,0.381*%
%ADD53C,0.051*%
%ADD54C,0.406*%
G36*
X224613Y-109042D02*
X224697Y-109070D01*
X224810Y-109112D01*
X224909Y-109169D01*
X224994Y-109267D01*
X225050Y-109408D01*
X225078Y-109578D01*
X225078Y-109606D01*
X225064Y-109662D01*
X225050Y-109761D01*
X225008Y-109860D01*
X224951Y-109973D01*
X224852Y-110058D01*
X224711Y-110128D01*
X224528Y-110156D01*
X224486Y-110156D01*
X224443Y-110142D01*
X224387Y-110128D01*
X224246Y-110086D01*
X224175Y-110043D01*
X224105Y-109987D01*
X224105Y-109973D01*
X224076Y-109959D01*
X224020Y-109874D01*
X223964Y-109747D01*
X223949Y-109662D01*
X223935Y-109578D01*
X223935Y-109564D01*
X223935Y-109535D01*
X223949Y-109493D01*
X223964Y-109451D01*
X224020Y-109324D01*
X224062Y-109253D01*
X224119Y-109197D01*
X224133Y-109183D01*
X224147Y-109169D01*
X224232Y-109112D01*
X224359Y-109056D01*
X224443Y-109028D01*
X224556Y-109028D01*
X224613Y-109042D01*
X224613Y-109042D02*
G37*
G36*
X221001Y-108548D02*
X221113Y-108562D01*
X221255Y-108562D01*
X221396Y-108590D01*
X221720Y-108632D01*
X222073Y-108717D01*
X222426Y-108816D01*
X222778Y-108957D01*
X225939Y-113994D01*
X225939Y-114008D01*
X225939Y-114036D01*
X225925Y-114093D01*
X225925Y-114149D01*
X225911Y-114234D01*
X225897Y-114333D01*
X225854Y-114544D01*
X225854Y-114559D01*
X225840Y-114601D01*
X225826Y-114657D01*
X225812Y-114728D01*
X225784Y-114827D01*
X225756Y-114925D01*
X225685Y-115165D01*
X222934Y-110862D01*
X222919Y-110848D01*
X222905Y-110805D01*
X222849Y-110749D01*
X222792Y-110692D01*
X222722Y-110636D01*
X222637Y-110580D01*
X222553Y-110537D01*
X222440Y-110523D01*
X222397Y-110523D01*
X222355Y-110537D01*
X222299Y-110565D01*
X222228Y-110608D01*
X222143Y-110664D01*
X222073Y-110735D01*
X221988Y-110848D01*
X221071Y-112103D01*
X224302Y-117197D01*
X224288Y-117211D01*
X224232Y-117253D01*
X224147Y-117324D01*
X224034Y-117409D01*
X223879Y-117522D01*
X223695Y-117634D01*
X223498Y-117761D01*
X223258Y-117888D01*
X223004Y-118015D01*
X222708Y-118142D01*
X222412Y-118255D01*
X222073Y-118368D01*
X221720Y-118453D01*
X221353Y-118523D01*
X220972Y-118566D01*
X220563Y-118580D01*
X220464Y-118580D01*
X220352Y-118566D01*
X220196Y-118552D01*
X219999Y-118523D01*
X219773Y-118495D01*
X219533Y-118439D01*
X219251Y-118368D01*
X218969Y-118283D01*
X218658Y-118171D01*
X218334Y-118044D01*
X218009Y-117888D01*
X217685Y-117691D01*
X217360Y-117479D01*
X217050Y-117225D01*
X216739Y-116929D01*
X218108Y-115038D01*
X218122Y-115024D01*
X218136Y-114968D01*
X218165Y-114883D01*
X218179Y-114812D01*
X218193Y-114728D01*
X218193Y-114700D01*
X218179Y-114629D01*
X218136Y-114502D01*
X218052Y-114347D01*
X217036Y-112752D01*
X215526Y-114855D01*
X215526Y-114841D01*
X215512Y-114827D01*
X215498Y-114742D01*
X215470Y-114615D01*
X215441Y-114446D01*
X215399Y-114234D01*
X215371Y-114008D01*
X215357Y-113740D01*
X215343Y-113472D01*
X215343Y-113444D01*
X215343Y-113387D01*
X215357Y-113275D01*
X215371Y-113148D01*
X215385Y-112978D01*
X215413Y-112781D01*
X215470Y-112555D01*
X215526Y-112315D01*
X215597Y-112061D01*
X215695Y-111779D01*
X215822Y-111497D01*
X215949Y-111215D01*
X216119Y-110932D01*
X216316Y-110636D01*
X216542Y-110354D01*
X216796Y-110086D01*
X216810Y-110072D01*
X216866Y-110015D01*
X216951Y-109945D01*
X217078Y-109846D01*
X217233Y-109719D01*
X217417Y-109592D01*
X217628Y-109451D01*
X217868Y-109310D01*
X218136Y-109169D01*
X218433Y-109028D01*
X218757Y-108886D01*
X219096Y-108774D01*
X219463Y-108675D01*
X219858Y-108604D01*
X220267Y-108548D01*
X220704Y-108534D01*
X220902Y-108534D01*
X221001Y-108548D01*
X221001Y-108548D02*
G37*
G36*
X226249Y-120005D02*
X226320Y-120019D01*
X226376Y-120033D01*
X226390Y-120033D01*
X226419Y-120047D01*
X226517Y-120090D01*
X226574Y-120146D01*
X226616Y-120202D01*
X226659Y-120273D01*
X226687Y-120372D01*
X226687Y-120386D01*
X226701Y-120400D01*
X226701Y-120442D01*
X226715Y-120513D01*
X226715Y-120583D01*
X226729Y-120682D01*
X226729Y-120795D01*
X226729Y-120922D01*
X224838Y-120880D01*
X224824Y-120880D01*
X224768Y-120894D01*
X224697Y-120908D01*
X224627Y-120964D01*
X224542Y-121035D01*
X224472Y-121162D01*
X224443Y-121247D01*
X224415Y-121345D01*
X224401Y-121444D01*
X224401Y-121571D01*
X224401Y-121952D01*
X224401Y-121966D01*
X224401Y-121980D01*
X224415Y-122065D01*
X224429Y-122164D01*
X224457Y-122291D01*
X224500Y-122418D01*
X224584Y-122531D01*
X224683Y-122615D01*
X224754Y-122629D01*
X224824Y-122643D01*
X226757Y-122643D01*
X226757Y-122672D01*
X226757Y-122728D01*
X226757Y-122827D01*
X226743Y-122940D01*
X226729Y-123053D01*
X226715Y-123165D01*
X226687Y-123264D01*
X226644Y-123335D01*
X226644Y-123349D01*
X226616Y-123363D01*
X226574Y-123391D01*
X226517Y-123419D01*
X226433Y-123462D01*
X226320Y-123490D01*
X226179Y-123504D01*
X226009Y-123518D01*
X224599Y-123518D01*
X224486Y-123504D01*
X224345Y-123476D01*
X224203Y-123434D01*
X224048Y-123363D01*
X223921Y-123278D01*
X223822Y-123151D01*
X223822Y-123137D01*
X223794Y-123095D01*
X223766Y-123024D01*
X223738Y-122940D01*
X223710Y-122813D01*
X223681Y-122672D01*
X223667Y-122488D01*
X223653Y-122291D01*
X223653Y-121247D01*
X223653Y-121232D01*
X223653Y-121204D01*
X223653Y-121162D01*
X223667Y-121105D01*
X223681Y-120964D01*
X223710Y-120781D01*
X223752Y-120597D01*
X223837Y-120414D01*
X223935Y-120259D01*
X224006Y-120188D01*
X224076Y-120132D01*
X224091Y-120132D01*
X224119Y-120104D01*
X224161Y-120090D01*
X224232Y-120061D01*
X224316Y-120033D01*
X224429Y-120019D01*
X224556Y-119991D01*
X226080Y-119991D01*
X226249Y-120005D01*
X226249Y-120005D02*
G37*
G36*
X230172Y-123490D02*
X229452Y-123490D01*
X229452Y-122178D01*
X227886Y-122178D01*
X227886Y-123490D01*
X227209Y-123490D01*
X227209Y-120033D01*
X227886Y-120033D01*
X227886Y-121247D01*
X229452Y-121247D01*
X229452Y-120033D01*
X230172Y-120033D01*
X230172Y-123490D01*
X230172Y-123490D02*
G37*
G36*
X210475Y-118904D02*
X210545Y-118918D01*
X210630Y-118961D01*
X210700Y-119017D01*
X210771Y-119116D01*
X210842Y-119243D01*
X210870Y-119426D01*
X211335Y-123490D01*
X210461Y-123490D01*
X210221Y-120569D01*
X210207Y-120569D01*
X209318Y-122911D01*
X209318Y-122926D01*
X209290Y-122968D01*
X209247Y-123038D01*
X209191Y-123109D01*
X209120Y-123180D01*
X209036Y-123250D01*
X208937Y-123292D01*
X208810Y-123307D01*
X208753Y-123307D01*
X208683Y-123278D01*
X208598Y-123250D01*
X208499Y-123208D01*
X208415Y-123137D01*
X208344Y-123038D01*
X208274Y-122911D01*
X207385Y-120612D01*
X207371Y-120612D01*
X207117Y-123490D01*
X206270Y-123490D01*
X206707Y-119384D01*
X206707Y-119356D01*
X206722Y-119299D01*
X206750Y-119229D01*
X206792Y-119130D01*
X206849Y-119045D01*
X206933Y-118961D01*
X207046Y-118904D01*
X207173Y-118890D01*
X207244Y-118890D01*
X207328Y-118918D01*
X207427Y-118947D01*
X207526Y-119003D01*
X207639Y-119088D01*
X207723Y-119201D01*
X207808Y-119356D01*
X208796Y-121867D01*
X208810Y-121867D01*
X209797Y-119356D01*
X209812Y-119342D01*
X209826Y-119285D01*
X209882Y-119215D01*
X209939Y-119116D01*
X210023Y-119031D01*
X210136Y-118961D01*
X210263Y-118904D01*
X210418Y-118890D01*
X210432Y-118890D01*
X210475Y-118904D01*
X210475Y-118904D02*
G37*
G36*
X234306Y-120047D02*
X234419Y-120061D01*
X234546Y-120104D01*
X234687Y-120174D01*
X234814Y-120273D01*
X234927Y-120414D01*
X235011Y-120612D01*
X235011Y-120626D01*
X235026Y-120654D01*
X235026Y-120710D01*
X235040Y-120781D01*
X235054Y-120866D01*
X235054Y-120964D01*
X235068Y-121091D01*
X235068Y-121218D01*
X235068Y-121486D01*
X235068Y-121515D01*
X235068Y-121585D01*
X235054Y-121698D01*
X235040Y-121825D01*
X235011Y-121980D01*
X234983Y-122135D01*
X234927Y-122262D01*
X234856Y-122389D01*
X234856Y-122404D01*
X234828Y-122418D01*
X234786Y-122460D01*
X234743Y-122502D01*
X234673Y-122545D01*
X234588Y-122573D01*
X234504Y-122601D01*
X234391Y-122615D01*
X232669Y-122615D01*
X232669Y-123490D01*
X231964Y-123490D01*
X231964Y-120033D01*
X234235Y-120033D01*
X234306Y-120047D01*
X234306Y-120047D02*
G37*
G36*
X231498Y-123490D02*
X230680Y-123490D01*
X230680Y-120033D01*
X231498Y-120033D01*
X231498Y-123490D01*
X231498Y-123490D02*
G37*
G36*
X218997Y-120047D02*
X219110Y-120090D01*
X219237Y-120160D01*
X219293Y-120217D01*
X219364Y-120287D01*
X219420Y-120372D01*
X219463Y-120470D01*
X219519Y-120583D01*
X219547Y-120724D01*
X219561Y-120880D01*
X219575Y-121063D01*
X219575Y-121275D01*
X219575Y-121289D01*
X219575Y-121303D01*
X219575Y-121388D01*
X219561Y-121515D01*
X219533Y-121656D01*
X219477Y-121797D01*
X219406Y-121938D01*
X219307Y-122051D01*
X219180Y-122135D01*
X219180Y-122150D01*
X219195Y-122150D01*
X219237Y-122178D01*
X219307Y-122220D01*
X219378Y-122291D01*
X219448Y-122389D01*
X219519Y-122516D01*
X219561Y-122686D01*
X219575Y-122911D01*
X219575Y-123490D01*
X218842Y-123490D01*
X218842Y-123081D01*
X218842Y-123067D01*
X218842Y-123038D01*
X218842Y-122982D01*
X218842Y-122926D01*
X218828Y-122813D01*
X218828Y-122756D01*
X218814Y-122714D01*
X218799Y-122700D01*
X218757Y-122643D01*
X218687Y-122601D01*
X218560Y-122587D01*
X217276Y-122587D01*
X217276Y-123490D01*
X216542Y-123490D01*
X216542Y-120033D01*
X218912Y-120033D01*
X218997Y-120047D01*
X218997Y-120047D02*
G37*
G36*
X212577Y-123490D02*
X211773Y-123490D01*
X211773Y-120033D01*
X212577Y-120033D01*
X212577Y-123490D01*
X212577Y-123490D02*
G37*
G36*
X222426Y-120005D02*
X222553Y-120033D01*
X222680Y-120061D01*
X222821Y-120118D01*
X222934Y-120202D01*
X223032Y-120301D01*
X223046Y-120315D01*
X223075Y-120358D01*
X223103Y-120428D01*
X223145Y-120527D01*
X223188Y-120668D01*
X223230Y-120823D01*
X223244Y-121007D01*
X223258Y-121232D01*
X223258Y-122277D01*
X223258Y-122291D01*
X223258Y-122319D01*
X223258Y-122361D01*
X223244Y-122432D01*
X223230Y-122587D01*
X223202Y-122784D01*
X223131Y-122982D01*
X223046Y-123180D01*
X222919Y-123335D01*
X222835Y-123405D01*
X222750Y-123448D01*
X222736Y-123448D01*
X222708Y-123462D01*
X222665Y-123476D01*
X222609Y-123476D01*
X222538Y-123490D01*
X222454Y-123504D01*
X222228Y-123518D01*
X220958Y-123518D01*
X220845Y-123504D01*
X220718Y-123476D01*
X220577Y-123434D01*
X220436Y-123377D01*
X220309Y-123292D01*
X220196Y-123180D01*
X220182Y-123165D01*
X220168Y-123123D01*
X220140Y-123053D01*
X220112Y-122954D01*
X220069Y-122841D01*
X220041Y-122686D01*
X220027Y-122488D01*
X220013Y-122277D01*
X220013Y-121232D01*
X220013Y-121218D01*
X220013Y-121190D01*
X220013Y-121134D01*
X220027Y-121063D01*
X220041Y-120894D01*
X220083Y-120696D01*
X220154Y-120485D01*
X220267Y-120301D01*
X220337Y-120217D01*
X220408Y-120146D01*
X220507Y-120090D01*
X220605Y-120047D01*
X220620Y-120047D01*
X220634Y-120033D01*
X220676Y-120033D01*
X220732Y-120019D01*
X220874Y-120005D01*
X221057Y-119991D01*
X222327Y-119991D01*
X222426Y-120005D01*
X222426Y-120005D02*
G37*
G36*
X215357Y-120005D02*
X215526Y-120005D01*
X215681Y-120019D01*
X215808Y-120047D01*
X215851Y-120061D01*
X215879Y-120075D01*
X215893Y-120075D01*
X215907Y-120104D01*
X215935Y-120146D01*
X215977Y-120217D01*
X216020Y-120315D01*
X216048Y-120456D01*
X216062Y-120640D01*
X216076Y-120880D01*
X214171Y-120880D01*
X214087Y-120894D01*
X213988Y-120936D01*
X213889Y-121021D01*
X213875Y-121049D01*
X213861Y-121077D01*
X213833Y-121134D01*
X213819Y-121204D01*
X213790Y-121303D01*
X213776Y-121430D01*
X213776Y-121571D01*
X213776Y-121952D01*
X213776Y-121966D01*
X213776Y-122023D01*
X213776Y-122093D01*
X213790Y-122164D01*
X213805Y-122347D01*
X213819Y-122418D01*
X213833Y-122474D01*
X213847Y-122502D01*
X213903Y-122559D01*
X213960Y-122587D01*
X214016Y-122615D01*
X214101Y-122629D01*
X214186Y-122643D01*
X216119Y-122643D01*
X216119Y-122672D01*
X216119Y-122728D01*
X216119Y-122813D01*
X216104Y-122911D01*
X216076Y-123137D01*
X216048Y-123236D01*
X216020Y-123307D01*
X216020Y-123321D01*
X215992Y-123335D01*
X215949Y-123377D01*
X215893Y-123405D01*
X215794Y-123448D01*
X215681Y-123490D01*
X215540Y-123504D01*
X215371Y-123518D01*
X213974Y-123518D01*
X213875Y-123504D01*
X213748Y-123476D01*
X213607Y-123448D01*
X213466Y-123405D01*
X213339Y-123335D01*
X213240Y-123236D01*
X213226Y-123222D01*
X213212Y-123180D01*
X213170Y-123109D01*
X213127Y-123010D01*
X213085Y-122883D01*
X213057Y-122714D01*
X213029Y-122516D01*
X213014Y-122277D01*
X213014Y-121232D01*
X213014Y-121218D01*
X213014Y-121190D01*
X213014Y-121134D01*
X213029Y-121063D01*
X213057Y-120880D01*
X213099Y-120668D01*
X213184Y-120456D01*
X213311Y-120259D01*
X213395Y-120174D01*
X213494Y-120104D01*
X213593Y-120047D01*
X213720Y-120019D01*
X213748Y-120019D01*
X213819Y-120005D01*
X213932Y-119991D01*
X215187Y-119991D01*
X215357Y-120005D01*
X215357Y-120005D02*
G37*
%LPC*%
G36*
X224528Y-109126D02*
X224457Y-109126D01*
X224373Y-109155D01*
X224288Y-109183D01*
X224189Y-109239D01*
X224119Y-109310D01*
X224062Y-109423D01*
X224034Y-109578D01*
X224034Y-109592D01*
X224034Y-109606D01*
X224048Y-109691D01*
X224091Y-109804D01*
X224175Y-109931D01*
X224203Y-109959D01*
X224274Y-110001D01*
X224387Y-110043D01*
X224528Y-110072D01*
X224542Y-110072D01*
X224599Y-110058D01*
X224669Y-110043D01*
X224768Y-110015D01*
X224852Y-109945D01*
X224923Y-109860D01*
X224979Y-109747D01*
X224994Y-109578D01*
X224994Y-109564D01*
X224994Y-109507D01*
X224965Y-109437D01*
X224937Y-109352D01*
X224881Y-109267D01*
X224796Y-109197D01*
X224683Y-109140D01*
X224528Y-109126D01*
X224528Y-109126D02*
G37*
%LPD*%
G36*
X224655Y-109282D02*
X224726Y-109338D01*
X224754Y-109380D01*
X224768Y-109451D01*
X224768Y-109465D01*
X224768Y-109479D01*
X224754Y-109550D01*
X224697Y-109606D01*
X224655Y-109634D01*
X224599Y-109648D01*
X224782Y-109931D01*
X224669Y-109931D01*
X224500Y-109648D01*
X224387Y-109648D01*
X224387Y-109931D01*
X224288Y-109931D01*
X224288Y-109253D01*
X224570Y-109253D01*
X224655Y-109282D01*
X224655Y-109282D02*
G37*
%LPC*%
G36*
X224556Y-109352D02*
X224387Y-109352D01*
X224387Y-109564D01*
X224570Y-109564D01*
X224613Y-109550D01*
X224641Y-109521D01*
X224655Y-109451D01*
X224655Y-109437D01*
X224641Y-109394D01*
X224613Y-109366D01*
X224556Y-109352D01*
X224556Y-109352D02*
G37*
G36*
X218870Y-110509D02*
X218828Y-110509D01*
X218771Y-110523D01*
X218715Y-110551D01*
X218644Y-110594D01*
X218560Y-110650D01*
X218475Y-110721D01*
X218390Y-110834D01*
X217501Y-112089D01*
X220196Y-116365D01*
X220210Y-116379D01*
X220239Y-116421D01*
X220281Y-116492D01*
X220337Y-116548D01*
X220408Y-116619D01*
X220493Y-116689D01*
X220563Y-116731D01*
X220648Y-116746D01*
X220690Y-116746D01*
X220747Y-116731D01*
X220803Y-116703D01*
X220874Y-116675D01*
X220958Y-116633D01*
X221043Y-116562D01*
X221113Y-116463D01*
X222059Y-115109D01*
X219350Y-110848D01*
X219336Y-110834D01*
X219307Y-110791D01*
X219265Y-110735D01*
X219209Y-110678D01*
X219138Y-110622D01*
X219053Y-110565D01*
X218969Y-110523D01*
X218870Y-110509D01*
X218870Y-110509D02*
G37*
G36*
X234038Y-120866D02*
X232669Y-120866D01*
X232669Y-121740D01*
X234123Y-121740D01*
X234151Y-121726D01*
X234193Y-121698D01*
X234235Y-121656D01*
X234278Y-121585D01*
X234292Y-121501D01*
X234306Y-121388D01*
X234306Y-121247D01*
X234306Y-121232D01*
X234306Y-121190D01*
X234292Y-121120D01*
X234278Y-121049D01*
X234235Y-120993D01*
X234193Y-120922D01*
X234123Y-120880D01*
X234038Y-120866D01*
X234038Y-120866D02*
G37*
G36*
X218531Y-120866D02*
X217276Y-120866D01*
X217276Y-121726D01*
X218644Y-121726D01*
X218687Y-121712D01*
X218743Y-121684D01*
X218799Y-121642D01*
X218842Y-121571D01*
X218870Y-121486D01*
X218884Y-121359D01*
X218884Y-121247D01*
X218884Y-121232D01*
X218884Y-121190D01*
X218870Y-121120D01*
X218842Y-121049D01*
X218799Y-120993D01*
X218729Y-120922D01*
X218644Y-120880D01*
X218531Y-120866D01*
X218531Y-120866D02*
G37*
G36*
X222129Y-120866D02*
X221170Y-120866D01*
X221085Y-120880D01*
X220972Y-120936D01*
X220916Y-120964D01*
X220874Y-121021D01*
X220859Y-121049D01*
X220845Y-121091D01*
X220817Y-121148D01*
X220803Y-121218D01*
X220775Y-121317D01*
X220761Y-121430D01*
X220761Y-121571D01*
X220761Y-121952D01*
X220761Y-121966D01*
X220761Y-122023D01*
X220761Y-122079D01*
X220775Y-122164D01*
X220789Y-122347D01*
X220803Y-122432D01*
X220831Y-122502D01*
X220845Y-122531D01*
X220902Y-122573D01*
X221001Y-122615D01*
X221071Y-122643D01*
X222101Y-122643D01*
X222158Y-122629D01*
X222228Y-122601D01*
X222313Y-122559D01*
X222397Y-122474D01*
X222468Y-122347D01*
X222496Y-122277D01*
X222524Y-122178D01*
X222538Y-122079D01*
X222538Y-121952D01*
X222538Y-121571D01*
X222538Y-121557D01*
X222538Y-121501D01*
X222538Y-121444D01*
X222524Y-121359D01*
X222482Y-121176D01*
X222440Y-121091D01*
X222397Y-121021D01*
X222397Y-121007D01*
X222369Y-120993D01*
X222299Y-120936D01*
X222200Y-120894D01*
X222129Y-120866D01*
X222129Y-120866D02*
G37*
%LPD*%
D10*
X303544Y-108490D02*
X302770Y-108490D01*
X302770Y-109740D01*
X303544Y-109740D01*
X302770Y-109085D02*
X303246Y-109085D01*
X303752Y-108490D02*
X304228Y-109740D01*
X304704Y-108490D02*
X304228Y-109740D01*
X305162Y-108490D02*
X305162Y-109204D01*
X304865Y-108669D02*
X305460Y-109026D01*
X305460Y-108669D02*
X304865Y-109026D01*
X306013Y-108490D02*
X306013Y-109204D01*
X305716Y-108669D02*
X306311Y-109026D01*
X306311Y-108669D02*
X305716Y-109026D01*
D13*
X238651Y-119890D02*
X238651Y-120804D01*
X238270Y-120119D02*
X239032Y-120576D01*
X239032Y-120119D02*
X238270Y-120576D01*
X239740Y-119890D02*
X239740Y-120804D01*
X239359Y-120119D02*
X240121Y-120576D01*
X240121Y-120119D02*
X239359Y-120576D01*
X208540Y-130636D02*
X208455Y-130466D01*
X208286Y-130297D01*
X208117Y-130212D01*
X207778Y-130212D01*
X207609Y-130297D01*
X207439Y-130466D01*
X207355Y-130636D01*
X207270Y-130890D01*
X207270Y-131313D01*
X207355Y-131567D01*
X207439Y-131736D01*
X207609Y-131905D01*
X207778Y-131990D01*
X208117Y-131990D01*
X208286Y-131905D01*
X208455Y-131736D01*
X208540Y-131567D01*
X209039Y-130212D02*
X209039Y-131990D01*
X209039Y-131143D02*
X209293Y-130890D01*
X209462Y-130805D01*
X209716Y-130805D01*
X209886Y-130890D01*
X209970Y-131143D01*
X209970Y-131990D01*
X211452Y-130805D02*
X211452Y-131990D01*
X211452Y-131059D02*
X211282Y-130890D01*
X211113Y-130805D01*
X210859Y-130805D01*
X210690Y-130890D01*
X210521Y-131059D01*
X210436Y-131313D01*
X210436Y-131482D01*
X210521Y-131736D01*
X210690Y-131905D01*
X210859Y-131990D01*
X211113Y-131990D01*
X211282Y-131905D01*
X211452Y-131736D01*
X211926Y-130805D02*
X211926Y-131990D01*
X211926Y-131143D02*
X212180Y-130890D01*
X212349Y-130805D01*
X212603Y-130805D01*
X212772Y-130890D01*
X212857Y-131143D01*
X212857Y-131990D01*
X214338Y-130212D02*
X214338Y-131990D01*
X214338Y-131059D02*
X214169Y-130890D01*
X214000Y-130805D01*
X213746Y-130805D01*
X213576Y-130890D01*
X213407Y-131059D01*
X213322Y-131313D01*
X213322Y-131482D01*
X213407Y-131736D01*
X213576Y-131905D01*
X213746Y-131990D01*
X214000Y-131990D01*
X214169Y-131905D01*
X214338Y-131736D01*
X214812Y-130212D02*
X214812Y-131990D01*
X215185Y-131313D02*
X216200Y-131313D01*
X216200Y-131143D01*
X216116Y-130974D01*
X216031Y-130890D01*
X215862Y-130805D01*
X215608Y-130805D01*
X215439Y-130890D01*
X215269Y-131059D01*
X215185Y-131313D01*
X215185Y-131482D01*
X215269Y-131736D01*
X215439Y-131905D01*
X215608Y-131990D01*
X215862Y-131990D01*
X216031Y-131905D01*
X216200Y-131736D01*
X216581Y-130805D02*
X216581Y-131990D01*
X216581Y-131313D02*
X216666Y-131059D01*
X216835Y-130890D01*
X217005Y-130805D01*
X217259Y-130805D01*
X217589Y-131905D02*
X217504Y-131990D01*
X217419Y-131905D01*
X217504Y-131821D01*
X217589Y-131905D01*
X217589Y-132075D01*
X217504Y-132244D01*
X217419Y-132329D01*
X220729Y-131990D02*
X220052Y-130212D01*
X219375Y-131990D01*
X219629Y-131397D02*
X220475Y-131397D01*
X222329Y-130212D02*
X221144Y-131990D01*
X221144Y-130212D02*
X222329Y-130212D01*
X221144Y-131990D02*
X222329Y-131990D01*
X225943Y-130212D02*
X225690Y-130297D01*
X225605Y-130466D01*
X225605Y-130636D01*
X225690Y-130805D01*
X225859Y-130890D01*
X226197Y-130974D01*
X226451Y-131059D01*
X226621Y-131228D01*
X226705Y-131397D01*
X226705Y-131651D01*
X226621Y-131821D01*
X226536Y-131905D01*
X226282Y-131990D01*
X225943Y-131990D01*
X225690Y-131905D01*
X225605Y-131821D01*
X225520Y-131651D01*
X225520Y-131397D01*
X225605Y-131228D01*
X225774Y-131059D01*
X226028Y-130974D01*
X226367Y-130890D01*
X226536Y-130805D01*
X226621Y-130636D01*
X226621Y-130466D01*
X226536Y-130297D01*
X226282Y-130212D01*
X225943Y-130212D01*
X228119Y-130212D02*
X227272Y-130212D01*
X227188Y-130974D01*
X227272Y-130890D01*
X227526Y-130805D01*
X227780Y-130805D01*
X228034Y-130890D01*
X228204Y-131059D01*
X228288Y-131313D01*
X228288Y-131482D01*
X228204Y-131736D01*
X228034Y-131905D01*
X227780Y-131990D01*
X227526Y-131990D01*
X227272Y-131905D01*
X227188Y-131821D01*
X227103Y-131651D01*
X228771Y-130636D02*
X228771Y-130551D01*
X228855Y-130382D01*
X228940Y-130297D01*
X229109Y-130212D01*
X229448Y-130212D01*
X229617Y-130297D01*
X229702Y-130382D01*
X229787Y-130551D01*
X229787Y-130720D01*
X229702Y-130890D01*
X229533Y-131143D01*
X228686Y-131990D01*
X229871Y-131990D01*
X230354Y-130636D02*
X230354Y-130551D01*
X230438Y-130382D01*
X230523Y-130297D01*
X230692Y-130212D01*
X231031Y-130212D01*
X231200Y-130297D01*
X231285Y-130382D01*
X231369Y-130551D01*
X231369Y-130720D01*
X231285Y-130890D01*
X231116Y-131143D01*
X230269Y-131990D01*
X231454Y-131990D01*
X232698Y-130212D02*
X231852Y-131397D01*
X233122Y-131397D01*
X232698Y-130212D02*
X232698Y-131990D01*
X206355Y-128136D02*
X206355Y-128051D01*
X206439Y-127882D01*
X206524Y-127797D01*
X206693Y-127712D01*
X207032Y-127712D01*
X207201Y-127797D01*
X207286Y-127882D01*
X207370Y-128051D01*
X207370Y-128220D01*
X207286Y-128390D01*
X207117Y-128643D01*
X206270Y-129490D01*
X207455Y-129490D01*
X208022Y-127712D02*
X208953Y-127712D01*
X208445Y-128390D01*
X208699Y-128390D01*
X208869Y-128474D01*
X208953Y-128559D01*
X209038Y-128813D01*
X209038Y-128982D01*
X208953Y-129236D01*
X208784Y-129405D01*
X208530Y-129490D01*
X208276Y-129490D01*
X208022Y-129405D01*
X207938Y-129321D01*
X207853Y-129151D01*
X210452Y-127712D02*
X209605Y-127712D01*
X209521Y-128474D01*
X209605Y-128390D01*
X209859Y-128305D01*
X210113Y-128305D01*
X210367Y-128390D01*
X210536Y-128559D01*
X210621Y-128813D01*
X210621Y-128982D01*
X210536Y-129236D01*
X210367Y-129405D01*
X210113Y-129490D01*
X209859Y-129490D01*
X209605Y-129405D01*
X209521Y-129321D01*
X209436Y-129151D01*
X212035Y-127712D02*
X211188Y-127712D01*
X211103Y-128474D01*
X211188Y-128390D01*
X211442Y-128305D01*
X211696Y-128305D01*
X211950Y-128390D01*
X212119Y-128559D01*
X212204Y-128813D01*
X212204Y-128982D01*
X212119Y-129236D01*
X211950Y-129405D01*
X211696Y-129490D01*
X211442Y-129490D01*
X211188Y-129405D01*
X211103Y-129321D01*
X211019Y-129151D01*
X213998Y-127712D02*
X214422Y-129490D01*
X214845Y-127712D02*
X214422Y-129490D01*
X214845Y-127712D02*
X215268Y-129490D01*
X215691Y-127712D02*
X215268Y-129490D01*
X216132Y-129321D02*
X216047Y-129405D01*
X216132Y-129490D01*
X216216Y-129405D01*
X216132Y-129321D01*
X219272Y-128136D02*
X219187Y-127966D01*
X219018Y-127797D01*
X218849Y-127712D01*
X218510Y-127712D01*
X218341Y-127797D01*
X218172Y-127966D01*
X218087Y-128136D01*
X218002Y-128390D01*
X218002Y-128813D01*
X218087Y-129067D01*
X218172Y-129236D01*
X218341Y-129405D01*
X218510Y-129490D01*
X218849Y-129490D01*
X219018Y-129405D01*
X219187Y-129236D01*
X219272Y-129067D01*
X219771Y-127712D02*
X219771Y-129490D01*
X219771Y-128643D02*
X220025Y-128390D01*
X220195Y-128305D01*
X220449Y-128305D01*
X220618Y-128390D01*
X220703Y-128643D01*
X220703Y-129490D01*
X222184Y-128305D02*
X222184Y-129490D01*
X222184Y-128559D02*
X222015Y-128390D01*
X221845Y-128305D01*
X221591Y-128305D01*
X221422Y-128390D01*
X221253Y-128559D01*
X221168Y-128813D01*
X221168Y-128982D01*
X221253Y-129236D01*
X221422Y-129405D01*
X221591Y-129490D01*
X221845Y-129490D01*
X222015Y-129405D01*
X222184Y-129236D01*
X222658Y-128305D02*
X222658Y-129490D01*
X222658Y-128643D02*
X222912Y-128390D01*
X223081Y-128305D01*
X223335Y-128305D01*
X223504Y-128390D01*
X223589Y-128643D01*
X223589Y-129490D01*
X225070Y-127712D02*
X225070Y-129490D01*
X225070Y-128559D02*
X224901Y-128390D01*
X224732Y-128305D01*
X224478Y-128305D01*
X224309Y-128390D01*
X224139Y-128559D01*
X224055Y-128813D01*
X224055Y-128982D01*
X224139Y-129236D01*
X224309Y-129405D01*
X224478Y-129490D01*
X224732Y-129490D01*
X224901Y-129405D01*
X225070Y-129236D01*
X225544Y-127712D02*
X225544Y-129490D01*
X225917Y-128813D02*
X226933Y-128813D01*
X226933Y-128643D01*
X226848Y-128474D01*
X226763Y-128390D01*
X226594Y-128305D01*
X226340Y-128305D01*
X226171Y-128390D01*
X226002Y-128559D01*
X225917Y-128813D01*
X225917Y-128982D01*
X226002Y-129236D01*
X226171Y-129405D01*
X226340Y-129490D01*
X226594Y-129490D01*
X226763Y-129405D01*
X226933Y-129236D01*
X227314Y-128305D02*
X227314Y-129490D01*
X227314Y-128813D02*
X227398Y-128559D01*
X227568Y-128390D01*
X227737Y-128305D01*
X227991Y-128305D01*
X229548Y-127712D02*
X229548Y-129490D01*
X229548Y-127712D02*
X230310Y-127712D01*
X230564Y-127797D01*
X230649Y-127882D01*
X230733Y-128051D01*
X230733Y-128220D01*
X230649Y-128390D01*
X230564Y-128474D01*
X230310Y-128559D01*
X229548Y-128559D02*
X230310Y-128559D01*
X230564Y-128643D01*
X230649Y-128728D01*
X230733Y-128897D01*
X230733Y-129151D01*
X230649Y-129321D01*
X230564Y-129405D01*
X230310Y-129490D01*
X229548Y-129490D01*
X231131Y-127712D02*
X231131Y-129490D01*
X231504Y-128305D02*
X232012Y-129490D01*
X232520Y-128305D02*
X232012Y-129490D01*
X233823Y-127712D02*
X233823Y-129490D01*
X233823Y-128559D02*
X233654Y-128390D01*
X233485Y-128305D01*
X233231Y-128305D01*
X233061Y-128390D01*
X232892Y-128559D01*
X232807Y-128813D01*
X232807Y-128982D01*
X232892Y-129236D01*
X233061Y-129405D01*
X233231Y-129490D01*
X233485Y-129490D01*
X233654Y-129405D01*
X233823Y-129236D01*
X234382Y-129321D02*
X234297Y-129405D01*
X234382Y-129490D01*
X234466Y-129405D01*
X234382Y-129321D01*
X205040Y-124972D02*
X205040Y-126750D01*
X205040Y-124972D02*
X205717Y-126750D01*
X206394Y-124972D02*
X205717Y-126750D01*
X206394Y-124972D02*
X206394Y-126750D01*
X207072Y-124972D02*
X207156Y-125057D01*
X207241Y-124972D01*
X207156Y-124888D01*
X207072Y-124972D01*
X207156Y-125565D02*
X207156Y-126750D01*
X208570Y-125819D02*
X208401Y-125650D01*
X208231Y-125565D01*
X207977Y-125565D01*
X207808Y-125650D01*
X207639Y-125819D01*
X207554Y-126073D01*
X207554Y-126242D01*
X207639Y-126496D01*
X207808Y-126665D01*
X207977Y-126750D01*
X208231Y-126750D01*
X208401Y-126665D01*
X208570Y-126496D01*
X208951Y-125565D02*
X208951Y-126750D01*
X208951Y-126073D02*
X209035Y-125819D01*
X209205Y-125650D01*
X209374Y-125565D01*
X209628Y-125565D01*
X210212Y-125565D02*
X210043Y-125650D01*
X209873Y-125819D01*
X209789Y-126073D01*
X209789Y-126242D01*
X209873Y-126496D01*
X210043Y-126665D01*
X210212Y-126750D01*
X210466Y-126750D01*
X210635Y-126665D01*
X210805Y-126496D01*
X210889Y-126242D01*
X210889Y-126073D01*
X210805Y-125819D01*
X210635Y-125650D01*
X210466Y-125565D01*
X210212Y-125565D01*
X212294Y-125819D02*
X212125Y-125650D01*
X211956Y-125565D01*
X211702Y-125565D01*
X211533Y-125650D01*
X211363Y-125819D01*
X211279Y-126073D01*
X211279Y-126242D01*
X211363Y-126496D01*
X211533Y-126665D01*
X211702Y-126750D01*
X211956Y-126750D01*
X212125Y-126665D01*
X212294Y-126496D01*
X212675Y-124972D02*
X212675Y-126750D01*
X212675Y-125903D02*
X212929Y-125650D01*
X213099Y-125565D01*
X213353Y-125565D01*
X213522Y-125650D01*
X213606Y-125903D01*
X213606Y-126750D01*
X214241Y-124972D02*
X214326Y-125057D01*
X214411Y-124972D01*
X214326Y-124888D01*
X214241Y-124972D01*
X214326Y-125565D02*
X214326Y-126750D01*
X214724Y-125565D02*
X214724Y-127343D01*
X214724Y-125819D02*
X214893Y-125650D01*
X215062Y-125565D01*
X215316Y-125565D01*
X215486Y-125650D01*
X215655Y-125819D01*
X215740Y-126073D01*
X215740Y-126242D01*
X215655Y-126496D01*
X215486Y-126665D01*
X215316Y-126750D01*
X215062Y-126750D01*
X214893Y-126665D01*
X214724Y-126496D01*
X218110Y-124972D02*
X218110Y-126750D01*
X217517Y-124972D02*
X218702Y-124972D01*
X218914Y-126073D02*
X219930Y-126073D01*
X219930Y-125903D01*
X219845Y-125734D01*
X219760Y-125650D01*
X219591Y-125565D01*
X219337Y-125565D01*
X219168Y-125650D01*
X218999Y-125819D01*
X218914Y-126073D01*
X218914Y-126242D01*
X218999Y-126496D01*
X219168Y-126665D01*
X219337Y-126750D01*
X219591Y-126750D01*
X219760Y-126665D01*
X219930Y-126496D01*
X221326Y-125819D02*
X221157Y-125650D01*
X220988Y-125565D01*
X220734Y-125565D01*
X220565Y-125650D01*
X220395Y-125819D01*
X220311Y-126073D01*
X220311Y-126242D01*
X220395Y-126496D01*
X220565Y-126665D01*
X220734Y-126750D01*
X220988Y-126750D01*
X221157Y-126665D01*
X221326Y-126496D01*
X221707Y-124972D02*
X221707Y-126750D01*
X221707Y-125903D02*
X221961Y-125650D01*
X222131Y-125565D01*
X222385Y-125565D01*
X222554Y-125650D01*
X222638Y-125903D01*
X222638Y-126750D01*
X223104Y-125565D02*
X223104Y-126750D01*
X223104Y-125903D02*
X223358Y-125650D01*
X223527Y-125565D01*
X223781Y-125565D01*
X223951Y-125650D01*
X224035Y-125903D01*
X224035Y-126750D01*
X224924Y-125565D02*
X224755Y-125650D01*
X224585Y-125819D01*
X224501Y-126073D01*
X224501Y-126242D01*
X224585Y-126496D01*
X224755Y-126665D01*
X224924Y-126750D01*
X225178Y-126750D01*
X225347Y-126665D01*
X225516Y-126496D01*
X225601Y-126242D01*
X225601Y-126073D01*
X225516Y-125819D01*
X225347Y-125650D01*
X225178Y-125565D01*
X224924Y-125565D01*
X225991Y-124972D02*
X225991Y-126750D01*
X226786Y-125565D02*
X226617Y-125650D01*
X226448Y-125819D01*
X226363Y-126073D01*
X226363Y-126242D01*
X226448Y-126496D01*
X226617Y-126665D01*
X226786Y-126750D01*
X227040Y-126750D01*
X227209Y-126665D01*
X227379Y-126496D01*
X227463Y-126242D01*
X227463Y-126073D01*
X227379Y-125819D01*
X227209Y-125650D01*
X227040Y-125565D01*
X226786Y-125565D01*
X228869Y-125565D02*
X228869Y-126919D01*
X228784Y-127173D01*
X228699Y-127258D01*
X228530Y-127343D01*
X228276Y-127343D01*
X228107Y-127258D01*
X228869Y-125819D02*
X228699Y-125650D01*
X228530Y-125565D01*
X228276Y-125565D01*
X228107Y-125650D01*
X227937Y-125819D01*
X227853Y-126073D01*
X227853Y-126242D01*
X227937Y-126496D01*
X228107Y-126665D01*
X228276Y-126750D01*
X228530Y-126750D01*
X228699Y-126665D01*
X228869Y-126496D01*
X229427Y-125565D02*
X229935Y-126750D01*
X230443Y-125565D02*
X229935Y-126750D01*
X229766Y-127089D01*
X229597Y-127258D01*
X229427Y-127343D01*
X229343Y-127343D01*
X232136Y-124972D02*
X232136Y-126750D01*
X232508Y-125565D02*
X232508Y-126750D01*
X232508Y-125903D02*
X232762Y-125650D01*
X232932Y-125565D01*
X233186Y-125565D01*
X233355Y-125650D01*
X233440Y-125903D01*
X233440Y-126750D01*
X234921Y-125819D02*
X234752Y-125650D01*
X234582Y-125565D01*
X234328Y-125565D01*
X234159Y-125650D01*
X233990Y-125819D01*
X233905Y-126073D01*
X233905Y-126242D01*
X233990Y-126496D01*
X234159Y-126665D01*
X234328Y-126750D01*
X234582Y-126750D01*
X234752Y-126665D01*
X234921Y-126496D01*
X235387Y-126581D02*
X235302Y-126665D01*
X235387Y-126750D01*
X235471Y-126665D01*
X235387Y-126581D01*
X266330Y-120359D02*
X266270Y-120300D01*
X266330Y-120240D01*
X266389Y-120300D01*
X266389Y-120419D01*
X266330Y-120538D01*
X266270Y-120597D01*
X267020Y-120240D02*
X266841Y-120300D01*
X266722Y-120478D01*
X266663Y-120776D01*
X266663Y-120954D01*
X266722Y-121252D01*
X266841Y-121430D01*
X267020Y-121490D01*
X267139Y-121490D01*
X267317Y-121430D01*
X267436Y-121252D01*
X267496Y-120954D01*
X267496Y-120776D01*
X267436Y-120478D01*
X267317Y-120300D01*
X267139Y-120240D01*
X267020Y-120240D01*
X268371Y-120240D02*
X267776Y-121073D01*
X268668Y-121073D01*
X268371Y-120240D02*
X268371Y-121490D01*
X268889Y-120954D02*
X269960Y-120954D01*
X270329Y-121907D02*
X271281Y-121907D01*
X271442Y-121907D02*
X272394Y-121907D01*
X272554Y-120954D02*
X273626Y-120954D01*
X273995Y-120240D02*
X273995Y-121490D01*
X273995Y-120240D02*
X274530Y-120240D01*
X274709Y-120300D01*
X274768Y-120359D01*
X274828Y-120478D01*
X274828Y-120597D01*
X274768Y-120716D01*
X274709Y-120776D01*
X274530Y-120835D01*
X273995Y-120835D01*
X274411Y-120835D02*
X274828Y-121490D01*
X275107Y-120478D02*
X275226Y-120419D01*
X275405Y-120240D01*
X275405Y-121490D01*
X276083Y-121371D02*
X276024Y-121430D01*
X276083Y-121490D01*
X276143Y-121430D01*
X276083Y-121371D01*
X277309Y-120538D02*
X277250Y-120419D01*
X277131Y-120300D01*
X277012Y-120240D01*
X276774Y-120240D01*
X276655Y-120300D01*
X276536Y-120419D01*
X276476Y-120538D01*
X276417Y-120716D01*
X276417Y-121014D01*
X276476Y-121192D01*
X276536Y-121311D01*
X276655Y-121430D01*
X276774Y-121490D01*
X277012Y-121490D01*
X277131Y-121430D01*
X277250Y-121311D01*
X277309Y-121192D01*
X277309Y-121014D01*
X277012Y-121014D02*
X277309Y-121014D01*
X277595Y-120240D02*
X277595Y-121490D01*
X277595Y-120240D02*
X278012Y-120240D01*
X278190Y-120300D01*
X278309Y-120419D01*
X278369Y-120538D01*
X278428Y-120716D01*
X278428Y-121014D01*
X278369Y-121192D01*
X278309Y-121311D01*
X278190Y-121430D01*
X278012Y-121490D01*
X277595Y-121490D01*
X278708Y-120478D02*
X278827Y-120419D01*
X279005Y-120240D01*
X279005Y-121490D01*
X279684Y-120359D02*
X279624Y-120300D01*
X279684Y-120240D01*
X279743Y-120300D01*
X279743Y-120419D01*
X279684Y-120538D01*
X279624Y-120597D01*
X292852Y-134688D02*
X292767Y-134519D01*
X292513Y-134434D01*
X292344Y-134434D01*
X292090Y-134519D01*
X291920Y-134773D01*
X291836Y-135196D01*
X291836Y-135619D01*
X291920Y-135958D01*
X292090Y-136127D01*
X292344Y-136212D01*
X292428Y-136212D01*
X292682Y-136127D01*
X292852Y-135958D01*
X292936Y-135704D01*
X292936Y-135619D01*
X292852Y-135365D01*
X292682Y-135196D01*
X292428Y-135112D01*
X292344Y-135112D01*
X292090Y-135196D01*
X291920Y-135365D01*
X291836Y-135619D01*
X229225Y-134434D02*
X228378Y-134434D01*
X228293Y-135196D01*
X228378Y-135112D01*
X228632Y-135027D01*
X228886Y-135027D01*
X229140Y-135112D01*
X229309Y-135281D01*
X229394Y-135535D01*
X229394Y-135704D01*
X229309Y-135958D01*
X229140Y-136127D01*
X228886Y-136212D01*
X228632Y-136212D01*
X228378Y-136127D01*
X228293Y-136043D01*
X228209Y-135873D01*
X165581Y-134434D02*
X164734Y-135619D01*
X166004Y-135619D01*
X165581Y-134434D02*
X165581Y-136212D01*
X101234Y-134434D02*
X102166Y-134434D01*
X101658Y-135112D01*
X101912Y-135112D01*
X102081Y-135196D01*
X102166Y-135281D01*
X102250Y-135535D01*
X102250Y-135704D01*
X102166Y-135958D01*
X101996Y-136127D01*
X101742Y-136212D01*
X101488Y-136212D01*
X101234Y-136127D01*
X101150Y-136043D01*
X101065Y-135873D01*
X37920Y-134858D02*
X37920Y-134773D01*
X38005Y-134604D01*
X38090Y-134519D01*
X38259Y-134434D01*
X38598Y-134434D01*
X38767Y-134519D01*
X38852Y-134604D01*
X38936Y-134773D01*
X38936Y-134942D01*
X38852Y-135112D01*
X38682Y-135365D01*
X37836Y-136212D01*
X39021Y-136212D01*
X-25554Y-134773D02*
X-25385Y-134688D01*
X-25131Y-134434D01*
X-25131Y-136212D01*
X-54925Y-108222D02*
X-54925Y-109999D01*
X-54925Y-108222D02*
X-54332Y-108222D01*
X-54078Y-108306D01*
X-53909Y-108476D01*
X-53825Y-108645D01*
X-53740Y-108899D01*
X-53740Y-109322D01*
X-53825Y-109576D01*
X-53909Y-109745D01*
X-54078Y-109915D01*
X-54332Y-109999D01*
X-54925Y-109999D01*
X-53655Y-48447D02*
X-53740Y-48278D01*
X-53909Y-48108D01*
X-54078Y-48024D01*
X-54417Y-48024D01*
X-54586Y-48108D01*
X-54756Y-48278D01*
X-54840Y-48447D01*
X-54925Y-48701D01*
X-54925Y-49124D01*
X-54840Y-49378D01*
X-54756Y-49547D01*
X-54586Y-49717D01*
X-54417Y-49801D01*
X-54078Y-49801D01*
X-53909Y-49717D01*
X-53740Y-49547D01*
X-53655Y-49378D01*
X-54925Y12301D02*
X-54925Y10524D01*
X-54925Y12301D02*
X-54163Y12301D01*
X-53909Y12217D01*
X-53825Y12132D01*
X-53740Y11963D01*
X-53740Y11794D01*
X-53825Y11624D01*
X-53909Y11540D01*
X-54163Y11455D01*
X-54925Y11455D02*
X-54163Y11455D01*
X-53909Y11370D01*
X-53825Y11286D01*
X-53740Y11116D01*
X-53740Y10862D01*
X-53825Y10693D01*
X-53909Y10608D01*
X-54163Y10524D01*
X-54925Y10524D01*
X-53571Y70976D02*
X-54248Y72753D01*
X-54925Y70976D01*
X-54671Y71568D02*
X-53825Y71568D01*
X320995Y-108222D02*
X320995Y-109999D01*
X320995Y-108222D02*
X321588Y-108222D01*
X321842Y-108306D01*
X322011Y-108476D01*
X322095Y-108645D01*
X322180Y-108899D01*
X322180Y-109322D01*
X322095Y-109576D01*
X322011Y-109745D01*
X321842Y-109915D01*
X321588Y-109999D01*
X320995Y-109999D01*
X322265Y-48447D02*
X322180Y-48278D01*
X322011Y-48108D01*
X321842Y-48024D01*
X321503Y-48024D01*
X321334Y-48108D01*
X321164Y-48278D01*
X321080Y-48447D01*
X320995Y-48701D01*
X320995Y-49124D01*
X321080Y-49378D01*
X321164Y-49547D01*
X321334Y-49717D01*
X321503Y-49801D01*
X321842Y-49801D01*
X322011Y-49717D01*
X322180Y-49547D01*
X322265Y-49378D01*
X320995Y12301D02*
X320995Y10524D01*
X320995Y12301D02*
X321757Y12301D01*
X322011Y12217D01*
X322095Y12132D01*
X322180Y11963D01*
X322180Y11794D01*
X322095Y11624D01*
X322011Y11540D01*
X321757Y11455D01*
X320995Y11455D02*
X321757Y11455D01*
X322011Y11370D01*
X322095Y11286D01*
X322180Y11116D01*
X322180Y10862D01*
X322095Y10693D01*
X322011Y10608D01*
X321757Y10524D01*
X320995Y10524D01*
X322349Y70976D02*
X321672Y72753D01*
X320995Y70976D01*
X321249Y71568D02*
X322095Y71568D01*
X292852Y101532D02*
X292767Y101701D01*
X292513Y101786D01*
X292344Y101786D01*
X292090Y101701D01*
X291920Y101447D01*
X291836Y101024D01*
X291836Y100601D01*
X291920Y100262D01*
X292090Y100093D01*
X292344Y100008D01*
X292428Y100008D01*
X292682Y100093D01*
X292852Y100262D01*
X292936Y100516D01*
X292936Y100601D01*
X292852Y100855D01*
X292682Y101024D01*
X292428Y101108D01*
X292344Y101108D01*
X292090Y101024D01*
X291920Y100855D01*
X291836Y100601D01*
X229225Y101786D02*
X228378Y101786D01*
X228293Y101024D01*
X228378Y101108D01*
X228632Y101193D01*
X228886Y101193D01*
X229140Y101108D01*
X229309Y100939D01*
X229394Y100685D01*
X229394Y100516D01*
X229309Y100262D01*
X229140Y100093D01*
X228886Y100008D01*
X228632Y100008D01*
X228378Y100093D01*
X228293Y100177D01*
X228209Y100347D01*
X165581Y101786D02*
X164734Y100601D01*
X166004Y100601D01*
X165581Y101786D02*
X165581Y100008D01*
X101234Y101786D02*
X102166Y101786D01*
X101658Y101108D01*
X101912Y101108D01*
X102081Y101024D01*
X102166Y100939D01*
X102250Y100685D01*
X102250Y100516D01*
X102166Y100262D01*
X101996Y100093D01*
X101742Y100008D01*
X101488Y100008D01*
X101234Y100093D01*
X101150Y100177D01*
X101065Y100347D01*
X37920Y101362D02*
X37920Y101447D01*
X38005Y101616D01*
X38090Y101701D01*
X38259Y101786D01*
X38598Y101786D01*
X38767Y101701D01*
X38852Y101616D01*
X38936Y101447D01*
X38936Y101278D01*
X38852Y101108D01*
X38682Y100855D01*
X37836Y100008D01*
X39021Y100008D01*
X-25554Y101447D02*
X-25385Y101532D01*
X-25131Y101786D01*
X-25131Y100008D01*
X300948Y-131051D02*
X301067Y-130991D01*
X301245Y-130813D01*
X301245Y-132062D01*
D14*
X266270Y-128840D02*
X266270Y-129990D01*
X266927Y-129990D01*
X267929Y-129990D02*
X267491Y-128840D01*
X267053Y-129990D01*
X267217Y-129607D02*
X267765Y-129607D01*
X268197Y-128840D02*
X268635Y-129388D01*
X268635Y-129990D01*
X269073Y-128840D02*
X268635Y-129388D01*
X269933Y-128840D02*
X269221Y-128840D01*
X269221Y-129990D01*
X269933Y-129990D01*
X269221Y-129388D02*
X269659Y-129388D01*
X270124Y-128840D02*
X270124Y-129990D01*
X270124Y-128840D02*
X270617Y-128840D01*
X270781Y-128895D01*
X270836Y-128950D01*
X270891Y-129059D01*
X270891Y-129169D01*
X270836Y-129278D01*
X270781Y-129333D01*
X270617Y-129388D01*
X270124Y-129388D01*
X270508Y-129388D02*
X270891Y-129990D01*
X272052Y-128840D02*
X272052Y-129990D01*
X272052Y-128840D02*
X272818Y-129990D01*
X272818Y-128840D02*
X272818Y-129990D01*
X274012Y-129990D02*
X273574Y-128840D01*
X273136Y-129990D01*
X273300Y-129607D02*
X273847Y-129607D01*
X274280Y-128840D02*
X274280Y-129990D01*
X274280Y-128840D02*
X274718Y-129990D01*
X275156Y-128840D02*
X274718Y-129990D01*
X275156Y-128840D02*
X275156Y-129990D01*
X276196Y-128840D02*
X275484Y-128840D01*
X275484Y-129990D01*
X276196Y-129990D01*
X275484Y-129388D02*
X275922Y-129388D01*
X276443Y-129223D02*
X276388Y-129278D01*
X276443Y-129333D01*
X276497Y-129278D01*
X276443Y-129223D01*
X276443Y-129880D02*
X276388Y-129935D01*
X276443Y-129990D01*
X276497Y-129935D01*
X276443Y-129880D01*
X238270Y-129692D02*
X238763Y-129692D01*
X238927Y-129638D01*
X238982Y-129583D01*
X239037Y-129473D01*
X239037Y-129309D01*
X238982Y-129200D01*
X238927Y-129145D01*
X238763Y-129090D01*
X238270Y-129090D01*
X238270Y-130240D01*
X240115Y-129364D02*
X240060Y-129254D01*
X239951Y-129145D01*
X239841Y-129090D01*
X239622Y-129090D01*
X239513Y-129145D01*
X239403Y-129254D01*
X239349Y-129364D01*
X239294Y-129528D01*
X239294Y-129802D01*
X239349Y-129966D01*
X239403Y-130076D01*
X239513Y-130185D01*
X239622Y-130240D01*
X239841Y-130240D01*
X239951Y-130185D01*
X240060Y-130076D01*
X240115Y-129966D01*
X240438Y-129090D02*
X240438Y-130240D01*
X240438Y-129090D02*
X240931Y-129090D01*
X241095Y-129145D01*
X241150Y-129200D01*
X241205Y-129309D01*
X241205Y-129419D01*
X241150Y-129528D01*
X241095Y-129583D01*
X240931Y-129638D01*
X240438Y-129638D02*
X240931Y-129638D01*
X241095Y-129692D01*
X241150Y-129747D01*
X241205Y-129857D01*
X241205Y-130021D01*
X241150Y-130130D01*
X241095Y-130185D01*
X240931Y-130240D01*
X240438Y-130240D01*
X242365Y-129090D02*
X242365Y-130240D01*
X242365Y-129090D02*
X243077Y-129090D01*
X242365Y-129638D02*
X242803Y-129638D01*
X243208Y-129090D02*
X243208Y-130240D01*
X243449Y-129090D02*
X243449Y-130240D01*
X244106Y-130240D01*
X244944Y-129090D02*
X244232Y-129090D01*
X244232Y-130240D01*
X244944Y-130240D01*
X244232Y-129638D02*
X244670Y-129638D01*
X246039Y-129090D02*
X246039Y-130240D01*
X246039Y-129090D02*
X246806Y-130240D01*
X246806Y-129090D02*
X246806Y-130240D01*
X247999Y-130240D02*
X247561Y-129090D01*
X247123Y-130240D01*
X247287Y-129857D02*
X247835Y-129857D01*
X248267Y-129090D02*
X248267Y-130240D01*
X248267Y-129090D02*
X248705Y-130240D01*
X249143Y-129090D02*
X248705Y-130240D01*
X249143Y-129090D02*
X249143Y-130240D01*
X250184Y-129090D02*
X249472Y-129090D01*
X249472Y-130240D01*
X250184Y-130240D01*
X249472Y-129638D02*
X249910Y-129638D01*
X250430Y-129473D02*
X250375Y-129528D01*
X250430Y-129583D01*
X250485Y-129528D01*
X250430Y-129473D01*
X250430Y-130130D02*
X250375Y-130185D01*
X250430Y-130240D01*
X250485Y-130185D01*
X250430Y-130130D01*
X238270Y-131240D02*
X238270Y-132240D01*
X238270Y-131240D02*
X238699Y-131240D01*
X238841Y-131288D01*
X238889Y-131335D01*
X238937Y-131431D01*
X238937Y-131526D01*
X238889Y-131621D01*
X238841Y-131669D01*
X238699Y-131716D01*
X238270Y-131716D01*
X238603Y-131716D02*
X238937Y-132240D01*
X239160Y-131240D02*
X239160Y-132240D01*
X239732Y-132240D01*
X240555Y-131478D02*
X240508Y-131383D01*
X240412Y-131288D01*
X240317Y-131240D01*
X240127Y-131240D01*
X240032Y-131288D01*
X239936Y-131383D01*
X239889Y-131478D01*
X239841Y-131621D01*
X239841Y-131859D01*
X239889Y-132002D01*
X239936Y-132097D01*
X240032Y-132192D01*
X240127Y-132240D01*
X240317Y-132240D01*
X240412Y-132192D01*
X240508Y-132097D01*
X240555Y-132002D01*
X240836Y-132573D02*
X241598Y-132573D01*
X241726Y-131240D02*
X241726Y-132240D01*
X241726Y-131240D02*
X242107Y-132240D01*
X242488Y-131240D02*
X242107Y-132240D01*
X242488Y-131240D02*
X242488Y-132240D01*
X242774Y-131859D02*
X243345Y-131859D01*
X243345Y-131764D01*
X243298Y-131669D01*
X243250Y-131621D01*
X243155Y-131573D01*
X243012Y-131573D01*
X242917Y-131621D01*
X242821Y-131716D01*
X242774Y-131859D01*
X242774Y-131954D01*
X242821Y-132097D01*
X242917Y-132192D01*
X243012Y-132240D01*
X243155Y-132240D01*
X243250Y-132192D01*
X243345Y-132097D01*
X243702Y-131240D02*
X243702Y-132050D01*
X243750Y-132192D01*
X243845Y-132240D01*
X243940Y-132240D01*
X243559Y-131573D02*
X243893Y-131573D01*
X244083Y-131859D02*
X244654Y-131859D01*
X244654Y-131764D01*
X244607Y-131669D01*
X244559Y-131621D01*
X244464Y-131573D01*
X244321Y-131573D01*
X244226Y-131621D01*
X244131Y-131716D01*
X244083Y-131859D01*
X244083Y-131954D01*
X244131Y-132097D01*
X244226Y-132192D01*
X244321Y-132240D01*
X244464Y-132240D01*
X244559Y-132192D01*
X244654Y-132097D01*
X244869Y-131573D02*
X244869Y-132240D01*
X244869Y-131859D02*
X244916Y-131716D01*
X245011Y-131621D01*
X245107Y-131573D01*
X245249Y-131573D01*
X245340Y-132573D02*
X246102Y-132573D01*
X246230Y-131240D02*
X246611Y-132240D01*
X246992Y-131240D02*
X246611Y-132240D01*
X247168Y-131478D02*
X247168Y-131431D01*
X247216Y-131335D01*
X247263Y-131288D01*
X247359Y-131240D01*
X247549Y-131240D01*
X247644Y-131288D01*
X247692Y-131335D01*
X247739Y-131431D01*
X247739Y-131526D01*
X247692Y-131621D01*
X247597Y-131764D01*
X247120Y-132240D01*
X247787Y-132240D01*
X248058Y-132145D02*
X248011Y-132192D01*
X248058Y-132240D01*
X248106Y-132192D01*
X248058Y-132145D01*
X248325Y-131764D02*
X248753Y-131764D01*
X248896Y-131716D01*
X248944Y-131669D01*
X248992Y-131573D01*
X248992Y-131431D01*
X248944Y-131335D01*
X248896Y-131288D01*
X248753Y-131240D01*
X248325Y-131240D01*
X248325Y-132240D01*
X249787Y-131716D02*
X249691Y-131621D01*
X249596Y-131573D01*
X249453Y-131573D01*
X249358Y-131621D01*
X249263Y-131716D01*
X249215Y-131859D01*
X249215Y-131954D01*
X249263Y-132097D01*
X249358Y-132192D01*
X249453Y-132240D01*
X249596Y-132240D01*
X249691Y-132192D01*
X249787Y-132097D01*
X250001Y-131240D02*
X250001Y-132240D01*
X250001Y-131716D02*
X250096Y-131621D01*
X250191Y-131573D01*
X250334Y-131573D01*
X250429Y-131621D01*
X250525Y-131716D01*
X250572Y-131859D01*
X250572Y-131954D01*
X250525Y-132097D01*
X250429Y-132192D01*
X250334Y-132240D01*
X250191Y-132240D01*
X250096Y-132192D01*
X250001Y-132097D01*
X250786Y-131240D02*
X250786Y-132240D01*
X250786Y-131240D02*
X251120Y-131240D01*
X251262Y-131288D01*
X251358Y-131383D01*
X251405Y-131478D01*
X251453Y-131621D01*
X251453Y-131859D01*
X251405Y-132002D01*
X251358Y-132097D01*
X251262Y-132192D01*
X251120Y-132240D01*
X250786Y-132240D01*
X251915Y-131573D02*
X251819Y-131621D01*
X251724Y-131716D01*
X251677Y-131859D01*
X251677Y-131954D01*
X251724Y-132097D01*
X251819Y-132192D01*
X251915Y-132240D01*
X252058Y-132240D01*
X252153Y-132192D01*
X252248Y-132097D01*
X252296Y-131954D01*
X252296Y-131859D01*
X252248Y-131716D01*
X252153Y-131621D01*
X252058Y-131573D01*
X251915Y-131573D01*
X253086Y-131716D02*
X252991Y-131621D01*
X252895Y-131573D01*
X252753Y-131573D01*
X252657Y-131621D01*
X252562Y-131716D01*
X252515Y-131859D01*
X252515Y-131954D01*
X252562Y-132097D01*
X252657Y-132192D01*
X252753Y-132240D01*
X252895Y-132240D01*
X252991Y-132192D01*
X253086Y-132097D01*
X238270Y-117942D02*
X238763Y-117942D01*
X238927Y-117888D01*
X238982Y-117833D01*
X239037Y-117723D01*
X239037Y-117559D01*
X238982Y-117450D01*
X238927Y-117395D01*
X238763Y-117340D01*
X238270Y-117340D01*
X238270Y-118490D01*
X240115Y-117614D02*
X240060Y-117504D01*
X239951Y-117395D01*
X239841Y-117340D01*
X239622Y-117340D01*
X239513Y-117395D01*
X239403Y-117504D01*
X239349Y-117614D01*
X239294Y-117778D01*
X239294Y-118052D01*
X239349Y-118216D01*
X239403Y-118326D01*
X239513Y-118435D01*
X239622Y-118490D01*
X239841Y-118490D01*
X239951Y-118435D01*
X240060Y-118326D01*
X240115Y-118216D01*
X240438Y-117340D02*
X240438Y-118490D01*
X240438Y-117340D02*
X240931Y-117340D01*
X241095Y-117395D01*
X241150Y-117450D01*
X241205Y-117559D01*
X241205Y-117669D01*
X241150Y-117778D01*
X241095Y-117833D01*
X240931Y-117888D01*
X240438Y-117888D02*
X240931Y-117888D01*
X241095Y-117942D01*
X241150Y-117997D01*
X241205Y-118107D01*
X241205Y-118271D01*
X241150Y-118380D01*
X241095Y-118435D01*
X240931Y-118490D01*
X240438Y-118490D01*
X242365Y-117340D02*
X242365Y-118490D01*
X243022Y-118490D01*
X243805Y-117723D02*
X243805Y-118490D01*
X243805Y-117888D02*
X243696Y-117778D01*
X243586Y-117723D01*
X243422Y-117723D01*
X243313Y-117778D01*
X243203Y-117888D01*
X243148Y-118052D01*
X243148Y-118161D01*
X243203Y-118326D01*
X243313Y-118435D01*
X243422Y-118490D01*
X243586Y-118490D01*
X243696Y-118435D01*
X243805Y-118326D01*
X244167Y-117723D02*
X244495Y-118490D01*
X244824Y-117723D02*
X244495Y-118490D01*
X244386Y-118709D01*
X244276Y-118818D01*
X244167Y-118873D01*
X244112Y-118873D01*
X245289Y-117723D02*
X245179Y-117778D01*
X245070Y-117888D01*
X245015Y-118052D01*
X245015Y-118161D01*
X245070Y-118326D01*
X245179Y-118435D01*
X245289Y-118490D01*
X245453Y-118490D01*
X245563Y-118435D01*
X245672Y-118326D01*
X245727Y-118161D01*
X245727Y-118052D01*
X245672Y-117888D01*
X245563Y-117778D01*
X245453Y-117723D01*
X245289Y-117723D01*
X245979Y-117723D02*
X245979Y-118271D01*
X246034Y-118435D01*
X246143Y-118490D01*
X246307Y-118490D01*
X246417Y-118435D01*
X246581Y-118271D01*
X246581Y-117723D02*
X246581Y-118490D01*
X247046Y-117340D02*
X247046Y-118271D01*
X247101Y-118435D01*
X247211Y-118490D01*
X247320Y-118490D01*
X246882Y-117723D02*
X247265Y-117723D01*
X249209Y-117614D02*
X249154Y-117504D01*
X249045Y-117395D01*
X248935Y-117340D01*
X248716Y-117340D01*
X248607Y-117395D01*
X248497Y-117504D01*
X248443Y-117614D01*
X248388Y-117778D01*
X248388Y-118052D01*
X248443Y-118216D01*
X248497Y-118326D01*
X248607Y-118435D01*
X248716Y-118490D01*
X248935Y-118490D01*
X249045Y-118435D01*
X249154Y-118326D01*
X249209Y-118216D01*
X249806Y-117723D02*
X249696Y-117778D01*
X249587Y-117888D01*
X249532Y-118052D01*
X249532Y-118161D01*
X249587Y-118326D01*
X249696Y-118435D01*
X249806Y-118490D01*
X249970Y-118490D01*
X250080Y-118435D01*
X250189Y-118326D01*
X250244Y-118161D01*
X250244Y-118052D01*
X250189Y-117888D01*
X250080Y-117778D01*
X249970Y-117723D01*
X249806Y-117723D01*
X250496Y-117723D02*
X250496Y-118490D01*
X250496Y-117942D02*
X250660Y-117778D01*
X250769Y-117723D01*
X250934Y-117723D01*
X251043Y-117778D01*
X251098Y-117942D01*
X251098Y-118490D01*
X251563Y-117340D02*
X251563Y-118271D01*
X251618Y-118435D01*
X251728Y-118490D01*
X251837Y-118490D01*
X251399Y-117723D02*
X251782Y-117723D01*
X252658Y-117723D02*
X252658Y-118490D01*
X252658Y-117888D02*
X252549Y-117778D01*
X252439Y-117723D01*
X252275Y-117723D01*
X252166Y-117778D01*
X252056Y-117888D01*
X252001Y-118052D01*
X252001Y-118161D01*
X252056Y-118326D01*
X252166Y-118435D01*
X252275Y-118490D01*
X252439Y-118490D01*
X252549Y-118435D01*
X252658Y-118326D01*
X253622Y-117888D02*
X253512Y-117778D01*
X253403Y-117723D01*
X253239Y-117723D01*
X253129Y-117778D01*
X253020Y-117888D01*
X252965Y-118052D01*
X252965Y-118161D01*
X253020Y-118326D01*
X253129Y-118435D01*
X253239Y-118490D01*
X253403Y-118490D01*
X253512Y-118435D01*
X253622Y-118326D01*
X254033Y-117340D02*
X254033Y-118271D01*
X254087Y-118435D01*
X254197Y-118490D01*
X254306Y-118490D01*
X253868Y-117723D02*
X254252Y-117723D01*
X254525Y-117723D02*
X254471Y-117778D01*
X254525Y-117833D01*
X254580Y-117778D01*
X254525Y-117723D01*
X254525Y-118380D02*
X254471Y-118435D01*
X254525Y-118490D01*
X254580Y-118435D01*
X254525Y-118380D01*
X238270Y-123942D02*
X238763Y-123942D01*
X238927Y-123888D01*
X238982Y-123833D01*
X239037Y-123723D01*
X239037Y-123559D01*
X238982Y-123450D01*
X238927Y-123395D01*
X238763Y-123340D01*
X238270Y-123340D01*
X238270Y-124490D01*
X239294Y-123723D02*
X239294Y-124490D01*
X239294Y-124052D02*
X239349Y-123888D01*
X239458Y-123778D01*
X239568Y-123723D01*
X239732Y-123723D01*
X240110Y-123723D02*
X240000Y-123778D01*
X239891Y-123888D01*
X239836Y-124052D01*
X239836Y-124161D01*
X239891Y-124326D01*
X240000Y-124435D01*
X240110Y-124490D01*
X240274Y-124490D01*
X240383Y-124435D01*
X240493Y-124326D01*
X240548Y-124161D01*
X240548Y-124052D01*
X240493Y-123888D01*
X240383Y-123778D01*
X240274Y-123723D01*
X240110Y-123723D01*
X241018Y-123340D02*
X241073Y-123395D01*
X241128Y-123340D01*
X241073Y-123285D01*
X241018Y-123340D01*
X241073Y-123723D02*
X241073Y-124654D01*
X241018Y-124818D01*
X240909Y-124873D01*
X240799Y-124873D01*
X241342Y-124052D02*
X241999Y-124052D01*
X241999Y-123942D01*
X241944Y-123833D01*
X241889Y-123778D01*
X241779Y-123723D01*
X241615Y-123723D01*
X241506Y-123778D01*
X241396Y-123888D01*
X241342Y-124052D01*
X241342Y-124161D01*
X241396Y-124326D01*
X241506Y-124435D01*
X241615Y-124490D01*
X241779Y-124490D01*
X241889Y-124435D01*
X241999Y-124326D01*
X242902Y-123888D02*
X242792Y-123778D01*
X242683Y-123723D01*
X242519Y-123723D01*
X242409Y-123778D01*
X242300Y-123888D01*
X242245Y-124052D01*
X242245Y-124161D01*
X242300Y-124326D01*
X242409Y-124435D01*
X242519Y-124490D01*
X242683Y-124490D01*
X242792Y-124435D01*
X242902Y-124326D01*
X243313Y-123340D02*
X243313Y-124271D01*
X243367Y-124435D01*
X243477Y-124490D01*
X243586Y-124490D01*
X243148Y-123723D02*
X243532Y-123723D01*
X244982Y-123340D02*
X244873Y-123395D01*
X244763Y-123504D01*
X244709Y-123614D01*
X244654Y-123778D01*
X244654Y-124052D01*
X244709Y-124216D01*
X244763Y-124326D01*
X244873Y-124435D01*
X244982Y-124490D01*
X245201Y-124490D01*
X245311Y-124435D01*
X245420Y-124326D01*
X245475Y-124216D01*
X245530Y-124052D01*
X245530Y-123778D01*
X245475Y-123614D01*
X245420Y-123504D01*
X245311Y-123395D01*
X245201Y-123340D01*
X244982Y-123340D01*
X245798Y-123723D02*
X246017Y-124490D01*
X246236Y-123723D02*
X246017Y-124490D01*
X246236Y-123723D02*
X246455Y-124490D01*
X246674Y-123723D02*
X246455Y-124490D01*
X246942Y-123723D02*
X246942Y-124490D01*
X246942Y-123942D02*
X247107Y-123778D01*
X247216Y-123723D01*
X247380Y-123723D01*
X247490Y-123778D01*
X247545Y-123942D01*
X247545Y-124490D01*
X247846Y-124052D02*
X248503Y-124052D01*
X248503Y-123942D01*
X248448Y-123833D01*
X248393Y-123778D01*
X248284Y-123723D01*
X248120Y-123723D01*
X248010Y-123778D01*
X247901Y-123888D01*
X247846Y-124052D01*
X247846Y-124161D01*
X247901Y-124326D01*
X248010Y-124435D01*
X248120Y-124490D01*
X248284Y-124490D01*
X248393Y-124435D01*
X248503Y-124326D01*
X248749Y-123723D02*
X248749Y-124490D01*
X248749Y-124052D02*
X248804Y-123888D01*
X248913Y-123778D01*
X249023Y-123723D01*
X249187Y-123723D01*
X249346Y-123723D02*
X249291Y-123778D01*
X249346Y-123833D01*
X249401Y-123778D01*
X249346Y-123723D01*
X249346Y-124380D02*
X249291Y-124435D01*
X249346Y-124490D01*
X249401Y-124435D01*
X249346Y-124380D01*
X266270Y-123942D02*
X266763Y-123942D01*
X266927Y-123888D01*
X266982Y-123833D01*
X267037Y-123723D01*
X267037Y-123559D01*
X266982Y-123450D01*
X266927Y-123395D01*
X266763Y-123340D01*
X266270Y-123340D01*
X266270Y-124490D01*
X268115Y-123614D02*
X268060Y-123504D01*
X267951Y-123395D01*
X267841Y-123340D01*
X267622Y-123340D01*
X267513Y-123395D01*
X267403Y-123504D01*
X267349Y-123614D01*
X267294Y-123778D01*
X267294Y-124052D01*
X267349Y-124216D01*
X267403Y-124326D01*
X267513Y-124435D01*
X267622Y-124490D01*
X267841Y-124490D01*
X267951Y-124435D01*
X268060Y-124326D01*
X268115Y-124216D01*
X268438Y-123340D02*
X268438Y-124490D01*
X268438Y-123340D02*
X268931Y-123340D01*
X269095Y-123395D01*
X269150Y-123450D01*
X269205Y-123559D01*
X269205Y-123669D01*
X269150Y-123778D01*
X269095Y-123833D01*
X268931Y-123888D01*
X268438Y-123888D02*
X268931Y-123888D01*
X269095Y-123942D01*
X269150Y-123997D01*
X269205Y-124107D01*
X269205Y-124271D01*
X269150Y-124380D01*
X269095Y-124435D01*
X268931Y-124490D01*
X268438Y-124490D01*
X270365Y-123340D02*
X270365Y-124490D01*
X270365Y-123340D02*
X271132Y-124490D01*
X271132Y-123340D02*
X271132Y-124490D01*
X271449Y-123340D02*
X271449Y-124161D01*
X271504Y-124326D01*
X271614Y-124435D01*
X271778Y-124490D01*
X271887Y-124490D01*
X272052Y-124435D01*
X272161Y-124326D01*
X272216Y-124161D01*
X272216Y-123340D01*
X272533Y-123340D02*
X272533Y-124490D01*
X272533Y-123340D02*
X272971Y-124490D01*
X273409Y-123340D02*
X272971Y-124490D01*
X273409Y-123340D02*
X273409Y-124490D01*
X273738Y-123340D02*
X273738Y-124490D01*
X273738Y-123340D02*
X274231Y-123340D01*
X274395Y-123395D01*
X274450Y-123450D01*
X274504Y-123559D01*
X274504Y-123669D01*
X274450Y-123778D01*
X274395Y-123833D01*
X274231Y-123888D01*
X273738Y-123888D02*
X274231Y-123888D01*
X274395Y-123942D01*
X274450Y-123997D01*
X274504Y-124107D01*
X274504Y-124271D01*
X274450Y-124380D01*
X274395Y-124435D01*
X274231Y-124490D01*
X273738Y-124490D01*
X275474Y-123340D02*
X274762Y-123340D01*
X274762Y-124490D01*
X275474Y-124490D01*
X274762Y-123888D02*
X275200Y-123888D01*
X275665Y-123340D02*
X275665Y-124490D01*
X275665Y-123340D02*
X276158Y-123340D01*
X276322Y-123395D01*
X276377Y-123450D01*
X276432Y-123559D01*
X276432Y-123669D01*
X276377Y-123778D01*
X276322Y-123833D01*
X276158Y-123888D01*
X275665Y-123888D01*
X276048Y-123888D02*
X276432Y-124490D01*
X276744Y-123723D02*
X276689Y-123778D01*
X276744Y-123833D01*
X276798Y-123778D01*
X276744Y-123723D01*
X276744Y-124380D02*
X276689Y-124435D01*
X276744Y-124490D01*
X276798Y-124435D01*
X276744Y-124380D01*
X266270Y-117942D02*
X266763Y-117942D01*
X266927Y-117888D01*
X266982Y-117833D01*
X267037Y-117723D01*
X267037Y-117559D01*
X266982Y-117450D01*
X266927Y-117395D01*
X266763Y-117340D01*
X266270Y-117340D01*
X266270Y-118490D01*
X267294Y-117340D02*
X267294Y-118490D01*
X267951Y-118490D01*
X268405Y-117340D02*
X268296Y-117395D01*
X268186Y-117504D01*
X268132Y-117614D01*
X268077Y-117778D01*
X268077Y-118052D01*
X268132Y-118216D01*
X268186Y-118326D01*
X268296Y-118435D01*
X268405Y-118490D01*
X268624Y-118490D01*
X268734Y-118435D01*
X268843Y-118326D01*
X268898Y-118216D01*
X268953Y-118052D01*
X268953Y-117778D01*
X268898Y-117614D01*
X268843Y-117504D01*
X268734Y-117395D01*
X268624Y-117340D01*
X268405Y-117340D01*
X269604Y-117340D02*
X269604Y-118490D01*
X269221Y-117340D02*
X269988Y-117340D01*
X271028Y-117340D02*
X271028Y-118490D01*
X271028Y-117340D02*
X271794Y-118490D01*
X271794Y-117340D02*
X271794Y-118490D01*
X272988Y-118490D02*
X272550Y-117340D01*
X272112Y-118490D01*
X272276Y-118107D02*
X272824Y-118107D01*
X273256Y-117340D02*
X273256Y-118490D01*
X273256Y-117340D02*
X273694Y-118490D01*
X274132Y-117340D02*
X273694Y-118490D01*
X274132Y-117340D02*
X274132Y-118490D01*
X275172Y-117340D02*
X274461Y-117340D01*
X274461Y-118490D01*
X275172Y-118490D01*
X274461Y-117888D02*
X274899Y-117888D01*
X276267Y-118654D02*
X277034Y-117340D01*
X278835Y-117614D02*
X278780Y-117504D01*
X278671Y-117395D01*
X278561Y-117340D01*
X278342Y-117340D01*
X278233Y-117395D01*
X278123Y-117504D01*
X278069Y-117614D01*
X278014Y-117778D01*
X278014Y-118052D01*
X278069Y-118216D01*
X278123Y-118326D01*
X278233Y-118435D01*
X278342Y-118490D01*
X278561Y-118490D01*
X278671Y-118435D01*
X278780Y-118326D01*
X278835Y-118216D01*
X278835Y-118052D01*
X278561Y-118052D02*
X278835Y-118052D01*
X279810Y-117340D02*
X279098Y-117340D01*
X279098Y-118490D01*
X279810Y-118490D01*
X279098Y-117888D02*
X279536Y-117888D01*
X280001Y-117340D02*
X280001Y-118490D01*
X280001Y-117340D02*
X280494Y-117340D01*
X280658Y-117395D01*
X280713Y-117450D01*
X280768Y-117559D01*
X280768Y-117669D01*
X280713Y-117778D01*
X280658Y-117833D01*
X280494Y-117888D01*
X280001Y-117888D01*
X280385Y-117888D02*
X280768Y-118490D01*
X281025Y-117340D02*
X281025Y-118490D01*
X281025Y-117340D02*
X281518Y-117340D01*
X281682Y-117395D01*
X281737Y-117450D01*
X281792Y-117559D01*
X281792Y-117669D01*
X281737Y-117778D01*
X281682Y-117833D01*
X281518Y-117888D01*
X281025Y-117888D02*
X281518Y-117888D01*
X281682Y-117942D01*
X281737Y-117997D01*
X281792Y-118107D01*
X281792Y-118271D01*
X281737Y-118380D01*
X281682Y-118435D01*
X281518Y-118490D01*
X281025Y-118490D01*
X282761Y-117340D02*
X282049Y-117340D01*
X282049Y-118490D01*
X282761Y-118490D01*
X282049Y-117888D02*
X282487Y-117888D01*
X282952Y-117340D02*
X282952Y-118490D01*
X282952Y-117340D02*
X283445Y-117340D01*
X283609Y-117395D01*
X283664Y-117450D01*
X283719Y-117559D01*
X283719Y-117669D01*
X283664Y-117778D01*
X283609Y-117833D01*
X283445Y-117888D01*
X282952Y-117888D01*
X283336Y-117888D02*
X283719Y-118490D01*
X284880Y-117340D02*
X284880Y-118490D01*
X284880Y-117340D02*
X285591Y-117340D01*
X284880Y-117888D02*
X285318Y-117888D01*
X285723Y-117340D02*
X285723Y-118490D01*
X285964Y-117340D02*
X285964Y-118490D01*
X286621Y-118490D01*
X287458Y-117340D02*
X286747Y-117340D01*
X286747Y-118490D01*
X287458Y-118490D01*
X286747Y-117888D02*
X287185Y-117888D01*
X287705Y-117723D02*
X287650Y-117778D01*
X287705Y-117833D01*
X287759Y-117778D01*
X287705Y-117723D01*
X287705Y-118380D02*
X287650Y-118435D01*
X287705Y-118490D01*
X287759Y-118435D01*
X287705Y-118380D01*
X297020Y-129090D02*
X297020Y-130240D01*
X297020Y-129090D02*
X297513Y-129090D01*
X297677Y-129145D01*
X297732Y-129200D01*
X297787Y-129309D01*
X297787Y-129419D01*
X297732Y-129528D01*
X297677Y-129583D01*
X297513Y-129638D01*
X297020Y-129638D01*
X297403Y-129638D02*
X297787Y-130240D01*
X298756Y-129090D02*
X298044Y-129090D01*
X298044Y-130240D01*
X298756Y-130240D01*
X298044Y-129638D02*
X298482Y-129638D01*
X298947Y-129090D02*
X299385Y-130240D01*
X299823Y-129090D02*
X299385Y-130240D01*
X300026Y-129473D02*
X299971Y-129528D01*
X300026Y-129583D01*
X300081Y-129528D01*
X300026Y-129473D01*
X300026Y-130130D02*
X299971Y-130185D01*
X300026Y-130240D01*
X300081Y-130185D01*
X300026Y-130130D01*
X305268Y-126240D02*
X305089Y-126300D01*
X305030Y-126419D01*
X305030Y-126538D01*
X305089Y-126657D01*
X305208Y-126716D01*
X305446Y-126776D01*
X305625Y-126835D01*
X305744Y-126954D01*
X305803Y-127073D01*
X305803Y-127252D01*
X305744Y-127371D01*
X305684Y-127430D01*
X305506Y-127490D01*
X305268Y-127490D01*
X305089Y-127430D01*
X305030Y-127371D01*
X304970Y-127252D01*
X304970Y-127073D01*
X305030Y-126954D01*
X305149Y-126835D01*
X305327Y-126776D01*
X305565Y-126716D01*
X305684Y-126657D01*
X305744Y-126538D01*
X305744Y-126419D01*
X305684Y-126300D01*
X305506Y-126240D01*
X305268Y-126240D01*
X306083Y-127669D02*
X306916Y-126240D01*
X306999Y-126478D02*
X307118Y-126419D01*
X307297Y-126240D01*
X307297Y-127490D01*
X308511Y-126240D02*
X307916Y-127073D01*
X308808Y-127073D01*
X308511Y-126240D02*
X308511Y-127490D01*
X309029Y-127669D02*
X309862Y-126240D01*
X310005Y-126538D02*
X310005Y-126478D01*
X310064Y-126359D01*
X310124Y-126300D01*
X310243Y-126240D01*
X310481Y-126240D01*
X310600Y-126300D01*
X310659Y-126359D01*
X310719Y-126478D01*
X310719Y-126597D01*
X310659Y-126716D01*
X310540Y-126895D01*
X309945Y-127490D01*
X310778Y-127490D01*
X311415Y-126240D02*
X311237Y-126300D01*
X311118Y-126478D01*
X311058Y-126776D01*
X311058Y-126954D01*
X311118Y-127252D01*
X311237Y-127430D01*
X311415Y-127490D01*
X311534Y-127490D01*
X311713Y-127430D01*
X311832Y-127252D01*
X311891Y-126954D01*
X311891Y-126776D01*
X311832Y-126478D01*
X311713Y-126300D01*
X311534Y-126240D01*
X311415Y-126240D01*
X312230Y-126538D02*
X312230Y-126478D01*
X312290Y-126359D01*
X312349Y-126300D01*
X312468Y-126240D01*
X312706Y-126240D01*
X312825Y-126300D01*
X312885Y-126359D01*
X312944Y-126478D01*
X312944Y-126597D01*
X312885Y-126716D01*
X312766Y-126895D01*
X312171Y-127490D01*
X313004Y-127490D01*
X313879Y-126240D02*
X313284Y-127073D01*
X314176Y-127073D01*
X313879Y-126240D02*
X313879Y-127490D01*
X304970Y-123340D02*
X304970Y-124490D01*
X304970Y-123340D02*
X305353Y-123340D01*
X305518Y-123395D01*
X305627Y-123504D01*
X305682Y-123614D01*
X305737Y-123778D01*
X305737Y-124052D01*
X305682Y-124216D01*
X305627Y-124326D01*
X305518Y-124435D01*
X305353Y-124490D01*
X304970Y-124490D01*
X306870Y-124490D02*
X306432Y-123340D01*
X305994Y-124490D01*
X306158Y-124107D02*
X306706Y-124107D01*
X307521Y-123340D02*
X307521Y-124490D01*
X307138Y-123340D02*
X307905Y-123340D01*
X308753Y-123340D02*
X308042Y-123340D01*
X308042Y-124490D01*
X308753Y-124490D01*
X308042Y-123888D02*
X308480Y-123888D01*
X309000Y-123723D02*
X308945Y-123778D01*
X309000Y-123833D01*
X309054Y-123778D01*
X309000Y-123723D01*
X309000Y-124380D02*
X308945Y-124435D01*
X309000Y-124490D01*
X309054Y-124435D01*
X309000Y-124380D01*
X238653Y-108840D02*
X238653Y-109990D01*
X238270Y-108840D02*
X239037Y-108840D01*
X239173Y-108840D02*
X239173Y-109990D01*
X239798Y-108840D02*
X239798Y-109990D01*
X239414Y-108840D02*
X240181Y-108840D01*
X240318Y-108840D02*
X240318Y-109990D01*
X240975Y-109990D01*
X241812Y-108840D02*
X241101Y-108840D01*
X241101Y-109990D01*
X241812Y-109990D01*
X241101Y-109388D02*
X241539Y-109388D01*
X242059Y-109223D02*
X242004Y-109278D01*
X242059Y-109333D01*
X242113Y-109278D01*
X242059Y-109223D01*
X242059Y-109880D02*
X242004Y-109935D01*
X242059Y-109990D01*
X242113Y-109935D01*
X242059Y-109880D01*
X290270Y-108942D02*
X290763Y-108942D01*
X290927Y-108888D01*
X290982Y-108833D01*
X291037Y-108723D01*
X291037Y-108559D01*
X290982Y-108450D01*
X290927Y-108395D01*
X290763Y-108340D01*
X290270Y-108340D01*
X290270Y-109490D01*
X292170Y-109490D02*
X291732Y-108340D01*
X291294Y-109490D01*
X291458Y-109107D02*
X292006Y-109107D01*
X292438Y-108340D02*
X292438Y-109490D01*
X292438Y-108340D02*
X292931Y-108340D01*
X293095Y-108395D01*
X293150Y-108450D01*
X293205Y-108559D01*
X293205Y-108669D01*
X293150Y-108778D01*
X293095Y-108833D01*
X292931Y-108888D01*
X292438Y-108888D01*
X292821Y-108888D02*
X293205Y-109490D01*
X293845Y-108340D02*
X293845Y-109490D01*
X293462Y-108340D02*
X294228Y-108340D01*
X295269Y-108340D02*
X295269Y-109490D01*
X295269Y-108340D02*
X296035Y-109490D01*
X296035Y-108340D02*
X296035Y-109490D01*
X296353Y-108340D02*
X296353Y-109161D01*
X296408Y-109326D01*
X296517Y-109435D01*
X296681Y-109490D01*
X296791Y-109490D01*
X296955Y-109435D01*
X297065Y-109326D01*
X297119Y-109161D01*
X297119Y-108340D01*
X297437Y-108340D02*
X297437Y-109490D01*
X297437Y-108340D02*
X297875Y-109490D01*
X298313Y-108340D02*
X297875Y-109490D01*
X298313Y-108340D02*
X298313Y-109490D01*
X298641Y-108340D02*
X298641Y-109490D01*
X298641Y-108340D02*
X299134Y-108340D01*
X299298Y-108395D01*
X299353Y-108450D01*
X299408Y-108559D01*
X299408Y-108669D01*
X299353Y-108778D01*
X299298Y-108833D01*
X299134Y-108888D01*
X298641Y-108888D02*
X299134Y-108888D01*
X299298Y-108942D01*
X299353Y-108997D01*
X299408Y-109107D01*
X299408Y-109271D01*
X299353Y-109380D01*
X299298Y-109435D01*
X299134Y-109490D01*
X298641Y-109490D01*
X300377Y-108340D02*
X299665Y-108340D01*
X299665Y-109490D01*
X300377Y-109490D01*
X299665Y-108888D02*
X300103Y-108888D01*
X300569Y-108340D02*
X300569Y-109490D01*
X300569Y-108340D02*
X301061Y-108340D01*
X301226Y-108395D01*
X301280Y-108450D01*
X301335Y-108559D01*
X301335Y-108669D01*
X301280Y-108778D01*
X301226Y-108833D01*
X301061Y-108888D01*
X300569Y-108888D01*
X300952Y-108888D02*
X301335Y-109490D01*
X301647Y-108723D02*
X301592Y-108778D01*
X301647Y-108833D01*
X301702Y-108778D01*
X301647Y-108723D01*
X301647Y-109380D02*
X301592Y-109435D01*
X301647Y-109490D01*
X301702Y-109435D01*
X301647Y-109380D01*
X284020Y-123340D02*
X284020Y-124490D01*
X284020Y-123340D02*
X284403Y-123340D01*
X284568Y-123395D01*
X284677Y-123504D01*
X284732Y-123614D01*
X284787Y-123778D01*
X284787Y-124052D01*
X284732Y-124216D01*
X284677Y-124326D01*
X284568Y-124435D01*
X284403Y-124490D01*
X284020Y-124490D01*
X285372Y-123340D02*
X285263Y-123395D01*
X285153Y-123504D01*
X285099Y-123614D01*
X285044Y-123778D01*
X285044Y-124052D01*
X285099Y-124216D01*
X285153Y-124326D01*
X285263Y-124435D01*
X285372Y-124490D01*
X285591Y-124490D01*
X285701Y-124435D01*
X285810Y-124326D01*
X285865Y-124216D01*
X285920Y-124052D01*
X285920Y-123778D01*
X285865Y-123614D01*
X285810Y-123504D01*
X285701Y-123395D01*
X285591Y-123340D01*
X285372Y-123340D01*
X287009Y-123614D02*
X286955Y-123504D01*
X286845Y-123395D01*
X286736Y-123340D01*
X286517Y-123340D01*
X286407Y-123395D01*
X286298Y-123504D01*
X286243Y-123614D01*
X286188Y-123778D01*
X286188Y-124052D01*
X286243Y-124216D01*
X286298Y-124326D01*
X286407Y-124435D01*
X286517Y-124490D01*
X286736Y-124490D01*
X286845Y-124435D01*
X286955Y-124326D01*
X287009Y-124216D01*
X287332Y-123340D02*
X287332Y-124161D01*
X287387Y-124326D01*
X287497Y-124435D01*
X287661Y-124490D01*
X287770Y-124490D01*
X287935Y-124435D01*
X288044Y-124326D01*
X288099Y-124161D01*
X288099Y-123340D01*
X288416Y-123340D02*
X288416Y-124490D01*
X288416Y-123340D02*
X288854Y-124490D01*
X289292Y-123340D02*
X288854Y-124490D01*
X289292Y-123340D02*
X289292Y-124490D01*
X290333Y-123340D02*
X289621Y-123340D01*
X289621Y-124490D01*
X290333Y-124490D01*
X289621Y-123888D02*
X290059Y-123888D01*
X290524Y-123340D02*
X290524Y-124490D01*
X290524Y-123340D02*
X291291Y-124490D01*
X291291Y-123340D02*
X291291Y-124490D01*
X291992Y-123340D02*
X291992Y-124490D01*
X291608Y-123340D02*
X292375Y-123340D01*
X293415Y-123340D02*
X293415Y-124490D01*
X293415Y-123340D02*
X294182Y-124490D01*
X294182Y-123340D02*
X294182Y-124490D01*
X294499Y-123340D02*
X294499Y-124161D01*
X294554Y-124326D01*
X294663Y-124435D01*
X294828Y-124490D01*
X294937Y-124490D01*
X295101Y-124435D01*
X295211Y-124326D01*
X295266Y-124161D01*
X295266Y-123340D01*
X295583Y-123340D02*
X295583Y-124490D01*
X295583Y-123340D02*
X296021Y-124490D01*
X296459Y-123340D02*
X296021Y-124490D01*
X296459Y-123340D02*
X296459Y-124490D01*
X296788Y-123340D02*
X296788Y-124490D01*
X296788Y-123340D02*
X297281Y-123340D01*
X297445Y-123395D01*
X297500Y-123450D01*
X297554Y-123559D01*
X297554Y-123669D01*
X297500Y-123778D01*
X297445Y-123833D01*
X297281Y-123888D01*
X296788Y-123888D02*
X297281Y-123888D01*
X297445Y-123942D01*
X297500Y-123997D01*
X297554Y-124107D01*
X297554Y-124271D01*
X297500Y-124380D01*
X297445Y-124435D01*
X297281Y-124490D01*
X296788Y-124490D01*
X298523Y-123340D02*
X297812Y-123340D01*
X297812Y-124490D01*
X298523Y-124490D01*
X297812Y-123888D02*
X298250Y-123888D01*
X298715Y-123340D02*
X298715Y-124490D01*
X298715Y-123340D02*
X299208Y-123340D01*
X299372Y-123395D01*
X299427Y-123450D01*
X299481Y-123559D01*
X299481Y-123669D01*
X299427Y-123778D01*
X299372Y-123833D01*
X299208Y-123888D01*
X298715Y-123888D01*
X299098Y-123888D02*
X299481Y-124490D01*
X299794Y-123723D02*
X299739Y-123778D01*
X299794Y-123833D01*
X299848Y-123778D01*
X299794Y-123723D01*
X299794Y-124380D02*
X299739Y-124435D01*
X299794Y-124490D01*
X299848Y-124435D01*
X299794Y-124380D01*
D15*
X312970Y-130090D02*
X312970Y-129490D01*
X319090Y-110490D02*
X319090Y-110490D01*
X307970Y-130290D02*
X307970Y-129290D01*
X307810Y-132125D02*
X307810Y-130855D01*
X310350Y-132125D02*
X310350Y-130855D01*
X312890Y-132125D02*
X312890Y-130855D01*
X315430Y-132125D02*
X315430Y-130855D01*
X317970Y-130290D02*
X317970Y-129290D01*
X317970Y-132125D02*
X317970Y-130855D01*
X289270Y-110490D02*
X289270Y-107490D01*
X307810Y-131490D02*
X317970Y-131490D01*
X307970Y-129790D02*
X317970Y-129790D01*
X289270Y-110490D02*
X319090Y-110490D01*
X237270Y-114990D02*
X319090Y-114990D01*
X304503Y-131090D02*
X304170Y-131557D01*
X304670Y-131557D01*
X304503Y-131090D02*
X304503Y-131790D01*
X304993Y-131090D02*
X304893Y-131123D01*
X304827Y-131223D01*
X304793Y-131390D01*
X304793Y-131490D01*
X304827Y-131657D01*
X304893Y-131757D01*
X304993Y-131790D01*
X305060Y-131790D01*
X305160Y-131757D01*
X305226Y-131657D01*
X305260Y-131490D01*
X305260Y-131390D01*
X305226Y-131223D01*
X305160Y-131123D01*
X305060Y-131090D01*
X304993Y-131090D01*
X305616Y-131090D02*
X305516Y-131123D01*
X305450Y-131223D01*
X305416Y-131390D01*
X305416Y-131490D01*
X305450Y-131657D01*
X305516Y-131757D01*
X305616Y-131790D01*
X305683Y-131790D01*
X305783Y-131757D01*
X305850Y-131657D01*
X305883Y-131490D01*
X305883Y-131390D01*
X305850Y-131223D01*
X305783Y-131123D01*
X305683Y-131090D01*
X305616Y-131090D01*
X306040Y-131323D02*
X306040Y-131790D01*
X306040Y-131457D02*
X306140Y-131357D01*
X306206Y-131323D01*
X306306Y-131323D01*
X306373Y-131357D01*
X306406Y-131457D01*
X306406Y-131790D01*
X306406Y-131457D02*
X306506Y-131357D01*
X306573Y-131323D01*
X306673Y-131323D01*
X306739Y-131357D01*
X306773Y-131457D01*
X306773Y-131790D01*
X307059Y-131090D02*
X307093Y-131123D01*
X307126Y-131090D01*
X307093Y-131057D01*
X307059Y-131090D01*
X307093Y-131323D02*
X307093Y-131790D01*
X307249Y-131090D02*
X307249Y-131790D01*
X304270Y-129523D02*
X304337Y-129490D01*
X304437Y-129390D01*
X304437Y-130090D01*
X304983Y-129390D02*
X304883Y-129423D01*
X304817Y-129523D01*
X304783Y-129690D01*
X304783Y-129790D01*
X304817Y-129957D01*
X304883Y-130057D01*
X304983Y-130090D01*
X305050Y-130090D01*
X305150Y-130057D01*
X305216Y-129957D01*
X305250Y-129790D01*
X305250Y-129690D01*
X305216Y-129523D01*
X305150Y-129423D01*
X305050Y-129390D01*
X304983Y-129390D01*
X305406Y-129623D02*
X305406Y-130090D01*
X305406Y-129757D02*
X305506Y-129657D01*
X305573Y-129623D01*
X305673Y-129623D01*
X305740Y-129657D01*
X305773Y-129757D01*
X305773Y-130090D01*
X305773Y-129757D02*
X305873Y-129657D01*
X305940Y-129623D01*
X306040Y-129623D01*
X306106Y-129657D01*
X306140Y-129757D01*
X306140Y-130090D01*
X306360Y-129623D02*
X306360Y-130090D01*
X306360Y-129757D02*
X306460Y-129657D01*
X306526Y-129623D01*
X306626Y-129623D01*
X306693Y-129657D01*
X306726Y-129757D01*
X306726Y-130090D01*
X306726Y-129757D02*
X306826Y-129657D01*
X306893Y-129623D01*
X306993Y-129623D01*
X307059Y-129657D01*
X307093Y-129757D01*
X307093Y-130090D01*
D16*
X296270Y-132910D02*
X296270Y-128490D01*
X265270Y-132910D02*
X265270Y-116490D01*
X283270Y-128490D02*
X283270Y-122490D01*
X303770Y-132910D02*
X303770Y-122490D01*
X203270Y-132910D02*
X203270Y-107490D01*
X237270Y-132910D02*
X237270Y-107490D01*
X319090Y-132910D02*
X319090Y-107490D01*
X203270Y-132910D02*
X319090Y-132910D01*
X237270Y-128490D02*
X319090Y-128490D01*
X237270Y-122490D02*
X319090Y-122490D01*
X237270Y-116490D02*
X319090Y-116490D01*
X203270Y-107490D02*
X319090Y-107490D01*
X169230Y-132910D02*
X204790Y-132910D01*
X6670Y-137990D02*
X6670Y-132910D01*
X-56830Y-77665D02*
X-51750Y-77665D01*
X-56830Y-17340D02*
X-51750Y-17340D01*
X-56830Y42985D02*
X-51750Y42985D01*
X-51750Y-132910D02*
X319090Y-132910D01*
X-51750Y-132910D02*
X-51750Y98230D01*
X-56830Y-137990D02*
X324170Y-137990D01*
X-56830Y-137990D02*
X-56830Y103310D01*
X319090Y-132910D02*
X319090Y-102430D01*
X70170Y-137990D02*
X70170Y-132910D01*
X133670Y-137990D02*
X133670Y-132910D01*
X197170Y-137990D02*
X197170Y-132910D01*
X260670Y-137990D02*
X260670Y-132910D01*
X319090Y-77665D02*
X324170Y-77665D01*
X319090Y-17340D02*
X324170Y-17340D01*
X319090Y42985D02*
X324170Y42985D01*
X324170Y-137990D02*
X324170Y103310D01*
X319090Y-132910D02*
X319090Y98230D01*
X6670Y98230D02*
X6670Y103310D01*
X-56830Y103310D02*
X324170Y103310D01*
X-51750Y98230D02*
X319090Y98230D01*
X70170Y98230D02*
X70170Y103310D01*
X133670Y98230D02*
X133670Y103310D01*
X197170Y98230D02*
X197170Y103310D01*
X260670Y98230D02*
X260670Y103310D01*
D17*
X238651Y-125890D02*
X238651Y-126804D01*
X238270Y-126119D02*
X239032Y-126576D01*
X239032Y-126119D02*
X238270Y-126576D01*
X239740Y-125890D02*
X239740Y-126804D01*
X239359Y-126119D02*
X240121Y-126576D01*
X240121Y-126119D02*
X239359Y-126576D01*
X266727Y-125890D02*
X266499Y-125966D01*
X266346Y-126195D01*
X266270Y-126576D01*
X266270Y-126804D01*
X266346Y-127185D01*
X266499Y-127414D01*
X266727Y-127490D01*
X266879Y-127490D01*
X267108Y-127414D01*
X267260Y-127185D01*
X267336Y-126804D01*
X267336Y-126576D01*
X267260Y-126195D01*
X267108Y-125966D01*
X266879Y-125890D01*
X266727Y-125890D01*
X268456Y-125890D02*
X267694Y-126957D01*
X268837Y-126957D01*
X268456Y-125890D02*
X268456Y-127490D01*
X269119Y-126804D02*
X270490Y-126804D01*
X271343Y-125890D02*
X271343Y-126804D01*
X270962Y-126119D02*
X271724Y-126576D01*
X271724Y-126119D02*
X270962Y-126576D01*
X272432Y-125890D02*
X272432Y-126804D01*
X272052Y-126119D02*
X272813Y-126576D01*
X272813Y-126119D02*
X272052Y-126576D01*
X284370Y-126090D02*
X284170Y-126157D01*
X284037Y-126357D01*
X283970Y-126690D01*
X283970Y-126890D01*
X284037Y-127223D01*
X284170Y-127423D01*
X284370Y-127490D01*
X284503Y-127490D01*
X284703Y-127423D01*
X284836Y-127223D01*
X284903Y-126890D01*
X284903Y-126690D01*
X284836Y-126357D01*
X284703Y-126157D01*
X284503Y-126090D01*
X284370Y-126090D01*
X285883Y-126090D02*
X285216Y-127023D01*
X286216Y-127023D01*
X285883Y-126090D02*
X285883Y-127490D01*
X286463Y-126890D02*
X287663Y-126890D01*
X288409Y-126090D02*
X288409Y-126890D01*
X288076Y-126290D02*
X288742Y-126690D01*
X288742Y-126290D02*
X288076Y-126690D01*
X289362Y-126090D02*
X289362Y-126890D01*
X289029Y-126290D02*
X289695Y-126690D01*
X289695Y-126290D02*
X289029Y-126690D01*
X289982Y-127957D02*
X291048Y-127957D01*
X291228Y-126090D02*
X291228Y-127490D01*
X291228Y-126090D02*
X292095Y-126090D01*
X291228Y-126757D02*
X291762Y-126757D01*
X293321Y-127490D02*
X292788Y-126090D01*
X292255Y-127490D01*
X292455Y-127023D02*
X293121Y-127023D01*
X293648Y-126090D02*
X293648Y-127490D01*
X293648Y-126090D02*
X294248Y-126090D01*
X294448Y-126157D01*
X294514Y-126224D01*
X294581Y-126357D01*
X294581Y-126490D01*
X294514Y-126623D01*
X294448Y-126690D01*
X294248Y-126757D01*
X293648Y-126757D02*
X294248Y-126757D01*
X294448Y-126823D01*
X294514Y-126890D01*
X294581Y-127023D01*
X294581Y-127223D01*
X294514Y-127357D01*
X294448Y-127423D01*
X294248Y-127490D01*
X293648Y-127490D01*
X294894Y-126890D02*
X296094Y-126890D01*
X296507Y-126090D02*
X296507Y-127490D01*
X296507Y-126090D02*
X296974Y-126090D01*
X297174Y-126157D01*
X297307Y-126290D01*
X297374Y-126424D01*
X297440Y-126623D01*
X297440Y-126957D01*
X297374Y-127157D01*
X297307Y-127290D01*
X297174Y-127423D01*
X296974Y-127490D01*
X296507Y-127490D01*
D18*
X238865Y-111491D02*
X238865Y-112919D01*
X238270Y-111848D02*
X239460Y-112562D01*
X239460Y-111848D02*
X238270Y-112562D01*
X240567Y-111491D02*
X240567Y-112919D01*
X239972Y-111848D02*
X241162Y-112562D01*
X241162Y-111848D02*
X239972Y-112562D01*
D47*
X-32606Y-34176D02*
X-30913Y-34176D01*
X-30913Y-32482D01*
X-32606Y-32482D02*
X-30913Y-32482D01*
X-32606Y-34176D02*
X-32606Y-32482D01*
X-32183Y-37562D02*
X-31760Y-37986D01*
X-32606Y-37562D02*
X-32183Y-37562D01*
X-32606Y-37562D02*
X-32183Y-37139D01*
X-32606Y-36716D02*
X-32183Y-37139D01*
X-32606Y-36716D02*
X-32183Y-36716D01*
X-31760Y-36292D01*
X-31336Y-36716D01*
X-30913Y-36716D01*
X-31336Y-37139D02*
X-30913Y-36716D01*
X-31336Y-37139D02*
X-30913Y-37562D01*
X-31336Y-37562D02*
X-30913Y-37562D01*
X-31760Y-37986D02*
X-31336Y-37562D01*
X126410Y-34176D02*
X125903Y-33668D01*
X125903Y-33160D01*
X126410Y-32652D01*
X127172Y-34176D02*
X127172Y-32652D01*
X127680Y-33160D01*
X128188Y-32652D01*
X128188Y-34176D01*
X128696Y-34176D02*
X129204Y-34176D01*
X128950Y-34176D01*
X128950Y-33160D01*
X128696Y-33160D01*
X129965Y-33160D02*
X130981Y-34176D01*
X130473Y-33668D01*
X130981Y-33160D01*
X129965Y-34176D01*
X132251Y-34176D02*
X131743Y-34176D01*
X131489Y-33922D01*
X131489Y-33414D01*
X131743Y-33160D01*
X132251Y-33160D01*
X132504Y-33414D01*
X132504Y-33668D01*
X131489Y-33668D01*
X134028Y-32652D02*
X134028Y-34176D01*
X133266Y-34176D01*
X133012Y-33922D01*
X133012Y-33414D01*
X133266Y-33160D01*
X134028Y-33160D01*
X134536Y-34176D02*
X135044Y-33668D01*
X135044Y-33160D01*
X134536Y-32652D01*
X125903Y-36970D02*
X126410Y-37986D01*
X126918Y-36970D01*
X127426Y-36716D02*
X127680Y-36462D01*
X128188Y-36462D01*
X128442Y-36716D01*
X128442Y-36970D01*
X128188Y-37224D01*
X128442Y-37478D01*
X128442Y-37732D01*
X128188Y-37986D01*
X127680Y-37986D01*
X127426Y-37732D01*
X127426Y-37478D01*
X127680Y-37224D01*
X127426Y-36970D01*
X127426Y-36716D01*
X127680Y-37224D02*
X128188Y-37224D01*
X128950Y-36716D02*
X129204Y-36462D01*
X129711Y-36462D01*
X129965Y-36716D01*
X129965Y-37732D01*
X129711Y-37986D01*
X129204Y-37986D01*
X128950Y-37732D01*
X128950Y-36716D01*
X130473Y-36462D02*
X130473Y-37986D01*
X130473Y-37224D01*
X130727Y-36970D01*
X131235Y-36970D01*
X131489Y-37224D01*
X131489Y-37986D01*
X132758Y-37986D02*
X132758Y-36462D01*
X131997Y-37224D01*
X133012Y-37224D01*
X133520Y-36716D02*
X133774Y-36462D01*
X134282Y-36462D01*
X134536Y-36716D01*
X134536Y-37732D01*
X134282Y-37986D01*
X133774Y-37986D01*
X133520Y-37732D01*
X133520Y-36716D01*
X135044Y-37986D02*
X135044Y-36970D01*
X135298Y-36970D01*
X135551Y-37224D01*
X135551Y-37986D01*
X135551Y-37224D01*
X135805Y-36970D01*
X136059Y-37224D01*
X136059Y-37986D01*
X136567Y-36716D02*
X136821Y-36462D01*
X137329Y-36462D01*
X137583Y-36716D01*
X137583Y-37732D01*
X137329Y-37986D01*
X136821Y-37986D01*
X136567Y-37732D01*
X136567Y-36716D01*
X138091Y-37986D02*
X138091Y-36970D01*
X138345Y-36970D01*
X138598Y-37224D01*
X138598Y-37986D01*
X138598Y-37224D01*
X138852Y-36970D01*
X139106Y-37224D01*
X139106Y-37986D01*
X139614Y-36970D02*
X140630Y-37986D01*
X140122Y-37478D01*
X140630Y-36970D01*
X139614Y-37986D01*
X141138Y-36716D02*
X141392Y-36462D01*
X141899Y-36462D01*
X142153Y-36716D01*
X142153Y-37732D01*
X141899Y-37986D01*
X141392Y-37986D01*
X141138Y-37732D01*
X141138Y-36716D01*
X107467Y-34176D02*
X106959Y-33668D01*
X106959Y-33160D01*
X107467Y-32652D01*
X108229Y-34176D02*
X108229Y-32652D01*
X108737Y-33160D01*
X109245Y-32652D01*
X109245Y-34176D01*
X109752Y-34176D02*
X110260Y-34176D01*
X110006Y-34176D01*
X110006Y-33160D01*
X109752Y-33160D01*
X111022Y-33160D02*
X112038Y-34176D01*
X111530Y-33668D01*
X112038Y-33160D01*
X111022Y-34176D01*
X113307Y-34176D02*
X112799Y-34176D01*
X112546Y-33922D01*
X112546Y-33414D01*
X112799Y-33160D01*
X113307Y-33160D01*
X113561Y-33414D01*
X113561Y-33668D01*
X112546Y-33668D01*
X115085Y-32652D02*
X115085Y-34176D01*
X114323Y-34176D01*
X114069Y-33922D01*
X114069Y-33414D01*
X114323Y-33160D01*
X115085Y-33160D01*
X115593Y-34176D02*
X116100Y-33668D01*
X116100Y-33160D01*
X115593Y-32652D01*
X106959Y-37986D02*
X106959Y-36462D01*
X107721Y-36462D01*
X107975Y-36716D01*
X107975Y-37224D01*
X107721Y-37478D01*
X106959Y-37478D01*
X107467Y-37478D02*
X107975Y-37986D01*
X108737Y-37986D02*
X109245Y-37986D01*
X109498Y-37732D01*
X109498Y-37224D01*
X109245Y-36970D01*
X108737Y-36970D01*
X108483Y-37224D01*
X108483Y-37732D01*
X108737Y-37986D01*
X110006Y-36970D02*
X110006Y-37732D01*
X110260Y-37986D01*
X111022Y-37986D01*
X111022Y-36970D01*
X111530Y-37986D02*
X111530Y-36970D01*
X112292Y-36970D01*
X112546Y-37224D01*
X112546Y-37986D01*
X114069Y-36462D02*
X114069Y-37986D01*
X113307Y-37986D01*
X113053Y-37732D01*
X113053Y-37224D01*
X113307Y-36970D01*
X114069Y-36970D01*
X115339Y-37986D02*
X114831Y-37986D01*
X114577Y-37732D01*
X114577Y-37224D01*
X114831Y-36970D01*
X115339Y-36970D01*
X115593Y-37224D01*
X115593Y-37478D01*
X114577Y-37478D01*
X117116Y-36462D02*
X117116Y-37986D01*
X116354Y-37986D01*
X116100Y-37732D01*
X116100Y-37224D01*
X116354Y-36970D01*
X117116Y-36970D01*
X91977Y-34176D02*
X91977Y-32652D01*
X92739Y-32652D01*
X92993Y-32906D01*
X92993Y-33414D01*
X92739Y-33668D01*
X91977Y-33668D01*
X93755Y-33160D02*
X94262Y-33160D01*
X94516Y-33414D01*
X94516Y-34176D01*
X93755Y-34176D01*
X93501Y-33922D01*
X93755Y-33668D01*
X94516Y-33668D01*
X96040Y-32652D02*
X96040Y-34176D01*
X95278Y-34176D01*
X95024Y-33922D01*
X95024Y-33414D01*
X95278Y-33160D01*
X96040Y-33160D01*
X91977Y-36462D02*
X91977Y-37478D01*
X92485Y-37986D01*
X92993Y-37478D01*
X92993Y-36462D01*
X93501Y-37986D02*
X94008Y-37986D01*
X93755Y-37986D01*
X93755Y-36970D01*
X93501Y-36970D01*
X95024Y-36970D02*
X95532Y-36970D01*
X95786Y-37224D01*
X95786Y-37986D01*
X95024Y-37986D01*
X94770Y-37732D01*
X95024Y-37478D01*
X95786Y-37478D01*
X53889Y-32652D02*
X54904Y-32652D01*
X54396Y-32652D01*
X54396Y-34176D01*
X55666Y-34176D02*
X56174Y-34176D01*
X56428Y-33922D01*
X56428Y-33414D01*
X56174Y-33160D01*
X55666Y-33160D01*
X55412Y-33414D01*
X55412Y-33922D01*
X55666Y-34176D01*
X56936Y-34684D02*
X56936Y-33160D01*
X57697Y-33160D01*
X57951Y-33414D01*
X57951Y-33922D01*
X57697Y-34176D01*
X56936Y-34176D01*
X59983Y-32652D02*
X59983Y-34176D01*
X60998Y-34176D01*
X61760Y-33160D02*
X62268Y-33160D01*
X62522Y-33414D01*
X62522Y-34176D01*
X61760Y-34176D01*
X61506Y-33922D01*
X61760Y-33668D01*
X62522Y-33668D01*
X63030Y-33160D02*
X63030Y-33922D01*
X63284Y-34176D01*
X64045Y-34176D01*
X64045Y-34430D01*
X63791Y-34684D01*
X63537Y-34684D01*
X64045Y-34176D02*
X64045Y-33160D01*
X65315Y-34176D02*
X64807Y-34176D01*
X64553Y-33922D01*
X64553Y-33414D01*
X64807Y-33160D01*
X65315Y-33160D01*
X65569Y-33414D01*
X65569Y-33668D01*
X64553Y-33668D01*
X66077Y-33160D02*
X66077Y-34176D01*
X66077Y-33668D01*
X66331Y-33414D01*
X66584Y-33160D01*
X66838Y-33160D01*
X69124Y-33414D02*
X70139Y-33414D01*
X72171Y-32652D02*
X72171Y-34176D01*
X72932Y-34176D01*
X73186Y-33922D01*
X73186Y-33668D01*
X72932Y-33414D01*
X72171Y-33414D01*
X72932Y-33414D01*
X73186Y-33160D01*
X73186Y-32906D01*
X72932Y-32652D01*
X72171Y-32652D01*
X73948Y-34176D02*
X74456Y-34176D01*
X74710Y-33922D01*
X74710Y-33414D01*
X74456Y-33160D01*
X73948Y-33160D01*
X73694Y-33414D01*
X73694Y-33922D01*
X73948Y-34176D01*
X75472Y-32906D02*
X75472Y-33160D01*
X75218Y-33160D01*
X75726Y-33160D01*
X75472Y-33160D01*
X75472Y-33922D01*
X75726Y-34176D01*
X76741Y-32906D02*
X76741Y-33160D01*
X76487Y-33160D01*
X76995Y-33160D01*
X76741Y-33160D01*
X76741Y-33922D01*
X76995Y-34176D01*
X78011Y-34176D02*
X78519Y-34176D01*
X78773Y-33922D01*
X78773Y-33414D01*
X78519Y-33160D01*
X78011Y-33160D01*
X77757Y-33414D01*
X77757Y-33922D01*
X78011Y-34176D01*
X79280Y-34176D02*
X79280Y-33160D01*
X79534Y-33160D01*
X79788Y-33414D01*
X79788Y-34176D01*
X79788Y-33414D01*
X80042Y-33160D01*
X80296Y-33414D01*
X80296Y-34176D01*
X82327Y-32652D02*
X82327Y-34176D01*
X83343Y-34176D01*
X84105Y-33160D02*
X84613Y-33160D01*
X84867Y-33414D01*
X84867Y-34176D01*
X84105Y-34176D01*
X83851Y-33922D01*
X84105Y-33668D01*
X84867Y-33668D01*
X85374Y-33160D02*
X85374Y-33922D01*
X85628Y-34176D01*
X86390Y-34176D01*
X86390Y-34430D01*
X86136Y-34684D01*
X85882Y-34684D01*
X86390Y-34176D02*
X86390Y-33160D01*
X87660Y-34176D02*
X87152Y-34176D01*
X86898Y-33922D01*
X86898Y-33414D01*
X87152Y-33160D01*
X87660Y-33160D01*
X87914Y-33414D01*
X87914Y-33668D01*
X86898Y-33668D01*
X88421Y-33160D02*
X88421Y-34176D01*
X88421Y-33668D01*
X88675Y-33414D01*
X88929Y-33160D01*
X89183Y-33160D01*
X53889Y-36462D02*
X54904Y-36462D01*
X54396Y-36462D01*
X54396Y-37986D01*
X55666Y-37986D02*
X56174Y-37986D01*
X56428Y-37732D01*
X56428Y-37224D01*
X56174Y-36970D01*
X55666Y-36970D01*
X55412Y-37224D01*
X55412Y-37732D01*
X55666Y-37986D01*
X56936Y-38494D02*
X56936Y-36970D01*
X57697Y-36970D01*
X57951Y-37224D01*
X57951Y-37732D01*
X57697Y-37986D01*
X56936Y-37986D01*
X59983Y-36462D02*
X59983Y-37986D01*
X60998Y-37986D01*
X61760Y-36970D02*
X62268Y-36970D01*
X62522Y-37224D01*
X62522Y-37986D01*
X61760Y-37986D01*
X61506Y-37732D01*
X61760Y-37478D01*
X62522Y-37478D01*
X63030Y-36970D02*
X63030Y-37732D01*
X63284Y-37986D01*
X64045Y-37986D01*
X64045Y-38240D01*
X63791Y-38494D01*
X63537Y-38494D01*
X64045Y-37986D02*
X64045Y-36970D01*
X65315Y-37986D02*
X64807Y-37986D01*
X64553Y-37732D01*
X64553Y-37224D01*
X64807Y-36970D01*
X65315Y-36970D01*
X65569Y-37224D01*
X65569Y-37478D01*
X64553Y-37478D01*
X66077Y-36970D02*
X66077Y-37986D01*
X66077Y-37478D01*
X66331Y-37224D01*
X66584Y-36970D01*
X66838Y-36970D01*
X69124Y-37224D02*
X70139Y-37224D01*
X72171Y-36462D02*
X72171Y-37986D01*
X72932Y-37986D01*
X73186Y-37732D01*
X73186Y-37478D01*
X72932Y-37224D01*
X72171Y-37224D01*
X72932Y-37224D01*
X73186Y-36970D01*
X73186Y-36716D01*
X72932Y-36462D01*
X72171Y-36462D01*
X73948Y-37986D02*
X74456Y-37986D01*
X74710Y-37732D01*
X74710Y-37224D01*
X74456Y-36970D01*
X73948Y-36970D01*
X73694Y-37224D01*
X73694Y-37732D01*
X73948Y-37986D01*
X75472Y-36716D02*
X75472Y-36970D01*
X75218Y-36970D01*
X75726Y-36970D01*
X75472Y-36970D01*
X75472Y-37732D01*
X75726Y-37986D01*
X76741Y-36716D02*
X76741Y-36970D01*
X76487Y-36970D01*
X76995Y-36970D01*
X76741Y-36970D01*
X76741Y-37732D01*
X76995Y-37986D01*
X78011Y-37986D02*
X78519Y-37986D01*
X78773Y-37732D01*
X78773Y-37224D01*
X78519Y-36970D01*
X78011Y-36970D01*
X77757Y-37224D01*
X77757Y-37732D01*
X78011Y-37986D01*
X79280Y-37986D02*
X79280Y-36970D01*
X79534Y-36970D01*
X79788Y-37224D01*
X79788Y-37986D01*
X79788Y-37224D01*
X80042Y-36970D01*
X80296Y-37224D01*
X80296Y-37986D01*
X82327Y-36462D02*
X82327Y-37986D01*
X83343Y-37986D01*
X84105Y-36970D02*
X84613Y-36970D01*
X84867Y-37224D01*
X84867Y-37986D01*
X84105Y-37986D01*
X83851Y-37732D01*
X84105Y-37478D01*
X84867Y-37478D01*
X85374Y-36970D02*
X85374Y-37732D01*
X85628Y-37986D01*
X86390Y-37986D01*
X86390Y-38240D01*
X86136Y-38494D01*
X85882Y-38494D01*
X86390Y-37986D02*
X86390Y-36970D01*
X87660Y-37986D02*
X87152Y-37986D01*
X86898Y-37732D01*
X86898Y-37224D01*
X87152Y-36970D01*
X87660Y-36970D01*
X87914Y-37224D01*
X87914Y-37478D01*
X86898Y-37478D01*
X88421Y-36970D02*
X88421Y-37986D01*
X88421Y-37478D01*
X88675Y-37224D01*
X88929Y-36970D01*
X89183Y-36970D01*
X35250Y-34176D02*
X35250Y-32652D01*
X36012Y-32652D01*
X36266Y-32906D01*
X36266Y-33414D01*
X36012Y-33668D01*
X35250Y-33668D01*
X35758Y-33668D02*
X36266Y-34176D01*
X37027Y-34176D02*
X37535Y-34176D01*
X37789Y-33922D01*
X37789Y-33414D01*
X37535Y-33160D01*
X37027Y-33160D01*
X36774Y-33414D01*
X36774Y-33922D01*
X37027Y-34176D01*
X38297Y-33160D02*
X38297Y-33922D01*
X38551Y-34176D01*
X39313Y-34176D01*
X39313Y-33160D01*
X39821Y-34176D02*
X39821Y-33160D01*
X40582Y-33160D01*
X40836Y-33414D01*
X40836Y-34176D01*
X42360Y-32652D02*
X42360Y-34176D01*
X41598Y-34176D01*
X41344Y-33922D01*
X41344Y-33414D01*
X41598Y-33160D01*
X42360Y-33160D01*
X35250Y-37986D02*
X35250Y-36462D01*
X36012Y-36462D01*
X36266Y-36716D01*
X36266Y-37224D01*
X36012Y-37478D01*
X35250Y-37478D01*
X35758Y-37478D02*
X36266Y-37986D01*
X37027Y-37986D02*
X37535Y-37986D01*
X37789Y-37732D01*
X37789Y-37224D01*
X37535Y-36970D01*
X37027Y-36970D01*
X36774Y-37224D01*
X36774Y-37732D01*
X37027Y-37986D01*
X38297Y-36970D02*
X38297Y-37732D01*
X38551Y-37986D01*
X39313Y-37986D01*
X39313Y-36970D01*
X39821Y-37986D02*
X39821Y-36970D01*
X40582Y-36970D01*
X40836Y-37224D01*
X40836Y-37986D01*
X42360Y-36462D02*
X42360Y-37986D01*
X41598Y-37986D01*
X41344Y-37732D01*
X41344Y-37224D01*
X41598Y-36970D01*
X42360Y-36970D01*
X22401Y-34176D02*
X22401Y-32652D01*
X23163Y-32652D01*
X23416Y-32906D01*
X23416Y-33414D01*
X23163Y-33668D01*
X22401Y-33668D01*
X23924Y-32652D02*
X24940Y-32652D01*
X24432Y-32652D01*
X24432Y-34176D01*
X25448Y-32652D02*
X25448Y-34176D01*
X25448Y-33414D01*
X26463Y-33414D01*
X26463Y-32652D01*
X26463Y-34176D01*
X22401Y-37986D02*
X22401Y-36462D01*
X23163Y-36462D01*
X23416Y-36716D01*
X23416Y-37224D01*
X23163Y-37478D01*
X22401Y-37478D01*
X23924Y-36462D02*
X24940Y-36462D01*
X24432Y-36462D01*
X24432Y-37986D01*
X25448Y-36462D02*
X25448Y-37986D01*
X25448Y-37224D01*
X26463Y-37224D01*
X26463Y-36462D01*
X26463Y-37986D01*
X-5277Y-32906D02*
X-5023Y-32652D01*
X-4515Y-32652D01*
X-4262Y-32906D01*
X-4262Y-33160D01*
X-4515Y-33414D01*
X-4769Y-33414D01*
X-4515Y-33414D01*
X-4262Y-33668D01*
X-4262Y-33922D01*
X-4515Y-34176D01*
X-5023Y-34176D01*
X-5277Y-33922D01*
X-3754Y-33922D02*
X-3500Y-34176D01*
X-2992Y-34176D01*
X-2738Y-33922D01*
X-2738Y-32906D01*
X-2992Y-32652D01*
X-3500Y-32652D01*
X-3754Y-32906D01*
X-3754Y-33160D01*
X-3500Y-33414D01*
X-2738Y-33414D01*
X-2230Y-34176D02*
X-2230Y-33922D01*
X-1976Y-33922D01*
X-1976Y-34176D01*
X-2230Y-34176D01*
X-961Y-32906D02*
X-707Y-32652D01*
X-199Y-32652D01*
X55Y-32906D01*
X55Y-33160D01*
X-199Y-33414D01*
X-453Y-33414D01*
X-199Y-33414D01*
X55Y-33668D01*
X55Y-33922D01*
X-199Y-34176D01*
X-707Y-34176D01*
X-961Y-33922D01*
X563Y-32652D02*
X1579Y-32652D01*
X1579Y-32906D01*
X563Y-33922D01*
X563Y-34176D01*
X2086Y-34176D02*
X2086Y-33160D01*
X2340Y-33160D01*
X2594Y-33414D01*
X2594Y-34176D01*
X2594Y-33414D01*
X2848Y-33160D01*
X3102Y-33414D01*
X3102Y-34176D01*
X3610Y-34176D02*
X4118Y-34176D01*
X3864Y-34176D01*
X3864Y-33160D01*
X3610Y-33160D01*
X4880Y-34176D02*
X5387Y-34176D01*
X5133Y-34176D01*
X5133Y-32652D01*
X4880Y-32652D01*
X8180Y-34176D02*
X7673Y-33668D01*
X7673Y-33160D01*
X8180Y-32652D01*
X8942Y-34176D02*
X9450Y-34176D01*
X9196Y-34176D01*
X9196Y-32652D01*
X8942Y-32906D01*
X10212Y-34176D02*
X10212Y-33922D01*
X10466Y-33922D01*
X10466Y-34176D01*
X10212Y-34176D01*
X11481Y-32906D02*
X11735Y-32652D01*
X12243Y-32652D01*
X12497Y-32906D01*
X12497Y-33922D01*
X12243Y-34176D01*
X11735Y-34176D01*
X11481Y-33922D01*
X11481Y-32906D01*
X13005Y-32906D02*
X13259Y-32652D01*
X13767Y-32652D01*
X14021Y-32906D01*
X14021Y-33922D01*
X13767Y-34176D01*
X13259Y-34176D01*
X13005Y-33922D01*
X13005Y-32906D01*
X14528Y-32906D02*
X14782Y-32652D01*
X15290Y-32652D01*
X15544Y-32906D01*
X15544Y-33922D01*
X15290Y-34176D01*
X14782Y-34176D01*
X14528Y-33922D01*
X14528Y-32906D01*
X16052Y-34176D02*
X16052Y-33160D01*
X16306Y-33160D01*
X16560Y-33414D01*
X16560Y-34176D01*
X16560Y-33414D01*
X16814Y-33160D01*
X17068Y-33414D01*
X17068Y-34176D01*
X17575Y-34176D02*
X17575Y-33160D01*
X17829Y-33160D01*
X18083Y-33414D01*
X18083Y-34176D01*
X18083Y-33414D01*
X18337Y-33160D01*
X18591Y-33414D01*
X18591Y-34176D01*
X19099Y-34176D02*
X19607Y-33668D01*
X19607Y-33160D01*
X19099Y-32652D01*
X-5277Y-37986D02*
X-4769Y-37986D01*
X-5023Y-37986D01*
X-5023Y-36462D01*
X-5277Y-36716D01*
X-2992Y-36462D02*
X-4008Y-36462D01*
X-4008Y-37224D01*
X-3500Y-36970D01*
X-3246Y-36970D01*
X-2992Y-37224D01*
X-2992Y-37732D01*
X-3246Y-37986D01*
X-3754Y-37986D01*
X-4008Y-37732D01*
X-2484Y-37986D02*
X-2484Y-37732D01*
X-2230Y-37732D01*
X-2230Y-37986D01*
X-2484Y-37986D01*
X-1215Y-36462D02*
X-199Y-36462D01*
X-199Y-36716D01*
X-1215Y-37732D01*
X-1215Y-37986D01*
X1325Y-36462D02*
X309Y-36462D01*
X309Y-37224D01*
X817Y-36970D01*
X1071Y-36970D01*
X1325Y-37224D01*
X1325Y-37732D01*
X1071Y-37986D01*
X563Y-37986D01*
X309Y-37732D01*
X1833Y-37986D02*
X1833Y-36970D01*
X2086Y-36970D01*
X2340Y-37224D01*
X2340Y-37986D01*
X2340Y-37224D01*
X2594Y-36970D01*
X2848Y-37224D01*
X2848Y-37986D01*
X3356Y-37986D02*
X3864Y-37986D01*
X3610Y-37986D01*
X3610Y-36970D01*
X3356Y-36970D01*
X4626Y-37986D02*
X5133Y-37986D01*
X4880Y-37986D01*
X4880Y-36462D01*
X4626Y-36462D01*
X7927Y-37986D02*
X7419Y-37478D01*
X7419Y-36970D01*
X7927Y-36462D01*
X8688Y-36716D02*
X8942Y-36462D01*
X9450Y-36462D01*
X9704Y-36716D01*
X9704Y-37732D01*
X9450Y-37986D01*
X8942Y-37986D01*
X8688Y-37732D01*
X8688Y-36716D01*
X10212Y-37986D02*
X10212Y-37732D01*
X10466Y-37732D01*
X10466Y-37986D01*
X10212Y-37986D01*
X12243Y-37986D02*
X12243Y-36462D01*
X11481Y-37224D01*
X12497Y-37224D01*
X13005Y-36716D02*
X13259Y-36462D01*
X13767Y-36462D01*
X14021Y-36716D01*
X14021Y-37732D01*
X13767Y-37986D01*
X13259Y-37986D01*
X13005Y-37732D01*
X13005Y-36716D01*
X14528Y-36716D02*
X14782Y-36462D01*
X15290Y-36462D01*
X15544Y-36716D01*
X15544Y-37732D01*
X15290Y-37986D01*
X14782Y-37986D01*
X14528Y-37732D01*
X14528Y-36716D01*
X16052Y-37986D02*
X16052Y-36970D01*
X16306Y-36970D01*
X16560Y-37224D01*
X16560Y-37986D01*
X16560Y-37224D01*
X16814Y-36970D01*
X17068Y-37224D01*
X17068Y-37986D01*
X17575Y-37986D02*
X17575Y-36970D01*
X17829Y-36970D01*
X18083Y-37224D01*
X18083Y-37986D01*
X18083Y-37224D01*
X18337Y-36970D01*
X18591Y-37224D01*
X18591Y-37986D01*
X19099Y-37986D02*
X19607Y-37478D01*
X19607Y-36970D01*
X19099Y-36462D01*
X-18990Y-41542D02*
X-18736Y-41796D01*
X-18228Y-41796D01*
X-17974Y-41542D01*
X-17974Y-40526D01*
X-18228Y-40272D01*
X-18736Y-40272D01*
X-18990Y-40526D01*
X-18990Y-40780D01*
X-18736Y-41034D01*
X-17974Y-41034D01*
X-17466Y-40526D02*
X-17212Y-40272D01*
X-16704Y-40272D01*
X-16450Y-40526D01*
X-16450Y-41542D01*
X-16704Y-41796D01*
X-17212Y-41796D01*
X-17466Y-41542D01*
X-17466Y-40526D01*
X-14419Y-40272D02*
X-13403Y-40272D01*
X-13911Y-40272D01*
X-13911Y-41796D01*
X-12642Y-41796D02*
X-12134Y-41796D01*
X-11880Y-41542D01*
X-11880Y-41034D01*
X-12134Y-40780D01*
X-12642Y-40780D01*
X-12896Y-41034D01*
X-12896Y-41542D01*
X-12642Y-41796D01*
X-11118Y-40526D02*
X-11118Y-40780D01*
X-11372Y-40780D01*
X-10864Y-40780D01*
X-11118Y-40780D01*
X-11118Y-41542D01*
X-10864Y-41796D01*
X-9849Y-40780D02*
X-9341Y-40780D01*
X-9087Y-41034D01*
X-9087Y-41796D01*
X-9849Y-41796D01*
X-10103Y-41542D01*
X-9849Y-41288D01*
X-9087Y-41288D01*
X-8579Y-41796D02*
X-8071Y-41796D01*
X-8325Y-41796D01*
X-8325Y-40272D01*
X-8579Y-40272D01*
X-18990Y-34176D02*
X-18482Y-34176D01*
X-18736Y-34176D01*
X-18736Y-32652D01*
X-18990Y-32906D01*
X-17720Y-32906D02*
X-17466Y-32652D01*
X-16958Y-32652D01*
X-16704Y-32906D01*
X-16704Y-33160D01*
X-16958Y-33414D01*
X-16704Y-33668D01*
X-16704Y-33922D01*
X-16958Y-34176D01*
X-17466Y-34176D01*
X-17720Y-33922D01*
X-17720Y-33668D01*
X-17466Y-33414D01*
X-17720Y-33160D01*
X-17720Y-32906D01*
X-17466Y-33414D02*
X-16958Y-33414D01*
X-18990Y-36462D02*
X-17974Y-36462D01*
X-17974Y-36716D01*
X-18990Y-37732D01*
X-18990Y-37986D01*
X-16450Y-37986D02*
X-17466Y-37986D01*
X-16450Y-36970D01*
X-16450Y-36716D01*
X-16704Y-36462D01*
X-17212Y-36462D01*
X-17466Y-36716D01*
D52*
X-34125Y-31509D02*
X234380Y-31509D01*
X-34125Y-39129D02*
X234380Y-39129D01*
X-34125Y-42939D02*
X234380Y-42939D01*
X234380Y-27699D01*
X-34125Y-27699D02*
X234380Y-27699D01*
X-34125Y-42939D02*
X-34125Y-27699D01*
X199364Y-42939D02*
X199364Y-27699D01*
X165490Y-42939D02*
X165490Y-27699D01*
X143804Y-42939D02*
X143804Y-27699D01*
X124760Y-42939D02*
X124760Y-27699D01*
X105816Y-42939D02*
X105816Y-27699D01*
X90834Y-42939D02*
X90834Y-27699D01*
X52746Y-42939D02*
X52746Y-27699D01*
X34107Y-42939D02*
X34107Y-27699D01*
X21258Y-42939D02*
X21258Y-27699D01*
X-6420Y-42939D02*
X-6420Y-27699D01*
X-20133Y-42939D02*
X-20133Y-27699D01*
D53*
X11621Y26802D02*
X11748Y26675D01*
X11494Y26802D02*
X11621Y26802D01*
X11494Y26802D02*
X11621Y26929D01*
X11494Y27056D02*
X11621Y26929D01*
X11494Y27056D02*
X11621Y27056D01*
X11748Y27183D01*
X11875Y27056D01*
X12002Y27056D01*
X11875Y26929D02*
X12002Y27056D01*
X11875Y26929D02*
X12002Y26802D01*
X11875Y26802D02*
X12002Y26802D01*
X11748Y26675D02*
X11875Y26802D01*
X15736Y29176D02*
X15863Y29049D01*
X15609Y29176D02*
X15736Y29176D01*
X15609Y29176D02*
X15736Y29303D01*
X15609Y29430D02*
X15736Y29303D01*
X15609Y29430D02*
X15736Y29430D01*
X15863Y29557D01*
X15990Y29430D01*
X16117Y29430D01*
X15990Y29303D02*
X16117Y29430D01*
X15990Y29303D02*
X16117Y29176D01*
X15990Y29176D02*
X16117Y29176D01*
X15863Y29049D02*
X15990Y29176D01*
X9628Y30343D02*
X9755Y30216D01*
X9501Y30343D02*
X9628Y30343D01*
X9501Y30343D02*
X9628Y30470D01*
X9501Y30597D02*
X9628Y30470D01*
X9501Y30597D02*
X9628Y30597D01*
X9755Y30724D01*
X9882Y30597D01*
X10009Y30597D01*
X9882Y30470D02*
X10009Y30597D01*
X9882Y30470D02*
X10009Y30343D01*
X9882Y30343D02*
X10009Y30343D01*
X9755Y30216D02*
X9882Y30343D01*
X13247Y26357D02*
X13374Y26230D01*
X13120Y26357D02*
X13247Y26357D01*
X13120Y26357D02*
X13247Y26484D01*
X13120Y26611D02*
X13247Y26484D01*
X13120Y26611D02*
X13247Y26611D01*
X13374Y26738D01*
X13501Y26611D01*
X13628Y26611D01*
X13501Y26484D02*
X13628Y26611D01*
X13501Y26484D02*
X13628Y26357D01*
X13501Y26357D02*
X13628Y26357D01*
X13374Y26230D02*
X13501Y26357D01*
X20156Y25417D02*
X20283Y25290D01*
X20029Y25417D02*
X20156Y25417D01*
X20029Y25417D02*
X20156Y25544D01*
X20029Y25671D02*
X20156Y25544D01*
X20029Y25671D02*
X20156Y25671D01*
X20283Y25798D01*
X20410Y25671D01*
X20537Y25671D01*
X20410Y25544D02*
X20537Y25671D01*
X20410Y25544D02*
X20537Y25417D01*
X20410Y25417D02*
X20537Y25417D01*
X20283Y25290D02*
X20410Y25417D01*
X7735Y24198D02*
X7862Y24071D01*
X7608Y24198D02*
X7735Y24198D01*
X7608Y24198D02*
X7735Y24325D01*
X7608Y24452D02*
X7735Y24325D01*
X7608Y24452D02*
X7735Y24452D01*
X7862Y24579D01*
X7989Y24452D01*
X8116Y24452D01*
X7989Y24325D02*
X8116Y24452D01*
X7989Y24325D02*
X8116Y24198D01*
X7989Y24198D02*
X8116Y24198D01*
X7862Y24071D02*
X7989Y24198D01*
X11621Y19601D02*
X11748Y19474D01*
X11494Y19601D02*
X11621Y19601D01*
X11494Y19601D02*
X11621Y19728D01*
X11494Y19855D02*
X11621Y19728D01*
X11494Y19855D02*
X11621Y19855D01*
X11748Y19982D01*
X11875Y19855D01*
X12002Y19855D01*
X11875Y19728D02*
X12002Y19855D01*
X11875Y19728D02*
X12002Y19601D01*
X11875Y19601D02*
X12002Y19601D01*
X11748Y19474D02*
X11875Y19601D01*
X19190Y2405D02*
X19317Y2278D01*
X19063Y2405D02*
X19190Y2405D01*
X19063Y2405D02*
X19190Y2532D01*
X19063Y2659D02*
X19190Y2532D01*
X19063Y2659D02*
X19190Y2659D01*
X19317Y2786D01*
X19444Y2659D01*
X19571Y2659D01*
X19444Y2532D02*
X19571Y2659D01*
X19444Y2532D02*
X19571Y2405D01*
X19444Y2405D02*
X19571Y2405D01*
X19317Y2278D02*
X19444Y2405D01*
X18479Y19118D02*
X18606Y18991D01*
X18352Y19118D02*
X18479Y19118D01*
X18352Y19118D02*
X18479Y19245D01*
X18352Y19372D02*
X18479Y19245D01*
X18352Y19372D02*
X18479Y19372D01*
X18606Y19499D01*
X18733Y19372D01*
X18860Y19372D01*
X18733Y19245D02*
X18860Y19372D01*
X18733Y19245D02*
X18860Y19118D01*
X18733Y19118D02*
X18860Y19118D01*
X18606Y18991D02*
X18733Y19118D01*
X17006Y19118D02*
X17133Y18991D01*
X16879Y19118D02*
X17006Y19118D01*
X16879Y19118D02*
X17006Y19245D01*
X16879Y19372D02*
X17006Y19245D01*
X16879Y19372D02*
X17006Y19372D01*
X17133Y19499D01*
X17260Y19372D01*
X17387Y19372D01*
X17260Y19245D02*
X17387Y19372D01*
X17260Y19245D02*
X17387Y19118D01*
X17260Y19118D02*
X17387Y19118D01*
X17133Y18991D02*
X17260Y19118D01*
X16320Y15511D02*
X16447Y15384D01*
X16193Y15511D02*
X16320Y15511D01*
X16193Y15511D02*
X16320Y15638D01*
X16193Y15765D02*
X16320Y15638D01*
X16193Y15765D02*
X16320Y15765D01*
X16447Y15892D01*
X16574Y15765D01*
X16701Y15765D01*
X16574Y15638D02*
X16701Y15765D01*
X16574Y15638D02*
X16701Y15511D01*
X16574Y15511D02*
X16701Y15511D01*
X16447Y15384D02*
X16574Y15511D01*
X15253Y21125D02*
X15380Y20998D01*
X15126Y21125D02*
X15253Y21125D01*
X15126Y21125D02*
X15253Y21252D01*
X15126Y21379D02*
X15253Y21252D01*
X15126Y21379D02*
X15253Y21379D01*
X15380Y21506D01*
X15507Y21379D01*
X15634Y21379D01*
X15507Y21252D02*
X15634Y21379D01*
X15507Y21252D02*
X15634Y21125D01*
X15507Y21125D02*
X15634Y21125D01*
X15380Y20998D02*
X15507Y21125D01*
X13526Y21125D02*
X13653Y20998D01*
X13399Y21125D02*
X13526Y21125D01*
X13399Y21125D02*
X13526Y21252D01*
X13399Y21379D02*
X13526Y21252D01*
X13399Y21379D02*
X13526Y21379D01*
X13653Y21506D01*
X13780Y21379D01*
X13907Y21379D01*
X13780Y21252D02*
X13907Y21379D01*
X13780Y21252D02*
X13907Y21125D01*
X13780Y21125D02*
X13907Y21125D01*
X13653Y20998D02*
X13780Y21125D01*
X12688Y18864D02*
X12815Y18737D01*
X12561Y18864D02*
X12688Y18864D01*
X12561Y18864D02*
X12688Y18991D01*
X12561Y19118D02*
X12688Y18991D01*
X12561Y19118D02*
X12688Y19118D01*
X12815Y19245D01*
X12942Y19118D01*
X13069Y19118D01*
X12942Y18991D02*
X13069Y19118D01*
X12942Y18991D02*
X13069Y18864D01*
X12942Y18864D02*
X13069Y18864D01*
X12815Y18737D02*
X12942Y18864D01*
X15213Y15217D02*
X15340Y15090D01*
X15086Y15217D02*
X15213Y15217D01*
X15086Y15217D02*
X15213Y15344D01*
X15086Y15471D02*
X15213Y15344D01*
X15086Y15471D02*
X15213Y15471D01*
X15340Y15598D01*
X15467Y15471D01*
X15594Y15471D01*
X15467Y15344D02*
X15594Y15471D01*
X15467Y15344D02*
X15594Y15217D01*
X15467Y15217D02*
X15594Y15217D01*
X15340Y15090D02*
X15467Y15217D01*
X7837Y2989D02*
X7964Y2862D01*
X7710Y2989D02*
X7837Y2989D01*
X7710Y2989D02*
X7837Y3116D01*
X7710Y3243D02*
X7837Y3116D01*
X7710Y3243D02*
X7837Y3243D01*
X7964Y3370D01*
X8091Y3243D01*
X8218Y3243D01*
X8091Y3116D02*
X8218Y3243D01*
X8091Y3116D02*
X8218Y2989D01*
X8091Y2989D02*
X8218Y2989D01*
X7964Y2862D02*
X8091Y2989D01*
X9107Y10279D02*
X9234Y10152D01*
X8980Y10279D02*
X9107Y10279D01*
X8980Y10279D02*
X9107Y10406D01*
X8980Y10533D02*
X9107Y10406D01*
X8980Y10533D02*
X9107Y10533D01*
X9234Y10660D01*
X9361Y10533D01*
X9488Y10533D01*
X9361Y10406D02*
X9488Y10533D01*
X9361Y10406D02*
X9488Y10279D01*
X9361Y10279D02*
X9488Y10279D01*
X9234Y10152D02*
X9361Y10279D01*
X3493Y21074D02*
X3620Y20947D01*
X3366Y21074D02*
X3493Y21074D01*
X3366Y21074D02*
X3493Y21201D01*
X3366Y21328D02*
X3493Y21201D01*
X3366Y21328D02*
X3493Y21328D01*
X3620Y21455D01*
X3747Y21328D01*
X3874Y21328D01*
X3747Y21201D02*
X3874Y21328D01*
X3747Y21201D02*
X3874Y21074D01*
X3747Y21074D02*
X3874Y21074D01*
X3620Y20947D02*
X3747Y21074D01*
X6313Y8094D02*
X6440Y7967D01*
X6186Y8094D02*
X6313Y8094D01*
X6186Y8094D02*
X6313Y8221D01*
X6186Y8348D02*
X6313Y8221D01*
X6186Y8348D02*
X6313Y8348D01*
X6440Y8475D01*
X6567Y8348D01*
X6694Y8348D01*
X6567Y8221D02*
X6694Y8348D01*
X6567Y8221D02*
X6694Y8094D01*
X6567Y8094D02*
X6694Y8094D01*
X6440Y7967D02*
X6567Y8094D01*
X7430Y1465D02*
X7557Y1338D01*
X7303Y1465D02*
X7430Y1465D01*
X7303Y1465D02*
X7430Y1592D01*
X7303Y1719D02*
X7430Y1592D01*
X7303Y1719D02*
X7430Y1719D01*
X7557Y1846D01*
X7684Y1719D01*
X7811Y1719D01*
X7684Y1592D02*
X7811Y1719D01*
X7684Y1592D02*
X7811Y1465D01*
X7684Y1465D02*
X7811Y1465D01*
X7557Y1338D02*
X7684Y1465D01*
X13488Y15435D02*
X13615Y15308D01*
X13361Y15435D02*
X13488Y15435D01*
X13361Y15435D02*
X13488Y15562D01*
X13361Y15689D02*
X13488Y15562D01*
X13361Y15689D02*
X13488Y15689D01*
X13615Y15816D01*
X13742Y15689D01*
X13869Y15689D01*
X13742Y15562D02*
X13869Y15689D01*
X13742Y15562D02*
X13869Y15435D01*
X13742Y15435D02*
X13869Y15435D01*
X13615Y15308D02*
X13742Y15435D01*
X5525Y14775D02*
X5652Y14648D01*
X5398Y14775D02*
X5525Y14775D01*
X5398Y14775D02*
X5525Y14902D01*
X5398Y15029D02*
X5525Y14902D01*
X5398Y15029D02*
X5525Y15029D01*
X5652Y15156D01*
X5779Y15029D01*
X5906Y15029D01*
X5779Y14902D02*
X5906Y15029D01*
X5779Y14902D02*
X5906Y14775D01*
X5779Y14775D02*
X5906Y14775D01*
X5652Y14648D02*
X5779Y14775D01*
X24296Y23233D02*
X24423Y23106D01*
X24169Y23233D02*
X24296Y23233D01*
X24169Y23233D02*
X24296Y23360D01*
X24169Y23487D02*
X24296Y23360D01*
X24169Y23487D02*
X24296Y23487D01*
X24423Y23614D01*
X24550Y23487D01*
X24677Y23487D01*
X24550Y23360D02*
X24677Y23487D01*
X24550Y23360D02*
X24677Y23233D01*
X24550Y23233D02*
X24677Y23233D01*
X24423Y23106D02*
X24550Y23233D01*
X24296Y25417D02*
X24423Y25290D01*
X24169Y25417D02*
X24296Y25417D01*
X24169Y25417D02*
X24296Y25544D01*
X24169Y25671D02*
X24296Y25544D01*
X24169Y25671D02*
X24296Y25671D01*
X24423Y25798D01*
X24550Y25671D01*
X24677Y25671D01*
X24550Y25544D02*
X24677Y25671D01*
X24550Y25544D02*
X24677Y25417D01*
X24550Y25417D02*
X24677Y25417D01*
X24423Y25290D02*
X24550Y25417D01*
X20257Y23436D02*
X20384Y23309D01*
X20130Y23436D02*
X20257Y23436D01*
X20130Y23436D02*
X20257Y23563D01*
X20130Y23690D02*
X20257Y23563D01*
X20130Y23690D02*
X20257Y23690D01*
X20384Y23817D01*
X20511Y23690D01*
X20638Y23690D01*
X20511Y23563D02*
X20638Y23690D01*
X20511Y23563D02*
X20638Y23436D01*
X20511Y23436D02*
X20638Y23436D01*
X20384Y23309D02*
X20511Y23436D01*
X19063Y20210D02*
X19190Y20083D01*
X18936Y20210D02*
X19063Y20210D01*
X18936Y20210D02*
X19063Y20337D01*
X18936Y20464D02*
X19063Y20337D01*
X18936Y20464D02*
X19063Y20464D01*
X19190Y20591D01*
X19317Y20464D01*
X19444Y20464D01*
X19317Y20337D02*
X19444Y20464D01*
X19317Y20337D02*
X19444Y20210D01*
X19317Y20210D02*
X19444Y20210D01*
X19190Y20083D02*
X19317Y20210D01*
X9259Y22598D02*
X9386Y22471D01*
X9132Y22598D02*
X9259Y22598D01*
X9132Y22598D02*
X9259Y22725D01*
X9132Y22852D02*
X9259Y22725D01*
X9132Y22852D02*
X9259Y22852D01*
X9386Y22979D01*
X9513Y22852D01*
X9640Y22852D01*
X9513Y22725D02*
X9640Y22852D01*
X9513Y22725D02*
X9640Y22598D01*
X9513Y22598D02*
X9640Y22598D01*
X9386Y22471D02*
X9513Y22598D01*
X8472Y20515D02*
X8599Y20388D01*
X8345Y20515D02*
X8472Y20515D01*
X8345Y20515D02*
X8472Y20642D01*
X8345Y20769D02*
X8472Y20642D01*
X8345Y20769D02*
X8472Y20769D01*
X8599Y20896D01*
X8726Y20769D01*
X8853Y20769D01*
X8726Y20642D02*
X8853Y20769D01*
X8726Y20642D02*
X8853Y20515D01*
X8726Y20515D02*
X8853Y20515D01*
X8599Y20388D02*
X8726Y20515D01*
X7608Y16781D02*
X7735Y16654D01*
X7481Y16781D02*
X7608Y16781D01*
X7481Y16781D02*
X7608Y16908D01*
X7481Y17035D02*
X7608Y16908D01*
X7481Y17035D02*
X7608Y17035D01*
X7735Y17162D01*
X7862Y17035D01*
X7989Y17035D01*
X7862Y16908D02*
X7989Y17035D01*
X7862Y16908D02*
X7989Y16781D01*
X7862Y16781D02*
X7989Y16781D01*
X7735Y16654D02*
X7862Y16781D01*
X10072Y8094D02*
X10199Y7967D01*
X9945Y8094D02*
X10072Y8094D01*
X9945Y8094D02*
X10072Y8221D01*
X9945Y8348D02*
X10072Y8221D01*
X9945Y8348D02*
X10072Y8348D01*
X10199Y8475D01*
X10326Y8348D01*
X10453Y8348D01*
X10326Y8221D02*
X10453Y8348D01*
X10326Y8221D02*
X10453Y8094D01*
X10326Y8094D02*
X10453Y8094D01*
X10199Y7967D02*
X10326Y8094D01*
X14898Y30421D02*
X15025Y30294D01*
X14771Y30421D02*
X14898Y30421D01*
X14771Y30421D02*
X14898Y30548D01*
X14771Y30675D02*
X14898Y30548D01*
X14771Y30675D02*
X14898Y30675D01*
X15025Y30802D01*
X15152Y30675D01*
X15279Y30675D01*
X15152Y30548D02*
X15279Y30675D01*
X15152Y30548D02*
X15279Y30421D01*
X15152Y30421D02*
X15279Y30421D01*
X15025Y30294D02*
X15152Y30421D01*
X16803Y30980D02*
X16930Y30853D01*
X16676Y30980D02*
X16803Y30980D01*
X16676Y30980D02*
X16803Y31107D01*
X16676Y31234D02*
X16803Y31107D01*
X16676Y31234D02*
X16803Y31234D01*
X16930Y31361D01*
X17057Y31234D01*
X17184Y31234D01*
X17057Y31107D02*
X17184Y31234D01*
X17057Y31107D02*
X17184Y30980D01*
X17057Y30980D02*
X17184Y30980D01*
X16930Y30853D02*
X17057Y30980D01*
X23610Y30116D02*
X23737Y29989D01*
X23483Y30116D02*
X23610Y30116D01*
X23483Y30116D02*
X23610Y30243D01*
X23483Y30370D02*
X23610Y30243D01*
X23483Y30370D02*
X23610Y30370D01*
X23737Y30497D01*
X23864Y30370D01*
X23991Y30370D01*
X23864Y30243D02*
X23991Y30370D01*
X23864Y30243D02*
X23991Y30116D01*
X23864Y30116D02*
X23991Y30116D01*
X23737Y29989D02*
X23864Y30116D01*
X20435Y20058D02*
X20562Y19931D01*
X20308Y20058D02*
X20435Y20058D01*
X20308Y20058D02*
X20435Y20185D01*
X20308Y20312D02*
X20435Y20185D01*
X20308Y20312D02*
X20435Y20312D01*
X20562Y20439D01*
X20689Y20312D01*
X20816Y20312D01*
X20689Y20185D02*
X20816Y20312D01*
X20689Y20185D02*
X20816Y20058D01*
X20689Y20058D02*
X20816Y20058D01*
X20562Y19931D02*
X20689Y20058D01*
X21172Y1236D02*
X21299Y1109D01*
X21045Y1236D02*
X21172Y1236D01*
X21045Y1236D02*
X21172Y1363D01*
X21045Y1490D02*
X21172Y1363D01*
X21045Y1490D02*
X21172Y1490D01*
X21299Y1617D01*
X21426Y1490D01*
X21553Y1490D01*
X21426Y1363D02*
X21553Y1490D01*
X21426Y1363D02*
X21553Y1236D01*
X21426Y1236D02*
X21553Y1236D01*
X21299Y1109D02*
X21426Y1236D01*
X11570Y2583D02*
X11697Y2456D01*
X11443Y2583D02*
X11570Y2583D01*
X11443Y2583D02*
X11570Y2710D01*
X11443Y2837D02*
X11570Y2710D01*
X11443Y2837D02*
X11570Y2837D01*
X11697Y2964D01*
X11824Y2837D01*
X11951Y2837D01*
X11824Y2710D02*
X11951Y2837D01*
X11824Y2710D02*
X11951Y2583D01*
X11824Y2583D02*
X11951Y2583D01*
X11697Y2456D02*
X11824Y2583D01*
X2249Y17619D02*
X2376Y17492D01*
X2122Y17619D02*
X2249Y17619D01*
X2122Y17619D02*
X2249Y17746D01*
X2122Y17873D02*
X2249Y17746D01*
X2122Y17873D02*
X2249Y17873D01*
X2376Y18000D01*
X2503Y17873D01*
X2630Y17873D01*
X2503Y17746D02*
X2630Y17873D01*
X2503Y17746D02*
X2630Y17619D01*
X2503Y17619D02*
X2630Y17619D01*
X2376Y17492D02*
X2503Y17619D01*
X2579Y9314D02*
X2706Y9187D01*
X2452Y9314D02*
X2579Y9314D01*
X2452Y9314D02*
X2579Y9441D01*
X2452Y9568D02*
X2579Y9441D01*
X2452Y9568D02*
X2579Y9568D01*
X2706Y9695D01*
X2833Y9568D01*
X2960Y9568D01*
X2833Y9441D02*
X2960Y9568D01*
X2833Y9441D02*
X2960Y9314D01*
X2833Y9314D02*
X2960Y9314D01*
X2706Y9187D02*
X2833Y9314D01*
X19267Y11574D02*
X19394Y11447D01*
X19140Y11574D02*
X19267Y11574D01*
X19140Y11574D02*
X19267Y11701D01*
X19140Y11828D02*
X19267Y11701D01*
X19140Y11828D02*
X19267Y11828D01*
X19394Y11955D01*
X19521Y11828D01*
X19648Y11828D01*
X19521Y11701D02*
X19648Y11828D01*
X19521Y11701D02*
X19648Y11574D01*
X19521Y11574D02*
X19648Y11574D01*
X19394Y11447D02*
X19521Y11574D01*
X19089Y10101D02*
X19216Y9974D01*
X18962Y10101D02*
X19089Y10101D01*
X18962Y10101D02*
X19089Y10228D01*
X18962Y10355D02*
X19089Y10228D01*
X18962Y10355D02*
X19089Y10355D01*
X19216Y10482D01*
X19343Y10355D01*
X19470Y10355D01*
X19343Y10228D02*
X19470Y10355D01*
X19343Y10228D02*
X19470Y10101D01*
X19343Y10101D02*
X19470Y10101D01*
X19216Y9974D02*
X19343Y10101D01*
X1944Y25951D02*
X2071Y25824D01*
X1817Y25951D02*
X1944Y25951D01*
X1817Y25951D02*
X1944Y26078D01*
X1817Y26205D02*
X1944Y26078D01*
X1817Y26205D02*
X1944Y26205D01*
X2071Y26332D01*
X2198Y26205D01*
X2325Y26205D01*
X2198Y26078D02*
X2325Y26205D01*
X2198Y26078D02*
X2325Y25951D01*
X2198Y25951D02*
X2325Y25951D01*
X2071Y25824D02*
X2198Y25951D01*
X1944Y28237D02*
X2071Y28110D01*
X1817Y28237D02*
X1944Y28237D01*
X1817Y28237D02*
X1944Y28364D01*
X1817Y28491D02*
X1944Y28364D01*
X1817Y28491D02*
X1944Y28491D01*
X2071Y28618D01*
X2198Y28491D01*
X2325Y28491D01*
X2198Y28364D02*
X2325Y28491D01*
X2198Y28364D02*
X2325Y28237D01*
X2198Y28237D02*
X2325Y28237D01*
X2071Y28110D02*
X2198Y28237D01*
X1944Y30523D02*
X2071Y30396D01*
X1817Y30523D02*
X1944Y30523D01*
X1817Y30523D02*
X1944Y30650D01*
X1817Y30777D02*
X1944Y30650D01*
X1817Y30777D02*
X1944Y30777D01*
X2071Y30904D01*
X2198Y30777D01*
X2325Y30777D01*
X2198Y30650D02*
X2325Y30777D01*
X2198Y30650D02*
X2325Y30523D01*
X2198Y30523D02*
X2325Y30523D01*
X2071Y30396D02*
X2198Y30523D01*
X1944Y32809D02*
X2071Y32682D01*
X1817Y32809D02*
X1944Y32809D01*
X1817Y32809D02*
X1944Y32936D01*
X1817Y33063D02*
X1944Y32936D01*
X1817Y33063D02*
X1944Y33063D01*
X2071Y33190D01*
X2198Y33063D01*
X2325Y33063D01*
X2198Y32936D02*
X2325Y33063D01*
X2198Y32936D02*
X2325Y32809D01*
X2198Y32809D02*
X2325Y32809D01*
X2071Y32682D02*
X2198Y32809D01*
X23610Y32961D02*
X23737Y32834D01*
X23483Y32961D02*
X23610Y32961D01*
X23483Y32961D02*
X23610Y33088D01*
X23483Y33215D02*
X23610Y33088D01*
X23483Y33215D02*
X23610Y33215D01*
X23737Y33342D01*
X23864Y33215D01*
X23991Y33215D01*
X23864Y33088D02*
X23991Y33215D01*
X23864Y33088D02*
X23991Y32961D01*
X23864Y32961D02*
X23991Y32961D01*
X23737Y32834D02*
X23864Y32961D01*
X20295Y13843D02*
X20422Y13716D01*
X20168Y13843D02*
X20295Y13843D01*
X20168Y13843D02*
X20295Y13970D01*
X20168Y14097D02*
X20295Y13970D01*
X20168Y14097D02*
X20295Y14097D01*
X20422Y14224D01*
X20549Y14097D01*
X20676Y14097D01*
X20549Y13970D02*
X20676Y14097D01*
X20549Y13970D02*
X20676Y13843D01*
X20549Y13843D02*
X20676Y13843D01*
X20422Y13716D02*
X20549Y13843D01*
X10504Y20439D02*
X10631Y20312D01*
X10377Y20439D02*
X10504Y20439D01*
X10377Y20439D02*
X10504Y20566D01*
X10377Y20693D02*
X10504Y20566D01*
X10377Y20693D02*
X10504Y20693D01*
X10631Y20820D01*
X10758Y20693D01*
X10885Y20693D01*
X10758Y20566D02*
X10885Y20693D01*
X10758Y20566D02*
X10885Y20439D01*
X10758Y20439D02*
X10885Y20439D01*
X10631Y20312D02*
X10758Y20439D01*
X8345Y13174D02*
X8472Y13047D01*
X8218Y13174D02*
X8345Y13174D01*
X8218Y13174D02*
X8345Y13301D01*
X8218Y13428D02*
X8345Y13301D01*
X8218Y13428D02*
X8345Y13428D01*
X8472Y13555D01*
X8599Y13428D01*
X8726Y13428D01*
X8599Y13301D02*
X8726Y13428D01*
X8599Y13301D02*
X8726Y13174D01*
X8599Y13174D02*
X8726Y13174D01*
X8472Y13047D02*
X8599Y13174D01*
X13221Y4970D02*
X13348Y4843D01*
X13094Y4970D02*
X13221Y4970D01*
X13094Y4970D02*
X13221Y5097D01*
X13094Y5224D02*
X13221Y5097D01*
X13094Y5224D02*
X13221Y5224D01*
X13348Y5351D01*
X13475Y5224D01*
X13602Y5224D01*
X13475Y5097D02*
X13602Y5224D01*
X13475Y5097D02*
X13602Y4970D01*
X13475Y4970D02*
X13602Y4970D01*
X13348Y4843D02*
X13475Y4970D01*
X20232Y4970D02*
X20359Y4843D01*
X20105Y4970D02*
X20232Y4970D01*
X20105Y4970D02*
X20232Y5097D01*
X20105Y5224D02*
X20232Y5097D01*
X20105Y5224D02*
X20232Y5224D01*
X20359Y5351D01*
X20486Y5224D01*
X20613Y5224D01*
X20486Y5097D02*
X20613Y5224D01*
X20486Y5097D02*
X20613Y4970D01*
X20486Y4970D02*
X20613Y4970D01*
X20359Y4843D02*
X20486Y4970D01*
X5601Y28237D02*
X5728Y28110D01*
X5474Y28237D02*
X5601Y28237D01*
X5474Y28237D02*
X5601Y28364D01*
X5474Y28491D02*
X5601Y28364D01*
X5474Y28491D02*
X5601Y28491D01*
X5728Y28618D01*
X5855Y28491D01*
X5982Y28491D01*
X5855Y28364D02*
X5982Y28491D01*
X5855Y28364D02*
X5982Y28237D01*
X5855Y28237D02*
X5982Y28237D01*
X5728Y28110D02*
X5855Y28237D01*
X6821Y23385D02*
X6948Y23258D01*
X6694Y23385D02*
X6821Y23385D01*
X6694Y23385D02*
X6821Y23512D01*
X6694Y23639D02*
X6821Y23512D01*
X6694Y23639D02*
X6821Y23639D01*
X6948Y23766D01*
X7075Y23639D01*
X7202Y23639D01*
X7075Y23512D02*
X7202Y23639D01*
X7075Y23512D02*
X7202Y23385D01*
X7075Y23385D02*
X7202Y23385D01*
X6948Y23258D02*
X7075Y23385D01*
X1944Y23665D02*
X2071Y23538D01*
X1817Y23665D02*
X1944Y23665D01*
X1817Y23665D02*
X1944Y23792D01*
X1817Y23919D02*
X1944Y23792D01*
X1817Y23919D02*
X1944Y23919D01*
X2071Y24046D01*
X2198Y23919D01*
X2325Y23919D01*
X2198Y23792D02*
X2325Y23919D01*
X2198Y23792D02*
X2325Y23665D01*
X2198Y23665D02*
X2325Y23665D01*
X2071Y23538D02*
X2198Y23665D01*
X15634Y4970D02*
X15761Y4843D01*
X15507Y4970D02*
X15634Y4970D01*
X15507Y4970D02*
X15634Y5097D01*
X15507Y5224D02*
X15634Y5097D01*
X15507Y5224D02*
X15634Y5224D01*
X15761Y5351D01*
X15888Y5224D01*
X16015Y5224D01*
X15888Y5097D02*
X16015Y5224D01*
X15888Y5097D02*
X16015Y4970D01*
X15888Y4970D02*
X16015Y4970D01*
X15761Y4843D02*
X15888Y4970D01*
X8167Y32351D02*
X8294Y32224D01*
X8040Y32351D02*
X8167Y32351D01*
X8040Y32351D02*
X8167Y32478D01*
X8040Y32605D02*
X8167Y32478D01*
X8040Y32605D02*
X8167Y32605D01*
X8294Y32732D01*
X8421Y32605D01*
X8548Y32605D01*
X8421Y32478D02*
X8548Y32605D01*
X8421Y32478D02*
X8548Y32351D01*
X8421Y32351D02*
X8548Y32351D01*
X8294Y32224D02*
X8421Y32351D01*
X10834Y9618D02*
X10961Y9491D01*
X10707Y9618D02*
X10834Y9618D01*
X10707Y9618D02*
X10834Y9745D01*
X10707Y9872D02*
X10834Y9745D01*
X10707Y9872D02*
X10834Y9872D01*
X10961Y9999D01*
X11088Y9872D01*
X11215Y9872D01*
X11088Y9745D02*
X11215Y9872D01*
X11088Y9745D02*
X11215Y9618D01*
X11088Y9618D02*
X11215Y9618D01*
X10961Y9491D02*
X11088Y9618D01*
X12569Y9592D02*
X12696Y9465D01*
X12442Y9592D02*
X12569Y9592D01*
X12442Y9592D02*
X12569Y9719D01*
X12442Y9846D02*
X12569Y9719D01*
X12442Y9846D02*
X12569Y9846D01*
X12696Y9973D01*
X12823Y9846D01*
X12950Y9846D01*
X12823Y9719D02*
X12950Y9846D01*
X12823Y9719D02*
X12950Y9592D01*
X12823Y9592D02*
X12950Y9592D01*
X12696Y9465D02*
X12823Y9592D01*
X13843Y9644D02*
X13970Y9517D01*
X13716Y9644D02*
X13843Y9644D01*
X13716Y9644D02*
X13843Y9771D01*
X13716Y9898D02*
X13843Y9771D01*
X13716Y9898D02*
X13843Y9898D01*
X13970Y10025D01*
X14097Y9898D01*
X14224Y9898D01*
X14097Y9771D02*
X14224Y9898D01*
X14097Y9771D02*
X14224Y9644D01*
X14097Y9644D02*
X14224Y9644D01*
X13970Y9517D02*
X14097Y9644D01*
X15558Y9720D02*
X15685Y9593D01*
X15431Y9720D02*
X15558Y9720D01*
X15431Y9720D02*
X15558Y9847D01*
X15431Y9974D02*
X15558Y9847D01*
X15431Y9974D02*
X15558Y9974D01*
X15685Y10101D01*
X15812Y9974D01*
X15939Y9974D01*
X15812Y9847D02*
X15939Y9974D01*
X15812Y9847D02*
X15939Y9720D01*
X15812Y9720D02*
X15939Y9720D01*
X15685Y9593D02*
X15812Y9720D01*
X14237Y11803D02*
X14364Y11676D01*
X14110Y11803D02*
X14237Y11803D01*
X14110Y11803D02*
X14237Y11930D01*
X14110Y12057D02*
X14237Y11930D01*
X14110Y12057D02*
X14237Y12057D01*
X14364Y12184D01*
X14491Y12057D01*
X14618Y12057D01*
X14491Y11930D02*
X14618Y12057D01*
X14491Y11930D02*
X14618Y11803D01*
X14491Y11803D02*
X14618Y11803D01*
X14364Y11676D02*
X14491Y11803D01*
X8472Y11955D02*
X8599Y11828D01*
X8345Y11955D02*
X8472Y11955D01*
X8345Y11955D02*
X8472Y12082D01*
X8345Y12209D02*
X8472Y12082D01*
X8345Y12209D02*
X8472Y12209D01*
X8599Y12336D01*
X8726Y12209D01*
X8853Y12209D01*
X8726Y12082D02*
X8853Y12209D01*
X8726Y12082D02*
X8853Y11955D01*
X8726Y11955D02*
X8853Y11955D01*
X8599Y11828D02*
X8726Y11955D01*
X9894Y11371D02*
X10021Y11244D01*
X9767Y11371D02*
X9894Y11371D01*
X9767Y11371D02*
X9894Y11498D01*
X9767Y11625D02*
X9894Y11498D01*
X9767Y11625D02*
X9894Y11625D01*
X10021Y11752D01*
X10148Y11625D01*
X10275Y11625D01*
X10148Y11498D02*
X10275Y11625D01*
X10148Y11498D02*
X10275Y11371D01*
X10148Y11371D02*
X10275Y11371D01*
X10021Y11244D02*
X10148Y11371D01*
X12637Y32351D02*
X12764Y32224D01*
X12510Y32351D02*
X12637Y32351D01*
X12510Y32351D02*
X12637Y32478D01*
X12510Y32605D02*
X12637Y32478D01*
X12510Y32605D02*
X12637Y32605D01*
X12764Y32732D01*
X12891Y32605D01*
X13018Y32605D01*
X12891Y32478D02*
X13018Y32605D01*
X12891Y32478D02*
X13018Y32351D01*
X12891Y32351D02*
X13018Y32351D01*
X12764Y32224D02*
X12891Y32351D01*
X12637Y37177D02*
X12764Y37050D01*
X12510Y37177D02*
X12637Y37177D01*
X12510Y37177D02*
X12637Y37304D01*
X12510Y37431D02*
X12637Y37304D01*
X12510Y37431D02*
X12637Y37431D01*
X12764Y37558D01*
X12891Y37431D01*
X13018Y37431D01*
X12891Y37304D02*
X13018Y37431D01*
X12891Y37304D02*
X13018Y37177D01*
X12891Y37177D02*
X13018Y37177D01*
X12764Y37050D02*
X12891Y37177D01*
X12637Y41419D02*
X12764Y41292D01*
X12510Y41419D02*
X12637Y41419D01*
X12510Y41419D02*
X12637Y41546D01*
X12510Y41673D02*
X12637Y41546D01*
X12510Y41673D02*
X12637Y41673D01*
X12764Y41800D01*
X12891Y41673D01*
X13018Y41673D01*
X12891Y41546D02*
X13018Y41673D01*
X12891Y41546D02*
X13018Y41419D01*
X12891Y41419D02*
X13018Y41419D01*
X12764Y41292D02*
X12891Y41419D01*
X12637Y39298D02*
X12764Y39171D01*
X12510Y39298D02*
X12637Y39298D01*
X12510Y39298D02*
X12637Y39425D01*
X12510Y39552D02*
X12637Y39425D01*
X12510Y39552D02*
X12637Y39552D01*
X12764Y39679D01*
X12891Y39552D01*
X13018Y39552D01*
X12891Y39425D02*
X13018Y39552D01*
X12891Y39425D02*
X13018Y39298D01*
X12891Y39298D02*
X13018Y39298D01*
X12764Y39171D02*
X12891Y39298D01*
X10351Y17670D02*
X10478Y17543D01*
X10224Y17670D02*
X10351Y17670D01*
X10224Y17670D02*
X10351Y17797D01*
X10224Y17924D02*
X10351Y17797D01*
X10224Y17924D02*
X10351Y17924D01*
X10478Y18051D01*
X10605Y17924D01*
X10732Y17924D01*
X10605Y17797D02*
X10732Y17924D01*
X10605Y17797D02*
X10732Y17670D01*
X10605Y17670D02*
X10732Y17670D01*
X10478Y17543D02*
X10605Y17670D01*
X3595Y15410D02*
X3722Y15283D01*
X3468Y15410D02*
X3595Y15410D01*
X3468Y15410D02*
X3595Y15537D01*
X3468Y15664D02*
X3595Y15537D01*
X3468Y15664D02*
X3595Y15664D01*
X3722Y15791D01*
X3849Y15664D01*
X3976Y15664D01*
X3849Y15537D02*
X3976Y15664D01*
X3849Y15537D02*
X3976Y15410D01*
X3849Y15410D02*
X3976Y15410D01*
X3722Y15283D02*
X3849Y15410D01*
X17743Y10152D02*
X17870Y10025D01*
X17616Y10152D02*
X17743Y10152D01*
X17616Y10152D02*
X17743Y10279D01*
X17616Y10406D02*
X17743Y10279D01*
X17616Y10406D02*
X17743Y10406D01*
X17870Y10533D01*
X17997Y10406D01*
X18124Y10406D01*
X17997Y10279D02*
X18124Y10406D01*
X17997Y10279D02*
X18124Y10152D01*
X17997Y10152D02*
X18124Y10152D01*
X17870Y10025D02*
X17997Y10152D01*
X16854Y11727D02*
X16981Y11600D01*
X16727Y11727D02*
X16854Y11727D01*
X16727Y11727D02*
X16854Y11854D01*
X16727Y11981D02*
X16854Y11854D01*
X16727Y11981D02*
X16854Y11981D01*
X16981Y12108D01*
X17108Y11981D01*
X17235Y11981D01*
X17108Y11854D02*
X17235Y11981D01*
X17108Y11854D02*
X17235Y11727D01*
X17108Y11727D02*
X17235Y11727D01*
X16981Y11600D02*
X17108Y11727D01*
X7684Y8120D02*
X7811Y7993D01*
X7557Y8120D02*
X7684Y8120D01*
X7557Y8120D02*
X7684Y8247D01*
X7557Y8374D02*
X7684Y8247D01*
X7557Y8374D02*
X7684Y8374D01*
X7811Y8501D01*
X7938Y8374D01*
X8065Y8374D01*
X7938Y8247D02*
X8065Y8374D01*
X7938Y8247D02*
X8065Y8120D01*
X7938Y8120D02*
X8065Y8120D01*
X7811Y7993D02*
X7938Y8120D01*
X11303Y15418D02*
X11430Y15291D01*
X11176Y15418D02*
X11303Y15418D01*
X11176Y15418D02*
X11303Y15545D01*
X11176Y15672D02*
X11303Y15545D01*
X11176Y15672D02*
X11303Y15672D01*
X11430Y15799D01*
X11557Y15672D01*
X11684Y15672D01*
X11557Y15545D02*
X11684Y15672D01*
X11557Y15545D02*
X11684Y15418D01*
X11557Y15418D02*
X11684Y15418D01*
X11430Y15291D02*
X11557Y15418D01*
X11125Y34620D02*
X11633Y34620D01*
X11633Y35128D01*
X11125Y35128D02*
X11633Y35128D01*
X11125Y34620D02*
X11125Y35128D01*
X13665Y34620D02*
X14173Y34620D01*
X14173Y35128D01*
X13665Y35128D02*
X14173Y35128D01*
X13665Y34620D02*
X13665Y35128D01*
X23876Y6096D02*
X24384Y6096D01*
X24384Y6604D01*
X23876Y6604D02*
X24384Y6604D01*
X23876Y6096D02*
X23876Y6604D01*
X23876Y18796D02*
X24384Y18796D01*
X24384Y19304D01*
X23876Y19304D02*
X24384Y19304D01*
X23876Y18796D02*
X23876Y19304D01*
X23876Y16256D02*
X24384Y16256D01*
X24384Y16764D01*
X23876Y16764D02*
X24384Y16764D01*
X23876Y16256D02*
X23876Y16764D01*
X23876Y21336D02*
X24384Y21336D01*
X24384Y21844D01*
X23876Y21844D02*
X24384Y21844D01*
X23876Y21336D02*
X23876Y21844D01*
X23876Y11176D02*
X24384Y11176D01*
X24384Y11684D01*
X23876Y11684D02*
X24384Y11684D01*
X23876Y11176D02*
X23876Y11684D01*
X23876Y8636D02*
X24384Y8636D01*
X24384Y9144D01*
X23876Y9144D02*
X24384Y9144D01*
X23876Y8636D02*
X23876Y9144D01*
X23876Y13716D02*
X24384Y13716D01*
X24384Y14224D01*
X23876Y14224D02*
X24384Y14224D01*
X23876Y13716D02*
X23876Y14224D01*
X23876Y3556D02*
X24384Y3556D01*
X24384Y4064D01*
X23876Y4064D02*
X24384Y4064D01*
X23876Y3556D02*
X23876Y4064D01*
X1016Y16256D02*
X1524Y16256D01*
X1524Y16764D01*
X1016Y16764D02*
X1524Y16764D01*
X1016Y16256D02*
X1016Y16764D01*
X1016Y3556D02*
X1524Y3556D01*
X1524Y4064D01*
X1016Y4064D02*
X1524Y4064D01*
X1016Y3556D02*
X1016Y4064D01*
X1016Y13716D02*
X1524Y13716D01*
X1524Y14224D01*
X1016Y14224D02*
X1524Y14224D01*
X1016Y13716D02*
X1016Y14224D01*
X1016Y8636D02*
X1524Y8636D01*
X1524Y9144D01*
X1016Y9144D02*
X1524Y9144D01*
X1016Y8636D02*
X1016Y9144D01*
X1016Y6096D02*
X1524Y6096D01*
X1524Y6604D01*
X1016Y6604D02*
X1524Y6604D01*
X1016Y6096D02*
X1016Y6604D01*
X1016Y11176D02*
X1524Y11176D01*
X1524Y11684D01*
X1016Y11684D02*
X1524Y11684D01*
X1016Y11176D02*
X1016Y11684D01*
X1016Y18796D02*
X1524Y18796D01*
X1524Y19304D01*
X1016Y19304D02*
X1524Y19304D01*
X1016Y18796D02*
X1016Y19304D01*
X1016Y21336D02*
X1524Y21336D01*
X1524Y21844D01*
X1016Y21844D02*
X1524Y21844D01*
X1016Y21336D02*
X1016Y21844D01*
D54*
X200507Y-28537D02*
X200507Y-30366D01*
X200507Y-29452D01*
X201725Y-29452D01*
X201725Y-28537D01*
X201725Y-30366D01*
X202639Y-30366D02*
X203249Y-30366D01*
X203554Y-30061D01*
X203554Y-29452D01*
X203249Y-29147D01*
X202639Y-29147D01*
X202335Y-29452D01*
X202335Y-30061D01*
X202639Y-30366D01*
X204163Y-30366D02*
X204772Y-30366D01*
X204468Y-30366D01*
X204468Y-28537D01*
X204163Y-28537D01*
X206601Y-30366D02*
X205991Y-30366D01*
X205686Y-30061D01*
X205686Y-29452D01*
X205991Y-29147D01*
X206601Y-29147D01*
X206905Y-29452D01*
X206905Y-29756D01*
X205686Y-29756D01*
X209343Y-28537D02*
X210562Y-28537D01*
X209952Y-28537D01*
X209952Y-30366D01*
X211476Y-30366D02*
X212085Y-30366D01*
X212390Y-30061D01*
X212390Y-29452D01*
X212085Y-29147D01*
X211476Y-29147D01*
X211171Y-29452D01*
X211171Y-30061D01*
X211476Y-30366D01*
X212999Y-30366D02*
X213609Y-30366D01*
X213304Y-30366D01*
X213304Y-28537D01*
X212999Y-28537D01*
X215437Y-30366D02*
X214828Y-30366D01*
X214523Y-30061D01*
X214523Y-29452D01*
X214828Y-29147D01*
X215437Y-29147D01*
X215742Y-29452D01*
X215742Y-29756D01*
X214523Y-29756D01*
X216351Y-29147D02*
X216351Y-30366D01*
X216351Y-29756D01*
X216656Y-29452D01*
X216960Y-29147D01*
X217265Y-29147D01*
X218484Y-29147D02*
X219093Y-29147D01*
X219398Y-29452D01*
X219398Y-30366D01*
X218484Y-30366D01*
X218179Y-30061D01*
X218484Y-29756D01*
X219398Y-29756D01*
X220007Y-30366D02*
X220007Y-29147D01*
X220922Y-29147D01*
X221226Y-29452D01*
X221226Y-30366D01*
X223054Y-29147D02*
X222140Y-29147D01*
X221836Y-29452D01*
X221836Y-30061D01*
X222140Y-30366D01*
X223054Y-30366D01*
X224578Y-30366D02*
X223969Y-30366D01*
X223664Y-30061D01*
X223664Y-29452D01*
X223969Y-29147D01*
X224578Y-29147D01*
X224883Y-29452D01*
X224883Y-29756D01*
X223664Y-29756D01*
X227930Y-30366D02*
X227320Y-29756D01*
X227320Y-29147D01*
X227930Y-28537D01*
X228844Y-29452D02*
X230063Y-29452D01*
X230672Y-30366D02*
X231281Y-29756D01*
X231281Y-29147D01*
X230672Y-28537D01*
X166633Y-28537D02*
X166633Y-30366D01*
X166633Y-29452D01*
X167852Y-29452D01*
X167852Y-28537D01*
X167852Y-30366D01*
X168766Y-30366D02*
X169375Y-30366D01*
X169680Y-30061D01*
X169680Y-29452D01*
X169375Y-29147D01*
X168766Y-29147D01*
X168461Y-29452D01*
X168461Y-30061D01*
X168766Y-30366D01*
X170289Y-30366D02*
X170899Y-30366D01*
X170594Y-30366D01*
X170594Y-28537D01*
X170289Y-28537D01*
X172727Y-30366D02*
X172118Y-30366D01*
X171813Y-30061D01*
X171813Y-29452D01*
X172118Y-29147D01*
X172727Y-29147D01*
X173032Y-29452D01*
X173032Y-29756D01*
X171813Y-29756D01*
X175469Y-28537D02*
X176688Y-28537D01*
X176079Y-28537D01*
X176079Y-30366D01*
X177602Y-30366D02*
X178212Y-30366D01*
X178516Y-30061D01*
X178516Y-29452D01*
X178212Y-29147D01*
X177602Y-29147D01*
X177297Y-29452D01*
X177297Y-30061D01*
X177602Y-30366D01*
X179126Y-30366D02*
X179735Y-30366D01*
X179430Y-30366D01*
X179430Y-28537D01*
X179126Y-28537D01*
X181563Y-30366D02*
X180954Y-30366D01*
X180649Y-30061D01*
X180649Y-29452D01*
X180954Y-29147D01*
X181563Y-29147D01*
X181868Y-29452D01*
X181868Y-29756D01*
X180649Y-29756D01*
X182477Y-29147D02*
X182477Y-30366D01*
X182477Y-29756D01*
X182782Y-29452D01*
X183087Y-29147D01*
X183391Y-29147D01*
X184610Y-29147D02*
X185220Y-29147D01*
X185524Y-29452D01*
X185524Y-30366D01*
X184610Y-30366D01*
X184306Y-30061D01*
X184610Y-29756D01*
X185524Y-29756D01*
X186134Y-30366D02*
X186134Y-29147D01*
X187048Y-29147D01*
X187353Y-29452D01*
X187353Y-30366D01*
X189181Y-29147D02*
X188267Y-29147D01*
X187962Y-29452D01*
X187962Y-30061D01*
X188267Y-30366D01*
X189181Y-30366D01*
X190704Y-30366D02*
X190095Y-30366D01*
X189790Y-30061D01*
X189790Y-29452D01*
X190095Y-29147D01*
X190704Y-29147D01*
X191009Y-29452D01*
X191009Y-29756D01*
X189790Y-29756D01*
X194056Y-30366D02*
X193447Y-29756D01*
X193447Y-29147D01*
X194056Y-28537D01*
X194970Y-29452D02*
X196189Y-29452D01*
X195580Y-28842D02*
X195580Y-30061D01*
X196798Y-30366D02*
X197408Y-29756D01*
X197408Y-29147D01*
X196798Y-28537D01*
X144947Y-28537D02*
X144947Y-30366D01*
X145861Y-30366D01*
X146166Y-30061D01*
X146166Y-28842D01*
X145861Y-28537D01*
X144947Y-28537D01*
X147690Y-30366D02*
X147080Y-30366D01*
X146776Y-30061D01*
X146776Y-29452D01*
X147080Y-29147D01*
X147690Y-29147D01*
X147994Y-29452D01*
X147994Y-29756D01*
X146776Y-29756D01*
X148604Y-30366D02*
X149518Y-30366D01*
X149823Y-30061D01*
X149518Y-29756D01*
X148908Y-29756D01*
X148604Y-29452D01*
X148908Y-29147D01*
X149823Y-29147D01*
X151651Y-29147D02*
X150737Y-29147D01*
X150432Y-29452D01*
X150432Y-30061D01*
X150737Y-30366D01*
X151651Y-30366D01*
X152260Y-29147D02*
X152260Y-30366D01*
X152260Y-29756D01*
X152565Y-29452D01*
X152870Y-29147D01*
X153174Y-29147D01*
X154088Y-30366D02*
X154698Y-30366D01*
X154393Y-30366D01*
X154393Y-29147D01*
X154088Y-29147D01*
X155612Y-30975D02*
X155612Y-29147D01*
X156526Y-29147D01*
X156831Y-29452D01*
X156831Y-30061D01*
X156526Y-30366D01*
X155612Y-30366D01*
X157745Y-28842D02*
X157745Y-29147D01*
X157440Y-29147D01*
X158049Y-29147D01*
X157745Y-29147D01*
X157745Y-30061D01*
X158049Y-30366D01*
X158964Y-30366D02*
X159573Y-30366D01*
X159268Y-30366D01*
X159268Y-29147D01*
X158964Y-29147D01*
X160792Y-30366D02*
X161401Y-30366D01*
X161706Y-30061D01*
X161706Y-29452D01*
X161401Y-29147D01*
X160792Y-29147D01*
X160487Y-29452D01*
X160487Y-30061D01*
X160792Y-30366D01*
X162315Y-30366D02*
X162315Y-29147D01*
X163229Y-29147D01*
X163534Y-29452D01*
X163534Y-30366D01*
X125903Y-28537D02*
X127121Y-28537D01*
X126512Y-28537D01*
X126512Y-30366D01*
X128645Y-30366D02*
X128035Y-30366D01*
X127731Y-30061D01*
X127731Y-29452D01*
X128035Y-29147D01*
X128645Y-29147D01*
X128950Y-29452D01*
X128950Y-29756D01*
X127731Y-29756D01*
X129559Y-30366D02*
X129559Y-29147D01*
X129864Y-29147D01*
X130168Y-29452D01*
X130168Y-30366D01*
X130168Y-29452D01*
X130473Y-29147D01*
X130778Y-29452D01*
X130778Y-30366D01*
X131387Y-30975D02*
X131387Y-29147D01*
X132301Y-29147D01*
X132606Y-29452D01*
X132606Y-30061D01*
X132301Y-30366D01*
X131387Y-30366D01*
X133215Y-30366D02*
X133825Y-30366D01*
X133520Y-30366D01*
X133520Y-28537D01*
X133215Y-28537D01*
X135044Y-29147D02*
X135653Y-29147D01*
X135958Y-29452D01*
X135958Y-30366D01*
X135044Y-30366D01*
X134739Y-30061D01*
X135044Y-29756D01*
X135958Y-29756D01*
X136872Y-28842D02*
X136872Y-29147D01*
X136567Y-29147D01*
X137177Y-29147D01*
X136872Y-29147D01*
X136872Y-30061D01*
X137177Y-30366D01*
X139005Y-30366D02*
X138395Y-30366D01*
X138091Y-30061D01*
X138091Y-29452D01*
X138395Y-29147D01*
X139005Y-29147D01*
X139309Y-29452D01*
X139309Y-29756D01*
X138091Y-29756D01*
X106959Y-30366D02*
X106959Y-28537D01*
X107873Y-28537D01*
X108178Y-28842D01*
X108178Y-29452D01*
X107873Y-29756D01*
X106959Y-29756D01*
X109092Y-29147D02*
X109702Y-29147D01*
X110006Y-29452D01*
X110006Y-30366D01*
X109092Y-30366D01*
X108788Y-30061D01*
X109092Y-29756D01*
X110006Y-29756D01*
X111835Y-28537D02*
X111835Y-30366D01*
X110920Y-30366D01*
X110616Y-30061D01*
X110616Y-29452D01*
X110920Y-29147D01*
X111835Y-29147D01*
X115491Y-28842D02*
X115186Y-28537D01*
X114577Y-28537D01*
X114272Y-28842D01*
X114272Y-29147D01*
X114577Y-29452D01*
X115186Y-29452D01*
X115491Y-29756D01*
X115491Y-30061D01*
X115186Y-30366D01*
X114577Y-30366D01*
X114272Y-30061D01*
X116100Y-28537D02*
X116100Y-30366D01*
X116100Y-29452D01*
X116405Y-29147D01*
X117014Y-29147D01*
X117319Y-29452D01*
X117319Y-30366D01*
X118233Y-29147D02*
X118843Y-29147D01*
X119147Y-29452D01*
X119147Y-30366D01*
X118233Y-30366D01*
X117929Y-30061D01*
X118233Y-29756D01*
X119147Y-29756D01*
X119757Y-30975D02*
X119757Y-29147D01*
X120671Y-29147D01*
X120976Y-29452D01*
X120976Y-30061D01*
X120671Y-30366D01*
X119757Y-30366D01*
X122499Y-30366D02*
X121890Y-30366D01*
X121585Y-30061D01*
X121585Y-29452D01*
X121890Y-29147D01*
X122499Y-29147D01*
X122804Y-29452D01*
X122804Y-29756D01*
X121585Y-29756D01*
X91977Y-28537D02*
X91977Y-29756D01*
X92587Y-30366D01*
X93196Y-29756D01*
X93196Y-28537D01*
X93805Y-30366D02*
X94415Y-30366D01*
X94110Y-30366D01*
X94110Y-29147D01*
X93805Y-29147D01*
X95634Y-29147D02*
X96243Y-29147D01*
X96548Y-29452D01*
X96548Y-30366D01*
X95634Y-30366D01*
X95329Y-30061D01*
X95634Y-29756D01*
X96548Y-29756D01*
X97157Y-30366D02*
X98376Y-29147D01*
X98985Y-30366D02*
X98985Y-28537D01*
X99899Y-28537D01*
X100204Y-28842D01*
X100204Y-29452D01*
X99899Y-29756D01*
X98985Y-29756D01*
X101118Y-29147D02*
X101728Y-29147D01*
X102032Y-29452D01*
X102032Y-30366D01*
X101118Y-30366D01*
X100813Y-30061D01*
X101118Y-29756D01*
X102032Y-29756D01*
X103861Y-28537D02*
X103861Y-30366D01*
X102946Y-30366D01*
X102642Y-30061D01*
X102642Y-29452D01*
X102946Y-29147D01*
X103861Y-29147D01*
X53889Y-28537D02*
X53889Y-30366D01*
X54803Y-30366D01*
X55107Y-30061D01*
X55107Y-28842D01*
X54803Y-28537D01*
X53889Y-28537D01*
X55717Y-29147D02*
X55717Y-30366D01*
X55717Y-29756D01*
X56021Y-29452D01*
X56326Y-29147D01*
X56631Y-29147D01*
X57545Y-30366D02*
X58154Y-30366D01*
X57850Y-30366D01*
X57850Y-29147D01*
X57545Y-29147D01*
X59069Y-30366D02*
X59678Y-30366D01*
X59373Y-30366D01*
X59373Y-28537D01*
X59069Y-28537D01*
X60592Y-30366D02*
X61201Y-30366D01*
X60897Y-30366D01*
X60897Y-28537D01*
X60592Y-28537D01*
X63944Y-28537D02*
X63944Y-30366D01*
X65163Y-30366D01*
X66077Y-29147D02*
X66686Y-29147D01*
X66991Y-29452D01*
X66991Y-30366D01*
X66077Y-30366D01*
X65772Y-30061D01*
X66077Y-29756D01*
X66991Y-29756D01*
X67600Y-29147D02*
X67600Y-30061D01*
X67905Y-30366D01*
X68819Y-30366D01*
X68819Y-30670D01*
X68514Y-30975D01*
X68210Y-30975D01*
X68819Y-30366D02*
X68819Y-29147D01*
X70342Y-30366D02*
X69733Y-30366D01*
X69428Y-30061D01*
X69428Y-29452D01*
X69733Y-29147D01*
X70342Y-29147D01*
X70647Y-29452D01*
X70647Y-29756D01*
X69428Y-29756D01*
X71257Y-29147D02*
X71257Y-30366D01*
X71257Y-29756D01*
X71561Y-29452D01*
X71866Y-29147D01*
X72171Y-29147D01*
X74913Y-30366D02*
X74913Y-28537D01*
X75827Y-28537D01*
X76132Y-28842D01*
X76132Y-29452D01*
X75827Y-29756D01*
X74913Y-29756D01*
X77046Y-29147D02*
X77655Y-29147D01*
X77960Y-29452D01*
X77960Y-30366D01*
X77046Y-30366D01*
X76741Y-30061D01*
X77046Y-29756D01*
X77960Y-29756D01*
X78569Y-30366D02*
X79179Y-30366D01*
X78874Y-30366D01*
X78874Y-29147D01*
X78569Y-29147D01*
X80093Y-29147D02*
X80093Y-30366D01*
X80093Y-29756D01*
X80398Y-29452D01*
X80702Y-29147D01*
X81007Y-29147D01*
X35250Y-28537D02*
X35250Y-30366D01*
X35250Y-29452D01*
X36469Y-29452D01*
X36469Y-28537D01*
X36469Y-30366D01*
X37383Y-30366D02*
X37992Y-30366D01*
X38297Y-30061D01*
X38297Y-29452D01*
X37992Y-29147D01*
X37383Y-29147D01*
X37078Y-29452D01*
X37078Y-30061D01*
X37383Y-30366D01*
X38906Y-30366D02*
X39516Y-30366D01*
X39211Y-30366D01*
X39211Y-28537D01*
X38906Y-28537D01*
X41344Y-30366D02*
X40735Y-30366D01*
X40430Y-30061D01*
X40430Y-29452D01*
X40735Y-29147D01*
X41344Y-29147D01*
X41649Y-29452D01*
X41649Y-29756D01*
X40430Y-29756D01*
X44086Y-28537D02*
X45305Y-28537D01*
X44696Y-28537D01*
X44696Y-30366D01*
X45915Y-29147D02*
X45915Y-30061D01*
X46219Y-30366D01*
X47133Y-30366D01*
X47133Y-30670D01*
X46829Y-30975D01*
X46524Y-30975D01*
X47133Y-30366D02*
X47133Y-29147D01*
X47743Y-30975D02*
X47743Y-29147D01*
X48657Y-29147D01*
X48962Y-29452D01*
X48962Y-30061D01*
X48657Y-30366D01*
X47743Y-30366D01*
X50485Y-30366D02*
X49876Y-30366D01*
X49571Y-30061D01*
X49571Y-29452D01*
X49876Y-29147D01*
X50485Y-29147D01*
X50790Y-29452D01*
X50790Y-29756D01*
X49571Y-29756D01*
X22401Y-30366D02*
X22401Y-28537D01*
X23315Y-28537D01*
X23620Y-28842D01*
X23620Y-29452D01*
X23315Y-29756D01*
X22401Y-29756D01*
X24229Y-30366D02*
X24838Y-30366D01*
X24534Y-30366D01*
X24534Y-28537D01*
X24229Y-28537D01*
X26057Y-29147D02*
X26667Y-29147D01*
X26971Y-29452D01*
X26971Y-30366D01*
X26057Y-30366D01*
X25752Y-30061D01*
X26057Y-29756D01*
X26971Y-29756D01*
X27885Y-28842D02*
X27885Y-29147D01*
X27581Y-29147D01*
X28190Y-29147D01*
X27885Y-29147D01*
X27885Y-30061D01*
X28190Y-30366D01*
X30018Y-30366D02*
X29409Y-30366D01*
X29104Y-30061D01*
X29104Y-29452D01*
X29409Y-29147D01*
X30018Y-29147D01*
X30323Y-29452D01*
X30323Y-29756D01*
X29104Y-29756D01*
X32151Y-28537D02*
X32151Y-30366D01*
X31237Y-30366D01*
X30932Y-30061D01*
X30932Y-29452D01*
X31237Y-29147D01*
X32151Y-29147D01*
X-5277Y-28537D02*
X-5277Y-30366D01*
X-5277Y-29452D01*
X-4058Y-29452D01*
X-4058Y-28537D01*
X-4058Y-30366D01*
X-3144Y-30366D02*
X-2535Y-30366D01*
X-2230Y-30061D01*
X-2230Y-29452D01*
X-2535Y-29147D01*
X-3144Y-29147D01*
X-3449Y-29452D01*
X-3449Y-30061D01*
X-3144Y-30366D01*
X-1621Y-30366D02*
X-1011Y-30366D01*
X-1316Y-30366D01*
X-1316Y-28537D01*
X-1621Y-28537D01*
X817Y-30366D02*
X207Y-30366D01*
X-97Y-30061D01*
X-97Y-29452D01*
X207Y-29147D01*
X817Y-29147D01*
X1122Y-29452D01*
X1122Y-29756D01*
X-97Y-29756D01*
X4778Y-28842D02*
X4473Y-28537D01*
X3864Y-28537D01*
X3559Y-28842D01*
X3559Y-29147D01*
X3864Y-29452D01*
X4473Y-29452D01*
X4778Y-29756D01*
X4778Y-30061D01*
X4473Y-30366D01*
X3864Y-30366D01*
X3559Y-30061D01*
X5387Y-30366D02*
X5997Y-30366D01*
X5692Y-30366D01*
X5692Y-29147D01*
X5387Y-29147D01*
X6911Y-29147D02*
X8130Y-29147D01*
X6911Y-30366D01*
X8130Y-30366D01*
X9653Y-30366D02*
X9044Y-30366D01*
X8739Y-30061D01*
X8739Y-29452D01*
X9044Y-29147D01*
X9653Y-29147D01*
X9958Y-29452D01*
X9958Y-29756D01*
X8739Y-29756D01*
X-17771Y-28842D02*
X-18076Y-28537D01*
X-18685Y-28537D01*
X-18990Y-28842D01*
X-18990Y-30061D01*
X-18685Y-30366D01*
X-18076Y-30366D01*
X-17771Y-30061D01*
X-16857Y-30366D02*
X-16247Y-30366D01*
X-15943Y-30061D01*
X-15943Y-29452D01*
X-16247Y-29147D01*
X-16857Y-29147D01*
X-17161Y-29452D01*
X-17161Y-30061D01*
X-16857Y-30366D01*
X-15333Y-29147D02*
X-15333Y-30061D01*
X-15029Y-30366D01*
X-14114Y-30366D01*
X-14114Y-29147D01*
X-13505Y-30366D02*
X-13505Y-29147D01*
X-12591Y-29147D01*
X-12286Y-29452D01*
X-12286Y-30366D01*
X-11372Y-28842D02*
X-11372Y-29147D01*
X-11677Y-29147D01*
X-11067Y-29147D01*
X-11372Y-29147D01*
X-11372Y-30061D01*
X-11067Y-30366D01*
X-30620Y-28842D02*
X-30925Y-28537D01*
X-31534Y-28537D01*
X-31839Y-28842D01*
X-31839Y-29147D01*
X-31534Y-29452D01*
X-30925Y-29452D01*
X-30620Y-29756D01*
X-30620Y-30061D01*
X-30925Y-30366D01*
X-31534Y-30366D01*
X-31839Y-30061D01*
X-30011Y-29147D02*
X-30011Y-30061D01*
X-29706Y-30366D01*
X-28792Y-30366D01*
X-28792Y-30670D01*
X-29097Y-30975D01*
X-29401Y-30975D01*
X-28792Y-30366D02*
X-28792Y-29147D01*
X-28182Y-30366D02*
X-28182Y-29147D01*
X-27878Y-29147D01*
X-27573Y-29452D01*
X-27573Y-30366D01*
X-27573Y-29452D01*
X-27268Y-29147D01*
X-26964Y-29452D01*
X-26964Y-30366D01*
X-26354Y-28537D02*
X-26354Y-30366D01*
X-25440Y-30366D01*
X-25135Y-30061D01*
X-25135Y-29756D01*
X-25135Y-29452D01*
X-25440Y-29147D01*
X-26354Y-29147D01*
X-24221Y-30366D02*
X-23612Y-30366D01*
X-23307Y-30061D01*
X-23307Y-29452D01*
X-23612Y-29147D01*
X-24221Y-29147D01*
X-24526Y-29452D01*
X-24526Y-30061D01*
X-24221Y-30366D01*
X-22698Y-30366D02*
X-22088Y-30366D01*
X-22393Y-30366D01*
X-22393Y-28537D01*
X-22698Y-28537D01*
M02*
