M48
;Layer_Color=9474304
;FILE_FORMAT=4:3
METRIC,TZ
;TYPE=PLATED
T01F00S00C0.400
T02F00S00C1.000
%
T01
X7557Y1592
X7964Y3116
X11697Y2710
X13348Y5097
X15761Y5097
X20359Y5097
X19317Y2532
X21299Y1363
X19216Y10228
X17870Y10279
X16981Y11854
X19394Y11701
X20422Y13970
X16447Y15638
X15340Y15344
X13615Y15562
X11430Y15545
X10478Y17797
X10631Y20566
X11748Y19728
X12815Y18991
X13653Y21252
X15380Y21252
X17133Y19245
X18606Y19245
X19190Y20337
X20562Y20185
X20384Y23563
X20283Y25544
X24423Y25544
X24423Y23360
X23737Y30243
X23737Y33088
X16930Y31107
X15025Y30548
X15863Y29303
X13374Y26484
X11748Y26929
X9755Y30470
X8294Y32478
X12764Y32478
X5728Y28364
X2071Y28364
X2071Y30650
X2071Y32936
X2071Y26078
X2071Y23792
X3620Y21201
X2376Y17746
X3722Y15537
X5652Y14902
X7735Y16908
X8472Y13301
X8599Y12082
X10021Y11498
X9234Y10406
X10961Y9745
X12696Y9719
X13970Y9771
X15685Y9847
X14364Y11930
X10199Y8221
X7811Y8247
X6440Y8221
X2706Y9441
X8599Y20642
X9386Y22725
X7862Y24325
X6948Y23512
X12764Y37304
X12764Y39425
X12764Y41546
T02
X1270Y3810
X1270Y6350
X1270Y8890
X1270Y11430
X1270Y13970
X1270Y16510
X1270Y19050
X1270Y21590
X24130Y21590
X24130Y19050
X24130Y16510
X24130Y13970
X24130Y11430
X24130Y8890
X24130Y6350
X24130Y3810
X13919Y34874
X11379Y34874
M30
